<?xml version="1.0" encoding="UTF-8"?>
<svg version="1.1" xmlns="http://www.w3.org/2000/svg" width="460" height="82">
<path d="M0 0 C1.19221916 0.00424484 1.19221916 0.00424484 2.40852356 0.00857544 C4.94567963 0.01976545 7.48248197 0.04486759 10.01953125 0.0703125 C11.74022927 0.08034384 13.46093284 0.08946942 15.18164062 0.09765625 C19.39868324 0.11799895 23.61496155 0.15714897 27.83203125 0.1953125 C27.83203125 8.1153125 27.83203125 16.0353125 27.83203125 24.1953125 C23.87203125 24.1953125 19.91203125 24.1953125 15.83203125 24.1953125 C15.24421875 22.555625 15.24421875 22.555625 14.64453125 20.8828125 C13.09674599 17.21235032 11.34880839 16.08896173 7.83203125 14.1953125 C6.51953125 12.0078125 6.51953125 12.0078125 5.83203125 10.1953125 C4.88328125 10.2365625 3.93453125 10.2778125 2.95703125 10.3203125 C-0.16796875 10.1953125 -0.16796875 10.1953125 -2.16796875 8.1953125 C-3.15796875 8.5253125 -4.14796875 8.8553125 -5.16796875 9.1953125 C-7.49980482 9.86719747 -9.83298017 10.53446667 -12.16796875 11.1953125 C-12.16796875 12.8453125 -12.16796875 14.4953125 -12.16796875 16.1953125 C-13.15796875 16.1953125 -14.14796875 16.1953125 -15.16796875 16.1953125 C-16.19980142 19.2908105 -16.16441458 21.17767307 -16.15209961 24.40795898 C-16.13408106 29.40095378 -16.12254472 34.3939452 -16.11303711 39.38696289 C-16.1079957 41.54907719 -16.10116272 43.71118807 -16.0925293 45.87329102 C-16.08043982 48.97933798 -16.07473564 52.0853401 -16.0703125 55.19140625 C-16.06515121 56.16226669 -16.05998993 57.13312714 -16.05467224 58.13340759 C-16.05455894 59.47974022 -16.05455894 59.47974022 -16.05444336 60.85327148 C-16.05222275 61.64523422 -16.05000214 62.43719696 -16.04771423 63.25315857 C-16.16796875 65.1953125 -16.16796875 65.1953125 -17.16796875 67.1953125 C-16.50796875 67.8553125 -15.84796875 68.5153125 -15.16796875 69.1953125 C-14.54296875 71.3203125 -14.54296875 71.3203125 -14.16796875 73.1953125 C-7.83952858 73.42969917 -2.35414223 72.57001772 3.83203125 71.1953125 C3.83203125 65.9153125 3.83203125 60.6353125 3.83203125 55.1953125 C1.85203125 55.1953125 -0.12796875 55.1953125 -2.16796875 55.1953125 C-1.83796875 52.8853125 -1.50796875 50.5753125 -1.16796875 48.1953125 C9.39203125 48.1953125 19.95203125 48.1953125 30.83203125 48.1953125 C31.32703125 51.6603125 31.32703125 51.6603125 31.83203125 55.1953125 C29.19203125 55.1953125 26.55203125 55.1953125 23.83203125 55.1953125 C23.92742187 56.08734375 24.0228125 56.979375 24.12109375 57.8984375 C24.23195313 59.06890625 24.3428125 60.239375 24.45703125 61.4453125 C24.57304688 62.60546875 24.6890625 63.765625 24.80859375 64.9609375 C24.83166162 68.14430408 24.69194442 69.65016816 22.83203125 72.1953125 C20.20703125 72.9453125 20.20703125 72.9453125 17.83203125 73.1953125 C17.83203125 73.5253125 17.83203125 73.8553125 17.83203125 74.1953125 C22.08283312 75.21550495 24.15663432 75.5266393 28.14453125 73.5703125 C30.90287422 71.13270708 31.90714436 69.70988268 32.83203125 66.1953125 C32.83203125 65.5353125 32.83203125 64.8753125 32.83203125 64.1953125 C33.49203125 63.8653125 34.15203125 63.5353125 34.83203125 63.1953125 C35.29854332 61.06954468 35.29854332 61.06954468 35.45703125 58.6328125 C35.53179687 57.80652344 35.6065625 56.98023438 35.68359375 56.12890625 C35.75707031 55.17177734 35.75707031 55.17177734 35.83203125 54.1953125 C36.49203125 54.1953125 37.15203125 54.1953125 37.83203125 54.1953125 C38.83219312 52.19498877 39.32599133 50.36405502 39.83203125 48.1953125 C40.49203125 48.1953125 41.15203125 48.1953125 41.83203125 48.1953125 C41.83203125 46.8753125 41.83203125 45.5553125 41.83203125 44.1953125 C42.49203125 44.1953125 43.15203125 44.1953125 43.83203125 44.1953125 C43.83203125 42.5453125 43.83203125 40.8953125 43.83203125 39.1953125 C44.49203125 39.1953125 45.15203125 39.1953125 45.83203125 39.1953125 C44.84203125 36.2253125 44.84203125 36.2253125 43.83203125 33.1953125 C45.31703125 33.6903125 45.31703125 33.6903125 46.83203125 34.1953125 C47.16203125 32.2153125 47.49203125 30.2353125 47.83203125 28.1953125 C48.49203125 28.1953125 49.15203125 28.1953125 49.83203125 28.1953125 C50.60528948 25.3427044 51.08135384 22.57071487 51.39453125 19.6328125 C51.52021484 18.48619141 51.52021484 18.48619141 51.6484375 17.31640625 C51.87514812 15.05201245 51.87514812 15.05201245 51.83203125 12.1953125 C52.16203125 11.5353125 52.49203125 10.8753125 52.83203125 10.1953125 C53.82203125 10.6903125 53.82203125 10.6903125 54.83203125 11.1953125 C55.16203125 10.2053125 55.49203125 9.2153125 55.83203125 8.1953125 C56.49203125 7.8653125 57.15203125 7.5353125 57.83203125 7.1953125 C57.83203125 6.2053125 57.83203125 5.2153125 57.83203125 4.1953125 C58.49203125 4.1953125 59.15203125 4.1953125 59.83203125 4.1953125 C59.83203125 3.5353125 59.83203125 2.8753125 59.83203125 2.1953125 C68.20703125 2.1953125 68.20703125 2.1953125 71.83203125 3.1953125 C71.83203125 4.1853125 71.83203125 5.1753125 71.83203125 6.1953125 C70.51203125 6.5253125 69.19203125 6.8553125 67.83203125 7.1953125 C67.83203125 8.8453125 67.83203125 10.4953125 67.83203125 12.1953125 C68.82203125 12.6903125 68.82203125 12.6903125 69.83203125 13.1953125 C69.83203125 13.8553125 69.83203125 14.5153125 69.83203125 15.1953125 C70.82203125 16.1853125 70.82203125 16.1853125 71.83203125 17.1953125 C71.50203125 17.8553125 71.17203125 18.5153125 70.83203125 19.1953125 C71.49203125 19.5253125 72.15203125 19.8553125 72.83203125 20.1953125 C74.68136734 24.70306922 75.46920598 29.3405794 76.26953125 34.12109375 C76.45515625 34.80558594 76.64078125 35.49007812 76.83203125 36.1953125 C77.49203125 36.5253125 78.15203125 36.8553125 78.83203125 37.1953125 C80.76762242 41.06649485 81.45073112 45.07584375 82.171875 49.3046875 C82.38972656 49.92859375 82.60757813 50.5525 82.83203125 51.1953125 C84.31703125 51.6903125 84.31703125 51.6903125 85.83203125 52.1953125 C86.45703125 53.98046875 86.45703125 53.98046875 86.83203125 56.2578125 C87.44677012 59.52426395 88.23011219 62.48008178 89.45703125 65.5703125 C90.83203125 69.1953125 90.83203125 69.1953125 90.83203125 72.1953125 C91.47011719 72.18371094 92.10820312 72.17210938 92.765625 72.16015625 C93.59191406 72.15113281 94.41820312 72.14210938 95.26953125 72.1328125 C96.09324219 72.12121094 96.91695312 72.10960938 97.765625 72.09765625 C99.83203125 72.1953125 99.83203125 72.1953125 100.83203125 73.1953125 C102.0041617 71.40721553 103.16958651 69.61472125 104.33203125 67.8203125 C104.98171875 66.82257813 105.63140625 65.82484375 106.30078125 64.796875 C108.00111335 62.41117053 108.00111335 62.41117053 107.83203125 60.1953125 C108.82203125 59.2053125 108.82203125 59.2053125 109.83203125 58.1953125 C110.16203125 57.5353125 110.49203125 56.8753125 110.83203125 56.1953125 C111.47140625 55.4115625 112.11078125 54.6278125 112.76953125 53.8203125 C114.50674483 51.6093134 115.86886159 49.82213884 116.83203125 47.1953125 C116.50203125 46.2053125 116.17203125 45.2153125 115.83203125 44.1953125 C117.58203125 41.5078125 117.58203125 41.5078125 119.83203125 39.1953125 C120.82203125 39.1953125 121.81203125 39.1953125 122.83203125 39.1953125 C123.33863281 38.16470703 123.33863281 38.16470703 123.85546875 37.11328125 C124.52449219 35.76169922 124.52449219 35.76169922 125.20703125 34.3828125 C125.86832031 33.04283203 125.86832031 33.04283203 126.54296875 31.67578125 C127.83203125 29.1953125 127.83203125 29.1953125 129.83203125 26.1953125 C130.16203125 25.5353125 130.49203125 24.8753125 130.83203125 24.1953125 C131.49203125 23.5353125 132.15203125 22.8753125 132.83203125 22.1953125 C133.23421875 21.050625 133.23421875 21.050625 133.64453125 19.8828125 C135.11014552 16.56589599 137.22045197 14.66944024 139.83203125 12.1953125 C139.83203125 11.8653125 139.83203125 11.5353125 139.83203125 11.1953125 C132.90203125 10.8653125 125.97203125 10.5353125 118.83203125 10.1953125 C118.50203125 11.1853125 118.17203125 12.1753125 117.83203125 13.1953125 C117.17203125 13.1953125 116.51203125 13.1953125 115.83203125 13.1953125 C115.83203125 15.1753125 115.83203125 17.1553125 115.83203125 19.1953125 C114.51203125 19.1953125 113.19203125 19.1953125 111.83203125 19.1953125 C111.50203125 20.8453125 111.17203125 22.4953125 110.83203125 24.1953125 C108.52203125 24.1953125 106.21203125 24.1953125 103.83203125 24.1953125 C103.83203125 17.2653125 103.83203125 10.3353125 103.83203125 3.1953125 C107.7970473 1.21280447 109.24858767 0.94633465 113.50268555 0.95239258 C114.64033859 0.94931595 115.77799164 0.94623932 116.95011902 0.94306946 C118.17314224 0.95025497 119.39616547 0.95744049 120.65625 0.96484375 C121.9133931 0.96530197 123.17053619 0.96576019 124.46577454 0.9662323 C127.12128271 0.9692527 129.77644268 0.9760586 132.43188477 0.98950195 C135.84179903 1.00654336 139.25156527 1.01031463 142.66151714 1.00955677 C145.90977616 1.00989325 149.15800391 1.01872405 152.40625 1.02734375 C153.63534592 1.02845657 154.86444183 1.0295694 156.13078308 1.03071594 C157.82307793 1.04028572 157.82307793 1.04028572 159.54956055 1.05004883 C160.54787399 1.05386063 161.54618744 1.05767242 162.57475281 1.06159973 C164.83203125 1.1953125 164.83203125 1.1953125 165.83203125 2.1953125 C166.2890559 7.10832747 165.15741263 9.91661077 162.83203125 14.1953125 C162.68765625 14.8965625 162.54328125 15.5978125 162.39453125 16.3203125 C161.41946939 19.57051869 158.75814145 21.47500457 156.14453125 23.5078125 C154.5310002 25.27984099 154.5310002 25.27984099 154.45703125 28.5078125 C153.68998738 33.03337131 151.76372409 34.75057341 148.83203125 38.1953125 C147.95809325 41.41964377 147.95809325 41.41964377 147.83203125 44.1953125 C146.51203125 44.1953125 145.19203125 44.1953125 143.83203125 44.1953125 C143.72890625 44.9790625 143.62578125 45.7628125 143.51953125 46.5703125 C142.83203125 49.1953125 142.83203125 49.1953125 139.83203125 51.1953125 C139.50203125 52.1853125 139.17203125 53.1753125 138.83203125 54.1953125 C137.84203125 53.8653125 136.85203125 53.5353125 135.83203125 53.1953125 C136.16203125 54.5153125 136.49203125 55.8353125 136.83203125 57.1953125 C135.84203125 57.8553125 134.85203125 58.5153125 133.83203125 59.1953125 C133.17203125 60.1853125 132.51203125 61.1753125 131.83203125 62.1953125 C132.16203125 62.8553125 132.49203125 63.5153125 132.83203125 64.1953125 C131.8359375 66.140625 131.8359375 66.140625 130.39453125 68.3203125 C129.68490234 69.40699219 129.68490234 69.40699219 128.9609375 70.515625 C128.58839844 71.06992188 128.21585938 71.62421875 127.83203125 72.1953125 C129.02441406 72.18371094 130.21679688 72.17210938 131.4453125 72.16015625 C133.01171719 72.15077658 134.57812356 72.14167657 136.14453125 72.1328125 C136.93021484 72.12443359 137.71589844 72.11605469 138.52539062 72.10742188 C139.28271484 72.10419922 140.04003906 72.10097656 140.8203125 72.09765625 C141.51680908 72.09241943 142.21330566 72.08718262 142.9309082 72.08178711 C144.83203125 72.1953125 144.83203125 72.1953125 147.83203125 73.1953125 C148.16203125 72.5353125 148.49203125 71.8753125 148.83203125 71.1953125 C149.49203125 71.1953125 150.15203125 71.1953125 150.83203125 71.1953125 C151.49203125 70.5353125 152.15203125 69.8753125 152.83203125 69.1953125 C153.82203125 68.8653125 154.81203125 68.5353125 155.83203125 68.1953125 C156.18615469 66.86734959 156.51724679 65.53314643 156.83203125 64.1953125 C157.57453125 63.48375 157.57453125 63.48375 158.33203125 62.7578125 C160.29776203 60.71017627 160.45871686 58.95783901 160.83203125 56.1953125 C163.80203125 56.6903125 163.80203125 56.6903125 166.83203125 57.1953125 C166.86097057 60.82029584 166.87880917 64.44524963 166.89453125 68.0703125 C166.90291016 69.10285156 166.91128906 70.13539062 166.91992188 71.19921875 C166.92314453 72.18535156 166.92636719 73.17148438 166.9296875 74.1875 C166.93492432 75.09870605 166.94016113 76.00991211 166.94555664 76.94873047 C166.83203125 79.1953125 166.83203125 79.1953125 165.83203125 81.1953125 C152.94136846 81.34887576 140.05065631 81.49705754 127.15985203 81.6382761 C121.17481144 81.70401324 115.18980434 81.77163817 109.20483398 81.84350586 C103.43424128 81.91273103 97.66361335 81.9770909 91.89292717 82.03800774 C89.68598379 82.06217342 87.47905923 82.08812342 85.27215767 82.11584663 C82.19261753 82.15423384 79.11307285 82.18640405 76.03344727 82.21704102 C75.11131943 82.22998703 74.18919159 82.24293304 73.23912048 82.25627136 C71.10340342 82.27429005 68.9673438 82.24061564 66.83203125 82.1953125 C65.83203125 81.1953125 65.83203125 81.1953125 65.58203125 77.8203125 C65.83203125 74.1953125 65.83203125 74.1953125 67.34765625 72.46875 C67.8375 72.04851562 68.32734375 71.62828125 68.83203125 71.1953125 C68.3800688 69.58933925 67.92020798 67.98558742 67.45703125 66.3828125 C67.20179687 65.48949219 66.9465625 64.59617187 66.68359375 63.67578125 C65.87936464 60.99063354 65.87936464 60.99063354 63.83203125 58.1953125 C61.60086596 57.87216399 61.60086596 57.87216399 59.04296875 58.12109375 C58.10195312 58.17587891 57.1609375 58.23066406 56.19140625 58.28710938 C55.2065625 58.35994141 54.22171875 58.43277344 53.20703125 58.5078125 C52.21445313 58.56904297 51.221875 58.63027344 50.19921875 58.69335938 C47.74258963 58.84689869 45.28715546 59.01934073 42.83203125 59.1953125 C41.51203125 63.1553125 40.19203125 67.1153125 38.83203125 71.1953125 C40.81203125 71.8553125 42.79203125 72.5153125 44.83203125 73.1953125 C44.95703125 78.9453125 44.95703125 78.9453125 43.83203125 81.1953125 C40.29068456 82.3757614 37.07757911 82.34149974 33.39453125 82.3203125 C32.07582031 82.32289062 30.75710937 82.32546875 29.3984375 82.328125 C25.83203125 82.1953125 25.83203125 82.1953125 23.94799805 81.70678711 C21.40913665 81.0930898 19.01998843 80.98039972 16.41015625 80.87890625 C15.38535156 80.83701172 14.36054687 80.79511719 13.3046875 80.75195312 C12.24121094 80.71263672 11.17773438 80.67332031 10.08203125 80.6328125 C9.00308594 80.58962891 7.92414062 80.54644531 6.8125 80.50195312 C4.15246697 80.39602261 1.49234313 80.29394829 -1.16796875 80.1953125 C-1.16796875 80.8553125 -1.16796875 81.5153125 -1.16796875 82.1953125 C-8.67566106 82.56454327 -8.67566106 82.56454327 -11.16796875 80.6953125 C-11.49796875 80.2003125 -11.82796875 79.7053125 -12.16796875 79.1953125 C-12.16796875 79.8553125 -12.16796875 80.5153125 -12.16796875 81.1953125 C-18.20834594 79.57664933 -21.90049599 77.98005468 -26.16796875 73.1953125 C-26.82796875 73.1953125 -27.48796875 73.1953125 -28.16796875 73.1953125 C-35.67083076 66.08932732 -42.1007636 57.09581353 -42.43359375 46.5234375 C-42.43885878 44.83072934 -42.4334267 43.13795826 -42.41796875 41.4453125 C-42.42570312 40.58292969 -42.4334375 39.72054687 -42.44140625 38.83203125 C-42.43882813 38.00832031 -42.43625 37.18460938 -42.43359375 36.3359375 C-42.43133789 35.58860352 -42.42908203 34.84126953 -42.42675781 34.07128906 C-42.16796875 32.1953125 -42.16796875 32.1953125 -40.16796875 30.1953125 C-40.16796875 29.5353125 -40.16796875 28.8753125 -40.16796875 28.1953125 C-39.50796875 28.1953125 -38.84796875 28.1953125 -38.16796875 28.1953125 C-38.10609375 26.9784375 -38.04421875 25.7615625 -37.98046875 24.5078125 C-37.41188332 19.95112083 -35.65978342 18.21097062 -32.16796875 15.1953125 C-31.29702622 14.14651984 -30.44279488 13.083634 -29.60546875 12.0078125 C-27.36546755 9.42319573 -26.18594279 8.50310125 -23.16796875 7.1953125 C-22.72710938 6.70546875 -22.28625 6.215625 -21.83203125 5.7109375 C-19.78905921 3.8502024 -18.36878586 3.59645277 -15.66796875 3.1328125 C-9.93154866 2.12893899 -6.08944483 -0.08142615 0 0 Z M-6.16796875 1.1953125 C-6.16796875 1.5253125 -6.16796875 1.8553125 -6.16796875 2.1953125 C-3.85796875 2.1953125 -1.54796875 2.1953125 0.83203125 2.1953125 C0.83203125 1.8653125 0.83203125 1.5353125 0.83203125 1.1953125 C-1.47796875 1.1953125 -3.78796875 1.1953125 -6.16796875 1.1953125 Z M65.83203125 5.1953125 C66.83203125 7.1953125 66.83203125 7.1953125 66.83203125 7.1953125 Z M123.83203125 8.1953125 C123.83203125 8.5253125 123.83203125 8.8553125 123.83203125 9.1953125 C130.10203125 9.1953125 136.37203125 9.1953125 142.83203125 9.1953125 C142.83203125 8.8653125 142.83203125 8.5353125 142.83203125 8.1953125 C136.56203125 8.1953125 130.29203125 8.1953125 123.83203125 8.1953125 Z M-16.16796875 11.1953125 C-15.16796875 13.1953125 -15.16796875 13.1953125 -15.16796875 13.1953125 Z M54.83203125 11.1953125 C55.83203125 13.1953125 55.83203125 13.1953125 55.83203125 13.1953125 Z M112.83203125 13.1953125 C113.83203125 15.1953125 113.83203125 15.1953125 113.83203125 15.1953125 Z M53.83203125 14.1953125 C54.83203125 16.1953125 54.83203125 16.1953125 54.83203125 16.1953125 Z M111.83203125 16.1953125 C111.50203125 16.8553125 111.17203125 17.5153125 110.83203125 18.1953125 C111.49203125 18.1953125 112.15203125 18.1953125 112.83203125 18.1953125 C112.50203125 17.5353125 112.17203125 16.8753125 111.83203125 16.1953125 Z M109.83203125 19.1953125 C110.83203125 22.1953125 110.83203125 22.1953125 110.83203125 22.1953125 Z M150.83203125 30.1953125 C150.83203125 33.1953125 150.83203125 33.1953125 150.83203125 33.1953125 Z M52.83203125 32.1953125 C52.56648438 33.01515625 52.3009375 33.835 52.02734375 34.6796875 C51.67414063 35.75734375 51.3209375 36.835 50.95703125 37.9453125 C50.60898438 39.01265625 50.2609375 40.08 49.90234375 41.1796875 C48.83203125 44.1953125 48.83203125 44.1953125 46.83203125 48.1953125 C51.78203125 48.1953125 56.73203125 48.1953125 61.83203125 48.1953125 C61.21328125 46.7928125 60.59453125 45.3903125 59.95703125 43.9453125 C59.60898438 43.15640625 59.2609375 42.3675 58.90234375 41.5546875 C57.9278922 39.40662642 56.90216696 37.29702048 55.83203125 35.1953125 C55.83203125 35.8553125 55.83203125 36.5153125 55.83203125 37.1953125 C55.17203125 37.1953125 54.51203125 37.1953125 53.83203125 37.1953125 C53.83203125 35.5453125 53.83203125 33.8953125 53.83203125 32.1953125 C53.50203125 32.1953125 53.17203125 32.1953125 52.83203125 32.1953125 Z M147.83203125 34.1953125 C148.83203125 36.1953125 148.83203125 36.1953125 148.83203125 36.1953125 Z M146.83203125 36.1953125 C147.83203125 38.1953125 147.83203125 38.1953125 147.83203125 38.1953125 Z M-41.16796875 40.1953125 C-41.16796875 43.1653125 -41.16796875 46.1353125 -41.16796875 49.1953125 C-40.83796875 49.1953125 -40.50796875 49.1953125 -40.16796875 49.1953125 C-40.16796875 46.2253125 -40.16796875 43.2553125 -40.16796875 40.1953125 C-40.49796875 40.1953125 -40.82796875 40.1953125 -41.16796875 40.1953125 Z M120.83203125 40.1953125 C120.83203125 43.1953125 120.83203125 43.1953125 120.83203125 43.1953125 Z M141.83203125 44.1953125 C142.83203125 46.1953125 142.83203125 46.1953125 142.83203125 46.1953125 Z M-0.16796875 49.1953125 C-0.16796875 49.5253125 -0.16796875 49.8553125 -0.16796875 50.1953125 C9.40203125 50.1953125 18.97203125 50.1953125 28.83203125 50.1953125 C28.83203125 49.8653125 28.83203125 49.5353125 28.83203125 49.1953125 C19.26203125 49.1953125 9.69203125 49.1953125 -0.16796875 49.1953125 Z M47.83203125 49.1953125 C47.83203125 49.5253125 47.83203125 49.8553125 47.83203125 50.1953125 C52.45203125 50.1953125 57.07203125 50.1953125 61.83203125 50.1953125 C61.83203125 49.8653125 61.83203125 49.5353125 61.83203125 49.1953125 C57.21203125 49.1953125 52.59203125 49.1953125 47.83203125 49.1953125 Z M-39.16796875 54.1953125 C-38.16796875 57.1953125 -38.16796875 57.1953125 -38.16796875 57.1953125 Z M37.83203125 54.1953125 C38.83203125 56.1953125 38.83203125 56.1953125 38.83203125 56.1953125 Z M43.83203125 55.1953125 C43.83203125 55.5253125 43.83203125 55.8553125 43.83203125 56.1953125 C50.43203125 56.1953125 57.03203125 56.1953125 63.83203125 56.1953125 C63.83203125 55.8653125 63.83203125 55.5353125 63.83203125 55.1953125 C57.23203125 55.1953125 50.63203125 55.1953125 43.83203125 55.1953125 Z M-36.16796875 61.1953125 C-35.16796875 63.1953125 -35.16796875 63.1953125 -35.16796875 63.1953125 Z M128.83203125 64.1953125 C129.83203125 66.1953125 129.83203125 66.1953125 129.83203125 66.1953125 Z M127.83203125 66.1953125 C128.83203125 68.1953125 128.83203125 68.1953125 128.83203125 68.1953125 Z M-4.16796875 73.1953125 C-0.16796875 74.1953125 -0.16796875 74.1953125 -0.16796875 74.1953125 Z M39.83203125 73.1953125 C43.83203125 74.1953125 43.83203125 74.1953125 43.83203125 74.1953125 Z M98.83203125 75.1953125 C98.83203125 76.8453125 98.83203125 78.4953125 98.83203125 80.1953125 C99.82203125 79.8653125 100.81203125 79.5353125 101.83203125 79.1953125 C101.17203125 77.8753125 100.51203125 76.5553125 99.83203125 75.1953125 C99.50203125 75.1953125 99.17203125 75.1953125 98.83203125 75.1953125 Z M19.83203125 76.1953125 C20.16203125 77.1853125 20.49203125 78.1753125 20.83203125 79.1953125 C20.83203125 78.2053125 20.83203125 77.2153125 20.83203125 76.1953125 C20.50203125 76.1953125 20.17203125 76.1953125 19.83203125 76.1953125 Z M67.83203125 79.1953125 C67.83203125 79.5253125 67.83203125 79.8553125 67.83203125 80.1953125 C77.40203125 80.1953125 86.97203125 80.1953125 96.83203125 80.1953125 C96.83203125 79.8653125 96.83203125 79.5353125 96.83203125 79.1953125 C87.26203125 79.1953125 77.69203125 79.1953125 67.83203125 79.1953125 Z M131.83203125 79.1953125 C131.83203125 79.5253125 131.83203125 79.8553125 131.83203125 80.1953125 C142.39203125 80.1953125 152.95203125 80.1953125 163.83203125 80.1953125 C163.83203125 79.8653125 163.83203125 79.5353125 163.83203125 79.1953125 C153.27203125 79.1953125 142.71203125 79.1953125 131.83203125 79.1953125 Z " fill="#072C4C" transform="translate(44.16796875,-0.1953125)"/>
<path d="M0 0 C0.99 0.33 1.98 0.66 3 1 C3.33 0.67 3.66 0.34 4 0 C5.99958364 -0.04080783 8.00045254 -0.04254356 10 0 C10 0.99 10 1.98 10 3 C9.01 3.33 8.02 3.66 7 4 C7.495 5.3921875 7.495 5.3921875 8 6.8125 C9 10 9 10 9 13 C10.83494051 19.21056788 13.08227444 24.8357254 17 30 C17.53860121 31.71373113 18 33.20240366 18 35 C18.99 35.495 18.99 35.495 20 36 C20.37247578 37.9865375 20.6472092 39.99172193 20.875 42 C21.59638791 47.28823877 22.78294575 51.54747357 25.1953125 56.29296875 C26 58 26 58 26 60 C26.66 60 27.32 60 28 60 C27.67 61.65 27.34 63.3 27 65 C27.66 65.33 28.32 65.66 29 66 C29.2475 66.825 29.495 67.65 29.75 68.5 C30.1625 69.325 30.575 70.15 31 71 C34.05272465 71.89830839 34.05272465 71.89830839 37 72 C37.185625 73.7015625 37.185625 73.7015625 37.375 75.4375 C37.684375 77.2009375 37.684375 77.2009375 38 79 C38.66 79.33 39.32 79.66 40 80 C40 78.02 40 76.04 40 74 C40.66 73.67 41.32 73.34 42 73 C42.02312684 64.67271053 42.04091683 56.34543437 42.05181217 48.01812077 C42.05704026 44.15179882 42.06413654 40.28549879 42.07543945 36.41918945 C42.086271 32.69096599 42.0922774 28.96276366 42.09487724 25.23452568 C42.09673101 23.80910344 42.10035071 22.38368241 42.10573006 20.95826912 C42.11294393 18.96836592 42.11340808 16.97844166 42.11352539 14.98852539 C42.115746 13.85379288 42.11796661 12.71906036 42.12025452 11.54994202 C42.28974423 9.06540695 42.28974423 9.06540695 41 8 C40.85884839 5.32941149 40.95752893 2.67567762 41 0 C45.10540451 0.02274586 49.20800559 0.09997934 53.3125 0.1875 C55.06336914 0.19620117 55.06336914 0.19620117 56.84960938 0.20507812 C58.52700195 0.24858398 58.52700195 0.24858398 60.23828125 0.29296875 C61.26993408 0.3086792 62.30158691 0.32438965 63.36450195 0.34057617 C66 1 66 1 67.73120117 3.3371582 C68.35925659 4.65526489 68.35925659 4.65526489 69 6 C70.2704964 8.04049422 71.59431196 10.05017465 73 12 C73.66 12 74.32 12 75 12 C75.0825 12.78375 75.165 13.5675 75.25 14.375 C75.4975 15.24125 75.745 16.1075 76 17 C76.639375 17.28875 77.27875 17.5775 77.9375 17.875 C80 19 80 19 81.25 22.625 C81.4975 23.73875 81.745 24.8525 82 26 C82.99 25.505 82.99 25.505 84 25 C84.495 27.475 84.495 27.475 85 30 C86.485 30.495 86.485 30.495 88 31 C90 33 90 33 90 36 C90.33 36.99 90.66 37.98 91 39 C91.33 28.77 91.66 18.54 92 8 C90.68 8 89.36 8 88 8 C88.33 6.35 88.66 4.7 89 3 C94.61 3 100.22 3 106 3 C106 5.31 106 7.62 106 10 C104.68 10.33 103.36 10.66 102 11 C102.00444122 11.85999603 102.00888245 12.71999207 102.01345825 13.60604858 C102.05348445 21.69929279 102.08395862 29.79250389 102.10362434 37.8858242 C102.11407446 42.04697253 102.12825592 46.20803926 102.15087891 50.36914062 C102.17256371 54.38266429 102.18455937 58.39610933 102.18975449 62.40968704 C102.19345811 63.94314436 102.20069011 65.47659724 102.21146011 67.01002121 C102.22591729 69.15309801 102.2279804 71.29584736 102.22705078 73.43896484 C102.231492 74.66030121 102.23593323 75.88163757 102.24050903 77.13998413 C102 80 102 80 100 82 C97.375 82.125 97.375 82.125 95 82 C94.67 81.34 94.34 80.68 94 80 C93.360625 79.401875 92.72125 78.80375 92.0625 78.1875 C89.88287788 75.87577957 88.99582392 73.98747175 88 71 C87.34 71 86.68 71 86 71 C85.67 69.68 85.34 68.36 85 67 C84.34 67 83.68 67 83 67 C82.773125 66.113125 82.54625 65.22625 82.3125 64.3125 C80.78903012 60.46755221 79.0114458 58.80611995 76 56 C74.51645354 54.16899135 73.05711714 52.32464171 71.625 50.453125 C69.52461089 48.57489243 67.75281899 48.35340244 65 48 C65.02320313 47.15695313 65.04640625 46.31390625 65.0703125 45.4453125 C65.08835937 44.34960938 65.10640625 43.25390625 65.125 42.125 C65.14820313 41.03445312 65.17140625 39.94390625 65.1953125 38.8203125 C64.9538766 35.33397803 63.84190711 34.77714503 61.375 32.5 C60 31 60 31 60 29 C59.01 28.01 59.01 28.01 58 27 C58 26.34 58 25.68 58 25 C56.68 24.67 55.36 24.34 54 24 C54.00222061 24.59690643 54.00444122 25.19381287 54.00672913 25.80880737 C54.02880297 32.00518192 54.04391542 38.20154535 54.05493164 44.39794922 C54.05996943 46.71240696 54.06679981 49.0268615 54.07543945 51.34130859 C54.08752924 54.6624429 54.09323375 57.98353525 54.09765625 61.3046875 C54.10281754 62.34430634 54.10797882 63.38392517 54.11329651 64.45504761 C54.11337204 65.41589264 54.11344757 66.37673767 54.11352539 67.36669922 C54.115746 68.21497284 54.11796661 69.06324646 54.12025452 69.93722534 C54 72 54 72 53 74 C54.98 74 56.96 74 59 74 C59 76.31 59 78.62 59 81 C41.18 81 23.36 81 5 81 C5 74 5 74 6.5 72.0625 C6.995 71.711875 7.49 71.36125 8 71 C7.566875 70.34 7.13375 69.68 6.6875 69 C4.67535337 65.42285044 3.37571305 61.86509858 2 58 C-0.60409745 57.83218705 -3.2082682 57.66570349 -5.8125 57.5 C-6.55048828 57.45230469 -7.28847656 57.40460937 -8.04882812 57.35546875 C-11.03824588 57.16609387 -14.00374574 57 -17 57 C-20.31852744 64.75970709 -20.31852744 64.75970709 -22 73 C-19.36 73.33 -16.72 73.66 -14 74 C-14 75.65 -14 77.3 -14 79 C-21.92 79 -29.84 79 -38 79 C-38 76.69 -38 74.38 -38 72 C-36.7625 72 -35.525 72 -34.25 72 C-31.43379674 71.67543757 -30.37373449 71.46716811 -28.578125 69.22265625 C-26.60246413 65.28923517 -26.60246413 65.28923517 -26 61 C-25.34 61 -24.68 61 -24 61 C-23.90847656 60.35289063 -23.81695312 59.70578125 -23.72265625 59.0390625 C-22.56003671 54.14977601 -20.42634998 49.66619057 -18.43945312 45.0625 C-18.12814453 44.32773437 -17.81683594 43.59296875 -17.49609375 42.8359375 C-17.20919678 42.17126465 -16.9222998 41.5065918 -16.62670898 40.82177734 C-15.83735033 38.84828793 -15.83735033 38.84828793 -16 36 C-15.34 36 -14.68 36 -14 36 C-13.896875 34.783125 -13.79375 33.56625 -13.6875 32.3125 C-13.23584152 28.55310735 -12.09088785 26.18178586 -10 23 C-10 22.01 -10 21.02 -10 20 C-9.34 20 -8.68 20 -8 20 C-6.18972938 14.70843973 -4.58921525 9.36095277 -3 4 C-2.34 4 -1.68 4 -1 4 C-0.67 2.68 -0.34 1.36 0 0 Z M46 9 C46 29.79 46 50.58 46 72 C46.33 72 46.66 72 47 72 C47 51.21 47 30.42 47 9 C46.67 9 46.34 9 46 9 Z M94 10 C93.80784233 14.66267157 93.62910509 19.3255892 93.46289062 23.98925781 C93.4044236 25.57631279 93.34226486 27.16323619 93.27636719 28.75 C93.1823831 31.02840213 93.10160477 33.3069448 93.0234375 35.5859375 C92.99124115 36.29744965 92.9590448 37.00896179 92.9258728 37.74203491 C92.8723687 39.49404733 92.92725815 41.24868084 93 43 C93.66 43.66 94.32 44.32 95 45 C95 33.45 95 21.9 95 10 C94.67 10 94.34 10 94 10 Z M44 16 C44 34.48 44 52.96 44 72 C44.33 72 44.66 72 45 72 C45 53.52 45 35.04 45 16 C44.67 16 44.34 16 44 16 Z M52 16 C52 34.48 52 52.96 52 72 C52.33 72 52.66 72 53 72 C53.19324454 64.34648417 53.37073591 56.69272105 53.53710938 49.03857422 C53.59562461 46.43302072 53.65778939 43.82754658 53.72363281 41.22216797 C53.8174731 37.48419645 53.89832322 33.74613897 53.9765625 30.0078125 C54.00875885 28.83695099 54.0409552 27.66608948 54.0741272 26.45974731 C54.09429901 25.37877777 54.11447083 24.29780823 54.13525391 23.18408203 C54.15746002 22.22921906 54.17966614 21.27435608 54.20254517 20.29055786 C54.22947569 17.80142589 54.22947569 17.80142589 52 16 Z M55 21 C56 23 56 23 56 23 Z M14 28 C15 30 15 30 15 30 Z M-9 35 C-8 37 -8 37 -8 37 Z M-7 36 C-7 37.65 -7 39.3 -7 41 C-8.65 41.33 -10.3 41.66 -12 42 C-11.67 42.99 -11.34 43.98 -11 45 C-11 44.34 -11 43.68 -11 43 C-10.34 43 -9.68 43 -9 43 C-9 44.65 -9 46.3 -9 48 C-6.69 48 -4.38 48 -2 48 C-2.33 47.13375 -2.66 46.2675 -3 45.375 C-3.98731341 42.04281725 -4.16420974 39.44840462 -4 36 C-4.99 36 -5.98 36 -7 36 Z M18 38 C19 41 19 41 19 41 Z M-4 39 C-3.01 40.485 -3.01 40.485 -2 42 C-2 41.01 -2 40.02 -2 39 C-2.66 39 -3.32 39 -4 39 Z M68 40 C69 42 69 42 69 42 Z M-2 42 C-1 45 -1 45 -1 45 Z M68 43 C69 45 69 45 69 45 Z M-13 45 C-12 48 -12 48 -12 48 Z M-15 49 C-15 49.33 -15 49.66 -15 50 C-10.38 50 -5.76 50 -1 50 C-1 49.67 -1 49.34 -1 49 C-5.62 49 -10.24 49 -15 49 Z M74 49 C75 51 75 51 75 51 Z M4 58 C5 61 5 61 5 61 Z M7 66 C8 68 8 68 8 68 Z M8 68 C9 70 9 70 9 70 Z M10 79 C10 79.33 10 79.66 10 80 C18.25 80 26.5 80 35 80 C35 79.67 35 79.34 35 79 C26.75 79 18.5 79 10 79 Z " fill="#103956" transform="translate(350,0)"/>
<path d="M0 0 C-0.33 4.29 -0.66 8.58 -1 13 C-2.65 13 -4.3 13 -6 13 C-6 32.14 -6 51.28 -6 71 C-4.35 71 -2.7 71 -1 71 C-1 72.65 -1 74.3 -1 76 C-12.22 76.33 -23.44 76.66 -35 77 C-35.33 75.02 -35.66 73.04 -36 71 C-33.03 71 -30.06 71 -27 71 C-27.33 55.82 -27.66 40.64 -28 25 C-28.99 25.33 -29.98 25.66 -31 26 C-32.50786612 29.93720597 -33.0595559 33.43433157 -33.3125 37.625 C-33.83951727 44.19244604 -36.44652776 49.98850448 -39 56 C-39.66 56 -40.32 56 -41 56 C-41.17015625 56.76183594 -41.3403125 57.52367187 -41.515625 58.30859375 C-42.92220456 64.30152051 -44.55937398 69.8031931 -47.23046875 75.35546875 C-48.07063791 76.84834532 -48.07063791 76.84834532 -48 78 C-49.65 78 -51.3 78 -53 78 C-53.12375 76.80375 -53.2475 75.6075 -53.375 74.375 C-53.8212802 70.71420875 -54.80917573 67.49308452 -56 64 C-56 62.68 -56 61.36 -56 60 C-56.99 60.495 -56.99 60.495 -58 61 C-59.99960012 61.039992 -62.00047242 61.04346799 -64 61 C-63.855625 61.66386719 -63.71125 62.32773438 -63.5625 63.01171875 C-63.376875 63.89472656 -63.19125 64.77773437 -63 65.6875 C-62.814375 66.55761719 -62.62875 67.42773438 -62.4375 68.32421875 C-62 71 -62 71 -62 76 C-69.26 76 -76.52 76 -84 76 C-84 73.69 -84 71.38 -84 69 C-82.35 69 -80.7 69 -79 69 C-77.99413578 65.63991511 -77.84614266 62.53770083 -77.79467773 59.03808594 C-77.77473251 57.83714294 -77.75478729 56.63619995 -77.73423767 55.39886475 C-77.70916893 53.46119232 -77.70916893 53.46119232 -77.68359375 51.484375 C-77.66301037 50.14487079 -77.64201354 48.80537287 -77.62062073 47.46588135 C-77.56554291 43.94784659 -77.51607094 40.4297546 -77.46777344 36.91162109 C-77.41745375 33.31863336 -77.36182244 29.72572827 -77.30664062 26.1328125 C-77.199234 19.08861345 -77.09775051 12.0443402 -77 5 C-79.31 5 -81.62 5 -84 5 C-84 3.35 -84 1.7 -84 0 C-80.04903022 -0.04939662 -76.0981797 -0.08571755 -72.14697266 -0.10986328 C-70.1408864 -0.12488107 -68.13488676 -0.15028981 -66.12890625 -0.17578125 C-64.87207031 -0.18222656 -63.61523438 -0.18867187 -62.3203125 -0.1953125 C-61.15773926 -0.20578613 -59.99516602 -0.21625977 -58.79736328 -0.22705078 C-56 0 -56 0 -54 2 C-53.21875 4.13671875 -53.21875 4.13671875 -52.5 6.6875 C-52.24347656 7.58339844 -51.98695313 8.47929687 -51.72265625 9.40234375 C-51.48417969 10.25957031 -51.24570312 11.11679688 -51 12 C-50.02707407 15.43385622 -49.06285841 18.82190116 -47.875 22.1875 C-47 25 -47 25 -47 29 C-46.34 29.33 -45.68 29.66 -45 30 C-44.34 30.99 -43.68 31.98 -43 33 C-42.01 33 -41.02 33 -40 33 C-40 31.68 -40 30.36 -40 29 C-39.34 29 -38.68 29 -38 29 C-38.061875 27.741875 -38.12375 26.48375 -38.1875 25.1875 C-38.20830608 21.23434434 -38.20830608 21.23434434 -36.5 19.3125 C-36.005 18.879375 -35.51 18.44625 -35 18 C-34.74930087 15.37429296 -34.74930087 15.37429296 -35 13 C-34.34 13 -33.68 13 -33 13 C-32.79503906 12.14535156 -32.59007812 11.29070313 -32.37890625 10.41015625 C-32.10949219 9.30542969 -31.84007812 8.20070313 -31.5625 7.0625 C-31.29566406 5.96035156 -31.02882813 4.85820312 -30.75390625 3.72265625 C-30 1 -30 1 -29 0 C-24.72025747 -0.38596922 -20.41865025 -0.47051946 -16.125 -0.625 C-14.30935547 -0.70234375 -14.30935547 -0.70234375 -12.45703125 -0.78125 C-10.71873047 -0.84699219 -10.71873047 -0.84699219 -8.9453125 -0.9140625 C-7.87812988 -0.9548291 -6.81094727 -0.9955957 -5.71142578 -1.03759766 C-3 -1 -3 -1 0 0 Z M-8 5 C-8 26.78 -8 48.56 -8 71 C-7.67 71 -7.34 71 -7 71 C-7 49.22 -7 27.44 -7 5 C-7.33 5 -7.66 5 -8 5 Z M-28 13 C-28.6878236 15.35367713 -28.6878236 15.35367713 -29 18 C-28.01 19.485 -28.01 19.485 -27 21 C-27 18.36 -27 15.72 -27 13 C-27.33 13 -27.66 13 -28 13 Z M-72 14 C-72 15.65 -72 17.3 -72 19 C-71.01 19.495 -71.01 19.495 -70 20 C-70.33 18.02 -70.66 16.04 -71 14 C-71.33 14 -71.66 14 -72 14 Z M-72 20 C-71 22 -71 22 -71 22 Z M-70 20 C-69 23 -69 23 -69 23 Z M-72 23 C-71 26 -71 26 -71 26 Z M-71 26 C-72.4612027 27.23233585 -72.4612027 27.23233585 -72.11352539 30.96899414 C-72.1133662 32.74105607 -72.10766785 34.5131226 -72.09765625 36.28515625 C-72.0962413 37.21597519 -72.09482635 38.14679413 -72.09336853 39.1058197 C-72.08775172 42.09141191 -72.0751964 45.07693029 -72.0625 48.0625 C-72.05748716 50.08137913 -72.05292388 52.10025943 -72.04882812 54.11914062 C-72.03777683 59.07945572 -72.02050095 64.03971532 -72 69 C-69.3333581 70.33332095 -67.83319697 69.67102033 -65 69 C-64.9361952 60.66611164 -64.93172172 52.33388875 -65 44 C-65.00870117 42.76564209 -65.00870117 42.76564209 -65.01757812 41.50634766 C-65.04410255 39.56608623 -65.11331841 37.62652425 -65.1875 35.6875 C-65.22230469 34.66011719 -65.25710937 33.63273437 -65.29296875 32.57421875 C-66.24948743 29.09164521 -68.06579312 27.97017719 -71 26 Z M-66 32 C-65 34 -65 34 -65 34 Z M-44 35 C-43 37 -43 37 -43 37 Z M-35 35 C-34 38 -34 38 -34 38 Z M-42 37 C-41 39 -41 39 -41 39 Z M-64 39 C-64 40.65 -64 42.3 -64 44 C-63.34 43.34 -62.68 42.68 -62 42 C-62.66 41.01 -63.32 40.02 -64 39 Z M-43 39 C-42 42 -42 42 -42 42 Z M-38 44 C-37 46 -37 46 -37 46 Z M-40 50 C-40.33 51.65 -40.66 53.3 -41 55 C-40.34 54.67 -39.68 54.34 -39 54 C-39.33 52.68 -39.66 51.36 -40 50 Z M-58 57 C-58.33 57.66 -58.66 58.32 -59 59 C-58.34 59 -57.68 59 -57 59 C-57.33 58.34 -57.66 57.68 -58 57 Z M-68 70 C-64 71 -64 71 -64 71 Z " fill="#022547" transform="translate(312,3)"/>
<path d="M0 0 C1.19221916 0.00424484 1.19221916 0.00424484 2.40852356 0.00857544 C4.94567963 0.01976545 7.48248197 0.04486759 10.01953125 0.0703125 C11.74022927 0.08034384 13.46093284 0.08946942 15.18164062 0.09765625 C19.39868324 0.11799895 23.61496155 0.15714897 27.83203125 0.1953125 C27.83203125 8.1153125 27.83203125 16.0353125 27.83203125 24.1953125 C23.87203125 24.1953125 19.91203125 24.1953125 15.83203125 24.1953125 C15.24421875 22.555625 15.24421875 22.555625 14.64453125 20.8828125 C13.09674599 17.21235032 11.34880839 16.08896173 7.83203125 14.1953125 C6.51953125 12.0078125 6.51953125 12.0078125 5.83203125 10.1953125 C4.88328125 10.2365625 3.93453125 10.2778125 2.95703125 10.3203125 C-0.16796875 10.1953125 -0.16796875 10.1953125 -2.16796875 8.1953125 C-3.15796875 8.5253125 -4.14796875 8.8553125 -5.16796875 9.1953125 C-7.49980482 9.86719747 -9.83298017 10.53446667 -12.16796875 11.1953125 C-12.16796875 12.8453125 -12.16796875 14.4953125 -12.16796875 16.1953125 C-13.15796875 16.1953125 -14.14796875 16.1953125 -15.16796875 16.1953125 C-16.19980142 19.2908105 -16.16441458 21.17767307 -16.15209961 24.40795898 C-16.13408106 29.40095378 -16.12254472 34.3939452 -16.11303711 39.38696289 C-16.1079957 41.54907719 -16.10116272 43.71118807 -16.0925293 45.87329102 C-16.08043982 48.97933798 -16.07473564 52.0853401 -16.0703125 55.19140625 C-16.06515121 56.16226669 -16.05998993 57.13312714 -16.05467224 58.13340759 C-16.05455894 59.47974022 -16.05455894 59.47974022 -16.05444336 60.85327148 C-16.05222275 61.64523422 -16.05000214 62.43719696 -16.04771423 63.25315857 C-16.16796875 65.1953125 -16.16796875 65.1953125 -17.16796875 67.1953125 C-16.50796875 67.8553125 -15.84796875 68.5153125 -15.16796875 69.1953125 C-14.54296875 71.3203125 -14.54296875 71.3203125 -14.16796875 73.1953125 C-7.83952858 73.42969917 -2.35414223 72.57001772 3.83203125 71.1953125 C3.83203125 65.9153125 3.83203125 60.6353125 3.83203125 55.1953125 C1.85203125 55.1953125 -0.12796875 55.1953125 -2.16796875 55.1953125 C-1.83796875 52.8853125 -1.50796875 50.5753125 -1.16796875 48.1953125 C9.39203125 48.1953125 19.95203125 48.1953125 30.83203125 48.1953125 C31.32703125 51.6603125 31.32703125 51.6603125 31.83203125 55.1953125 C29.19203125 55.1953125 26.55203125 55.1953125 23.83203125 55.1953125 C23.92742187 56.08734375 24.0228125 56.979375 24.12109375 57.8984375 C24.23195313 59.06890625 24.3428125 60.239375 24.45703125 61.4453125 C24.57304688 62.60546875 24.6890625 63.765625 24.80859375 64.9609375 C24.83166162 68.14430408 24.69194442 69.65016816 22.83203125 72.1953125 C20.20703125 72.9453125 20.20703125 72.9453125 17.83203125 73.1953125 C17.83203125 73.5253125 17.83203125 73.8553125 17.83203125 74.1953125 C20.80203125 74.6903125 20.80203125 74.6903125 23.83203125 75.1953125 C22.84203125 76.1853125 21.85203125 77.1753125 20.83203125 78.1953125 C31.72203125 78.6903125 31.72203125 78.6903125 42.83203125 79.1953125 C43.16203125 79.8553125 43.49203125 80.5153125 43.83203125 81.1953125 C40.29068456 82.3757614 37.07757911 82.34149974 33.39453125 82.3203125 C32.07582031 82.32289062 30.75710937 82.32546875 29.3984375 82.328125 C25.83203125 82.1953125 25.83203125 82.1953125 23.94799805 81.70678711 C21.40913665 81.0930898 19.01998843 80.98039972 16.41015625 80.87890625 C15.38535156 80.83701172 14.36054687 80.79511719 13.3046875 80.75195312 C12.24121094 80.71263672 11.17773438 80.67332031 10.08203125 80.6328125 C9.00308594 80.58962891 7.92414062 80.54644531 6.8125 80.50195312 C4.15246697 80.39602261 1.49234313 80.29394829 -1.16796875 80.1953125 C-1.16796875 80.8553125 -1.16796875 81.5153125 -1.16796875 82.1953125 C-8.67566106 82.56454327 -8.67566106 82.56454327 -11.16796875 80.6953125 C-11.49796875 80.2003125 -11.82796875 79.7053125 -12.16796875 79.1953125 C-12.16796875 79.8553125 -12.16796875 80.5153125 -12.16796875 81.1953125 C-18.20834594 79.57664933 -21.90049599 77.98005468 -26.16796875 73.1953125 C-26.82796875 73.1953125 -27.48796875 73.1953125 -28.16796875 73.1953125 C-35.67083076 66.08932732 -42.1007636 57.09581353 -42.43359375 46.5234375 C-42.43885878 44.83072934 -42.4334267 43.13795826 -42.41796875 41.4453125 C-42.42570312 40.58292969 -42.4334375 39.72054687 -42.44140625 38.83203125 C-42.43882813 38.00832031 -42.43625 37.18460938 -42.43359375 36.3359375 C-42.43133789 35.58860352 -42.42908203 34.84126953 -42.42675781 34.07128906 C-42.16796875 32.1953125 -42.16796875 32.1953125 -40.16796875 30.1953125 C-40.16796875 29.5353125 -40.16796875 28.8753125 -40.16796875 28.1953125 C-39.50796875 28.1953125 -38.84796875 28.1953125 -38.16796875 28.1953125 C-38.10609375 26.9784375 -38.04421875 25.7615625 -37.98046875 24.5078125 C-37.41188332 19.95112083 -35.65978342 18.21097062 -32.16796875 15.1953125 C-31.29702622 14.14651984 -30.44279488 13.083634 -29.60546875 12.0078125 C-27.36546755 9.42319573 -26.18594279 8.50310125 -23.16796875 7.1953125 C-22.72710938 6.70546875 -22.28625 6.215625 -21.83203125 5.7109375 C-19.78905921 3.8502024 -18.36878586 3.59645277 -15.66796875 3.1328125 C-9.93154866 2.12893899 -6.08944483 -0.08142615 0 0 Z M-6.16796875 1.1953125 C-6.16796875 1.5253125 -6.16796875 1.8553125 -6.16796875 2.1953125 C-3.85796875 2.1953125 -1.54796875 2.1953125 0.83203125 2.1953125 C0.83203125 1.8653125 0.83203125 1.5353125 0.83203125 1.1953125 C-1.47796875 1.1953125 -3.78796875 1.1953125 -6.16796875 1.1953125 Z M-16.16796875 11.1953125 C-15.16796875 13.1953125 -15.16796875 13.1953125 -15.16796875 13.1953125 Z M-41.16796875 40.1953125 C-41.16796875 43.1653125 -41.16796875 46.1353125 -41.16796875 49.1953125 C-40.83796875 49.1953125 -40.50796875 49.1953125 -40.16796875 49.1953125 C-40.16796875 46.2253125 -40.16796875 43.2553125 -40.16796875 40.1953125 C-40.49796875 40.1953125 -40.82796875 40.1953125 -41.16796875 40.1953125 Z M-0.16796875 49.1953125 C-0.16796875 49.5253125 -0.16796875 49.8553125 -0.16796875 50.1953125 C9.40203125 50.1953125 18.97203125 50.1953125 28.83203125 50.1953125 C28.83203125 49.8653125 28.83203125 49.5353125 28.83203125 49.1953125 C19.26203125 49.1953125 9.69203125 49.1953125 -0.16796875 49.1953125 Z M-39.16796875 54.1953125 C-38.16796875 57.1953125 -38.16796875 57.1953125 -38.16796875 57.1953125 Z M-36.16796875 61.1953125 C-35.16796875 63.1953125 -35.16796875 63.1953125 -35.16796875 63.1953125 Z M-4.16796875 73.1953125 C-0.16796875 74.1953125 -0.16796875 74.1953125 -0.16796875 74.1953125 Z " fill="#0F3151" transform="translate(44.16796875,-0.1953125)"/>
<path d="M0 0 C0.99 0.33 1.98 0.66 3 1 C3.33 0.67 3.66 0.34 4 0 C5.99958364 -0.04080783 8.00045254 -0.04254356 10 0 C10 0.99 10 1.98 10 3 C9.01 3.33 8.02 3.66 7 4 C7.495 5.3921875 7.495 5.3921875 8 6.8125 C9 10 9 10 9 13 C10.83494051 19.21056788 13.08227444 24.8357254 17 30 C17.53860121 31.71373113 18 33.20240366 18 35 C18.99 35.495 18.99 35.495 20 36 C20.37247578 37.9865375 20.6472092 39.99172193 20.875 42 C21.59638791 47.28823877 22.78294575 51.54747357 25.1953125 56.29296875 C26 58 26 58 26 60 C26.66 60 27.32 60 28 60 C27.67 61.65 27.34 63.3 27 65 C27.66 65.33 28.32 65.66 29 66 C29.2475 66.825 29.495 67.65 29.75 68.5 C30.1625 69.325 30.575 70.15 31 71 C34.05272465 71.89830839 34.05272465 71.89830839 37 72 C37.495 75.465 37.495 75.465 38 79 C27.11 79 16.22 79 5 79 C5 74 5 74 6.5 72.1875 C6.995 71.795625 7.49 71.40375 8 71 C7.566875 70.34 7.13375 69.68 6.6875 69 C4.67535337 65.42285044 3.37571305 61.86509858 2 58 C-0.60409745 57.83218705 -3.2082682 57.66570349 -5.8125 57.5 C-6.55048828 57.45230469 -7.28847656 57.40460937 -8.04882812 57.35546875 C-11.03824588 57.16609387 -14.00374574 57 -17 57 C-20.31852744 64.75970709 -20.31852744 64.75970709 -22 73 C-19.36 73.33 -16.72 73.66 -14 74 C-14 75.65 -14 77.3 -14 79 C-21.92 79 -29.84 79 -38 79 C-38 76.69 -38 74.38 -38 72 C-36.7625 72 -35.525 72 -34.25 72 C-31.43379674 71.67543757 -30.37373449 71.46716811 -28.578125 69.22265625 C-26.60246413 65.28923517 -26.60246413 65.28923517 -26 61 C-25.34 61 -24.68 61 -24 61 C-23.90847656 60.35289063 -23.81695312 59.70578125 -23.72265625 59.0390625 C-22.56003671 54.14977601 -20.42634998 49.66619057 -18.43945312 45.0625 C-18.12814453 44.32773437 -17.81683594 43.59296875 -17.49609375 42.8359375 C-17.20919678 42.17126465 -16.9222998 41.5065918 -16.62670898 40.82177734 C-15.83735033 38.84828793 -15.83735033 38.84828793 -16 36 C-15.34 36 -14.68 36 -14 36 C-13.896875 34.783125 -13.79375 33.56625 -13.6875 32.3125 C-13.23584152 28.55310735 -12.09088785 26.18178586 -10 23 C-10 22.01 -10 21.02 -10 20 C-9.34 20 -8.68 20 -8 20 C-6.18972938 14.70843973 -4.58921525 9.36095277 -3 4 C-2.34 4 -1.68 4 -1 4 C-0.67 2.68 -0.34 1.36 0 0 Z M14 28 C15 30 15 30 15 30 Z M-9 35 C-8 37 -8 37 -8 37 Z M-7 36 C-7 37.65 -7 39.3 -7 41 C-8.65 41.33 -10.3 41.66 -12 42 C-11.67 42.99 -11.34 43.98 -11 45 C-11 44.34 -11 43.68 -11 43 C-10.34 43 -9.68 43 -9 43 C-9 44.65 -9 46.3 -9 48 C-6.69 48 -4.38 48 -2 48 C-2.33 47.13375 -2.66 46.2675 -3 45.375 C-3.98731341 42.04281725 -4.16420974 39.44840462 -4 36 C-4.99 36 -5.98 36 -7 36 Z M18 38 C19 41 19 41 19 41 Z M-4 39 C-3.01 40.485 -3.01 40.485 -2 42 C-2 41.01 -2 40.02 -2 39 C-2.66 39 -3.32 39 -4 39 Z M-2 42 C-1 45 -1 45 -1 45 Z M-13 45 C-12 48 -12 48 -12 48 Z M-15 49 C-15 49.33 -15 49.66 -15 50 C-10.38 50 -5.76 50 -1 50 C-1 49.67 -1 49.34 -1 49 C-5.62 49 -10.24 49 -15 49 Z M4 58 C5 61 5 61 5 61 Z M7 66 C8 68 8 68 8 68 Z M8 68 C9 70 9 70 9 70 Z " fill="#092B4C" transform="translate(350,0)"/>
<path d="M0 0 C10.56 0 21.12 0 32 0 C32 7.92 32 15.84 32 24 C30.68 24 29.36 24 28 24 C27.80578562 21.04196565 27.61933814 18.08379837 27.4375 15.125 C27.38142578 14.28324219 27.32535156 13.44148437 27.26757812 12.57421875 C27.21923828 11.76855469 27.17089844 10.96289062 27.12109375 10.1328125 C27.0739624 9.38918457 27.02683105 8.64555664 26.97827148 7.87939453 C27 6 27 6 28 4 C24.56769552 4.26393501 24.56769552 4.26393501 21 5 C20.01 6.485 20.01 6.485 19 8 C16.83125748 7.49396008 15.00032373 7.00016187 13 6 C13 5.34 13 4.68 13 4 C12.34 3.87625 11.68 3.7525 11 3.625 C7.30301417 2.85479462 3.65994058 1.93049337 0 1 C0 0.67 0 0.34 0 0 Z " fill="#2B4585" transform="translate(40,0)"/>
<path d="M0 0 C0.99 0 1.98 0 3 0 C3 0.66 3 1.32 3 2 C2.34 2 1.68 2 1 2 C1 22.46 1 42.92 1 64 C0.34 64 -0.32 64 -1 64 C-1.0231271 55.80309439 -1.04091696 47.60620232 -1.05181217 39.40927219 C-1.0570402 35.60348423 -1.06413638 31.79771852 -1.07543945 27.99194336 C-1.0862712 24.32207456 -1.09227744 20.65222722 -1.09487724 16.98234367 C-1.09673097 15.57925008 -1.1003506 14.17615771 -1.10573006 12.7730732 C-1.11294419 10.8143032 -1.11340809 8.8555118 -1.11352539 6.89672852 C-1.115746 5.77976089 -1.11796661 4.66279327 -1.12025452 3.51197815 C-1 1 -1 1 0 0 Z " fill="#2E2491" transform="translate(393,8)"/>
<path d="M0 0 C2.64 0.66 5.28 1.32 8 2 C7.01 2.99 6.02 3.98 5 5 C12.26 5.33 19.52 5.66 27 6 C27.495 6.99 27.495 6.99 28 8 C24.45865331 9.1804489 21.24554786 9.14618724 17.5625 9.125 C16.24378906 9.12757812 14.92507812 9.13015625 13.56640625 9.1328125 C10.70422078 9.02622509 8.70972622 8.68141597 6 8 C4.63323368 7.86070644 3.2625433 7.75634699 1.890625 7.68359375 C1.13652344 7.64169922 0.38242187 7.59980469 -0.39453125 7.55664062 C-1.56048828 7.49766602 -1.56048828 7.49766602 -2.75 7.4375 C-3.54277344 7.39431641 -4.33554687 7.35113281 -5.15234375 7.30664062 C-7.10137815 7.20097009 -9.05066748 7.10002034 -11 7 C-8.33788628 5.62420173 -5.93703384 4.62936439 -3 4 C-3 3.34 -3 2.68 -3 2 C-2.01 2 -1.02 2 0 2 C0 1.34 0 0.68 0 0 Z " fill="#44C8D7" transform="translate(60,73)"/>
<path d="M0 0 C0.99 0.33 1.98 0.66 3 1 C2.67 5.29 2.34 9.58 2 14 C0.35 14 -1.3 14 -3 14 C-3 32.81 -3 51.62 -3 71 C-3.33 71 -3.66 71 -4 71 C-4 49.88 -4 28.76 -4 7 C-2.35 6.67 -0.7 6.34 1 6 C0.67 4.02 0.34 2.04 0 0 Z " fill="#668383" transform="translate(309,2)"/>
<path d="M0 0 C3.17892702 4.23856936 3.36792077 5.9433662 4 11 C4.90833725 13.06669397 4.90833725 13.06669397 6 15 C7.52281817 19.2829261 8.77500608 23.6250217 10 28 C9.67 28.33 9.34 28.66 9 29 C6.69 29 4.38 29 2 29 C1.34 19.43 0.68 9.86 0 0 Z " fill="#2BC092" transform="translate(245,35)"/>
<path d="M0 0 C21.78 0 43.56 0 66 0 C66 0.66 66 1.32 66 2 C44.55 2.33 23.1 2.66 1 3 C0.67 2.01 0.34 1.02 0 0 Z " fill="#00A6A6" transform="translate(110,79)"/>
<path d="M0 0 C5.63281599 -0.2396943 10.54538831 0.61470179 16 2 C16 2.66 16 3.32 16 4 C16.99 3.34 17.98 2.68 19 2 C22.3 2 25.6 2 29 2 C29 9.26 29 16.52 29 24 C28.67 24 28.34 24 28 24 C27.80578562 21.04196565 27.61933814 18.08379837 27.4375 15.125 C27.38142578 14.28324219 27.32535156 13.44148437 27.26757812 12.57421875 C27.21923828 11.76855469 27.17089844 10.96289062 27.12109375 10.1328125 C27.0739624 9.38918457 27.02683105 8.64555664 26.97827148 7.87939453 C27 6 27 6 28 4 C24.56769552 4.26393501 24.56769552 4.26393501 21 5 C20.01 6.485 20.01 6.485 19 8 C16.83125748 7.49396008 15.00032373 7.00016187 13 6 C13 5.34 13 4.68 13 4 C12.34 3.87625 11.68 3.7525 11 3.625 C7.30301417 2.85479462 3.65994058 1.93049337 0 1 C0 0.67 0 0.34 0 0 Z " fill="#6CF4F5" transform="translate(40,0)"/>
<path d="M0 0 C19.14 0 38.28 0 58 0 C58 0.33 58 0.66 58 1 C38.86 1 19.72 1 0 1 C0 0.67 0 0.34 0 0 Z " fill="#256095" transform="translate(278,80)"/>
<path d="M0 0 C0.66 0.66 1.32 1.32 2 2 C0.35 4.64 -1.3 7.28 -3 10 C0.96 10 4.92 10 9 10 C9 10.66 9 11.32 9 12 C3.72 12 -1.56 12 -7 12 C-5.87347293 8.62041878 -4.22077697 6.75914715 -2 4 C-1.29114106 2.68861096 -0.60543548 1.36222983 0 0 Z " fill="#6BE0E3" transform="translate(175,62)"/>
<path d="M0 0 C2.97746865 2.82075977 5.44686996 5.17691068 7 9 C7.37125 9.9075 7.7425 10.815 8.125 11.75 C8.41375 12.4925 8.7025 13.235 9 14 C8.443125 13.525625 7.88625 13.05125 7.3125 12.5625 C4.81653926 10.87604004 2.9553763 10.41046893 0 10 C0 6.7 0 3.4 0 0 Z M3 5 C4 7 4 7 4 7 Z " fill="#5C79AE" transform="translate(415,38)"/>
<path d="M0 0 C2.5654594 2.5654594 2.54046087 4.47686668 3 8 C3.66 8 4.32 8 5 8 C5.33 9.32 5.66 10.64 6 12 C3.27157939 13.36421031 1.39046682 12.87807211 -1.625 12.5625 C-2.62789063 12.46066406 -3.63078125 12.35882813 -4.6640625 12.25390625 C-5.43492187 12.17011719 -6.20578125 12.08632813 -7 12 C-6.67 10.02 -6.34 8.04 -6 6 C-5.34 6 -4.68 6 -4 6 C-4 7.65 -4 9.3 -4 11 C-1.69 11 0.62 11 3 11 C2.505 10.113125 2.01 9.22625 1.5 8.3125 C0.05621326 5.12413762 -0.30159922 3.41812454 0 0 Z " fill="#6596A3" transform="translate(345,37)"/>
<path d="M0 0 C3.3 0 6.6 0 10 0 C10 7.26 10 14.52 10 22 C9.67 22 9.34 22 9 22 C8.80578562 19.04196565 8.61933814 16.08379837 8.4375 13.125 C8.38142578 12.28324219 8.32535156 11.44148437 8.26757812 10.57421875 C8.21923828 9.76855469 8.17089844 8.96289062 8.12109375 8.1328125 C8.0739624 7.38918457 8.02683105 6.64555664 7.97827148 5.87939453 C8 4 8 4 9 2 C5.37 2.33 1.74 2.66 -2 3 C-1.34 2.01 -0.68 1.02 0 0 Z " fill="#FFFFFF" transform="translate(59,2)"/>
<path d="M0 0 C4.62644904 -0.04950925 9.25274318 -0.08577116 13.87939453 -0.10986328 C15.45266405 -0.11990887 17.02591496 -0.13354781 18.59912109 -0.15087891 C20.86300252 -0.17519096 23.12663666 -0.18649747 25.390625 -0.1953125 C26.09181458 -0.20563507 26.79300415 -0.21595764 27.51544189 -0.22659302 C31.50569803 -0.22750579 33.30811458 0.15405729 37 2 C25.12 2.33 13.24 2.66 1 3 C0.67 2.01 0.34 1.02 0 0 Z " fill="#1E648B" transform="translate(110,79)"/>
<path d="M0 0 C0.33 0 0.66 0 1 0 C1 13.2 1 26.4 1 40 C0.67 40 0.34 40 0 40 C0 26.8 0 13.6 0 0 Z " fill="#808080" transform="translate(241,32)"/>
<path d="M0 0 C2.88033812 5.34919937 4.37065315 11.18090411 6 17 C5.01 17 4.02 17 3 17 C2.29994051 14.92085336 1.61537756 12.83648414 0.9375 10.75 C0.55464844 9.58984375 0.17179688 8.4296875 -0.22265625 7.234375 C-0.95211763 4.19922915 -1.11889082 2.84296787 0 0 Z " fill="#C3FFFF" transform="translate(249,46)"/>
<path d="M0 0 C0.33 0 0.66 0 1 0 C0.67021516 7.60154046 -1.12782571 13.97319219 -4 21 C-5.23642182 17.47906369 -4.73593563 15.36923056 -3.5625 11.875 C-2.38321802 8.50160537 -2.38321802 8.50160537 -2 5 C-1.34 5 -0.68 5 0 5 C0 3.35 0 1.7 0 0 Z " fill="#5D8787" transform="translate(278,36)"/>
<path d="M0 0 C0.33 0 0.66 0 1 0 C1 1.98 1 3.96 1 6 C-0.32 6 -1.64 6 -3 6 C-3.33 7.65 -3.66 9.3 -4 11 C-5.32 11.33 -6.64 11.66 -8 12 C-7.34 10.68 -6.68 9.36 -6 8 C-5.34 8 -4.68 8 -4 8 C-3.896875 7.4225 -3.79375 6.845 -3.6875 6.25 C-2.897231 3.66366508 -1.75133174 2.04322037 0 0 Z " fill="#80DCE5" transform="translate(191,38)"/>
<path d="M0 0 C0.598125 0.226875 1.19625 0.45375 1.8125 0.6875 C0.8225 1.0175 -0.1675 1.3475 -1.1875 1.6875 C-1.1875 3.6675 -1.1875 5.6475 -1.1875 7.6875 C-2.5075 7.6875 -3.8275 7.6875 -5.1875 7.6875 C-5.5175 8.6775 -5.8475 9.6675 -6.1875 10.6875 C-6.1875 9.3675 -6.1875 8.0475 -6.1875 6.6875 C-5.5275 6.6875 -4.8675 6.6875 -4.1875 6.6875 C-4.414375 6.089375 -4.64125 5.49125 -4.875 4.875 C-5.1875 2.6875 -5.1875 2.6875 -4 0.875 C-2.1875 -0.3125 -2.1875 -0.3125 0 0 Z " fill="#6EAEB9" transform="translate(161.1875,11.3125)"/>
<path d="M0 0 C7.26 0.33 14.52 0.66 22 1 C22 1.33 22 1.66 22 2 C21.31292969 2.06058594 20.62585938 2.12117187 19.91796875 2.18359375 C18.56638672 2.30927734 18.56638672 2.30927734 17.1875 2.4375 C15.84751953 2.55931641 15.84751953 2.55931641 14.48046875 2.68359375 C11.87256441 2.93489767 11.87256441 2.93489767 9 4 C9 3.34 9 2.68 9 2 C6.03 1.67 3.06 1.34 0 1 C0 0.67 0 0.34 0 0 Z " fill="#00CAED" transform="translate(47,0)"/>
<path d="M0 0 C8.58 0 17.16 0 26 0 C26 0.33 26 0.66 26 1 C17.42 1 8.84 1 0 1 C0 0.67 0 0.34 0 0 Z " fill="#FFFFFF" transform="translate(283,1)"/>
<path d="M0 0 C1.32 0 2.64 0 4 0 C4 1.98 4 3.96 4 6 C2.68 6 1.36 6 0 6 C0 4.02 0 2.04 0 0 Z " fill="#005F94" transform="translate(307,10)"/>
<path d="M0 0 C7.26 0 14.52 0 22 0 C22 0.33 22 0.66 22 1 C14.74 1 7.48 1 0 1 C0 0.67 0 0.34 0 0 Z " fill="#0F4D7C" transform="translate(228,80)"/>
<path d="M0 0 C0.33 1.32 0.66 2.64 1 4 C-3.62 4 -8.24 4 -13 4 C-9.32621448 1.55080966 -7.32590635 2 -3 2 C-2.01 1.34 -1.02 0.68 0 0 Z " fill="#7368C5" transform="translate(62,76)"/>
<path d="M0 0 C0.33 0 0.66 0 1 0 C1 1.65 1 3.3 1 5 C-1.70879335 6.35439668 -4.00933268 6.06501451 -7 6 C-5.68 5.34 -4.36 4.68 -3 4 C-3 3.34 -3 2.68 -3 2 C-2.01 2 -1.02 2 0 2 C0 1.34 0 0.68 0 0 Z " fill="#B6F0F0" transform="translate(60,73)"/>
<path d="M0 0 C0.66 0 1.32 0 2 0 C2.66 1.32 3.32 2.64 4 4 C3.01 4 2.02 4 1 4 C1 5.65 1 7.3 1 9 C0.34 9 -0.32 9 -1 9 C-2 6 -2 6 -1.0625 3.9375 C-0.711875 3.298125 -0.36125 2.65875 0 2 C0 1.34 0 0.68 0 0 Z " fill="#46A7A9" transform="translate(342,32)"/>
<path d="M0 0 C0.66 0 1.32 0 2 0 C2 1.65 2 3.3 2 5 C1.01 5 0.02 5 -1 5 C-1.33 5.99 -1.66 6.98 -2 8 C-2.33 6.35 -2.66 4.7 -3 3 C-2.01 2.67 -1.02 2.34 0 2 C0 1.34 0 0.68 0 0 Z " fill="#7FE5D8" transform="translate(30,11)"/>
<path d="M0 0 C1.9453125 -0.29296875 1.9453125 -0.29296875 4.125 -0.1875 C5.40375 -0.125625 6.6825 -0.06375 8 0 C8 0.66 8 1.32 8 2 C4.7 2.33 1.4 2.66 -2 3 C-1.34 2.01 -0.68 1.02 0 0 Z " fill="#B2FFFF" transform="translate(59,2)"/>
<path d="M0 0 C1.98 0 3.96 0 6 0 C6 0.99 6 1.98 6 3 C4.02 3.33 2.04 3.66 0 4 C0 2.68 0 1.36 0 0 Z " fill="#666666" transform="translate(354,0)"/>
<path d="M0 0 C3 2 3 2 3.6875 3.9375 C4 6 4 6 4 9 C1.4375 6.75 1.4375 6.75 -1 4 C-0.8125 1.6875 -0.8125 1.6875 0 0 Z " fill="#8CF1F1" transform="translate(419,43)"/>
<path d="M0 0 C1.67542976 0.28604898 3.34385343 0.61781233 5 1 C5 1.99 5 2.98 5 4 C3.35 4.33 1.7 4.66 0 5 C-0.5625 3.0625 -0.5625 3.0625 -1 1 C-0.67 0.67 -0.34 0.34 0 0 Z " fill="#35A58A" transform="translate(111,2)"/>
<path d="M0 0 C2 3 2 3 1.625 5.1875 C1.41875 5.785625 1.2125 6.38375 1 7 C0.34 7 -0.32 7 -1 7 C-2 4 -2 4 -1.0625 1.8125 C-0.5365625 0.9153125 -0.5365625 0.9153125 0 0 Z " fill="#00A5A5" transform="translate(283,21)"/>
<path d="M0 0 C5.61 0 11.22 0 17 0 C17 0.33 17 0.66 17 1 C11.39 1 5.78 1 0 1 C0 0.67 0 0.34 0 0 Z " fill="#FFFFFF" transform="translate(439,1)"/>
<path d="M0 0 C0.33 0 0.66 0 1 0 C1 5.28 1 10.56 1 16 C0.67 16 0.34 16 0 16 C0 10.72 0 5.44 0 0 Z " fill="#404040" transform="translate(146,8)"/>
<path d="M0 0 C0.66 0.33 1.32 0.66 2 1 C2.40729228 3.32156597 2.74438677 5.6568787 3 8 C1.45428722 5.68143083 0.20381448 3.49361571 -1 1 C-0.67 0.67 -0.34 0.34 0 0 Z " fill="#BFFFFF" transform="translate(373,47)"/>
<path d="M0 0 C0.33 0 0.66 0 1 0 C1 2.97 1 5.94 1 9 C0.67 9 0.34 9 0 9 C0 6.03 0 3.06 0 0 Z " fill="#8E8E8E" transform="translate(69,56)"/>
<path d="M0 0 C0.33 0.66 0.66 1.32 1 2 C0.0625 4.125 0.0625 4.125 -1 6 C-1.66 5.67 -2.32 5.34 -3 5 C-2.01 3.35 -1.02 1.7 0 0 Z " fill="#7D949C" transform="translate(201,22)"/>
<path d="M0 0 C1.32 1.32 2.64 2.64 4 4 C3.67 4.66 3.34 5.32 3 6 C0 2.25 0 2.25 0 0 Z " fill="#5799A0" transform="translate(420,6)"/>
<path d="M0 0 C0 0.99 0 1.98 0 3 C-0.99 3.495 -0.99 3.495 -2 4 C-1.34 2.68 -0.68 1.36 0 0 Z " fill="#FFFFFF" transform="translate(179,59)"/>
<path d="M0 0 C1.65 0 3.3 0 5 0 C5 0.33 5 0.66 5 1 C3.35 1 1.7 1 0 1 C0 0.67 0 0.34 0 0 Z " fill="#5D5D5D" transform="translate(404,72)"/>
<path d="M0 0 C4 1 4 1 4 1 Z " fill="#205F5F" transform="translate(251,74)"/>
<path d="M0 0 C4 1 4 1 4 1 Z " fill="#555555" transform="translate(328,72)"/>
<path d="M0 0 C1 4 1 4 1 4 Z " fill="#CFCFDF" transform="translate(28,65)"/>
<path d="M0 0 C0.66 0 1.32 0 2 0 C1.67 0.99 1.34 1.98 1 3 C0.67 2.01 0.34 1.02 0 0 Z " fill="#9FDFDF" transform="translate(181,54)"/>
<path d="M0 0 C0.99 0.495 0.99 0.495 2 1 C1.67 1.66 1.34 2.32 1 3 C0.67 2.01 0.34 1.02 0 0 Z " fill="#3F9DA7" transform="translate(56,17)"/>
<path d="M0 0 C4 1 4 1 4 1 Z " fill="#005555" transform="translate(104,0)"/>
<path d="M0 0 C0.66 0.66 1.32 1.32 2 2 C1.34 2 0.68 2 0 2 C0 1.34 0 0.68 0 0 Z " fill="#D4D4D4" transform="translate(87,59)"/>
<path d="" fill="#AAFFFF" transform="translate(0,0)"/>
<path d="M0 0 C3 1 3 1 3 1 Z " fill="#55869C" transform="translate(163,10)"/>
<path d="" fill="#6A6A6A" transform="translate(0,0)"/>
<path d="" fill="#606060" transform="translate(0,0)"/>
<path d="" fill="#555555" transform="translate(0,0)"/>
<path d="" fill="#FFFFFF" transform="translate(0,0)"/>
<path d="" fill="#FFFFFF" transform="translate(0,0)"/>
<path d="" fill="#FFFFFF" transform="translate(0,0)"/>
<path d="" fill="#7FFFFF" transform="translate(0,0)"/>
<path d="" fill="#406080" transform="translate(0,0)"/>
<path d="" fill="#595973" transform="translate(0,0)"/>
<path d="" fill="#00AAAA" transform="translate(0,0)"/>
<path d="" fill="#FFFFFF" transform="translate(0,0)"/>
<path d="M0 0 C2 1 2 1 2 1 Z " fill="#2AAAAA" transform="translate(198,30)"/>
<path d="" fill="#7FFFFF" transform="translate(0,0)"/>
<path d="" fill="#AAAAAA" transform="translate(0,0)"/>
<path d="" fill="#00AAAA" transform="translate(0,0)"/>
<path d="M0 0 C2 1 2 1 2 1 Z " fill="#7FAAAA" transform="translate(344,8)"/>
<path d="" fill="#FFFFFF" transform="translate(0,0)"/>
<path d="" fill="#FFFFFF" transform="translate(0,0)"/>
<path d="" fill="#FFFFFF" transform="translate(0,0)"/>
<path d="" fill="#FFFFFF" transform="translate(0,0)"/>
<path d="" fill="#808080" transform="translate(0,0)"/>
<path d="" fill="#555555" transform="translate(0,0)"/>
<path d="" fill="#808080" transform="translate(0,0)"/>
<path d="" fill="#333366" transform="translate(0,0)"/>
<path d="" fill="#2A2A55" transform="translate(0,0)"/>
<path d="" fill="#2A2A55" transform="translate(0,0)"/>
<path d="" fill="#555555" transform="translate(0,0)"/>
<path d="" fill="#555555" transform="translate(0,0)"/>
<path d="" fill="#00FFFF" transform="translate(0,0)"/>
<path d="" fill="#FFFFFF" transform="translate(0,0)"/>
<path d="" fill="#008080" transform="translate(0,0)"/>
<path d="" fill="#FFFFFF" transform="translate(0,0)"/>
<path d="" fill="#00FFFF" transform="translate(0,0)"/>
<path d="" fill="#00FFFF" transform="translate(0,0)"/>
<path d="" fill="#00FFFF" transform="translate(0,0)"/>
<path d="" fill="#333366" transform="translate(0,0)"/>
<path d="" fill="#FFFFFF" transform="translate(0,0)"/>
<path d="" fill="#808080" transform="translate(0,0)"/>
<path d="" fill="#2A2A55" transform="translate(0,0)"/>
<path d="" fill="#555555" transform="translate(0,0)"/>
<path d="" fill="#555555" transform="translate(0,0)"/>
<path d="" fill="#FFFFFF" transform="translate(0,0)"/>
<path d="" fill="#404040" transform="translate(0,0)"/>
<path d="" fill="#404080" transform="translate(0,0)"/>
<path d="" fill="#404080" transform="translate(0,0)"/>
<path d="" fill="#808080" transform="translate(0,0)"/>
<path d="" fill="#008080" transform="translate(0,0)"/>
<path d="" fill="#2A2A55" transform="translate(0,0)"/>
<path d="" fill="#808080" transform="translate(0,0)"/>
<path d="" fill="#555555" transform="translate(0,0)"/>
<path d="" fill="#00FFFF" transform="translate(0,0)"/>
<path d="" fill="#2A2A55" transform="translate(0,0)"/>
<path d="" fill="#2A2A55" transform="translate(0,0)"/>
<path d="" fill="#404080" transform="translate(0,0)"/>
<path d="" fill="#005555" transform="translate(0,0)"/>
<path d="" fill="#808080" transform="translate(0,0)"/>
<path d="" fill="#008080" transform="translate(0,0)"/>
</svg>
