<?xml version="1.0" encoding="UTF-8"?>
<svg version="1.1" xmlns="http://www.w3.org/2000/svg" width="600" height="60">
<path d="M0 0 C5.80344315 2.05243721 9.06192389 5.73594696 12 11 C8.75 11.25 8.75 11.25 5 11 C2.75 9.0625 2.75 9.0625 1 7 C-4.80990142 5.06336619 -10.87373478 5.08874348 -16.5 7.5 C-20.18531586 11.18531586 -21.85843013 14.85007029 -22.09375 20.0859375 C-21.71700721 25.00243084 -20.33358706 28.41639391 -17 32 C-12.51038844 34.54621257 -8.34040462 35.38380982 -3.25 34.5 C0.91368297 33.33533343 3.27713722 31.40357848 6 28 C6.33 27.34 6.66 26.68 7 26 C1.06 25.67 -4.88 25.34 -11 25 C-11 23.35 -11 21.7 -11 20 C-3.08 20 4.84 20 13 20 C14.20837054 26.0418527 13.16869304 28.0249501 10 33 C6.3472903 37.56588712 2.58738966 39.64988726 -3 41 C-9.50539703 41.72282189 -14.43744459 40.51643984 -20 37 C-24.42382206 33.01950339 -27.58223094 28.75992155 -28.25 22.75 C-28.54565403 16.68909242 -27.77390901 11.86855112 -24 7 C-16.36481603 0.07401296 -10.28682166 -0.99258805 0 0 Z " fill="#181958" transform="translate(29,7)"/>
<path d="M0 0 C5.95389678 3.35686371 9.36254031 8.77902717 11.48828125 15.15625 C12.27267473 21.67571712 11.29952081 26.76387701 7.48828125 32.15625 C2.75436062 36.89017063 -2.14237372 39.71124217 -8.82421875 40.59375 C-15.52022919 39.79930808 -21.43179012 37.84737423 -26.01171875 32.71875 C-30.45992013 26.76268374 -31.26971701 21.51120184 -30.51171875 14.15625 C-28.4466994 8.5046181 -24.97677327 3.6366893 -19.7734375 0.51171875 C-13.63708616 -2.03835779 -6.31892674 -2.12268768 0 0 Z M-20.51171875 7.15625 C-23.55149702 11.55054087 -25.48295721 15.45931922 -25.57421875 20.84375 C-24.03547932 25.64099646 -22.4324088 29.73804685 -18.2421875 32.83203125 C-13.48540458 35.13896889 -8.67623157 34.78606864 -3.51171875 34.15625 C0.94326677 32.0459937 3.71433088 29.78823151 5.48828125 25.15625 C6.14329906 19.94036745 6.29094477 14.93031634 3.86328125 10.15625 C1.14602566 6.72392716 -0.33992981 5.46959096 -4.51171875 4.15625 C-10.34393192 3.48184099 -15.75422027 3.39450701 -20.51171875 7.15625 Z " fill="#1A195C" transform="translate(98.51171875,7.84375)"/>
<path d="M0 0 C5 0 5 0 6.52636719 1.37011719 C7.15526855 2.3238623 7.15526855 2.3238623 7.796875 3.296875 C8.27672852 4.00336182 8.75658203 4.70984863 9.25097656 5.43774414 C9.7456543 6.20078857 10.24033203 6.96383301 10.75 7.75 C11.80054772 9.30702678 12.85264466 10.86300936 13.90625 12.41796875 C14.42445313 13.19188965 14.94265625 13.96581055 15.4765625 14.76318359 C17.63831041 17.93721154 19.92511737 21.00692745 22.25 24.0625 C23.4875 25.691875 24.725 27.32125 26 29 C26.33 19.76 26.66 10.52 27 1 C28.65 0.67 30.3 0.34 32 0 C32 13.2 32 26.4 32 40 C30.35 40 28.7 40 27 40 C25.00889989 37.81621278 23.44467169 35.80590032 21.8125 33.375 C21.34416748 32.70654053 20.87583496 32.03808105 20.39331055 31.34936523 C19.4132438 29.94919944 18.43979753 28.54437875 17.47265625 27.13525391 C15.60726149 24.43055521 13.69321968 21.76267848 11.7734375 19.09643555 C9.83969421 16.40425384 7.92135577 13.70103637 6 11 C5.67 20.24 5.34 29.48 5 39 C2.525 39.495 2.525 39.495 0 40 C0 26.8 0 13.6 0 0 Z " fill="#838385" transform="translate(496,7)"/>
<path d="M0 0 C6.41244315 0.04223343 11.17713982 0.55213982 15.875 5.25 C16.140625 7.74609375 16.140625 7.74609375 16.125 10.6875 C16.13015625 11.65558594 16.1353125 12.62367187 16.140625 13.62109375 C15.875 16.25 15.875 16.25 13.875 19.25 C14.7 20.095625 15.525 20.94125 16.375 21.8125 C18.53597147 24.41548836 18.87849527 25.27490382 19.375 28.8125 C18.83524433 32.52332022 18.26898482 34.37721821 15.875 37.25 C10.81842993 40.4643136 6.77940989 40.62851439 1 40.4375 C-0.175625 40.41719727 -0.175625 40.41719727 -1.375 40.39648438 C-3.29196782 40.36141789 -5.20857751 40.30762072 -7.125 40.25 C-7.14964775 34.71411467 -7.16783496 29.178261 -7.17993164 23.64233398 C-7.18497244 21.7575627 -7.19180498 19.87279535 -7.20043945 17.98803711 C-7.21251617 15.28498364 -7.21823068 12.58198169 -7.22265625 9.87890625 C-7.22781754 9.03099014 -7.23297882 8.18307404 -7.23829651 7.3094635 C-7.23849195 5.28928932 -7.18706211 3.26922066 -7.125 1.25 C-5.28846389 -0.58653611 -2.46707867 0.03371862 0 0 Z M-2.125 5.25 C-2.125 9.21 -2.125 13.17 -2.125 17.25 C2.03521408 17.46153631 4.96497426 17.59125965 8.875 16.125 C11.1865315 14.34967933 11.1865315 14.34967933 11.3125 11.1875 C11.15556299 8.13374462 11.15556299 8.13374462 8.875 6.25 C5.2830695 4.91965537 1.66029987 5.17720577 -2.125 5.25 Z M-2.125 21.25 C-2.125 25.87 -2.125 30.49 -2.125 35.25 C5.46017674 35.95572387 5.46017674 35.95572387 12.125 33.0625 C14.10613208 30.43062107 14.10613208 30.43062107 13.875 27.625 C12.82783935 25.13799346 12.00236134 23.8864318 9.875 22.25 C6.99288698 21.28929566 5.17649956 21.14418117 2.1875 21.1875 C0.764375 21.208125 -0.65875 21.22875 -2.125 21.25 Z " fill="#1E1D60" transform="translate(122.125,6.75)"/>
<path d="M0 0 C7.68380707 0.00454878 13.7284798 0.68967984 19.875 5.5 C24.42002211 11.38179332 25.57365465 16.18201874 25.3515625 23.53125 C24.64239859 29.01545091 22.48801645 32.80013782 18.5625 36.625 C12.70149145 40.34173713 7.96597749 40.50642462 1.1875 40.375 C0.30384766 40.36597656 -0.57980469 40.35695312 -1.49023438 40.34765625 C-3.66027359 40.32419637 -5.83017247 40.28832865 -8 40.25 C-8.02464775 34.71411467 -8.04283496 29.178261 -8.05493164 23.64233398 C-8.05997244 21.7575627 -8.06680498 19.87279535 -8.07543945 17.98803711 C-8.08751617 15.28498364 -8.09323068 12.58198169 -8.09765625 9.87890625 C-8.10281754 9.03099014 -8.10797882 8.18307404 -8.11329651 7.3094635 C-8.11349195 5.28928932 -8.06206211 3.26922066 -8 1.25 C-6.05444689 -0.69555311 -2.57505213 0.03065538 0 0 Z M-3 5.25 C-3 15.15 -3 25.05 -3 35.25 C8.3025184 36.19955207 8.3025184 36.19955207 16 31.25 C19.11836003 27.37893237 20.14517457 23.17686184 20 18.25 C19.11091804 13.87603427 17.72930017 10.97930017 14.5625 7.8125 C8.67275057 4.22118937 4.34319358 5.25 -3 5.25 Z " fill="#848486" transform="translate(543,6.75)"/>
<path d="M0 0 C2.67548031 4.01322046 2.58740465 7.28373655 2 12 C0.5 14.5625 0.5 14.5625 -1 16 C-0.175 16.61875 0.65 17.2375 1.5 17.875 C4.03588469 20.41815084 4.49100251 22.44180223 4.6875 26 C4.55680019 28.82901842 4.41760962 30.4402254 2.71484375 32.72265625 C-5.18926806 39.38386104 -8.34277429 37 -21 37 C-21 24.13 -21 11.26 -21 -2 C-13.47318541 -3.88170365 -6.83161304 -3.84278233 0 0 Z M-16 2 C-16 5.96 -16 9.92 -16 14 C-9.5511618 14.55367171 -9.5511618 14.55367171 -4 12 C-3.18129815 8.43793339 -3.18129815 8.43793339 -3 5 C-4.9626228 2.95204577 -6.4277307 2.05023362 -9.26953125 1.80078125 C-11.51397837 1.81138494 -13.75770893 1.90107539 -16 2 Z M-16 18 C-16 22.62 -16 27.24 -16 32 C-14.2675 32.061875 -12.535 32.12375 -10.75 32.1875 C-9.77546875 32.22230469 -8.8009375 32.25710937 -7.796875 32.29296875 C-4.56972462 31.95492925 -3.25505833 31.30787 -1 29 C-0.3914764 24.29176059 -0.3914764 24.29176059 -2.3125 20.125 C-5.41155513 18.05896325 -8.0791214 17.88520466 -11.6875 17.9375 C-13.110625 17.958125 -14.53375 17.97875 -16 18 Z " fill="#8E8E90" transform="translate(416,10)"/>
<path d="M0 0 C5.95441865 0.00351916 10.67843299 0.31705878 15.9375 3.25 C17.875 5.8125 17.875 5.8125 18.9375 8.25 C19.2675 8.91 19.5975 9.57 19.9375 10.25 C20.33517092 14.38577752 20.18535009 16.75429983 18.3125 20.5 C15.72437131 23.49678059 13.48510794 24.59768945 9.9375 26.25 C10.515 27.09304687 11.0925 27.93609375 11.6875 28.8046875 C12.43774193 29.91129435 13.18772874 31.01807419 13.9375 32.125 C15.05125 33.76082031 15.05125 33.76082031 16.1875 35.4296875 C17.9375 38.25 17.9375 38.25 17.9375 40.25 C15.6953125 40.57421875 15.6953125 40.57421875 12.9375 40.25 C10.8046875 38.01953125 10.8046875 38.01953125 8.8125 35.0625 C7.81863281 33.61810547 7.81863281 33.61810547 6.8046875 32.14453125 C1.9375 24.59937238 1.9375 24.59937238 1.9375 22.25 C2.55238281 22.16363281 3.16726562 22.07726562 3.80078125 21.98828125 C9.02691775 21.14503212 9.02691775 21.14503212 13.0625 17.9375 C14.07644255 14.82324787 13.99056895 13.32820154 12.9375 10.25 C11.21523504 7.00150023 11.21523504 7.00150023 7.9375 6.25 C4.3075 5.92 0.6775 5.59 -3.0625 5.25 C-3.0625 16.8 -3.0625 28.35 -3.0625 40.25 C-4.7125 40.25 -6.3625 40.25 -8.0625 40.25 C-8.71557052 29.63649343 -9.33665595 19.06438036 -8.6875 8.4375 C-8.64439697 7.72150635 -8.60129395 7.0055127 -8.55688477 6.26782227 C-8.06158582 -0.58084985 -6.67466632 0.07891231 0 0 Z " fill="#868689" transform="translate(230.0625,6.75)"/>
<path d="M0 0 C5.96915238 0.01621095 10.71555893 0.19565711 15.9375 3.25 C18.63638207 6.03180862 19.83134191 8.66035068 20.08984375 12.53125 C19.76862146 17.47313145 18.75525871 20.8564367 14.9375 24.25 C12.1875 25.0625 12.1875 25.0625 9.9375 25.25 C11.91404619 28.77954678 13.88664106 32.2344719 16.1875 35.5625 C17.9375 38.25 17.9375 38.25 17.9375 40.25 C15.16796875 40.578125 15.16796875 40.578125 11.9375 40.25 C9.92578125 37.984375 9.92578125 37.984375 8.25 35 C5.93045943 30.91145325 5.93045943 30.91145325 3.23046875 27.078125 C1.9375 25.25 1.9375 25.25 1.9375 22.25 C2.55238281 22.16363281 3.16726563 22.07726562 3.80078125 21.98828125 C8.99027343 21.12148181 8.99027343 21.12148181 13.125 18.0625 C14.25619404 14.14682831 13.54252298 11.94853122 11.9375 8.25 C7.03324976 5.49420876 7.03324976 5.49420876 -3.0625 5.25 C-3.0625 16.8 -3.0625 28.35 -3.0625 40.25 C-4.7125 40.25 -6.3625 40.25 -8.0625 40.25 C-8.08714775 34.71411467 -8.10533496 29.178261 -8.11743164 23.64233398 C-8.12247244 21.7575627 -8.12930498 19.87279535 -8.13793945 17.98803711 C-8.15001617 15.28498364 -8.15573068 12.58198169 -8.16015625 9.87890625 C-8.16531754 9.03099014 -8.17047882 8.18307404 -8.17579651 7.3094635 C-8.17599195 5.28928932 -8.12456211 3.26922066 -8.0625 1.25 C-6.10947678 -0.70302322 -2.58272418 0.03053467 0 0 Z " fill="#8E8D90" transform="translate(434.0625,6.75)"/>
<path d="M0 0 C1.2065625 0.0309375 1.2065625 0.0309375 2.4375 0.0625 C4.72069312 5.43574605 6.99923514 10.81093075 9.2734375 16.18798828 C10.04819381 18.01796008 10.82423159 19.84738988 11.6015625 21.67626953 C12.71689619 24.30100252 13.82764798 26.92763278 14.9375 29.5546875 C15.28748047 30.37556854 15.63746094 31.19644958 15.99804688 32.04220581 C18.4375 37.83475659 18.4375 37.83475659 18.4375 40.0625 C16.4575 40.0625 14.4775 40.0625 12.4375 40.0625 C11.76630451 38.6062455 11.10068193 37.14742133 10.4375 35.6875 C10.06625 34.87539063 9.695 34.06328125 9.3125 33.2265625 C8.4375 31.0625 8.4375 31.0625 8.4375 29.0625 C2.4975 29.0625 -3.4425 29.0625 -9.5625 29.0625 C-10.0575 31.5375 -10.0575 31.5375 -10.5625 34.0625 C-11.51644836 36.08487052 -12.50785351 38.0907696 -13.5625 40.0625 C-15.5425 40.0625 -17.5225 40.0625 -19.5625 40.0625 C-17.61435655 33.6769187 -15.10559033 27.79775874 -12.25390625 21.765625 C-9.92965557 16.76717719 -7.88967029 11.6489046 -5.83496094 6.53515625 C-3.22430926 0.07864169 -3.22430926 0.07864169 0 0 Z M-1.5625 8.0625 C-3.5425 13.6725 -5.5225 19.2825 -7.5625 25.0625 C-2.9425 25.0625 1.6775 25.0625 6.4375 25.0625 C4.74858451 19.19150806 2.97380629 13.61821853 0.4375 8.0625 C-0.2225 8.0625 -0.8825 8.0625 -1.5625 8.0625 Z " fill="#1D1D5E" transform="translate(160.5625,6.9375)"/>
<path d="M0 0 C2.33007812 0.18066406 2.33007812 0.18066406 5 1 C6.49804688 3.20214844 6.49804688 3.20214844 7.71875 6.109375 C8.17403076 7.16906494 8.62931152 8.22875488 9.09838867 9.32055664 C9.79218628 11.0181311 9.79218628 11.0181311 10.5 12.75 C11.22183472 14.45434204 11.22183472 14.45434204 11.95825195 16.19311523 C15.13066495 23.73022496 18.23075806 31.30426134 21 39 C20 40 20 40 17.4375 40.0625 C16.633125 40.041875 15.82875 40.02125 15 40 C14.32591692 38.73308493 13.66099503 37.46129251 13 36.1875 C12.443125 35.12595703 12.443125 35.12595703 11.875 34.04296875 C11 32 11 32 11 29 C5.06 29 -0.88 29 -7 29 C-7.474375 30.44375 -7.94875 31.8875 -8.4375 33.375 C-9.19397017 35.67730051 -9.91608814 37.83217629 -11 40 C-12.65 40 -14.3 40 -16 40 C-16.33 39.34 -16.66 38.68 -17 38 C-16.18448101 35.98640947 -15.27012025 34.0125209 -14.3125 32.0625 C-12.34139119 27.93944671 -10.53066362 23.88971909 -9.0625 19.5625 C-6.68824677 12.73273326 -3.32759953 6.40282494 0 0 Z M1 8 C-0.00419637 10.4566947 -1.00350501 12.91518353 -2 15.375 C-2.28617187 16.07367188 -2.57234375 16.77234375 -2.8671875 17.4921875 C-4.44524399 21.12885961 -4.44524399 21.12885961 -5 25 C-0.38 25 4.24 25 9 25 C7.02 19.39 5.04 13.78 3 8 C2.34 8 1.68 8 1 8 Z " fill="#7E7E81" transform="translate(318,7)"/>
<path d="M0 0 C1.2065625 0.0309375 1.2065625 0.0309375 2.4375 0.0625 C4.72069312 5.43574605 6.99923514 10.81093075 9.2734375 16.18798828 C10.04819381 18.01796008 10.82423159 19.84738988 11.6015625 21.67626953 C12.71689619 24.30100252 13.82764798 26.92763278 14.9375 29.5546875 C15.28748047 30.37556854 15.63746094 31.19644958 15.99804688 32.04220581 C18.4375 37.83475659 18.4375 37.83475659 18.4375 40.0625 C16.4575 40.0625 14.4775 40.0625 12.4375 40.0625 C11.76630451 38.6062455 11.10068193 37.14742133 10.4375 35.6875 C10.06625 34.87539063 9.695 34.06328125 9.3125 33.2265625 C8.4375 31.0625 8.4375 31.0625 8.4375 29.0625 C2.4975 29.0625 -3.4425 29.0625 -9.5625 29.0625 C-10.0575 31.5375 -10.0575 31.5375 -10.5625 34.0625 C-11.51644836 36.08487052 -12.50785351 38.0907696 -13.5625 40.0625 C-15.2125 40.0625 -16.8625 40.0625 -18.5625 40.0625 C-17.96172777 35.10468496 -16.40783632 30.8411462 -14.4375 26.29296875 C-14.13054199 25.57136063 -13.82358398 24.8497525 -13.50732422 24.10627747 C-12.86147803 22.59142626 -12.21249717 21.07790804 -11.56054688 19.56567383 C-10.55935278 17.24269779 -9.56796308 14.91572517 -8.578125 12.58789062 C-7.94848059 11.11434224 -7.31829157 9.64102642 -6.6875 8.16796875 C-6.38956543 7.47011765 -6.09163086 6.77226654 -5.78466797 6.05326843 C-3.20368896 0.07813876 -3.20368896 0.07813876 0 0 Z M-1.5625 8.0625 C-3.5425 13.6725 -5.5225 19.2825 -7.5625 25.0625 C-2.9425 25.0625 1.6775 25.0625 6.4375 25.0625 C4.74858451 19.19150806 2.97380629 13.61821853 0.4375 8.0625 C-0.2225 8.0625 -0.8825 8.0625 -1.5625 8.0625 Z " fill="#8A898C" transform="translate(473.5625,6.9375)"/>
<path d="M0 0 C0.87454834 0.00523682 1.74909668 0.01047363 2.65014648 0.01586914 C3.59438477 0.0190918 4.53862305 0.02231445 5.51147461 0.02563477 C6.50469727 0.03401367 7.49791992 0.04239258 8.52124023 0.05102539 C9.51833008 0.05553711 10.51541992 0.06004883 11.54272461 0.06469727 C14.01478872 0.07652532 16.48673541 0.0930069 18.95874023 0.11352539 C19.28874023 1.76352539 19.61874023 3.41352539 19.95874023 5.11352539 C14.01874023 5.11352539 8.07874023 5.11352539 1.95874023 5.11352539 C1.95874023 9.40352539 1.95874023 13.69352539 1.95874023 18.11352539 C7.56874023 18.11352539 13.17874023 18.11352539 18.95874023 18.11352539 C18.95874023 19.43352539 18.95874023 20.75352539 18.95874023 22.11352539 C13.34874023 22.11352539 7.73874023 22.11352539 1.95874023 22.11352539 C1.95874023 26.40352539 1.95874023 30.69352539 1.95874023 35.11352539 C7.56874023 35.11352539 13.17874023 35.11352539 18.95874023 35.11352539 C18.95874023 36.76352539 18.95874023 38.41352539 18.95874023 40.11352539 C11.69874023 40.11352539 4.43874023 40.11352539 -3.04125977 40.11352539 C-3.0641671 34.5775855 -3.08409467 29.04180884 -3.09619141 23.50585938 C-3.10123221 21.62108809 -3.10806475 19.73632074 -3.11669922 17.8515625 C-3.12877594 15.14850903 -3.13449045 12.44550708 -3.13891602 9.74243164 C-3.1440773 8.89451553 -3.14923859 8.04659943 -3.15455627 7.17298889 C-3.15475171 5.15281471 -3.10332187 3.13274605 -3.04125977 1.11352539 C-2.04125977 0.11352539 -2.04125977 0.11352539 0 0 Z " fill="#808082" transform="translate(257.041259765625,6.886474609375)"/>
<path d="M0 0 C0 0.66 0 1.32 0 2 C0.66 2 1.32 2 2 2 C3.42944945 4.35438733 4.08661261 5.48032433 3.625 8.25 C3.315625 9.11625 3.315625 9.11625 3 10 C1.68 10 0.36 10 -1 10 C-1.20625 9.195625 -1.4125 8.39125 -1.625 7.5625 C-2.305625 6.2940625 -2.305625 6.2940625 -3 5 C-6.59356359 3.9295768 -8.4268387 3.80894623 -12 5 C-12.33 7.31 -12.66 9.62 -13 12 C-9.90907785 13.99414332 -6.83290286 15.49666815 -3.4375 16.875 C0.5026776 18.62181207 2.9389892 20.05719672 5 24 C5.54990665 27.84934654 5.89050939 30.33941897 4.046875 33.77734375 C1.500799 37.07273958 -0.93293696 39.14875425 -5 40 C-9.27539161 40.06095263 -12.22998353 39.48544517 -15.875 37.1875 C-17.88767955 35.11562399 -19.14193557 33.74580619 -20 31 C-19.625 28.75 -19.625 28.75 -19 27 C-17.68 27 -16.36 27 -15 27 C-14.649375 27.969375 -14.29875 28.93875 -13.9375 29.9375 C-12.25173581 33.32156532 -12.25173581 33.32156532 -8.5625 34.125 C-5.01275784 34.29765066 -5.01275784 34.29765066 -2.5 32.4375 C-0.73242186 30.05330591 -0.73242186 30.05330591 -1.04296875 27.015625 C-1.70223135 23.79409449 -1.70223135 23.79409449 -4.58203125 22.42578125 C-6.18111328 21.87470703 -6.18111328 21.87470703 -7.8125 21.3125 C-14.99526211 18.76660015 -14.99526211 18.76660015 -18 16 C-19.38202586 11.85392242 -19.60077493 7.96617249 -18.3125 3.75 C-13.8321103 -2.22385294 -6.58730604 -2.19576868 0 0 Z " fill="#7C7C7E" transform="translate(592,8)"/>
<path d="M0 0 C7.92 0 15.84 0 24 0 C24 1.65 24 3.3 24 5 C21.03 5 18.06 5 15 5 C15 16.22 15 27.44 15 39 C12.525 39.495 12.525 39.495 10 40 C8.49393485 36.98786971 8.87839669 33.88717378 8.90234375 30.5859375 C8.9037587 29.85629791 8.90517365 29.12665833 8.90663147 28.37490845 C8.91223469 26.04156415 8.92478765 23.70831536 8.9375 21.375 C8.94251459 19.79427222 8.94707757 18.21354293 8.95117188 16.6328125 C8.96220516 12.75517146 8.97947189 8.87760193 9 5 C6.03 5 3.06 5 0 5 C0 3.35 0 1.7 0 0 Z " fill="#737375" transform="translate(280,7)"/>
<path d="M0 0 C1.65 0 3.3 0 5 0 C5 11.55 5 23.1 5 35 C9.95 35 14.9 35 20 35 C20 36.65 20 38.3 20 40 C13.4 40 6.8 40 0 40 C0 26.8 0 13.6 0 0 Z " fill="#7D7D7E" transform="translate(356,7)"/>
<path d="M0 0 C2.475 0.495 2.475 0.495 5 1 C5 12.22 5 23.44 5 35 C9.95 35 14.9 35 20 35 C20 36.65 20 38.3 20 40 C13.4 40 6.8 40 0 40 C0 26.8 0 13.6 0 0 Z " fill="#111252" transform="translate(49,7)"/>
<path d="M0 0 C1.32 0 2.64 0 4 0 C4 11.55 4 23.1 4 35 C8.95 35 13.9 35 19 35 C19 36.65 19 38.3 19 40 C12.4 40 5.8 40 -1 40 C-1.02290734 34.4640601 -1.04283491 28.92828345 -1.05493164 23.39233398 C-1.05997244 21.5075627 -1.06680498 19.62279535 -1.07543945 17.73803711 C-1.08751617 15.03498364 -1.09323068 12.33198169 -1.09765625 9.62890625 C-1.10281754 8.78099014 -1.10797882 7.93307404 -1.11329651 7.0594635 C-1.11349195 5.03928932 -1.06206211 3.01922066 -1 1 C-0.67 0.67 -0.34 0.34 0 0 Z " fill="#13124E" transform="translate(184,7)"/>
<path d="M0 0 C1.32 0 2.64 0 4 0 C4 13.2 4 26.4 4 40 C2.35 40 0.7 40 -1 40 C-1.02464775 34.46411467 -1.04283496 28.928261 -1.05493164 23.39233398 C-1.05997244 21.5075627 -1.06680498 19.62279535 -1.07543945 17.73803711 C-1.08751617 15.03498364 -1.09323068 12.33198169 -1.09765625 9.62890625 C-1.10281754 8.78099014 -1.10797882 7.93307404 -1.11329651 7.0594635 C-1.11349195 5.03928932 -1.06206211 3.01922066 -1 1 C-0.67 0.67 -0.34 0.34 0 0 Z " fill="#8E8E90" transform="translate(344,7)"/>
<path d="M0 0 C7.92 0 15.84 0 24 0 C25.19937746 5.99688731 24.19920452 8.07203278 21 13 C19.42691179 14.84860084 17.82097732 16.38135349 16 18 C15.34 17.67 14.68 17.34 14 17 C14.33 16.01 14.66 15.02 15 14 C14.01 13.67 13.02 13.34 12 13 C12.804375 12.21625 13.60875 11.4325 14.4375 10.625 C16.98690417 8.28017144 16.98690417 8.28017144 18 6 C12.06 5.67 6.12 5.34 0 5 C0 3.35 0 1.7 0 0 Z " fill="#0E104D" transform="translate(18,27)"/>
<path d="M0 0 C6.41244315 0.04223343 11.17713982 0.55213982 15.875 5.25 C16.140625 7.78125 16.140625 7.78125 16.125 10.75 C16.13015625 11.7296875 16.1353125 12.709375 16.140625 13.71875 C15.875 16.25 15.875 16.25 13.875 18.25 C12.885 17.92 11.895 17.59 10.875 17.25 C11.37 16.92 11.865 16.59 12.375 16.25 C14.75679561 13.07427253 14.06668226 10.14753934 13.875 6.25 C13.215 6.25 12.555 6.25 11.875 6.25 C12.205 6.91 12.535 7.57 12.875 8.25 C12.9146713 9.91619446 12.91884447 11.58391013 12.875 13.25 C11.885 13.745 11.885 13.745 10.875 14.25 C10.215 11.94 9.555 9.63 8.875 7.25 C5.245 6.59 1.615 5.93 -2.125 5.25 C-2.125 9.21 -2.125 13.17 -2.125 17.25 C-2.455 17.25 -2.785 17.25 -3.125 17.25 C-3.125 12.96 -3.125 8.67 -3.125 4.25 C0.87501715 3.24999571 2.93023353 3.44311595 6.875 4.25 C6.875 3.92 6.875 3.59 6.875 3.25 C2.585 2.92 -1.705 2.59 -6.125 2.25 C-5.795 14.13 -5.465 26.01 -5.125 38.25 C7.43681501 38.70760432 7.43681501 38.70760432 13.875 37.25 C13.545 37.91 13.215 38.57 12.875 39.25 C10.16783758 40.15238747 8.63723232 40.36851302 5.86328125 40.34765625 C4.72729492 40.34282227 4.72729492 40.34282227 3.56835938 40.33789062 C2.38983398 40.32532227 2.38983398 40.32532227 1.1875 40.3125 C0.39021484 40.30798828 -0.40707031 40.30347656 -1.22851562 40.29882812 C-3.19404257 40.2870585 -5.15953085 40.26912348 -7.125 40.25 C-7.14964775 34.71411467 -7.16783496 29.178261 -7.17993164 23.64233398 C-7.18497244 21.7575627 -7.19180498 19.87279535 -7.20043945 17.98803711 C-7.21251617 15.28498364 -7.21823068 12.58198169 -7.22265625 9.87890625 C-7.22781754 9.03099014 -7.23297882 8.18307404 -7.23829651 7.3094635 C-7.23849195 5.28928932 -7.18706211 3.26922066 -7.125 1.25 C-5.28846389 -0.58653611 -2.46707867 0.03371862 0 0 Z " fill="#0F1246" transform="translate(122.125,6.75)"/>
<path d="M0 0 C2.06520632 3.09780948 2.29477024 3.9540481 2.3125 7.5 C2.32925781 8.2734375 2.34601563 9.046875 2.36328125 9.84375 C1.92078843 12.47015897 1.02185443 13.33557103 -1 15 C-1.33 14.01 -1.66 13.02 -2 12 C-2.639375 12.495 -3.27875 12.99 -3.9375 13.5 C-7.9808849 15.48043342 -11.56052242 15.47696867 -16 15 C-17.87824891 13.12175109 -17.39102397 9.96064724 -17.5625 7.4375 C-17.64628906 6.23996094 -17.73007812 5.04242188 -17.81640625 3.80859375 C-17.87699219 2.88175781 -17.93757813 1.95492188 -18 1 C-18.99 1.66 -19.98 2.32 -21 3 C-21 1.35 -21 -0.3 -21 -2 C-13.65237278 -4.09449603 -6.66863722 -3.75110843 0 0 Z M-16 2 C-16 5.96 -16 9.92 -16 14 C-9.5511618 14.55367171 -9.5511618 14.55367171 -4 12 C-3.18129815 8.43793339 -3.18129815 8.43793339 -3 5 C-4.9626228 2.95204577 -6.4277307 2.05023362 -9.26953125 1.80078125 C-11.51397837 1.81138494 -13.75770893 1.90107539 -16 2 Z " fill="#8E8D90" transform="translate(416,10)"/>
<path d="M0 0 C4.29 0 8.58 0 13 0 C13 0.99 13 1.98 13 3 C10.03 2.67 7.06 2.34 4 2 C3.97298592 4.10409639 3.95359777 6.20829178 3.9375 8.3125 C3.92589844 9.48425781 3.91429688 10.65601563 3.90234375 11.86328125 C3.85100102 15.03059195 3.85100102 15.03059195 5 18 C4.34 18 3.68 18 3 18 C3.33 23.61 3.66 29.22 4 35 C11.58592728 34.9879155 11.58592728 34.9879155 18 31.625 C18.66 30.75875 19.32 29.8925 20 29 C20.99 28.01 21.98 27.02 23 26 C22.34 28.97 21.68 31.94 21 35 C13.43078175 37.37465671 8.62657897 37 0 37 C0 24.79 0 12.58 0 0 Z " fill="#1F1F6B" transform="translate(116,9)"/>
<path d="M0 0 C1.1916143 3.57484289 0.74788456 4.28587882 -0.65234375 7.66796875 C-1.01650391 8.56064453 -1.38066406 9.45332031 -1.75585938 10.37304688 C-2.14580078 11.30181641 -2.53574219 12.23058594 -2.9375 13.1875 C-3.32357422 14.12787109 -3.70964844 15.06824219 -4.10742188 16.03710938 C-5.06321649 18.36169628 -6.02767007 20.68229199 -7 23 C-3.09072846 19.32004327 -1.2509529 15.16018073 0 10 C0.94678385 7.640717 1.97138751 5.32555867 3 3 C4 6 4 6 2 11 C6.29 11.33 10.58 11.66 15 12 C15 12.33 15 12.66 15 13 C12.03 13 9.06 13 6 13 C6 13.66 6 14.32 6 15 C10.29 15 14.58 15 19 15 C19.9765625 17.31119792 20.953125 19.62239583 21.9296875 21.93359375 C22.8244937 24.15746715 22.8244937 24.15746715 25 25 C25.33 24.34 25.66 23.68 26 23 C26.495 24.98 26.495 24.98 27 27 C25.02 27 23.04 27 21 27 C20.32880451 25.5437455 19.66318193 24.08492133 19 22.625 C18.62875 21.81289063 18.2575 21.00078125 17.875 20.1640625 C17 18 17 18 17 16 C11.06 16 5.12 16 -1 16 C-1.33 17.65 -1.66 19.3 -2 21 C-2.95394836 23.02237052 -3.94535351 25.0282696 -5 27 C-6.65 27 -8.3 27 -10 27 C-9.43343202 20.88106577 -6.89348871 15.67636193 -4.4375 10.125 C-4.01275391 9.15046875 -3.58800781 8.1759375 -3.15039062 7.171875 C-2.10624496 4.77855235 -1.05597786 2.38811986 0 0 Z " fill="#7B7A7F" transform="translate(465,20)"/>
<path d="M0 0 C4.875 2.75 4.875 2.75 6 5 C7.17397726 13.39616646 7.17397726 13.39616646 4.73046875 16.734375 C-0.39128611 20.97134982 -4.23573245 21.12991922 -10.625 21.0625 C-11.42679687 21.05798828 -12.22859375 21.05347656 -13.0546875 21.04882812 C-15.03649006 21.03703168 -17.01825433 21.01909605 -19 21 C-19 20.34 -19 19.68 -19 19 C-18.01 19.05800781 -17.02 19.11601563 -16 19.17578125 C-6.08466405 19.67326069 -6.08466405 19.67326069 2.7421875 15.640625 C4.31258707 13.59227773 4.49795427 12.31338774 4.5625 9.75 C4.41192175 6.21379139 4.41192175 6.21379139 3 5 C2.96261719 5.61488281 2.92523438 6.22976562 2.88671875 6.86328125 C2.82097656 7.67152344 2.75523437 8.47976562 2.6875 9.3125 C2.62949219 10.11300781 2.57148438 10.91351563 2.51171875 11.73828125 C1.91161175 14.39066259 1.14291033 15.36503879 -1 17 C-1.66 17 -2.32 17 -3 17 C-3 16.34 -3 15.68 -3 15 C-2.01 14.34 -1.02 13.68 0 13 C0.66676878 9.54250051 0.66676878 9.54250051 0 6 C-3.87782237 2.24726868 -8.86173881 2.38345233 -14 2 C-14 6.62 -14 11.24 -14 16 C-10.7 16 -7.4 16 -4 16 C-6 18 -6 18 -7.91015625 18.23046875 C-13.88888889 18.11111111 -13.88888889 18.11111111 -15 17 C-15.07319621 14.30345146 -15.09242537 11.63308542 -15.0625 8.9375 C-15.05798828 8.17888672 -15.05347656 7.42027344 -15.04882812 6.63867188 C-15.0370068 4.75908129 -15.01907078 2.87953101 -15 1 C-12.87506859 0.97306425 -10.75004088 0.95363372 -8.625 0.9375 C-7.44164062 0.92589844 -6.25828125 0.91429688 -5.0390625 0.90234375 C-2 1 -2 1 0 2 C0 1.34 0 0.68 0 0 Z " fill="#7C7D7E" transform="translate(414,26)"/>
<path d="M0 0 C6.9002569 0.09688604 12.22672462 1.4449323 17.94238281 5.25537109 C17.94238281 5.91537109 17.94238281 6.57537109 17.94238281 7.25537109 C17.38550781 6.96662109 16.82863281 6.67787109 16.25488281 6.38037109 C13.85743636 5.21404579 11.42641342 4.221383 8.94238281 3.25537109 C8.94238281 3.91537109 8.94238281 4.57537109 8.94238281 5.25537109 C9.68488281 5.48224609 10.42738281 5.70912109 11.19238281 5.94287109 C15.03384844 7.77629787 17.05726693 10.48513933 18.94238281 14.25537109 C19.0127205 16.12916714 19.02668501 18.00538211 19.00488281 19.88037109 C18.99585938 20.88326172 18.98683594 21.88615234 18.97753906 22.91943359 C18.9659375 23.69029297 18.95433594 24.46115234 18.94238281 25.25537109 C18.28238281 25.58537109 17.62238281 25.91537109 16.94238281 26.25537109 C17.03519531 24.52287109 17.03519531 24.52287109 17.12988281 22.75537109 C17.12187223 18.24541421 16.26333203 14.16114758 13.94238281 10.25537109 C10.8018798 7.22906819 7.94756869 6.66914736 3.69238281 6.06787109 C2.61472656 5.90931641 1.53707031 5.75076172 0.42675781 5.58740234 C-0.39308594 5.47783203 -1.21292969 5.36826172 -2.05761719 5.25537109 C-2.05761719 4.92537109 -2.05761719 4.59537109 -2.05761719 4.25537109 C2.39738281 3.76037109 2.39738281 3.76037109 6.94238281 3.25537109 C1.99238281 3.25537109 -2.95761719 3.25537109 -8.05761719 3.25537109 C-8.03441406 5.61435547 -8.01121094 7.97333984 -7.98730469 10.40380859 C-7.9717151 12.68407656 -7.95956643 14.96433862 -7.94775391 17.24462891 C-7.93768531 18.83156992 -7.92402952 20.41849234 -7.90673828 22.00537109 C-7.88252717 24.28406356 -7.87114297 26.56251115 -7.86230469 28.84130859 C-7.85198212 29.55282074 -7.84165955 30.26433289 -7.83102417 30.99740601 C-7.83062297 32.75168775 -7.9355951 34.50533818 -8.05761719 36.25537109 C-8.71761719 36.91537109 -9.37761719 37.57537109 -10.05761719 38.25537109 C-10.08226646 33.00431667 -10.10045287 27.75329564 -10.11254883 22.50219727 C-10.11758937 20.71443089 -10.12442173 18.92666865 -10.13305664 17.13891602 C-10.14513449 14.57485941 -10.15084813 12.01085712 -10.15527344 9.44677734 C-10.16043472 8.6426088 -10.16559601 7.83844025 -10.1709137 7.00990295 C-10.17110934 5.09135395 -10.11963701 3.17291741 -10.05761719 1.25537109 C-7.7980794 -1.00416669 -3.04986755 0.00796121 0 0 Z " fill="#7F7F81" transform="translate(545.0576171875,6.74462890625)"/>
<path d="M0 0 C5.93817501 0.0035133 10.71065864 0.27787452 15.9375 3.25 C17.4375 5.9375 17.4375 5.9375 17.9375 8.25 C17.5353125 7.79109375 17.133125 7.3321875 16.71875 6.859375 C14.66893754 5.00735147 13.06331893 4.33548784 10.4375 3.5 C9.6640625 3.23703125 8.890625 2.9740625 8.09375 2.703125 C3.64454184 1.94028162 3.64454184 1.94028162 -6.0625 3.25 C-6.0625 15.13 -6.0625 27.01 -6.0625 39.25 C-5.4025 39.25 -4.7425 39.25 -4.0625 39.25 C-4.0625 27.7 -4.0625 16.15 -4.0625 4.25 C0.5575 4.25 5.1775 4.25 9.9375 4.25 C10.2675 4.91 10.5975 5.57 10.9375 6.25 C4.0075 5.755 4.0075 5.755 -3.0625 5.25 C-3.0625 16.8 -3.0625 28.35 -3.0625 40.25 C-4.7125 40.25 -6.3625 40.25 -8.0625 40.25 C-8.08714775 34.71411467 -8.10533496 29.178261 -8.11743164 23.64233398 C-8.12247244 21.7575627 -8.12930498 19.87279535 -8.13793945 17.98803711 C-8.15001617 15.28498364 -8.15573068 12.58198169 -8.16015625 9.87890625 C-8.16531754 9.03099014 -8.17047882 8.18307404 -8.17579651 7.3094635 C-8.17599195 5.28928932 -8.12456211 3.26922066 -8.0625 1.25 C-6.10947678 -0.70302322 -2.58272418 0.03053467 0 0 Z " fill="#7E7D80" transform="translate(434.0625,6.75)"/>
<path d="M0 0 C0.99 0 1.98 0 3 0 C6.07692308 6.4 6.07692308 6.4 5.6875 9.4375 C5.460625 9.953125 5.23375 10.46875 5 11 C5 10.34 5 9.68 5 9 C4.34 9 3.68 9 3 9 C3 8.01 3 7.02 3 6 C2.01 6 1.02 6 0 6 C-0.14695312 6.58265625 -0.29390625 7.1653125 -0.4453125 7.765625 C-2.42775688 15.01180102 -5.51924809 21.36566868 -9 28 C-9.79555691 29.58138223 -10.58781868 31.16443193 -11.375 32.75 C-11.91125 33.8225 -12.4475 34.895 -13 36 C-13.66 36 -14.32 36 -15 36 C-14.53489775 31.46525308 -13.20687077 27.91062737 -11.30859375 23.8359375 C-10.26809526 21.58100644 -9.26640543 19.31986196 -8.28515625 17.0390625 C-7.98109863 16.33378418 -7.67704102 15.62850586 -7.36376953 14.90185547 C-6.75727583 13.49288461 -6.15270829 12.0830827 -5.55029297 10.67236328 C-2.27644716 3.11577384 -2.27644716 3.11577384 0 0 Z " fill="#8C8C8E" transform="translate(319,9)"/>
<path d="M0 0 C5.28 0 10.56 0 16 0 C16.33 0.66 16.66 1.32 17 2 C15.23086176 2.22226864 13.45955629 2.42733873 11.6875 2.625 C10.70136719 2.74101562 9.71523438 2.85703125 8.69921875 2.9765625 C6 3 6 3 3 1 C3.33 11.89 3.66 22.78 4 34 C6.31 34.33 8.62 34.66 11 35 C11 35.33 11 35.66 11 36 C10.30132813 36.06058594 9.60265625 36.12117188 8.8828125 36.18359375 C7.97273437 36.26738281 7.06265625 36.35117187 6.125 36.4375 C5.22007812 36.51871094 4.31515625 36.59992187 3.3828125 36.68359375 C0.98889139 36.86989285 0.98889139 36.86989285 -1 38 C-0.83701416 37.33395752 -0.67402832 36.66791504 -0.50610352 35.98168945 C0.10166929 32.40101927 0.12448724 28.91127767 0.09765625 25.29296875 C0.0962413 24.56757401 0.09482635 23.84217926 0.09336853 23.09480286 C0.08779931 20.7923255 0.07525261 18.48994765 0.0625 16.1875 C0.05748102 14.62044412 0.05291881 13.0533867 0.04882812 11.48632812 C0.03869354 7.65748349 0.01911241 3.82885231 0 0 Z " fill="#919093" transform="translate(536,9)"/>
<path d="M0 0 C2 1 2 1 3 2 C3.15988491 4.51880517 3.25934225 7.01342266 3.31640625 9.53515625 C3.33718735 10.28840683 3.35796844 11.04165741 3.37937927 11.81773376 C3.44495425 14.2325599 3.50379621 16.64749798 3.5625 19.0625 C3.6056777 20.69597529 3.64929173 22.3294391 3.69335938 23.96289062 C3.80146797 27.97514718 3.90048114 31.98748424 4 36 C8.95 36.33 13.9 36.66 19 37 C19 37.33 19 37.66 19 38 C16.02077407 38.02683987 13.04178705 38.04676037 10.0625 38.0625 C9.21236328 38.07087891 8.36222656 38.07925781 7.48632812 38.08789062 C6.67744141 38.09111328 5.86855469 38.09433594 5.03515625 38.09765625 C4.2862915 38.10289307 3.53742676 38.10812988 2.76586914 38.11352539 C1 38 1 38 0 37 C-0.08858646 34.26105915 -0.11523479 31.5474673 -0.09765625 28.80859375 C-0.0962413 27.98875504 -0.09482635 27.16891632 -0.09336853 26.32423401 C-0.08775289 23.69528618 -0.07519779 21.06642227 -0.0625 18.4375 C-0.05748701 16.65950643 -0.05292376 14.88151154 -0.04882812 13.10351562 C-0.03777839 8.73564455 -0.02050331 4.36783652 0 0 Z " fill="#1F215C" transform="translate(49,7)"/>
<path d="M0 0 C0.99 0 1.98 0 3 0 C3 11.55 3 23.1 3 35 C7.29 35 11.58 35 16 35 C16 35.33 16 35.66 16 36 C10.72 36 5.44 36 0 36 C0 24.12 0 12.24 0 0 Z " fill="#212068" transform="translate(185,9)"/>
<path d="M0 0 C7.26 0 14.52 0 22 0 C22 0.66 22 1.32 22 2 C17.545 2.495 17.545 2.495 13 3 C12.67 13.89 12.34 24.78 12 36 C11.34 36 10.68 36 10 36 C9.67 24.78 9.34 13.56 9 2 C6.03 2 3.06 2 0 2 C0 1.34 0 0.68 0 0 Z " fill="#8C8B8E" transform="translate(281,9)"/>
<path d="M0 0 C0.66 0.33 1.32 0.66 2 1 C1.484375 2.010625 0.96875 3.02125 0.4375 4.0625 C-1.25127163 8.05925952 -1.13778444 10.75227142 0 15 C1.85009832 19.22380937 3.98570026 22.56274659 8 25 C3.25 24.125 3.25 24.125 1 23 C1 23.66 1 24.32 1 25 C2.11375 25.433125 2.11375 25.433125 3.25 25.875 C5.56739797 26.82302644 7.77917115 27.84845911 10 29 C7 30 7 30 4.1875 29 C-0.96014818 25.7701031 -5.58886224 21.06789235 -7 15 C-7.1443621 11.65904848 -7.11678495 8.34134725 -7 5 C-6.01 5.495 -6.01 5.495 -5 6 C-4.40234375 8.6875 -4.40234375 8.6875 -3.9375 12 C-3.69235896 15.81811932 -3.69235896 15.81811932 -2 19 C-2.165 18.319375 -2.33 17.63875 -2.5 16.9375 C-3.63132842 10.29094553 -2.90709589 5.93532077 0 0 Z " fill="#14154F" transform="translate(75,17)"/>
<path d="M0 0 C4.41832494 1.35004373 6.64842388 2.99361106 9 7 C9.67864807 11.28972609 9.46406448 14.30390328 7 18 C2.52833673 20.80778856 -0.76109914 21.31433405 -6 21 C-3.03312999 19.35173889 -0.34373475 18.55728913 3 18 C3.14975239 10.94348748 3.14975239 10.94348748 2 4 C0.68 3.67 -0.64 3.34 -2 3 C-1.34 2.67 -0.68 2.34 0 2 C0 1.34 0 0.68 0 0 Z " fill="#848486" transform="translate(588,25)"/>
<path d="M0 0 C0.66 0.33 1.32 0.66 2 1 C1.67 2.32 1.34 3.64 1 5 C1.99 4.67 2.98 4.34 4 4 C5.90112305 3.97827148 5.90112305 3.97827148 8.01171875 4.12109375 C8.76904297 4.16943359 9.52636719 4.21777344 10.30664062 4.26757812 C11.09232422 4.32365234 11.87800781 4.37972656 12.6875 4.4375 C13.48478516 4.48970703 14.28207031 4.54191406 15.10351562 4.59570312 C17.06936522 4.72519022 19.03473665 4.86190041 21 5 C21 5.33 21 5.66 21 6 C15.06 6 9.12 6 3 6 C2.67 7.65 2.34 9.3 2 11 C1.04605164 13.02237052 0.05464649 15.0282696 -1 17 C-2.98 17 -4.96 17 -7 17 C-5.1668733 11.00067626 -2.92678249 5.55079437 0 0 Z " fill="#1B1B56" transform="translate(148,30)"/>
<path d="M0 0 C1.39456452 0.00667256 2.78911118 0.01863093 4.18359375 0.03515625 C4.89451172 0.03966797 5.60542969 0.04417969 6.33789062 0.04882812 C8.09899388 0.06064761 9.86005411 0.07858362 11.62109375 0.09765625 C11.62109375 1.08765625 11.62109375 2.07765625 11.62109375 3.09765625 C3.70109375 3.59265625 3.70109375 3.59265625 -4.37890625 4.09765625 C-4.56453125 6.05703125 -4.75015625 8.01640625 -4.94140625 10.03515625 C-5.04582031 11.13730469 -5.15023438 12.23945312 -5.2578125 13.375 C-5.29777344 14.27347656 -5.33773438 15.17195313 -5.37890625 16.09765625 C-3.43799799 18.03856451 0.09403277 17.4968506 2.68359375 17.66015625 C3.97394531 17.74394531 5.26429688 17.82773437 6.59375 17.9140625 C8.09228516 18.00494141 8.09228516 18.00494141 9.62109375 18.09765625 C9.62109375 18.42765625 9.62109375 18.75765625 9.62109375 19.09765625 C4.01109375 19.09765625 -1.59890625 19.09765625 -7.37890625 19.09765625 C-8.3539487 15.19748644 -8.32701594 12.78944421 -7.94140625 8.84765625 C-7.83957031 7.77 -7.73773438 6.69234375 -7.6328125 5.58203125 C-7.54902344 4.7621875 -7.46523437 3.94234375 -7.37890625 3.09765625 C-6.71890625 3.09765625 -6.05890625 3.09765625 -5.37890625 3.09765625 C-5.04890625 2.43765625 -4.71890625 1.77765625 -4.37890625 1.09765625 C-3.37890625 0.09765625 -3.37890625 0.09765625 0 0 Z " fill="#828284" transform="translate(263.37890625,25.90234375)"/>
<path d="M0 0 C0.33 0 0.66 0 1 0 C1 3.96 1 7.92 1 12 C6.61 12 12.22 12 18 12 C18 13.65 18 15.3 18 17 C10.74 17 3.48 17 -4 17 C-3.67 16.34 -3.34 15.68 -3 15 C-0.9375 14.375 -0.9375 14.375 1 14 C0.34 13.01 -0.32 12.02 -1 11 C-0.9765625 8.30078125 -0.9765625 8.30078125 -0.625 5.3125 C-0.51414062 4.31863281 -0.40328125 3.32476562 -0.2890625 2.30078125 C-0.19367188 1.54152344 -0.09828125 0.78226563 0 0 Z " fill="#737375" transform="translate(258,30)"/>
<path d="M0 0 C3.49830777 -0.32542398 5.65680138 -0.15667763 8.875 1.3125 C11.81289784 5.02807668 11.47630508 7.92214196 11.37109375 12.5390625 C11 15 11 15 9 17 C8.01 16.67 7.02 16.34 6 16 C6.495 15.67 6.99 15.34 7.5 15 C9.88179561 11.82427253 9.19168226 8.89753934 9 5 C8.34 5 7.68 5 7 5 C7.33 5.66 7.66 6.32 8 7 C8.0396713 8.66619446 8.04384447 10.33391013 8 12 C7.01 12.495 7.01 12.495 6 13 C5.34 10.69 4.68 8.38 4 6 C0.37 5.34 -3.26 4.68 -7 4 C-7 7.96 -7 11.92 -7 16 C-7.33 16 -7.66 16 -8 16 C-8 11.71 -8 7.42 -8 3 C-3.99998285 1.99999571 -1.94476647 2.19311595 2 3 C1.34 2.01 0.68 1.02 0 0 Z " fill="#141651" transform="translate(127,8)"/>
<path d="M0 0 C1.08410156 0.07863281 2.16820312 0.15726563 3.28515625 0.23828125 C4.59806641 0.46064453 4.59806641 0.46064453 5.9375 0.6875 C6.2675 1.3475 6.5975 2.0075 6.9375 2.6875 C0.0075 2.1925 0.0075 2.1925 -7.0625 1.6875 C-7.0625 13.2375 -7.0625 24.7875 -7.0625 36.6875 C-8.7125 36.6875 -10.3625 36.6875 -12.0625 36.6875 C-12.0625 31.0775 -12.0625 25.4675 -12.0625 19.6875 C-11.4025 19.6875 -10.7425 19.6875 -10.0625 19.6875 C-10.0625 24.6375 -10.0625 29.5875 -10.0625 34.6875 C-9.4025 34.6875 -8.7425 34.6875 -8.0625 34.6875 C-8.0625 23.4675 -8.0625 12.2475 -8.0625 0.6875 C-5.25168527 -0.71790737 -3.11478282 -0.24873713 0 0 Z " fill="#6E6D70" transform="translate(234.0625,10.3125)"/>
<path d="M0 0 C0.66 0 1.32 0 2 0 C5.3 7.59 8.6 15.18 12 23 C11.01 23.33 10.02 23.66 9 24 C8.73445313 23.43410156 8.46890625 22.86820313 8.1953125 22.28515625 C7.66550781 21.18494141 7.66550781 21.18494141 7.125 20.0625 C6.77695312 19.33160156 6.42890625 18.60070312 6.0703125 17.84765625 C5.1315023 15.83667541 5.1315023 15.83667541 3 15 C1.29636178 14.77377919 -0.41328701 14.59111527 -2.125 14.4375 C-3.03507812 14.35371094 -3.94515625 14.26992188 -4.8828125 14.18359375 C-5.93082031 14.09271484 -5.93082031 14.09271484 -7 14 C-7 13.34 -7 12.68 -7 12 C-3.7 12 -0.4 12 3 12 C2.01 8.04 1.02 4.08 0 0 Z " fill="#909092" transform="translate(325,21)"/>
<path d="M0 0 C0.33 0.66 0.66 1.32 1 2 C1.78375 2.28875 2.5675 2.5775 3.375 2.875 C6.31501099 4.13500471 7.31463588 5.33889875 9 8 C10.65 7.67 12.3 7.34 14 7 C14 10.3 14 13.6 14 17 C12.68 16.67 11.36 16.34 10 16 C10 15.34 10 14.68 10 14 C9.4225 13.79375 8.845 13.5875 8.25 13.375 C5.136873 11.4725335 3.79260061 9.13705107 2 6 C2 5.01 2 4.02 2 3 C1.34 3 0.68 3 0 3 C0 2.01 0 1.02 0 0 Z " fill="#8C8C8E" transform="translate(513,28)"/>
<path d="M0 0 C0.99 0.495 0.99 0.495 2 1 C3.66565749 1.15222973 5.33656496 1.24917215 7.0078125 1.31640625 C7.99394531 1.35830078 8.98007812 1.40019531 9.99609375 1.44335938 C11.54490234 1.50233398 11.54490234 1.50233398 13.125 1.5625 C14.68541016 1.62727539 14.68541016 1.62727539 16.27734375 1.69335938 C18.85142528 1.7996288 21.42560508 1.90166583 24 2 C23.34 3.98 22.68 5.96 22 8 C21.01 7.67 20.02 7.34 19 7 C19 6.34 19 5.68 19 5 C12.73 5 6.46 5 0 5 C0 3.35 0 1.7 0 0 Z " fill="#12155A" transform="translate(18,27)"/>
<path d="M0 0 C2.3125 -0.3125 2.3125 -0.3125 5 0 C7.4512811 3.06410137 8.90860335 6.06994385 9 10 C7.61208206 14.25409168 6.24770318 17.31943463 2.25 19.5 C1.13625 19.7475 1.13625 19.7475 0 20 C0.33 19.34 0.66 18.68 1 18 C1.66 18 2.32 18 3 18 C3.58707914 14.6562014 4.05899205 11.40008698 4 8 C2.18712805 5.60204619 2.18712805 5.60204619 0 4 C0 2.68 0 1.36 0 0 Z " fill="#8A898D" transform="translate(241,10)"/>
<path d="M0 0 C1.32 0.66 2.64 1.32 4 2 C4 2.66 4 3.32 4 4 C3.01 4.495 3.01 4.495 2 5 C2 14.9 2 24.8 2 35 C0.515 35.495 0.515 35.495 -1 36 C-1.02468447 31.19450253 -1.04285255 26.38904182 -1.05493164 21.58349609 C-1.05996621 19.94807289 -1.06679427 18.3126542 -1.07543945 16.67724609 C-1.08754335 14.32909025 -1.093237 11.98099381 -1.09765625 9.6328125 C-1.10281754 8.89942657 -1.10797882 8.16604065 -1.11329651 7.41043091 C-1.11387171 2.22774341 -1.11387171 2.22774341 0 0 Z " fill="#929296" transform="translate(498,9)"/>
<path d="M0 0 C-3 2 -3 2 -6.1875 1.625 C-7.115625 1.41875 -8.04375 1.2125 -9 1 C-9 1.66 -9 2.32 -9 3 C-8.01 2.67 -7.02 2.34 -6 2 C-3.64811553 2.59793673 -1.31074405 3.25881795 1 4 C1 4.66 1 5.32 1 6 C-4.28 6 -9.56 6 -15 6 C-15 5.34 -15 4.68 -15 4 C-18.96 5.98 -18.96 5.98 -23 8 C-21.12033784 4.24067567 -20.04135193 2.72779551 -16.41796875 0.75 C-11.14817663 -0.88457203 -5.45219109 -0.27223146 0 0 Z " fill="#171954" transform="translate(96,7)"/>
<path d="M0 0 C0 1.33333333 0 2.66666667 0 4 C0.99 4.33 1.98 4.66 3 5 C2.21625 5.70125 1.4325 6.4025 0.625 7.125 C-2.52089202 10.57050078 -4.05450649 13.23107038 -3.9609375 17.984375 C-3.55919076 21.94232432 -2.69983354 25.37368844 -1 29 C-4 28 -4 28 -5.16796875 26.33984375 C-6.23843529 23.3294707 -6.3014284 20.75481213 -6.3125 17.5625 C-6.33763672 15.89380859 -6.33763672 15.89380859 -6.36328125 14.19140625 C-5.96756708 10.71507852 -5.00367286 8.82840365 -3 6 C-3.66 6 -4.32 6 -5 6 C-5.66 7.98 -6.32 9.96 -7 12 C-7.66 12 -8.32 12 -9 12 C-7.72210402 6.03648545 -4.66283606 3.51582826 0 0 Z " fill="#18194F" transform="translate(11,9)"/>
<path d="M0 0 C0.82407349 0.15202881 0.82407349 0.15202881 1.66479492 0.30712891 C4.16998946 0.76089003 6.67844834 1.19309906 9.1875 1.625 C10.05181641 1.78484375 10.91613281 1.9446875 11.80664062 2.109375 C18.08947226 3.17556077 18.08947226 3.17556077 24 1 C24 1.66 24 2.32 24 3 C22.865625 3.45375 21.73125 3.9075 20.5625 4.375 C16.95278308 5.57095806 16.95278308 5.57095806 16 8 C9.96176871 8.75477891 6.74843005 6.261872 2 3 C1.34 2.67 0.68 2.34 0 2 C0 1.34 0 0.68 0 0 Z M24 0 C26 1 26 1 26 1 Z " fill="#1B1D66" transform="translate(76,40)"/>
<path d="M0 0 C0.33 0 0.66 0 1 0 C1.33 2.64 1.66 5.28 2 8 C2.66 8 3.32 8 4 8 C4.66 7.34 5.32 6.68 6 6 C6.7425 6.45375 7.485 6.9075 8.25 7.375 C10.46930578 8.68640796 12.67967822 9.88280803 15 11 C14.67 11.99 14.34 12.98 14 14 C14.99 14.33 15.98 14.66 17 15 C17 15.66 17 16.32 17 17 C11.01151354 15.43778614 5.83126717 13.96411665 1 10 C-0.1577506 6.52674819 -0.06866652 3.63932552 0 0 Z " fill="#787879" transform="translate(573,14)"/>
<path d="M0 0 C5.63689034 1.32632714 7.93185683 5.46631765 11 10 C10.67 10.66 10.34 11.32 10 12 C9.67 12 9.34 12 9 12 C9.680625 13.11375 10.36125 14.2275 11.0625 15.375 C12.22265625 17.2734375 12.22265625 17.2734375 13 19 C12.67 19.66 12.34 20.32 12 21 C9.98027094 18.45250929 7.98799624 15.88480594 6 13.3125 C5.42765625 12.59126953 4.8553125 11.87003906 4.265625 11.12695312 C3.72421875 10.42119141 3.1828125 9.71542969 2.625 8.98828125 C2.12226563 8.34415283 1.61953125 7.70002441 1.1015625 7.03637695 C-0.24647943 4.54435174 -0.20352094 2.79205294 0 0 Z " fill="#858587" transform="translate(506,19)"/>
<path d="M0 0 C0.66 0 1.32 0 2 0 C1.7834375 0.8353125 1.7834375 0.8353125 1.5625 1.6875 C1.376875 2.450625 1.19125 3.21375 1 4 C0.814375 4.721875 0.62875 5.44375 0.4375 6.1875 C-0.43776617 11.81421107 -0.89981327 16.94538478 2 22 C1.01 22 0.02 22 -1 22 C-1.28875 21.360625 -1.5775 20.72125 -1.875 20.0625 C-2.82823451 17.84793921 -2.82823451 17.84793921 -5 17 C-5 13.7 -5 10.4 -5 7 C-4.01 6.67 -3.02 6.34 -2 6 C-0.77479736 2.99152582 -0.77479736 2.99152582 0 0 Z " fill="#222264" transform="translate(6,15)"/>
<path d="M0 0 C0.33 0 0.66 0 1 0 C1 13.2 1 26.4 1 40 C-0.65 40 -2.3 40 -4 40 C-6.3125 37.5 -6.3125 37.5 -8 35 C-7.67 34.34 -7.34 33.68 -7 33 C-6.1028125 33.9590625 -6.1028125 33.9590625 -5.1875 34.9375 C-3.09189663 37.20310389 -3.09189663 37.20310389 0 38 C-0.12568359 36.52466797 -0.12568359 36.52466797 -0.25390625 35.01953125 C-1.15002813 23.27244872 -0.76285064 11.74720795 0 0 Z " fill="#7A7A7C" transform="translate(527,7)"/>
<path d="M0 0 C3.97297607 0.50626515 6.73921426 1.46808979 10.21875 3.41015625 C9.88875 4.07015625 9.55875 4.73015625 9.21875 5.41015625 C8.27 5.05953125 7.32125 4.70890625 6.34375 4.34765625 C-0.36464083 2.42902926 -7.40668811 3.89388182 -13.78125 6.41015625 C-11.00285392 -0.60894964 -7.11759919 -0.31259726 0 0 Z " fill="#202066" transform="translate(22.78125,7.58984375)"/>
<path d="M0 0 C3.39609182 1.35274098 4.80474718 2.34188639 6.86328125 5.4296875 C7.1640625 7.5859375 7.1640625 7.5859375 7.17578125 9.9296875 C7.19253906 10.703125 7.20929688 11.4765625 7.2265625 12.2734375 C6.78406968 14.89984647 5.88513568 15.76525853 3.86328125 17.4296875 C3.53328125 16.7696875 3.20328125 16.1096875 2.86328125 15.4296875 C3.19328125 14.8728125 3.52328125 14.3159375 3.86328125 13.7421875 C5.29225424 10.43768746 4.52935981 7.893296 3.86328125 4.4296875 C-0.35536903 2.41456523 -4.34557307 2.01614682 -8.94921875 1.8046875 C-9.64208984 1.76601562 -10.33496094 1.72734375 -11.04882812 1.6875 C-12.7443889 1.59395182 -14.44051587 1.51076386 -16.13671875 1.4296875 C-11.12457274 -1.46237836 -5.545647 -1.48019097 0 0 Z " fill="#747475" transform="translate(411.13671875,7.5703125)"/>
<path d="M0 0 C0.33 0 0.66 0 1 0 C1.33 6.27 1.66 12.54 2 19 C7.94 19 13.88 19 20 19 C20 19.66 20 20.32 20 21 C13.4 21 6.8 21 0 21 C0 14.07 0 7.14 0 0 Z " fill="#79797A" transform="translate(356,26)"/>
<path d="M0 0 C1.74965358 -0.05429959 3.49979787 -0.09292823 5.25 -0.125 C6.22453125 -0.14820313 7.1990625 -0.17140625 8.203125 -0.1953125 C11.08419706 0.00587968 12.67131595 0.30300496 15 2 C16.01724763 4.61816193 16.15464591 7.20491829 16 10 C14.25443148 12.7056312 13.10218055 12.96593982 10 14 C8.46050671 14.09182942 6.91722145 14.13002352 5.375 14.125 C4.18003906 14.12886719 4.18003906 14.12886719 2.9609375 14.1328125 C1 14 1 14 0 13 C-0.07258946 10.81360547 -0.08373783 8.62499611 -0.0625 6.4375 C-0.05347656 5.23996094 -0.04445313 4.04242188 -0.03515625 2.80859375 C-0.02355469 1.88175781 -0.01195312 0.95492188 0 0 Z M1 1 C1 4.96 1 8.92 1 13 C7.4488382 13.55367171 7.4488382 13.55367171 13 11 C13.81870185 7.43793339 13.81870185 7.43793339 14 4 C12.0373772 1.95204577 10.5722693 1.05023362 7.73046875 0.80078125 C5.48602163 0.81138494 3.24229107 0.90107539 1 1 Z " fill="#7C7C80" transform="translate(399,11)"/>
<path d="M0 0 C0.66 0 1.32 0 2 0 C2 13.2 2 26.4 2 40 C0.35 40 -1.3 40 -3 40 C-2.67 39.01 -2.34 38.02 -2 37 C-1.01 37 -0.02 37 1 37 C0.505 35.515 0.505 35.515 0 34 C-0.08481773 31.41369776 -0.11598229 28.85521944 -0.09765625 26.26953125 C-0.0962413 25.51911057 -0.09482635 24.76868988 -0.09336853 23.99552917 C-0.0877756 21.6011454 -0.07522444 19.20685547 -0.0625 16.8125 C-0.05748408 15.18815239 -0.05292134 13.56380332 -0.04882812 11.93945312 C-0.03780848 7.95959931 -0.02054873 3.97981556 0 0 Z " fill="#808082" transform="translate(346,7)"/>
<path d="M0 0 C4.13127225 5.05633119 6.2300814 11.09783335 8.75 17.0625 C9.52923828 18.8578418 9.52923828 18.8578418 10.32421875 20.68945312 C10.81019531 21.83478516 11.29617188 22.98011719 11.796875 24.16015625 C12.24385742 25.20824463 12.69083984 26.25633301 13.15136719 27.33618164 C14 30 14 30 13 33 C9.61349242 26.47783726 6.76899861 19.80457386 4 13 C3.60167969 12.04738281 3.20335937 11.09476563 2.79296875 10.11328125 C2.42816406 9.23027344 2.06335938 8.34726562 1.6875 7.4375 C1.36136719 6.65246094 1.03523438 5.86742187 0.69921875 5.05859375 C0 3 0 3 0 0 Z " fill="#808083" transform="translate(476,10)"/>
<path d="M0 0 C2.72798722 3.24344992 4.06745201 6.46585253 5.5 10.4375 C7.00906128 14.61160221 8.70212688 18.21251727 11 22 C11 22.66 11 23.32 11 24 C8.26020496 22.99540849 7.20256499 22.40512998 5.875 19.75 C5.58625 18.8425 5.2975 17.935 5 17 C3.68555781 13.05145738 2.31295929 9.17036782 0.75 5.3125 C0.41484375 4.48363281 0.0796875 3.65476562 -0.265625 2.80078125 C-0.50796875 2.20652344 -0.7503125 1.61226562 -1 1 C-0.67 0.67 -0.34 0.34 0 0 Z " fill="#929195" transform="translate(479,21)"/>
<path d="M0 0 C1.19250946 3.57752837 0.75245181 4.23631892 -0.6875 7.59765625 C-1.05617188 8.48130859 -1.42484375 9.36496094 -1.8046875 10.27539062 C-2.39636719 11.65500977 -2.39636719 11.65500977 -3 13.0625 C-3.77781373 14.88375338 -4.54900984 16.70785199 -5.3125 18.53515625 C-5.65925781 19.343479 -6.00601562 20.15180176 -6.36328125 20.98461914 C-7.26980644 23.04029281 -7.26980644 23.04029281 -6 25 C-5.34 24.67 -4.68 24.34 -4 24 C-4.33 24.99 -4.66 25.98 -5 27 C-6.65 27 -8.3 27 -10 27 C-9.43343202 20.88106577 -6.89348871 15.67636193 -4.4375 10.125 C-4.01275391 9.15046875 -3.58800781 8.1759375 -3.15039062 7.171875 C-2.10624496 4.77855235 -1.05597786 2.38811986 0 0 Z " fill="#7B7A7F" transform="translate(465,20)"/>
<path d="M0 0 C0.11138159 5.45769811 -0.08342019 10.61509359 -1 16 C-1.99 16.33 -2.98 16.66 -4 17 C-4.08097324 14.72975032 -4.13917704 12.45867925 -4.1875 10.1875 C-4.22230469 8.92292969 -4.25710938 7.65835937 -4.29296875 6.35546875 C-4 3 -4 3 -2.55078125 1.05078125 C-1 0 -1 0 0 0 Z " fill="#959498" transform="translate(399,10)"/>
<path d="M0 0 C4.95 0 9.9 0 15 0 C15 1.65 15 3.3 15 5 C10.05 5 5.1 5 0 5 C0 4.67 0 4.34 0 4 C6.435 3.505 6.435 3.505 13 3 C8.71 2.67 4.42 2.34 0 2 C0 1.34 0 0.68 0 0 Z " fill="#171952" transform="translate(188,42)"/>
<path d="M0 0 C0.66 0.33 1.32 0.66 2 1 C1.98839844 1.85464844 1.97679687 2.70929687 1.96484375 3.58984375 C1.95582031 4.69457031 1.94679688 5.79929687 1.9375 6.9375 C1.92589844 8.03964844 1.91429687 9.14179687 1.90234375 10.27734375 C1.68737429 12.91447634 1.68737429 12.91447634 3 14 C5.34987262 14.23527773 7.70556039 14.41386417 10.0625 14.5625 C11.35285156 14.64628906 12.64320313 14.73007812 13.97265625 14.81640625 C14.97167969 14.87699219 15.97070312 14.93757813 17 15 C17 15.33 17 15.66 17 16 C11.39 16 5.78 16 0 16 C-0.97504245 12.09983019 -0.94810969 9.69178796 -0.5625 5.75 C-0.46066406 4.67234375 -0.35882813 3.5946875 -0.25390625 2.484375 C-0.17011719 1.66453125 -0.08632812 0.8446875 0 0 Z " fill="#898A8E" transform="translate(256,29)"/>
<path d="M0 0 C0 0.99 0 1.98 0 3 C-0.66 3 -1.32 3 -2 3 C-2 3.66 -2 4.32 -2 5 C-0.35 4.67 1.3 4.34 3 4 C2.34 4.66 1.68 5.32 1 6 C-0.32 6 -1.64 6 -3 6 C-3 5.34 -3 4.68 -3 4 C-4.98 4.99 -4.98 4.99 -7 6 C-6.67 6.99 -6.34 7.98 -6 9 C-5.34 9 -4.68 9 -4 9 C-2.9375 10.8125 -2.9375 10.8125 -2 13 C-2.33 13.99 -2.66 14.98 -3 16 C-4.17520646 14.40207898 -5.33991247 12.79643092 -6.5 11.1875 C-7.1496875 10.29417969 -7.799375 9.40085937 -8.46875 8.48046875 C-10 6 -10 6 -10 3 C-9.04287109 2.80083984 -9.04287109 2.80083984 -8.06640625 2.59765625 C-7.24011719 2.42105469 -6.41382813 2.24445312 -5.5625 2.0625 C-4.73878906 1.88847656 -3.91507812 1.71445312 -3.06640625 1.53515625 C-1.02338796 1.19247006 -1.02338796 1.19247006 0 0 Z " fill="#7D7D7E" transform="translate(446,26)"/>
<path d="M0 0 C1.79244141 0.01740234 1.79244141 0.01740234 3.62109375 0.03515625 C5.41740234 0.04869141 5.41740234 0.04869141 7.25 0.0625 C8.17683594 0.07410156 9.10367188 0.08570313 10.05859375 0.09765625 C10.05859375 0.42765625 10.05859375 0.75765625 10.05859375 1.09765625 C4.11859375 1.59265625 4.11859375 1.59265625 -1.94140625 2.09765625 C-1.94140625 6.71765625 -1.94140625 11.33765625 -1.94140625 16.09765625 C-3.94140625 14.09765625 -3.94140625 14.09765625 -4.171875 11.09375 C-4.15769531 9.91941406 -4.14351562 8.74507812 -4.12890625 7.53515625 C-4.11923828 5.76978516 -4.11923828 5.76978516 -4.109375 3.96875 C-3.88473512 0.12897527 -3.88473512 0.12897527 0 0 Z " fill="#747375" transform="translate(225.94140625,6.90234375)"/>
<path d="M0 0 C1.32 0 2.64 0 4 0 C5.49821059 3.37097383 6 5.20442119 6 9 C3.625 8.75 3.625 8.75 1 8 C-0.375 6.1875 -0.375 6.1875 -1 4 C-0.625 1.75 -0.625 1.75 0 0 Z " fill="#8D8D8E" transform="translate(573,35)"/>
<path d="M0 0 C3.33053438 3.33053438 2.44009244 8.35389984 2.56640625 12.87890625 C2.54846181 17.41276704 2.54846181 17.41276704 5 21 C3.35 21 1.7 21 0 21 C-0.9584336 18.12469919 -1.06656387 16.70950069 -0.87890625 13.76953125 C-0.83056641 12.96708984 -0.78222656 12.16464844 -0.73242188 11.33789062 C-0.67634766 10.50451172 -0.62027344 9.67113281 -0.5625 8.8125 C-0.48418945 7.5450293 -0.48418945 7.5450293 -0.40429688 6.25195312 C-0.27476311 4.16763701 -0.13806823 2.08376818 0 0 Z " fill="#8A8A8C" transform="translate(358,24)"/>
<path d="M0 0 C1.35439668 2.70879335 1.06501451 5.00933268 1 8 C0.01 7.67 -0.98 7.34 -2 7 C-4.22574335 6.77548542 -6.45581519 6.59217122 -8.6875 6.4375 C-10.45673828 6.31181641 -10.45673828 6.31181641 -12.26171875 6.18359375 C-13.16535156 6.12300781 -14.06898438 6.06242187 -15 6 C-14.67 5.01 -14.34 4.02 -14 3 C-13.11248047 3.05220703 -13.11248047 3.05220703 -12.20703125 3.10546875 C-7.2398924 3.27563175 -4.09271311 3.16855209 0 0 Z " fill="#87888A" transform="translate(414,21)"/>
<path d="M0 0 C0.99 0 1.98 0 3 0 C3.3095723 6.81059063 3.3095723 6.81059063 1 10 C-2.9563029 13.16504232 -6.02666392 13.29254918 -11 13 C-7.83210307 11.24005726 -5.75635569 10.75127114 -2 10 C-1.34 6.7 -0.68 3.4 0 0 Z " fill="#8F9093" transform="translate(593,33)"/>
<path d="M0 0 C0.66 0.33 1.32 0.66 2 1 C2.18014813 4.96325881 2.17930392 7.63881652 0 11 C-2.01675087 12.18777965 -4.0557078 12.99724873 -6.22265625 13.875 C-8.20102702 14.86997335 -8.20102702 14.86997335 -8.74609375 17.125 C-8.82988281 17.74375 -8.91367188 18.3625 -9 19 C-12 14.25 -12 14.25 -12 12 C-11.38511719 11.91363281 -10.77023438 11.82726563 -10.13671875 11.73828125 C-4.92263577 10.91243455 -4.92263577 10.91243455 -0.9375 7.6875 C0.02690388 4.92287554 0.24888958 2.90371173 0 0 Z " fill="#7D7C7E" transform="translate(244,17)"/>
<path d="M0 0 C4.29 0 8.58 0 13 0 C13 0.99 13 1.98 13 3 C6.565 3.495 6.565 3.495 0 4 C0 2.68 0 1.36 0 0 Z " fill="#868686" transform="translate(363,42)"/>
<path d="M0 0 C1 3 1 3 -1 8 C3.29 8.33 7.58 8.66 12 9 C12 9.33 12 9.66 12 10 C9.03 10 6.06 10 3 10 C3 10.66 3 11.32 3 12 C0.69 12 -1.62 12 -4 12 C-3.33501617 7.61110675 -1.81242323 4.0188515 0 0 Z " fill="#818183" transform="translate(468,23)"/>
<path d="M0 0 C0.66 0 1.32 0 2 0 C3.01866229 1.65532623 4.01810813 3.32260138 5 5 C5.66 5.33 6.32 5.66 7 6 C7.77811718 9.81984796 8.24386556 12.26840331 7 16 C6.01 16 5.02 16 4 16 C4.0825 14.989375 4.165 13.97875 4.25 12.9375 C3.94189309 8.0848161 2.55036224 6.06463982 0 2 C0 1.34 0 0.68 0 0 Z " fill="#212069" transform="translate(101,13)"/>
<path d="M0 0 C3.50020422 0.3000175 4.94904191 0.95733741 7.6875 3.25 C11.19363558 7.41945853 12.31023814 10.57083256 12 16 C11.34 16 10.68 16 10 16 C9.84144531 15.39671875 9.68289063 14.7934375 9.51953125 14.171875 C8.00236545 8.97495347 6.80575906 5.95739019 2 3 C1.34 2.67 0.68 2.34 0 2 C0 1.34 0 0.68 0 0 Z " fill="#929294" transform="translate(554,10)"/>
<path d="M0 0 C2.97 0 5.94 0 9 0 C8 3 8 3 6 4 C3.62597499 4.07116382 1.24999323 4.08409085 -1.125 4.0625 C-2.40632812 4.05347656 -3.68765625 4.04445313 -5.0078125 4.03515625 C-6.48894531 4.01775391 -6.48894531 4.01775391 -8 4 C-7.67 3.34 -7.34 2.68 -7 2 C-4.67843403 1.59270772 -2.3431213 1.25561323 0 1 C0 0.67 0 0.34 0 0 Z " fill="#858587" transform="translate(544,43)"/>
<path d="M0 0 C7.59 0 15.18 0 23 0 C22.34 1.98 21.68 3.96 21 6 C20.01 5.67 19.02 5.34 18 5 C18 3.68 18 2.36 18 1 C12.06 1 6.12 1 0 1 C0 0.67 0 0.34 0 0 Z " fill="#1C1D6C" transform="translate(19,29)"/>
<path d="M0 0 C0.66 0 1.32 0 2 0 C3.42944945 2.35438733 4.08661261 3.48032433 3.625 6.25 C3.41875 6.8275 3.2125 7.405 3 8 C1.68 8 0.36 8 -1 8 C-1.268125 7.21625 -1.53625 6.4325 -1.8125 5.625 C-2.84814432 2.71885077 -2.84814432 2.71885077 -6 1 C-3.03 1.495 -3.03 1.495 0 2 C0 1.34 0 0.68 0 0 Z " fill="#7C7C7C" transform="translate(592,10)"/>
<path d="M0 0 C2.625 -0.1875 2.625 -0.1875 5 0 C5 0.66 5 1.32 5 2 C4.01 2.66 3.02 3.32 2 4 C2 4.66 2 5.32 2 6 C2.66 6.33 3.32 6.66 4 7 C3.01 7.33 2.02 7.66 1 8 C0.67 9.98 0.34 11.96 0 14 C-0.66 13.34 -1.32 12.68 -2 12 C-1.62875 11.2575 -1.2575 10.515 -0.875 9.75 C0.29515863 7.05716353 0.29515863 7.05716353 -0.875 4.6875 C-1.24625 4.130625 -1.6175 3.57375 -2 3 C-1.34 2.01 -0.68 1.02 0 0 Z " fill="#141351" transform="translate(158,7)"/>
<path d="M0 0 C0.99 0 1.98 0 3 0 C2.6875 1.875 2.6875 1.875 2 4 C-1.35327639 6.23551759 -1.90743657 6.17283528 -5.6875 5.625 C-6.49574219 5.51414062 -7.30398437 5.40328125 -8.13671875 5.2890625 C-9.05904297 5.14597656 -9.05904297 5.14597656 -10 5 C-8.68 4.67 -7.36 4.34 -6 4 C-6 3.34 -6 2.68 -6 2 C-4.02 2 -2.04 2 0 2 C0 1.34 0 0.68 0 0 Z " fill="#181B5D" transform="translate(30,41)"/>
<path d="M0 0 C0.93045933 2.55144824 1.08564091 3.74006478 0.22265625 6.359375 C-0.16019531 7.14828125 -0.54304688 7.9371875 -0.9375 8.75 C-1.31777344 9.54921875 -1.69804687 10.3484375 -2.08984375 11.171875 C-2.39019531 11.77515625 -2.69054687 12.3784375 -3 13 C-1.68 12.34 -0.36 11.68 1 11 C0.67 12.32 0.34 13.64 0 15 C-1.65 15 -3.3 15 -5 15 C-5.33 14.34 -5.66 13.68 -6 13 C-5.10333658 10.75689987 -4.10853317 8.55245679 -3.0625 6.375 C-2.49660156 5.18648437 -1.93070312 3.99796875 -1.34765625 2.7734375 C-0.90292969 1.85820313 -0.45820313 0.94296875 0 0 Z " fill="#717074" transform="translate(307,32)"/>
<path d="M0 0 C0.66 0.33 1.32 0.66 2 1 C1.35895004 3.91743147 0.43991189 6.44421064 -0.875 9.125 C-1.20242188 9.80820312 -1.52984375 10.49140625 -1.8671875 11.1953125 C-3 13 -3 13 -6 15 C-4.36041242 9.76727367 -2.61047965 4.84803364 0 0 Z " fill="#8F8E92" transform="translate(463,30)"/>
<path d="M0 0 C-0.33 1.32 -0.66 2.64 -1 4 C-1.66 4 -2.32 4 -3 4 C-3 4.66 -3 5.32 -3 6 C-6.75 7.125 -6.75 7.125 -9 6 C-9 6.66 -9 7.32 -9 8 C-9.66 8 -10.32 8 -11 8 C-9.24437387 3.08424684 -5.22219793 0 0 0 Z " fill="#1B1A5F" transform="translate(81,11)"/>
<path d="M0 0 C0.99 0 1.98 0 3 0 C6.07692308 6.4 6.07692308 6.4 5.6875 9.4375 C5.460625 9.953125 5.23375 10.46875 5 11 C5 10.34 5 9.68 5 9 C4.34 9 3.68 9 3 9 C2.67 8.01 2.34 7.02 2 6 C-0.00016466 4.79117904 -0.00016466 4.79117904 -2 4 C-1.34 2.68 -0.68 1.36 0 0 Z " fill="#8E8E92" transform="translate(319,9)"/>
<path d="M0 0 C3 2 3 2 3.73046875 4.6015625 C3.95669922 6.09816406 3.95669922 6.09816406 4.1875 7.625 C4.34605469 8.62789062 4.50460937 9.63078125 4.66796875 10.6640625 C4.77753906 11.43492188 4.88710938 12.20578125 5 13 C2 11 2 11 1.3125 7.875 C1.209375 6.92625 1.10625 5.9775 1 5 C-0.65 5 -2.3 5 -4 5 C-2.25 1.125 -2.25 1.125 0 0 Z " fill="#919094" transform="translate(474,8)"/>
<path d="M0 0 C1 3 1 3 0.22265625 5.04296875 C-0.16019531 5.75066406 -0.54304687 6.45835938 -0.9375 7.1875 C-1.31777344 7.90292969 -1.69804687 8.61835937 -2.08984375 9.35546875 C-2.39019531 9.89816406 -2.69054687 10.44085938 -3 11 C-4.98 11 -6.96 11 -9 11 C-8.34 9.02 -7.68 7.04 -7 5 C-6.67 6.32 -6.34 7.64 -6 9 C-5.34 9 -4.68 9 -4 9 C-3.71125 8.2575 -3.4225 7.515 -3.125 6.75 C-2.17697356 4.43260203 -1.15154089 2.22082885 0 0 Z " fill="#131548" transform="translate(150,36)"/>
<path d="M0 0 C2.31 0.33 4.62 0.66 7 1 C7 1.99 7 2.98 7 4 C4.69 4 2.38 4 0 4 C0 8.62 0 13.24 0 18 C-0.33 18 -0.66 18 -1 18 C-1.02698422 15.56242587 -1.04683099 13.12515085 -1.0625 10.6875 C-1.07087891 9.99720703 -1.07925781 9.30691406 -1.08789062 8.59570312 C-1.10307906 5.4516975 -1.00193327 3.00579981 0 0 Z " fill="#0F1054" transform="translate(120,24)"/>
<path d="M0 0 C2.79872437 2.52788007 4.45773019 4.20411134 5 8 C2.75 8.3125 2.75 8.3125 0 8 C-2.3125 5.5 -2.3125 5.5 -4 3 C-3.67 2.34 -3.34 1.68 -3 1 C-2.34 2.32 -1.68 3.64 -1 5 C-0.34 5 0.32 5 1 5 C0.67 3.35 0.34 1.7 0 0 Z " fill="#777778" transform="translate(243,39)"/>
<path d="M0 0 C0.99 0.33 1.98 0.66 3 1 C3.33 1.99 3.66 2.98 4 4 C3 5 3 5 0.27734375 5.09765625 C-1.37587891 5.08025391 -1.37587891 5.08025391 -3.0625 5.0625 C-4.16722656 5.05347656 -5.27195312 5.04445313 -6.41015625 5.03515625 C-7.69212891 5.01775391 -7.69212891 5.01775391 -9 5 C-9 4.34 -9 3.68 -9 3 C-6.03 3 -3.06 3 0 3 C0 2.01 0 1.02 0 0 Z " fill="#8A898C" transform="translate(480,30)"/>
<path d="M0 0 C5.57142857 5.14285714 5.57142857 5.14285714 6 9 C4.02 9 2.04 9 0 9 C-0.66 7.35 -1.32 5.7 -2 4 C-0.68 4.33 0.64 4.66 2 5 C1.34 3.35 0.68 1.7 0 0 Z " fill="#737375" transform="translate(446,38)"/>
<path d="M0 0 C1.65 0 3.3 0 5 0 C4.67 0.66 4.34 1.32 4 2 C3.01 2.33 2.02 2.66 1 3 C-0.24498609 5.32269959 -0.24498609 5.32269959 -1.1875 8.0625 C-1.53167969 8.98160156 -1.87585938 9.90070312 -2.23046875 10.84765625 C-2.48441406 11.55792969 -2.73835938 12.26820312 -3 13 C-3.66 13 -4.32 13 -5 13 C-4.54554036 11.58208592 -4.08625056 10.16571954 -3.625 8.75 C-3.24214844 7.56664062 -3.24214844 7.56664062 -2.8515625 6.359375 C-2.04826333 4.13372042 -1.10288338 2.09068328 0 0 Z " fill="#7A7A7D" transform="translate(471,7)"/>
<path d="M0 0 C0 0.66 0 1.32 0 2 C-0.90492187 2.39832031 -0.90492187 2.39832031 -1.828125 2.8046875 C-2.62734375 3.15789063 -3.4265625 3.51109375 -4.25 3.875 C-5.03890625 4.22304687 -5.8278125 4.57109375 -6.640625 4.9296875 C-8.78868608 5.90413905 -10.89829202 6.92986429 -13 8 C-11.72249229 4.02553158 -9.29042104 2.70376535 -5.8515625 0.734375 C-4 0 -4 0 0 0 Z " fill="#13134C" transform="translate(86,7)"/>
<path d="M0 0 C2 2 2 2 2.3125 5.3125 C1.98867205 9.13366982 1.22414284 10.94180359 -1 14 C-2.60615266 9.98461835 -1.23201701 6.98593737 0 3 C0 2.01 0 1.02 0 0 Z " fill="#191A51" transform="translate(139,30)"/>
<path d="M0 0 C4.43453331 4.43453331 5.67146822 10.07270435 7 16 C6.34 16 5.68 16 5 16 C4.1605118 13.89828133 3.32860344 11.79353375 2.5 9.6875 C2.0359375 8.51574219 1.571875 7.34398437 1.09375 6.13671875 C0 3 0 3 0 0 Z " fill="#807F83" transform="translate(474,14)"/>
<path d="M0 0 C5.70992843 1.08760541 7.74430808 3.77513112 10.8984375 8.3203125 C11.44371094 9.15175781 11.44371094 9.15175781 12 10 C11.01 10 10.02 10 9 10 C8.773125 9.21625 8.54625 8.4325 8.3125 7.625 C6.66171907 4.32343815 5.38223927 4.18378375 2 3 C1.34 2.01 0.68 1.02 0 0 Z " fill="#171750" transform="translate(96,8)"/>
<path d="M0 0 C0.99 0 1.98 0 3 0 C3.28571429 7.42857143 3.28571429 7.42857143 1 11 C-0.20272819 8.59454362 -0.10071472 7.05003047 -0.0625 4.375 C-0.05347656 3.55773437 -0.04445313 2.74046875 -0.03515625 1.8984375 C-0.02355469 1.27195312 -0.01195312 0.64546875 0 0 Z " fill="#919195" transform="translate(524,9)"/>
<path d="M0 0 C2 2 2 2 2.1171875 4.0234375 C1.45716924 10.43200185 1.45716924 10.43200185 -1.0625 13.5625 C-1.701875 14.036875 -2.34125 14.51125 -3 15 C-2.690625 13.824375 -2.38125 12.64875 -2.0625 11.4375 C-1.1069599 7.63567025 -0.48598842 3.88790739 0 0 Z " fill="#7C7C7E" transform="translate(452,15)"/>
<path d="M0 0 C0.99 0.33 1.98 0.66 3 1 C3.70572696 3.04660819 4.0095872 5.05592534 4.375 7.1875 C4.58125 7.785625 4.7875 8.38375 5 9 C5.99 9.33 6.98 9.66 8 10 C6.68 10.33 5.36 10.66 4 11 C3.32880451 9.5437455 2.66318193 8.08492133 2 6.625 C1.62875 5.81289063 1.2575 5.00078125 0.875 4.1640625 C0 2 0 2 0 0 Z " fill="#16164E" transform="translate(169,36)"/>
<path d="M0 0 C3.96 0 7.92 0 12 0 C12 0.99 12 1.98 12 3 C11.38511719 2.90460937 10.77023438 2.80921875 10.13671875 2.7109375 C9.32847656 2.60007812 8.52023438 2.48921875 7.6875 2.375 C6.88699219 2.25898438 6.08648437 2.14296875 5.26171875 2.0234375 C2.71276785 1.78466593 2.71276785 1.78466593 0 4 C0 2.68 0 1.36 0 0 Z " fill="#202071" transform="translate(117,9)"/>
<path d="M0 0 C7.42857143 -0.28571429 7.42857143 -0.28571429 11 2 C11 2.66 11 3.32 11 4 C5.06 3.01 5.06 3.01 -1 2 C-0.67 1.34 -0.34 0.68 0 0 Z " fill="#909092" transform="translate(581,8)"/>
<path d="M0 0 C2.61047801 1.305239 2.68066423 2.35826574 3.625 5.0625 C3.88539063 5.79597656 4.14578125 6.52945313 4.4140625 7.28515625 C4.60742188 7.85105469 4.80078125 8.41695312 5 9 C3.08203125 8.68359375 3.08203125 8.68359375 1 8 C-0.3125 5.0625 -0.3125 5.0625 -1 2 C-0.67 1.34 -0.34 0.68 0 0 Z " fill="#8A8A8C" transform="translate(444,35)"/>
<path d="M0 0 C2.14234045 1.7275106 2.93142272 2.62436947 3.43359375 5.375 C3.43488281 6.24125 3.43617188 7.1075 3.4375 8 C3.45683594 8.86625 3.47617187 9.7325 3.49609375 10.625 C3 13 3 13 0.97265625 14.8125 C0.32167969 15.204375 -0.32929688 15.59625 -1 16 C-0.505 15.2575 -0.505 15.2575 0 14.5 C1.47162059 10.82094852 1.2516818 7.96398837 1 4 C0.34 3.01 -0.32 2.02 -1 1 C-0.67 0.67 -0.34 0.34 0 0 Z " fill="#777779" transform="translate(417,28)"/>
<path d="M0 0 C3.53586014 3.17320782 5.58578031 5.16743695 6 10 C5.01 10.495 5.01 10.495 4 11 C3.80664062 10.36191406 3.61328125 9.72382812 3.4140625 9.06640625 C3.15367187 8.24011719 2.89328125 7.41382813 2.625 6.5625 C2.36976563 5.73878906 2.11453125 4.91507813 1.8515625 4.06640625 C1.19117773 1.82201984 1.19117773 1.82201984 -1 1 C-0.67 0.67 -0.34 0.34 0 0 Z " fill="#24246E" transform="translate(169,32)"/>
<path d="M0 0 C1.14814997 2.29629994 1.30769809 4.07698086 1.5625 6.625 C1.64628906 7.44226563 1.73007812 8.25953125 1.81640625 9.1015625 C1.87699219 9.72804688 1.93757812 10.35453125 2 11 C1.67 10.34 1.34 9.68 1 9 C0.34 9 -0.32 9 -1 9 C-1.625 5.625 -1.625 5.625 -2 2 C-1.34 1.34 -0.68 0.68 0 0 Z " fill="#8E8E91" transform="translate(576,13)"/>
<path d="M0 0 C2.41486943 2.41486943 2.2961925 3.12707789 2.3125 6.4375 C2.32925781 7.21996094 2.34601563 8.00242187 2.36328125 8.80859375 C1.92353251 11.46127163 1.04371546 12.322967 -1 14 C-1.33 13.34 -1.66 12.68 -2 12 C-1.690625 11.46375 -1.38125 10.9275 -1.0625 10.375 C0.50799373 6.86448461 0.12756928 3.82707839 0 0 Z " fill="#7A7A7C" transform="translate(416,11)"/>
<path d="M0 0 C0.66 0.33 1.32 0.66 2 1 C4.54615009 1.23172827 7.07396225 1.41894529 9.625 1.5625 C10.33140625 1.60568359 11.0378125 1.64886719 11.765625 1.69335938 C13.51018537 1.79944751 15.25506697 1.90022889 17 2 C17 2.33 17 2.66 17 3 C11.06 3 5.12 3 -1 3 C-0.67 2.01 -0.34 1.02 0 0 Z " fill="#20206E" transform="translate(51,42)"/>
<path d="M0 0 C1.33332095 2.6666419 0.67102033 4.16680303 0 7 C0.99 6.67 1.98 6.34 3 6 C2.67 6.99 2.34 7.98 2 9 C0.35 9 -1.3 9 -3 9 C-2.5020163 5.26512223 -2.12508244 3.18762365 0 0 Z " fill="#717174" transform="translate(458,38)"/>
<path d="M0 0 C0.99 0 1.98 0 3 0 C2.67 1.65 2.34 3.3 2 5 C1.34 5 0.68 5 0 5 C0 5.66 0 6.32 0 7 C-0.66 7 -1.32 7 -2 7 C-1.125 1.125 -1.125 1.125 0 0 Z " fill="#20206B" transform="translate(146,38)"/>
<path d="M0 0 C1 2 1 2 0.375 4.0625 C-1 6 -1 6 -3.625 6.75 C-4.800625 6.87375 -4.800625 6.87375 -6 7 C-6 6.34 -6 5.68 -6 5 C-5.34 4.67 -4.68 4.34 -4 4 C-3.67 3.01 -3.34 2.02 -3 1 C-2.01 0.67 -1.02 0.34 0 0 Z " fill="#8D8D8E" transform="translate(450,24)"/>
<path d="M0 0 C0.66 0 1.32 0 2 0 C2.66666667 2.66666667 3.33333333 5.33333333 4 8 C3.34 8 2.68 8 2 8 C1.67 6.68 1.34 5.36 1 4 C-0.65 3.67 -2.3 3.34 -4 3 C-2.68 2.67 -1.36 2.34 0 2 C0 1.34 0 0.68 0 0 Z " fill="#191A55" transform="translate(133,26)"/>
<path d="M0 0 C1.35439668 2.70879335 1.06501451 5.00933268 1 8 C-0.98 7.34 -2.96 6.68 -5 6 C-3.35 4.02 -1.7 2.04 0 0 Z " fill="#8D8C91" transform="translate(414,21)"/>
<path d="M0 0 C2.97 0 5.94 0 9 0 C8.67 0.66 8.34 1.32 8 2 C5.6739143 2.38063221 3.33944736 2.71269945 1 3 C0.01 3.495 0.01 3.495 -1 4 C-0.67 2.68 -0.34 1.36 0 0 Z " fill="#77777D" transform="translate(427,7)"/>
<path d="M0 0 C0.33 0 0.66 0 1 0 C1 3.63 1 7.26 1 11 C-0.32 11.33 -1.64 11.66 -3 12 C-2.690625 11.505 -2.38125 11.01 -2.0625 10.5 C-0.58355618 7.02013219 -0.37597149 3.75971491 0 0 Z " fill="#747677" transform="translate(500,35)"/>
<path d="M0 0 C1.32 0 2.64 0 4 0 C4 0.66 4 1.32 4 2 C3.01 2 2.02 2 1 2 C1.66 4.31 2.32 6.62 3 9 C0.11749016 6.61879622 -0.61038985 4.70129644 -1 1 C-0.67 0.67 -0.34 0.34 0 0 Z " fill="#787878" transform="translate(573,35)"/>
<path d="M0 0 C2.86724686 0.57344937 3.8614515 0.8614515 6 3 C5.67 3.99 5.34 4.98 5 6 C2.5 4.6875 2.5 4.6875 0 3 C0 2.01 0 1.02 0 0 Z " fill="#909092" transform="translate(241,10)"/>
<path d="M0 0 C1.98 0 3.96 0 6 0 C5.34 1.32 4.68 2.64 4 4 C2.68 4 1.36 4 0 4 C0 2.68 0 1.36 0 0 Z " fill="#808080" transform="translate(363,42)"/>
<path d="M0 0 C0.82638376 2.89234315 1 4.88742431 1 8 C0.01 7.67 -0.98 7.34 -2 7 C-2.33 6.01 -2.66 5.02 -3 4 C-2.67 3.34 -2.34 2.68 -2 2 C-1.34 2 -0.68 2 0 2 C0 1.34 0 0.68 0 0 Z " fill="#949496" transform="translate(525,37)"/>
<path d="M0 0 C0.99 0 1.98 0 3 0 C2.67 1.32 2.34 2.64 2 4 C-0.31 4 -2.62 4 -5 4 C-2 2 -2 2 0 2 C0 1.34 0 0.68 0 0 Z " fill="#211F6B" transform="translate(30,41)"/>
<path d="M0 0 C3.86107457 2.57404971 3.94319692 4.61020259 5 9 C4.34 9 3.68 9 3 9 C0 3.375 0 3.375 0 0 Z " fill="#838386" transform="translate(329,36)"/>
<path d="M0 0 C2.31 0 4.62 0 7 0 C7.33 0.66 7.66 1.32 8 2 C7.236875 1.95875 6.47375 1.9175 5.6875 1.875 C2.77281584 1.77919176 2.77281584 1.77919176 0 4 C0 2.68 0 1.36 0 0 Z " fill="#878789" transform="translate(395,9)"/>
</svg>
