<?xml version="1.0" encoding="UTF-8"?>
<svg version="1.1" xmlns="http://www.w3.org/2000/svg" width="792" height="226">
<path d="M0 0 C0.99 0.495 0.99 0.495 2 1 C2 2.98 2 4.96 2 7 C1.01 6.67 0.02 6.34 -1 6 C-1 6.66 -1 7.32 -1 8 C0.3921875 8.1546875 0.3921875 8.1546875 1.8125 8.3125 C5.02914465 9.0062861 6.16015919 9.34245216 8 12 C8 12.99 8 13.98 8 15 C9.918125 14.938125 9.918125 14.938125 11.875 14.875 C14.0546875 14.8046875 14.0546875 14.8046875 16 15 C18 17 18 17 18.1953125 20.6953125 C18.182009 22.17200108 18.15814835 23.64862358 18.125 25.125 C18.11597656 25.87910156 18.10695313 26.63320312 18.09765625 27.41015625 C18.0740687 29.27357254 18.03819719 31.13682593 18 33 C17.01 33 16.02 33 15 33 C15 33.66 15 34.32 15 35 C13.7625 34.9175 12.525 34.835 11.25 34.75 C9.046004 34.68334959 9.046004 34.68334959 7 35 C6.01 35.99 6.01 35.99 5 37 C3 39 3 39 -0.9375 39.5625 C-4.2447912 39.37704442 -5.11351564 38.921958 -8 36.9375 C-10.49760663 33.26914026 -10.6338947 31.35802608 -10 27 C-8.5 24.5625 -8.5 24.5625 -7 23 C-11.22731421 19.12496198 -16.10526066 18.04213594 -21.68359375 17.9609375 C-28.02575139 18.33038358 -32.57797601 19.68654089 -38 23 C-38.33 23.66 -38.66 24.32 -39 25 C-36.69 25 -34.38 25 -32 25 C-32 27.64 -32 30.28 -32 33 C-34.64 33 -37.28 33 -40 33 C-40.33 31.35 -40.66 29.7 -41 28 C-41.91852679 31.50710229 -42.11332784 33.62224053 -41.0625 37.125 C-36.33092162 43.7205335 -27.20515292 45.27239001 -19.75 47.375 C2.18542111 53.82250533 2.18542111 53.82250533 9 62 C11.68092691 64.68092691 13.39167363 64.38670257 17.125 64.625 C18.22070312 64.69976562 19.31640625 64.77453125 20.4453125 64.8515625 C21.70988281 64.92503906 21.70988281 64.92503906 23 65 C22.67 64.01 22.34 63.02 22 62 C21.91047991 46.54883287 25.19085215 32.68823121 35.87890625 20.93359375 C45.59781282 11.84298013 55.76139081 9.50063827 68.65625 9.72265625 C77.61790424 10.11288426 85.60394155 13.7161531 92 20 C99.26666981 28.45576123 101.53869402 38.04655494 101 49 C102.485 48.505 102.485 48.505 104 48 C104 48.66 104 49.32 104 50 C104.99 50.66 105.98 51.32 107 52 C105.1746875 52.0309375 105.1746875 52.0309375 103.3125 52.0625 C102.62800781 52.07410156 101.94351562 52.08570313 101.23828125 52.09765625 C99 52 99 52 96.69392395 51.50099182 C93.94563761 50.98989017 91.45185666 50.87967918 88.65893555 50.88647461 C87.09788338 50.88658791 87.09788338 50.88658791 85.5052948 50.88670349 C84.3936647 50.89186478 83.28203461 50.89702606 82.13671875 50.90234375 C80.98959915 50.9037587 79.84247955 50.90517365 78.66059875 50.90663147 C75.00287246 50.91222139 71.34520775 50.92477211 67.6875 50.9375 C65.20507901 50.9425163 62.72265706 50.94707898 60.24023438 50.95117188 C54.1601353 50.96218753 48.08007205 50.9789157 42 51 C41.99194458 52.75446832 41.98620823 54.50894739 41.98144531 56.26342773 C41.9780011 57.24045151 41.97455688 58.21747528 41.9710083 59.22410583 C42.08065359 69.72241157 43.92960951 80.70026905 50.1875 89.375 C55.05324348 93.91636058 60.19644254 96.18146785 66.875 96.5 C73.92062156 96.20229768 81.06373272 94.14255905 86 89 C86.66 89 87.32 89 88 89 C88.3403125 88.0409375 88.3403125 88.0409375 88.6875 87.0625 C90.48565826 82.86679739 92.73904021 78.96099444 95 75 C96.66611905 74.957279 98.33382885 74.95936168 100 75 C101 76 101 76 101.4375 78.9375 C101.32061254 85.2624104 97.23844806 90.53160654 93.13671875 95.0546875 C84.440822 103.17550491 74.72797052 105.39571971 63 106 C52.25487505 105.46480221 43.01173353 100.77723209 35.18359375 93.53515625 C30.91714202 88.58179816 27.98283921 82.78687063 25 77 C24.67 80.96 24.34 84.92 24 89 C19.38 89 14.76 89 10 89 C9.34 90.65 8.68 92.3 8 94 C2.18602169 101.008831 -5.46715357 103.6450172 -14.0625 105.75 C-25.67885009 106.73862554 -37.11302882 105.66795731 -47 99 C-47.33 103.62 -47.66 108.24 -48 113 C-60.62989384 113.15356466 -73.25983807 113.30174644 -85.88987637 113.4429636 C-91.75384936 113.50870016 -97.61778816 113.57632484 -103.48168945 113.64819336 C-109.13557187 113.71741958 -114.78949025 113.78177922 -120.44346809 113.84269524 C-122.60575451 113.86686053 -124.76802171 113.89281047 -126.93026543 113.92053413 C-129.94753891 113.95892251 -132.96481703 113.99109215 -135.98217773 114.02172852 C-136.8856041 114.03467453 -137.78903046 114.04762054 -138.71983337 114.06095886 C-140.81324326 114.07898416 -142.90700251 114.045292 -145 114 C-146 113 -146 113 -146.09765625 111.15234375 C-146.06510417 109.1015625 -146.03255208 107.05078125 -146 105 C-146.928125 104.814375 -146.928125 104.814375 -147.875 104.625 C-150 104 -150 104 -152 102 C-152 101.01 -152 100.02 -152 99 C-154.64 99 -157.28 99 -160 99 C-160 98.01 -160 97.02 -160 96 C-159.360625 95.87625 -158.72125 95.7525 -158.0625 95.625 C-157.0415625 95.315625 -157.0415625 95.315625 -156 95 C-155.505 94.01 -155.505 94.01 -155 93 C-154.01 93 -153.02 93 -152 93 C-152.0714624 91.94965576 -152.1429248 90.89931152 -152.21655273 89.81713867 C-153.12825294 75.31391446 -153.11456731 60.83927881 -153.0625 46.3125 C-153.05747069 43.84570404 -153.05291033 41.37890708 -153.04882812 38.91210938 C-153.03794577 32.94138392 -153.02132305 26.97069683 -153 21 C-154.27875 21.20625 -155.5575 21.4125 -156.875 21.625 C-159.0546875 21.9765625 -159.0546875 21.9765625 -161 22 C-163 20 -163 20 -163.1875 16.9375 C-163 14 -163 14 -162 13 C-158.03435092 12.58856232 -154.04489228 12.48327154 -150.0625 12.3125 C-148.37737305 12.22258789 -148.37737305 12.22258789 -146.65820312 12.13085938 C-145.58634766 12.08380859 -144.51449219 12.03675781 -143.41015625 11.98828125 C-141.92721069 11.91927612 -141.92721069 11.91927612 -140.41430664 11.84887695 C-138 12 -138 12 -136 14 C-135.73498535 16.723526 -135.73498535 16.723526 -135.71289062 20.23461914 C-135.69947632 21.54680923 -135.68606201 22.85899933 -135.67224121 24.21095276 C-135.66839668 25.26705844 -135.66839668 25.26705844 -135.66447449 26.34449959 C-135.65618439 28.55263221 -135.63567344 30.76035138 -135.61193848 32.96836853 C-135.56365273 37.66635074 -135.53082035 42.36437511 -135.5 47.0625 C-135.4642271 52.48439107 -135.4219954 57.90608416 -135.36405945 63.3277874 C-135.34415909 65.49069343 -135.33570174 67.65344354 -135.32775879 69.81642151 C-135.51181771 81.6928385 -135.51181771 81.6928385 -131.3125 92.5 C-128.08087708 94.59618784 -125.85568958 94.93573851 -122 95 C-113.77649188 93.09264641 -108.92103478 88.54490537 -104.484375 81.546875 C-96.29228717 67.49097693 -95.68611009 53.61985554 -95.375 37.75 C-95.33671795 36.11847108 -95.29766074 34.48696016 -95.2578125 32.85546875 C-95.16295391 28.90379604 -95.07852983 24.95202953 -95 21 C-96.8871875 21.309375 -96.8871875 21.309375 -98.8125 21.625 C-102.4014758 22.21335669 -102.75073878 22.16617415 -106 20 C-106.3125 17.5 -106.3125 17.5 -106 15 C-102.42187758 11.42187758 -96.85833925 12.38060219 -92 12.1875 C-90.88109375 12.12369141 -89.7621875 12.05988281 -88.609375 11.99414062 C-87.54203125 11.94837891 -86.4746875 11.90261719 -85.375 11.85546875 C-83.90160156 11.78815552 -83.90160156 11.78815552 -82.3984375 11.71948242 C-81.60695313 11.81205322 -80.81546875 11.90462402 -80 12 C-77.55605285 15.66592072 -77.69358139 18.44228287 -77.68115234 22.68432617 C-77.67110672 23.4650499 -77.6610611 24.24577362 -77.65071106 25.05015564 C-77.61981679 27.63108584 -77.60282671 30.21191202 -77.5859375 32.79296875 C-77.56723086 34.58230997 -77.54765783 36.37164232 -77.5272522 38.16096497 C-77.47587169 42.87090839 -77.43627769 47.58088043 -77.39910889 52.29095459 C-77.35910631 57.09703688 -77.3079969 61.90299952 -77.2578125 66.70898438 C-77.16098316 76.13923893 -77.07660082 85.56956096 -77 95 C-75.35 95.33 -73.7 95.66 -72 96 C-71.773125 95.360625 -71.54625 94.72125 -71.3125 94.0625 C-70 92 -70 92 -67.5 91.125 C-66.675 91.08375 -65.85 91.0425 -65 91 C-63 93 -63 93 -63 97 C-57.06 96.505 -57.06 96.505 -51 96 C-52.4540625 94.081875 -52.4540625 94.081875 -53.9375 92.125 C-58.03572125 86.7188358 -58.90897431 82.8119604 -58 76 C-56.0625 72.875 -56.0625 72.875 -53 71 C-49.81287468 70.25652954 -47.18073339 70.2062546 -44 71 C-40.60190909 73.70460297 -39.23353746 75.11019027 -38.703125 79.40234375 C-38.68906863 81.62676496 -38.77875402 83.78754016 -39 86 C-39.99 86 -40.98 86 -42 86 C-42.66 86.66 -43.32 87.32 -44 88 C-39.60214479 91.86478185 -35.02718405 95 -29 95 C-30.32 94.34 -31.64 93.68 -33 93 C-31.06257659 92.97296619 -29.12504521 92.95358875 -27.1875 92.9375 C-26.10855469 92.92589844 -25.02960938 92.91429687 -23.91796875 92.90234375 C-21 93 -21 93 -18 94 C-17.67 94.66 -17.34 95.32 -17 96 C-10.01228739 94.45320536 -6.00155563 93.06687467 -2 87 C-0.42544261 83.85088521 -0.65200882 81.47991184 -1 78 C-4.27970342 71.69287805 -9.44025164 70.36226471 -15.96484375 68.21484375 C-19.49487416 67.13237087 -23.04629651 66.12998466 -26.59960938 65.12719727 C-37.48187752 62.04284744 -47.1463133 58.71274672 -53.3125 48.5 C-56.2256486 42.2099771 -55.94542844 35.09476953 -54.41015625 28.4453125 C-51.71556791 21.26802189 -46.17344259 16.32905022 -39.578125 12.6484375 C-28.64676136 7.80939436 -17.16163219 8.19871721 -5.97265625 12.0390625 C-0.17929201 14.44972413 3.4812544 16.78254963 7 22 C7.33 21.01 7.66 20.02 8 19 C7.360625 18.731875 6.72125 18.46375 6.0625 18.1875 C4 17 4 17 3 14 C0.99983534 12.79117904 0.99983534 12.79117904 -1 12 C-0.34 11.67 0.32 11.34 1 11 C2.65 12.65 4.3 14.3 6 16 C4.86500606 12.70851757 4.00716624 12.0040131 0.875 10.25 C-0.07375 9.8375 -1.0225 9.425 -2 9 C-1.125 1.125 -1.125 1.125 0 0 Z M48.6875 25.1875 C45.05784667 29.76659943 43 35.14991314 43 41 C55.87 41 68.74 41 82 41 C83.28123413 35.8750635 83.68558014 31.90438928 81.875 26.875 C79.07984174 22.58909067 75.95224283 19.65074761 71 18 C61.84767429 17.09807453 55.12572364 18.40211725 48.6875 25.1875 Z M-96 82 C-96.85397011 83.48834791 -97.68214205 84.99150644 -98.5 86.5 C-103.67723265 95.22345167 -110.49811124 100.58560971 -120 104 C-120 104.33 -120 104.66 -120 105 C-101.52 105 -83.04 105 -64 105 C-64 103.02 -64 101.04 -64 99 C-67.48520525 100.34697168 -67.48520525 100.34697168 -70.8046875 102.046875 C-75.26413345 103.98300456 -80.24867802 103.51520359 -85 103 C-89.62111876 100.81104901 -91.72228806 98.50423935 -94 94 C-94.51171875 90.88671875 -94.51171875 90.88671875 -94.6875 87.6875 C-94.78611328 86.08455078 -94.78611328 86.08455078 -94.88671875 84.44921875 C-94.92410156 83.64097656 -94.96148438 82.83273438 -95 82 C-95.33 82 -95.66 82 -96 82 Z M-24 95 C-23.67 95.66 -23.34 96.32 -23 97 C-22.34 97 -21.68 97 -21 97 C-21 96.34 -21 95.68 -21 95 C-21.99 95 -22.98 95 -24 95 Z M-155 96 C-154 98 -154 98 -154 98 Z M-148 97 C-147.67 97.99 -147.34 98.98 -147 100 C-146.01 100.33 -145.02 100.66 -144 101 C-144.66 99.68 -145.32 98.36 -146 97 C-146.66 97 -147.32 97 -148 97 Z M-151 98 C-149.84826645 100.46800047 -148.95216435 102.04783565 -147 104 C-146.01 103.67 -145.02 103.34 -144 103 C-145.62339805 101.29115995 -147.29319053 99.62553283 -149 98 C-149.66 98 -150.32 98 -151 98 Z " fill="#19223D" transform="translate(640,63)"/>
<path d="M0 0 C6.78390665 0.18838058 6.78390665 0.18838058 9.94726562 0.29541016 C12.08910818 0.36555095 14.2309759 0.41991089 16.37329102 0.47338867 C17.72944158 0.51604096 19.08556308 0.55962978 20.44165039 0.60424805 C21.68164795 0.64203369 22.92164551 0.67981934 24.19921875 0.71875 C27.16430664 1.0534668 27.16430664 1.0534668 29.16430664 3.0534668 C29.89408875 4.83334351 29.89408875 4.83334351 30.58105469 7.01196289 C30.97669365 8.24035385 30.97669365 8.24035385 31.38032532 9.49356079 C31.80513435 10.83419083 31.80513435 10.83419083 32.23852539 12.2019043 C36.12856546 24.166446 40.51975367 35.91584191 44.97680664 47.6784668 C46.17126154 50.84431464 47.36432471 54.01068486 48.55737305 57.17706299 C49.33880253 59.25060502 50.12069631 61.32397214 50.90307617 63.39715576 C54.06269393 71.77126542 57.18796513 80.15762145 60.28930664 88.5534668 C60.89995972 90.20596436 60.89995972 90.20596436 61.52294922 91.8918457 C62.40431386 94.27871818 63.28491477 96.66586695 64.16430664 99.0534668 C66.15117531 96.07316379 67.46543949 93.23860762 68.87915039 89.9519043 C69.13555801 89.35600494 69.39196564 88.76010559 69.65614319 88.14614868 C70.19804931 86.88429231 70.73841445 85.6217732 71.27734375 84.35864258 C72.09090155 82.45399704 72.91141928 80.55246362 73.73266602 78.65112305 C76.99521003 71.06589901 76.99521003 71.06589901 79.73071289 63.2800293 C81.02490162 59.18065802 82.8805765 55.50580485 84.84838867 51.69165039 C87.17767128 47.0218493 89.12041424 42.19117156 91.10180664 37.3659668 C91.53565674 36.31666992 91.96950684 35.26737305 92.41650391 34.1862793 C98.40372288 19.77497886 98.40372288 19.77497886 103.91430664 5.1784668 C105.16430664 2.0534668 105.16430664 2.0534668 107.16430664 1.0534668 C109.2680566 0.89905471 111.37625783 0.80354041 113.48461914 0.73706055 C115.36987305 0.67421875 115.36987305 0.67421875 117.29321289 0.61010742 C118.61192383 0.57079102 119.93063477 0.53147461 121.28930664 0.4909668 C122.62916415 0.44777168 123.9690082 0.40415707 125.30883789 0.36010742 C128.59388479 0.25375698 131.87900945 0.15172872 135.16430664 0.0534668 C135.78930664 3.4284668 135.78930664 3.4284668 136.16430664 7.0534668 C135.50430664 7.7134668 134.84430664 8.3734668 134.16430664 9.0534668 C130.20430664 9.0534668 126.24430664 9.0534668 122.16430664 9.0534668 C122.16430664 45.6834668 122.16430664 82.3134668 122.16430664 120.0534668 C126.45430664 120.0534668 130.74430664 120.0534668 135.16430664 120.0534668 C135.54493885 122.3795525 135.87700609 124.71401944 136.16430664 127.0534668 C134.61929214 128.5984813 133.17770444 128.18065811 131.02758789 128.18286133 C129.7111731 128.18758957 129.7111731 128.18758957 128.36816406 128.19241333 C127.41401611 128.1903891 126.45986816 128.18836487 125.47680664 128.1862793 C124.01754761 128.18771439 124.01754761 128.18771439 122.52880859 128.18917847 C120.46752864 128.18986038 118.40624656 128.18800532 116.3449707 128.18383789 C113.17792976 128.1784898 110.01103064 128.18378252 106.84399414 128.19018555 C104.84659799 128.18952477 102.84920193 128.18824361 100.85180664 128.1862793 C99.89765869 128.18830353 98.94351074 128.19032776 97.96044922 128.19241333 C97.08283936 128.18926117 96.20522949 128.18610901 95.30102539 128.18286133 C94.52460693 128.18206573 93.74818848 128.18127014 92.94824219 128.18045044 C91.16430664 128.0534668 91.16430664 128.0534668 90.16430664 127.0534668 C90.03930664 124.0534668 90.03930664 124.0534668 90.16430664 121.0534668 C90.49430664 120.7234668 90.82430664 120.3934668 91.16430664 120.0534668 C95.45430664 120.0534668 99.74430664 120.0534668 104.16430664 120.0534668 C103.83430664 92.3334668 103.50430664 64.6134668 103.16430664 36.0534668 C93.27300937 59.95302671 93.27300937 59.95302671 83.41430664 83.8659668 C82.79454006 85.3718365 82.17474829 86.87769583 81.55493164 88.38354492 C80.09106081 91.94005026 78.62768712 95.49675951 77.16430664 99.0534668 C84.75430664 99.0534668 92.34430664 99.0534668 100.16430664 99.0534668 C100.16430664 101.6934668 100.16430664 104.3334668 100.16430664 107.0534668 C92.24430664 107.0534668 84.32430664 107.0534668 76.16430664 107.0534668 C75.83430664 105.7334668 75.50430664 104.4134668 75.16430664 103.0534668 C74.90738037 103.68849121 74.6504541 104.32351562 74.38574219 104.9777832 C73.21026779 107.87903287 72.03107122 110.77875577 70.85180664 113.6784668 C70.44768555 114.67749023 70.04356445 115.67651367 69.62719727 116.70581055 C64.20917396 130.00859948 64.20917396 130.00859948 62.16430664 132.0534668 C59.78930664 132.3659668 59.78930664 132.3659668 57.16430664 132.0534668 C53.86391483 128.67566243 52.66313378 124.32226912 51.18774414 119.9440918 C50.90494095 119.12484222 50.62213776 118.30559265 50.33076477 117.46151733 C49.71637114 115.67937361 49.10521623 113.89611081 48.49691772 112.11187744 C47.19399611 108.29076573 45.8753781 104.47513515 44.55735779 100.65921021 C43.85833362 98.63527932 43.16007636 96.61108342 42.46253967 94.5866394 C38.6954944 83.66327987 34.8470797 72.7690088 30.98614502 61.87854004 C29.86429745 58.71370453 28.7444348 55.54817165 27.62475586 52.38256836 C26.93364658 50.43167446 26.2424096 48.48082578 25.55102539 46.5300293 C25.23708328 45.64229828 24.92314117 44.75456726 24.59968567 43.8399353 C24.30736557 43.01659698 24.01504547 42.19325867 23.71386719 41.3449707 C23.33538887 40.27709824 23.33538887 40.27709824 22.94926453 39.18765259 C22.06804254 36.79173876 21.11240494 34.42371254 20.16430664 32.0534668 C19.83430664 61.0934668 19.50430664 90.1334668 19.16430664 120.0534668 C23.12430664 120.0534668 27.08430664 120.0534668 31.16430664 120.0534668 C31.82430664 121.7034668 32.48430664 123.3534668 33.16430664 125.0534668 C32.50430664 126.0434668 31.84430664 127.0334668 31.16430664 128.0534668 C28.55141436 128.33296146 26.17851229 128.42575228 23.56665039 128.3815918 C22.44245445 128.37878204 22.44245445 128.37878204 21.29554749 128.37591553 C19.71098381 128.36919048 18.12643687 128.3552669 16.54199219 128.3347168 C14.10799859 128.30354609 11.67465195 128.29374581 9.24047852 128.2878418 C7.70336119 128.27867269 6.16625049 128.26829721 4.62915039 128.2565918 C3.53074074 128.25021698 3.53074074 128.25021698 2.41014099 128.24371338 C-2.71853463 128.17062553 -2.71853463 128.17062553 -3.83569336 127.0534668 C-3.96069336 124.0534668 -3.96069336 124.0534668 -3.83569336 121.0534668 C-3.34069336 120.5584668 -3.34069336 120.5584668 -2.83569336 120.0534668 C1.12430664 120.0534668 5.08430664 120.0534668 9.16430664 120.0534668 C9.16430664 83.4234668 9.16430664 46.7934668 9.16430664 9.0534668 C5.53430664 9.0534668 1.90430664 9.0534668 -1.83569336 9.0534668 C-3.83569336 7.0534668 -3.83569336 7.0534668 -4.02319336 3.9909668 C-3.77299162 0.07113949 -3.77299162 0.07113949 0 0 Z " fill="#18223D" transform="translate(35.835693359375,36.946533203125)"/>
<path d="M0 0 C1.28154213 -0.01441132 1.28154213 -0.01441132 2.588974 -0.02911377 C3.51811111 -0.03336365 4.44724823 -0.03761353 5.40454102 -0.04199219 C6.35281265 -0.04769226 7.30108429 -0.05339233 8.27809143 -0.05926514 C10.2880847 -0.06872991 12.29809359 -0.07525496 14.30810547 -0.07910156 C17.39195638 -0.08881524 20.47514337 -0.119828 23.55883789 -0.15136719 C25.50740162 -0.15789601 27.45597014 -0.16314696 29.40454102 -0.16699219 C30.79521034 -0.18551239 30.79521034 -0.18551239 32.213974 -0.20440674 C33.50024437 -0.19990509 33.50024437 -0.19990509 34.8125 -0.1953125 C35.94714943 -0.20078094 35.94714943 -0.20078094 37.10472107 -0.20635986 C38.02850304 -0.02445099 38.02850304 -0.02445099 38.97094727 0.16113281 C40.97094727 3.16113281 40.97094727 3.16113281 40.72094727 5.78613281 C40.47344727 6.56988281 40.22594727 7.35363281 39.97094727 8.16113281 C37.97094727 9.16113281 37.97094727 9.16113281 26.97094727 9.16113281 C26.97094727 25.66113281 26.97094727 42.16113281 26.97094727 59.16113281 C44.46094727 59.16113281 61.95094727 59.16113281 79.97094727 59.16113281 C79.97094727 42.66113281 79.97094727 26.16113281 79.97094727 9.16113281 C76.01094727 9.16113281 72.05094727 9.16113281 67.97094727 9.16113281 C65.97094727 7.16113281 65.97094727 7.16113281 65.72094727 4.66113281 C65.97094727 2.16113281 65.97094727 2.16113281 67.97094727 0.16113281 C69.83044434 -0.09283447 69.83044434 -0.09283447 72.11352539 -0.09765625 C72.96781128 -0.10396057 73.82209717 -0.11026489 74.70227051 -0.11676025 C75.62624634 -0.11271179 76.55022217 -0.10866333 77.50219727 -0.10449219 C78.9224823 -0.10736237 78.9224823 -0.10736237 80.37145996 -0.11029053 C82.37549098 -0.11165292 84.37953081 -0.10795275 86.38354492 -0.09960938 C89.4584528 -0.08891066 92.5327764 -0.09950291 95.60766602 -0.11230469 C97.55167773 -0.1109831 99.49568907 -0.10842073 101.43969727 -0.10449219 C102.3636731 -0.10854065 103.28764893 -0.11258911 104.23962402 -0.11676025 C105.09390991 -0.11045593 105.9481958 -0.10415161 106.82836914 -0.09765625 C107.58178589 -0.09606506 108.33520264 -0.09447388 109.1114502 -0.09283447 C110.97094727 0.16113281 110.97094727 0.16113281 112.97094727 2.16113281 C113.22094727 4.66113281 113.22094727 4.66113281 112.97094727 7.16113281 C112.31094727 7.82113281 111.65094727 8.48113281 110.97094727 9.16113281 C107.01094727 9.16113281 103.05094727 9.16113281 98.97094727 9.16113281 C98.97094727 45.79113281 98.97094727 82.42113281 98.97094727 120.16113281 C103.26094727 120.16113281 107.55094727 120.16113281 111.97094727 120.16113281 C112.30094727 122.14113281 112.63094727 124.12113281 112.97094727 126.16113281 C110.97094727 128.16113281 110.97094727 128.16113281 109.02206421 128.40164185 C107.82959579 128.39498001 107.82959579 128.39498001 106.61303711 128.38818359 C105.71225433 128.38803253 104.81147156 128.38788147 103.88339233 128.38772583 C102.90939484 128.37740326 101.93539734 128.36708069 100.93188477 128.35644531 C99.93589264 128.35361542 98.93990051 128.35078552 97.91372681 128.34786987 C94.72434608 128.33665121 91.53524349 128.31154362 88.34594727 128.28613281 C86.18709715 128.27610519 84.02824264 128.26697896 81.86938477 128.25878906 C76.56981028 128.23670642 71.27039864 128.2032124 65.97094727 128.16113281 C65.64094727 127.50113281 65.31094727 126.84113281 64.97094727 126.16113281 C64.47594727 127.64613281 64.47594727 127.64613281 63.97094727 129.16113281 C62.40844727 128.03613281 62.40844727 128.03613281 60.97094727 126.16113281 C61.30094727 124.18113281 61.63094727 122.20113281 61.97094727 120.16113281 C67.91094727 120.16113281 73.85094727 120.16113281 79.97094727 120.16113281 C79.97094727 103.00113281 79.97094727 85.84113281 79.97094727 68.16113281 C62.48094727 68.16113281 44.99094727 68.16113281 26.97094727 68.16113281 C26.97094727 85.32113281 26.97094727 102.48113281 26.97094727 120.16113281 C30.93094727 120.16113281 34.89094727 120.16113281 38.97094727 120.16113281 C39.96094727 121.15113281 39.96094727 121.15113281 40.97094727 122.16113281 C40.41539171 126.71668837 40.41539171 126.71668837 38.97094727 128.16113281 C37.59484845 128.25908593 36.21380844 128.28911369 34.83422852 128.29052734 C33.51781372 128.29525558 33.51781372 128.29525558 32.17480469 128.30007935 C31.22065674 128.29805511 30.26650879 128.29603088 29.28344727 128.29394531 C27.82418823 128.2953804 27.82418823 128.2953804 26.33544922 128.29684448 C24.27416927 128.2975264 22.21288718 128.29567134 20.15161133 128.29150391 C16.98457038 128.28615582 13.81767127 128.29144853 10.65063477 128.29785156 C8.65323862 128.29719078 6.65584256 128.29590962 4.65844727 128.29394531 C3.70429932 128.29596954 2.75015137 128.29799377 1.76708984 128.30007935 C0.88947998 128.29692719 0.01187012 128.29377502 -0.89233398 128.29052734 C-1.66875244 128.28973175 -2.4451709 128.28893616 -3.24511719 128.28811646 C-5.02905273 128.16113281 -5.02905273 128.16113281 -6.02905273 127.16113281 C-5.74175218 124.82168545 -5.40968494 122.48721851 -5.02905273 120.16113281 C-0.73905273 120.16113281 3.55094727 120.16113281 7.97094727 120.16113281 C7.97094727 83.53113281 7.97094727 46.90113281 7.97094727 9.16113281 C4.34094727 9.16113281 0.71094727 9.16113281 -3.02905273 9.16113281 C-4.01905273 8.17113281 -5.00905273 7.18113281 -6.02905273 6.16113281 C-5.54879429 1.11841915 -4.93318225 0.04457665 0 0 Z " fill="#19223E" transform="translate(269.029052734375,36.8388671875)"/>
<path d="M0 0 C1.12347839 0.00607269 1.12347839 0.00607269 2.26965332 0.01226807 C3.03894165 0.01035461 3.80822998 0.00844116 4.60083008 0.00646973 C6.22823412 0.00510799 7.85564902 0.00880368 9.48303223 0.01715088 C11.97855963 0.02785086 14.47336714 0.01725555 16.96887207 0.00445557 C18.54830075 0.00577716 20.12772898 0.00833956 21.70715332 0.01226807 C22.45613892 0.0082196 23.20512451 0.00417114 23.97680664 0 C29.25848089 0.04797064 29.25848089 0.04797064 31.48840332 2.27789307 C31.67590332 5.34039307 31.67590332 5.34039307 31.48840332 8.27789307 C30.48840332 9.27789307 30.48840332 9.27789307 28.64074707 9.37554932 C26.58996582 9.34299723 24.53918457 9.31044515 22.48840332 9.27789307 C22.94279785 10.50419434 23.39719238 11.73049561 23.86535645 12.99395752 C25.54749662 17.53756931 27.22326142 22.08351016 28.89709473 26.63018799 C29.62289088 28.59893036 30.35042213 30.56703397 31.07971191 32.53448486 C32.12674807 35.36005794 33.16755423 38.18785789 34.20715332 41.01617432 C34.53526001 41.89751541 34.8633667 42.77885651 35.20141602 43.68690491 C35.50172729 44.50752914 35.80203857 45.32815338 36.1114502 46.17364502 C36.37792358 46.89534378 36.64439697 47.61704254 36.91894531 48.36061096 C37.48840332 50.27789307 37.48840332 50.27789307 37.48840332 53.27789307 C39.79840332 52.94789307 42.10840332 52.61789307 44.48840332 52.27789307 C46.76936362 46.31564116 49.04775999 40.35241426 51.32434082 34.38848877 C52.09978581 32.35798736 52.87582663 30.3277134 53.65246582 28.29766846 C54.765998 25.38671921 55.877414 22.47496985 56.98840332 19.56304932 C57.33838379 18.64951187 57.68836426 17.73597443 58.0489502 16.79475403 C58.36928223 15.95395798 58.68961426 15.11316193 59.01965332 14.24688721 C59.3038916 13.50298233 59.58812988 12.75907745 59.88098145 11.99263 C60.54405422 10.4239826 60.54405422 10.4239826 60.48840332 9.27789307 C59.06527832 9.33976807 59.06527832 9.33976807 57.61340332 9.40289307 C54.48840332 9.27789307 54.48840332 9.27789307 52.48840332 7.27789307 C52.23840332 4.77789307 52.23840332 4.77789307 52.48840332 2.27789307 C55.17327497 -0.40697858 56.55317313 0.02019857 60.30090332 0.01226807 C61.45848145 0.00968994 62.61605957 0.00711182 63.80871582 0.00445557 C65.0230127 0.01218994 66.23730957 0.01992432 67.48840332 0.02789307 C68.7027002 0.02015869 69.91699707 0.01242432 71.16809082 0.00445557 C72.90445801 0.00832275 72.90445801 0.00832275 74.67590332 0.01226807 C75.74195801 0.01452393 76.8080127 0.01677979 77.90637207 0.019104 C80.48840332 0.27789307 80.48840332 0.27789307 82.48840332 2.27789307 C82.73840332 4.77789307 82.73840332 4.77789307 82.48840332 7.27789307 C79.48223063 10.28406575 76.66458734 9.87374623 72.48840332 10.27789307 C71.04810167 14.08934041 69.61167942 17.90223888 68.17590332 21.71539307 C67.77178223 22.78467041 67.36766113 23.85394775 66.95129395 24.95562744 C64.90157353 30.40488415 62.93902457 35.86139449 61.12976074 41.39483643 C60.31902461 43.77519721 59.3520426 46.0568836 58.30090332 48.34039307 C57.95672363 49.09449463 57.61254395 49.84859619 57.25793457 50.62554932 C57.00398926 51.17082275 56.75004395 51.71609619 56.48840332 52.27789307 C57.97340332 52.77289307 57.97340332 52.77289307 59.48840332 53.27789307 C59.48840332 74.39789307 59.48840332 95.51789307 59.48840332 117.27789307 C58.82840332 117.27789307 58.16840332 117.27789307 57.48840332 117.27789307 C57.48840332 106.71789307 57.48840332 96.15789307 57.48840332 85.27789307 C52.86840332 85.60789307 48.24840332 85.93789307 43.48840332 86.27789307 C42.84773926 88.00394775 42.2070752 89.73000244 41.54699707 91.50836182 C28.28099312 126.86979811 28.28099312 126.86979811 17.92590332 133.52789307 C17.16148926 134.02804932 16.3970752 134.52820557 15.60949707 135.04351807 C10.0375046 138.28615088 3.73835966 137.83207639 -2.51159668 137.27789307 C-6.07409668 135.59039307 -6.07409668 135.59039307 -8.51159668 133.27789307 C-9.29534668 132.55601807 -10.07909668 131.83414307 -10.88659668 131.09039307 C-13.17553882 127.12876244 -13.44250698 123.74626249 -12.51159668 119.27789307 C-10.11826458 115.89907127 -8.47880946 114.60715699 -4.57409668 113.27789307 C-0.73635825 113.27789307 1.29763022 114.17488352 4.48840332 116.27789307 C6.22541958 118.31699911 6.50350621 119.58727889 6.44543457 122.24273682 C5.90715332 127.85914307 5.90715332 127.85914307 3.48840332 130.27789307 C8.28324978 129.85481838 11.32988274 127.76426008 14.48840332 124.27789307 C19.53791786 117.21107867 22.75666152 109.47311847 25.48840332 101.27789307 C26.48840332 98.27789307 26.48840332 98.27789307 27.53137207 95.93804932 C31.83389321 86.17294161 29.15715374 79.83264493 25.48840332 70.27789307 C24.67740414 68.11863973 23.87043898 65.95789943 23.06335449 63.79718018 C21.87649745 60.62227613 20.68245734 57.45009659 19.48840332 54.27789307 C19.15840332 54.60789307 18.82840332 54.93789307 18.48840332 55.27789307 C16.48881968 55.3187009 14.48795078 55.32043663 12.48840332 55.27789307 C12.48840332 54.61789307 12.48840332 53.95789307 12.48840332 53.27789307 C11.49840332 53.27789307 10.50840332 53.27789307 9.48840332 53.27789307 C9.48840332 48.98789307 9.48840332 44.69789307 9.48840332 40.27789307 C10.14840332 40.27789307 10.80840332 40.27789307 11.48840332 40.27789307 C10.56530284 30.98322619 8.18927436 23.12977039 4.73059082 14.51617432 C3.48840332 11.27789307 3.48840332 11.27789307 3.48840332 9.27789307 C2.77812988 9.28949463 2.06785645 9.30109619 1.33605957 9.31304932 C0.41695801 9.32207275 -0.50214355 9.33109619 -1.44909668 9.34039307 C-2.36562012 9.35199463 -3.28214355 9.36359619 -4.22644043 9.37554932 C-6.51159668 9.27789307 -6.51159668 9.27789307 -7.51159668 8.27789307 C-7.69909668 5.34039307 -7.69909668 5.34039307 -7.51159668 2.27789307 C-4.99454863 -0.23915498 -3.43486769 0.03119707 0 0 Z " fill="#18223D" transform="translate(180.5115966796875,74.72210693359375)"/>
<path d="M0 0 C2.015625 0.15234375 2.015625 0.15234375 4.015625 2.15234375 C4.28063965 4.87586975 4.28063965 4.87586975 4.30273438 8.38696289 C4.31614868 9.69915298 4.32956299 11.01134308 4.34338379 12.36329651 C4.34722832 13.41940219 4.34722832 13.41940219 4.35115051 14.49684334 C4.35944061 16.70497596 4.37995156 18.91269513 4.40368652 21.12071228 C4.45197227 25.81869449 4.48480465 30.51671886 4.515625 35.21484375 C4.5513979 40.63673482 4.5936296 46.05842791 4.65156555 51.48013115 C4.67146591 53.64303718 4.67992326 55.80578729 4.68786621 57.96876526 C4.50380729 69.84518225 4.50380729 69.84518225 8.703125 80.65234375 C11.93474792 82.74853159 14.15993542 83.08808226 18.015625 83.15234375 C26.23913312 81.24499016 31.09459022 76.69724912 35.53125 69.69921875 C43.72333783 55.64332068 44.32951491 41.77219929 44.640625 25.90234375 C44.67890705 24.27081483 44.71796426 22.63930391 44.7578125 21.0078125 C44.85267109 17.05613979 44.93709517 13.10437328 45.015625 9.15234375 C43.7575 9.35859375 42.499375 9.56484375 41.203125 9.77734375 C37.6141492 10.36570044 37.26488622 10.3185179 34.015625 8.15234375 C33.703125 5.65234375 33.703125 5.65234375 34.015625 3.15234375 C37.59374742 -0.42577867 43.15728575 0.53294594 48.015625 0.33984375 C49.13453125 0.27603516 50.2534375 0.21222656 51.40625 0.14648438 C52.47359375 0.10072266 53.5409375 0.05496094 54.640625 0.0078125 C55.62289062 -0.03706299 56.60515625 -0.08193848 57.6171875 -0.12817383 C58.40867187 -0.03560303 59.20015625 0.05696777 60.015625 0.15234375 C62.45957215 3.81826447 62.32204361 6.59462662 62.33447266 10.83666992 C62.34451828 11.61739365 62.3545639 12.39811737 62.36491394 13.20249939 C62.39580821 15.78342959 62.41279829 18.36425577 62.4296875 20.9453125 C62.44839414 22.73465372 62.46796717 24.52398607 62.4883728 26.31330872 C62.53975331 31.02325214 62.57934731 35.73322418 62.61651611 40.44329834 C62.65651869 45.24938063 62.7076281 50.05534327 62.7578125 54.86132812 C62.85464184 64.29158268 62.93902418 73.72190471 63.015625 83.15234375 C64.665625 83.48234375 66.315625 83.81234375 68.015625 84.15234375 C68.2425 83.51296875 68.469375 82.87359375 68.703125 82.21484375 C70.015625 80.15234375 70.015625 80.15234375 72.515625 79.27734375 C73.340625 79.23609375 74.165625 79.19484375 75.015625 79.15234375 C77.015625 81.15234375 77.015625 81.15234375 77.203125 83.96484375 C75.63287794 88.17971744 73.71267007 89.28221687 69.7578125 91.234375 C63.54302102 93.31482514 57.45789474 93.2862547 51.515625 90.52734375 C45.52733413 84.83846743 44.33206747 80.15833827 44.015625 72.15234375 C43.68691406 72.70921875 43.35820313 73.26609375 43.01953125 73.83984375 C37.59958981 82.53525116 30.30076394 90.59702973 20.015625 93.15234375 C11.95040175 94.11535548 4.94773287 93.58482363 -1.984375 89.15234375 C-9.39262553 83.22574333 -11.37332464 75.90951298 -12.59399414 66.8269043 C-13.64497619 56.21131998 -13.1843897 45.42943089 -13.109375 34.77734375 C-13.09932592 32.28776401 -13.09020347 29.79818036 -13.08203125 27.30859375 C-13.06016889 21.25642376 -13.0268439 15.20440241 -12.984375 9.15234375 C-14.263125 9.35859375 -15.541875 9.56484375 -16.859375 9.77734375 C-19.0390625 10.12890625 -19.0390625 10.12890625 -20.984375 10.15234375 C-22.984375 8.15234375 -22.984375 8.15234375 -23.171875 5.08984375 C-22.984375 2.15234375 -22.984375 2.15234375 -21.984375 1.15234375 C-20.62991274 0.99595952 -19.2681226 0.90171797 -17.90625 0.8359375 C-17.07480469 0.79404297 -16.24335938 0.75214844 -15.38671875 0.70898438 C-14.51144531 0.66966797 -13.63617188 0.63035156 -12.734375 0.58984375 C-11.44466797 0.52506836 -11.44466797 0.52506836 -10.12890625 0.45898438 C-6.75289603 0.29512564 -3.37561535 0.17231544 0 0 Z " fill="#18223E" transform="translate(499.984375,74.84765625)"/>
<path d="M0 0 C11.09898242 7.98077039 17.25418728 18.19859101 20.58984375 31.3203125 C22.92625222 46.58484781 20.18181561 60.86603284 12 74 C4.73157741 83.40280065 -5.44197039 89.17328579 -17.21484375 90.81640625 C-26.28331773 91.41418785 -33.81305622 89.89423211 -42 86 C-41.505 86.495 -41.505 86.495 -41 87 C-41 87.99 -41 88.98 -41 90 C-41.99 90 -42.98 90 -44 90 C-44 90.66 -44 91.32 -44 92 C-45.98 92 -47.96 92 -50 92 C-50 91.34 -50 90.68 -50 90 C-50.99 90 -51.98 90 -53 90 C-53 88.02 -53 86.04 -53 84 C-54.65 84 -56.3 84 -58 84 C-58 83.34 -58 82.68 -58 82 C-58.99 82 -59.98 82 -61 82 C-61 79.36 -61 76.72 -61 74 C-60.34 74 -59.68 74 -59 74 C-59.34933594 72.83082031 -59.69867188 71.66164063 -60.05859375 70.45703125 C-60.5183452 68.90888862 -60.97797417 67.36070961 -61.4375 65.8125 C-61.66759766 65.04357422 -61.89769531 64.27464844 -62.13476562 63.48242188 C-66.07551767 50.17524468 -67.19823575 35.15379656 -62 22 C-61.74476563 21.31164062 -61.48953125 20.62328125 -61.2265625 19.9140625 C-56.58070037 9.13054765 -46.73890334 0.64113942 -36.0625 -3.875 C-24.31979659 -7.2888157 -10.54715033 -6.0898082 0 0 Z M-39.3125 9.0625 C-45.3757977 19.61712934 -46.19789472 30.1499301 -46.25 42.0625 C-46.270625 43.21427734 -46.29125 44.36605469 -46.3125 45.55273438 C-46.36531251 57.32332351 -45.08546248 68.8936458 -37 78 C-30.71778085 82.78645269 -23.61572428 82.52107587 -16 82 C-9.52266573 80.30102708 -5.59232395 76.50947093 -2 71 C4.54658938 55.70869634 4.63035944 32.60474151 -1 17 C-3.8835693 11.11377595 -7.21379468 7.08597617 -13 4 C-22.20112491 0.93295836 -32.07807018 2.6101707 -39.3125 9.0625 Z " fill="#17233E" transform="translate(451,78)"/>
<path d="M0 0 C7.43424302 6.09364182 11.11856423 13.93911447 12.6875 23.3125 C12.88641246 26.36691139 12.83823779 29.24749824 12.6875 32.3125 C13.6775 31.9825 14.6675 31.6525 15.6875 31.3125 C15.6875 31.9725 15.6875 32.6325 15.6875 33.3125 C17.1725 34.3025 17.1725 34.3025 18.6875 35.3125 C17.470625 35.333125 16.25375 35.35375 15 35.375 C14.31550781 35.38660156 13.63101563 35.39820313 12.92578125 35.41015625 C10.6875 35.3125 10.6875 35.3125 8.38142395 34.81349182 C5.63313761 34.30239017 3.13935666 34.19217918 0.34643555 34.19897461 C-1.21461662 34.19908791 -1.21461662 34.19908791 -2.8072052 34.19920349 C-3.9188353 34.20436478 -5.03046539 34.20952606 -6.17578125 34.21484375 C-7.32290085 34.2162587 -8.47002045 34.21767365 -9.65190125 34.21913147 C-13.30962754 34.22472139 -16.96729225 34.23727211 -20.625 34.25 C-23.10742099 34.2550163 -25.58984294 34.25957898 -28.07226562 34.26367188 C-34.1523647 34.27468753 -40.23242795 34.2914157 -46.3125 34.3125 C-46.32055542 36.06696832 -46.32629177 37.82144739 -46.33105469 39.57592773 C-46.3344989 40.55295151 -46.33794312 41.52997528 -46.3414917 42.53660583 C-46.23184641 53.03491157 -44.38289049 64.01276905 -38.125 72.6875 C-33.25925652 77.22886058 -28.11605746 79.49396785 -21.4375 79.8125 C-14.39187844 79.51479768 -7.24876728 77.45505905 -2.3125 72.3125 C-1.6525 72.3125 -0.9925 72.3125 -0.3125 72.3125 C-0.085625 71.673125 0.14125 71.03375 0.375 70.375 C2.17315826 66.17929739 4.42654021 62.27349444 6.6875 58.3125 C8.35361905 58.269779 10.02132885 58.27186168 11.6875 58.3125 C12.6875 59.3125 12.6875 59.3125 13.125 62.25 C13.00811254 68.5749104 8.92594806 73.84410654 4.82421875 78.3671875 C-3.871678 86.48800491 -13.58452948 88.70821971 -25.3125 89.3125 C-36.03100763 88.77862797 -45.4011773 84.11683745 -53.140625 76.7890625 C-63.03144737 65.51067872 -66.99862649 52.04951804 -66.25 37.125 C-65.21305668 23.91151558 -60.3068673 11.610388 -50.5 2.4375 C-35.93200761 -9.37592073 -15.60453535 -10.53012818 0 0 Z M-39.625 8.5 C-43.25465333 13.07909943 -45.3125 18.46241314 -45.3125 24.3125 C-32.4425 24.3125 -19.5725 24.3125 -6.3125 24.3125 C-5.03126587 19.1875635 -4.62691986 15.21688928 -6.4375 10.1875 C-9.23265826 5.90159067 -12.36025717 2.96324761 -17.3125 1.3125 C-26.46482571 0.41057453 -33.18677636 1.71461725 -39.625 8.5 Z " fill="#19223C" transform="translate(728.3125,79.6875)"/>
<path d="M0 0 C1.4224876 2.8449752 2.83787686 5.68297914 4.1875 8.5625 C4.55230469 9.32691406 4.91710937 10.09132812 5.29296875 10.87890625 C6 13 6 13 5 16 C5.86625 15.6596875 5.86625 15.6596875 6.75 15.3125 C9 15 9 15 10.875 16.3125 C11.57625 16.869375 12.2775 17.42625 13 18 C17.44532397 19.7909889 21.24043945 20.26637846 26.01513672 20.31884766 C27.02594551 20.33391609 27.02594551 20.33391609 28.05717468 20.34928894 C30.26467098 20.37995844 32.47204693 20.39711023 34.6796875 20.4140625 C36.21811955 20.43278727 37.75654147 20.45236165 39.29495239 20.4727478 C43.32916272 20.5239369 47.36340629 20.56363304 51.39776611 20.60089111 C55.5204685 20.641014 59.64303416 20.69206842 63.765625 20.7421875 C71.84365637 20.83879008 79.92175578 20.92324459 88 21 C88 18.36 88 15.72 88 13 C93.28 13 98.56 13 104 13 C104 18.28 104 23.56 104 29 C91.37010616 29.15356466 78.74016193 29.30174644 66.11012363 29.4429636 C60.24615064 29.50870016 54.38221184 29.57632484 48.51831055 29.64819336 C42.86442813 29.71741958 37.21050975 29.78177922 31.55653191 29.84269524 C29.39424549 29.86686053 27.23197829 29.89281047 25.06973457 29.92053413 C22.05246109 29.95892251 19.03518297 29.99109215 16.01782227 30.02172852 C15.1143959 30.03467453 14.21096954 30.04762054 13.28016663 30.06095886 C11.18675674 30.07898416 9.09299749 30.045292 7 30 C6 29 6 29 5.90234375 27.15234375 C5.95117188 24.07617188 5.95117188 24.07617188 6 21 C5.38125 20.87625 4.7625 20.7525 4.125 20.625 C2 20 2 20 0 18 C0 17.01 0 16.02 0 15 C-2.64 15 -5.28 15 -8 15 C-8 14.01 -8 13.02 -8 12 C-7.360625 11.87625 -6.72125 11.7525 -6.0625 11.625 C-5.381875 11.41875 -4.70125 11.2125 -4 11 C-3.67 10.34 -3.34 9.68 -3 9 C-2.01 9 -1.02 9 0 9 C0 6.03 0 3.06 0 0 Z M-3 12 C-2 14 -2 14 -2 14 Z M1 14 C2.15173355 16.46800047 3.04783565 18.04783565 5 20 C5.99 19.67 6.98 19.34 8 19 C6.37660195 17.29115995 4.70680947 15.62553283 3 14 C2.34 14 1.68 14 1 14 Z " fill="#000001" transform="translate(488,147)"/>
<path d="M0 0 C1.32 0 2.64 0 4 0 C4 21.12 4 42.24 4 64 C3.34 64 2.68 64 2 64 C2 53.44 2 42.88 2 32 C-2.62 32 -7.24 32 -12 32 C-10.87638112 28.7703468 -9.7511584 25.54126763 -8.625 22.3125 C-8.30789062 21.40048828 -7.99078125 20.48847656 -7.6640625 19.54882812 C-7.3546875 18.66259766 -7.0453125 17.77636719 -6.7265625 16.86328125 C-6.44377441 16.05157471 -6.16098633 15.23986816 -5.86962891 14.40356445 C-4.10313128 9.52114752 -2.05571468 4.7655204 0 0 Z " fill="#000000" transform="translate(236,128)"/>
<path d="M0 0 C3.96 0 7.92 0 12 0 C12.81814192 3.27256768 13.11871834 5.47993899 13.09765625 8.765625 C13.09443359 9.65507812 13.09121094 10.54453125 13.08789062 11.4609375 C13.07951172 12.38132813 13.07113281 13.30171875 13.0625 14.25 C13.05798828 15.18585938 13.05347656 16.12171875 13.04882812 17.0859375 C13.03706938 19.39065247 13.01913468 21.69533446 13 24 C8.71 24 4.42 24 0 24 C0.33 22.68 0.66 21.36 1 20 C1.09484264 17.3220901 1.13954771 14.67677951 1.125 12 C1.12886719 11.2884375 1.13273438 10.576875 1.13671875 9.84375 C1.13014594 6.32072441 0.86106649 3.44426598 0 0 Z " fill="#000003" transform="translate(651,128)"/>
<path d="M0 0 C0.66 0.33 1.32 0.66 2 1 C2 2.98 2 4.96 2 7 C1.01 6.67 0.02 6.34 -1 6 C-1 6.66 -1 7.32 -1 8 C0.3921875 8.1546875 0.3921875 8.1546875 1.8125 8.3125 C5.02914465 9.0062861 6.16015919 9.34245216 8 12 C8 12.99 8 13.98 8 15 C9.918125 14.938125 9.918125 14.938125 11.875 14.875 C14.0546875 14.8046875 14.0546875 14.8046875 16 15 C18 17 18 17 18.1953125 20.6953125 C18.182009 22.17200108 18.15814835 23.64862358 18.125 25.125 C18.11597656 25.87910156 18.10695313 26.63320312 18.09765625 27.41015625 C18.0740687 29.27357254 18.03819719 31.13682593 18 33 C17.01 33 16.02 33 15 33 C15 33.66 15 34.32 15 35 C12.69 35 10.38 35 8 35 C8 29.72 8 24.44 8 19 C6.68 18.34 5.36 17.68 4 17 C3.67 16.01 3.34 15.02 3 14 C0.99983534 12.79117904 0.99983534 12.79117904 -1 12 C-0.34 11.67 0.32 11.34 1 11 C2.65 12.65 4.3 14.3 6 16 C4.86500606 12.70851757 4.00716624 12.0040131 0.875 10.25 C-0.07375 9.8375 -1.0225 9.425 -2 9 C-1.125 1.125 -1.125 1.125 0 0 Z " fill="#000000" transform="translate(640,63)"/>
<path d="M0 0 C3.70718433 0.81785983 5.13329673 2.33819937 7.16015625 5.4765625 C7.79480821 8.28716402 7.79055099 10.66534271 7.16015625 13.4765625 C5.36651714 16.2865971 4.1413469 17.98596718 1.16015625 19.4765625 C-3.02128386 19.87103798 -5.14930423 19.92691436 -8.71484375 17.6015625 C-11.62695033 14.68945592 -11.8005268 13.8762848 -12.21484375 9.6640625 C-12.14775486 6.31571686 -11.81923122 5.44464632 -9.90234375 2.4765625 C-6.33149918 0.14458237 -4.19478356 -0.26611315 0 0 Z M2.16015625 4.4765625 C2.16015625 6.4565625 2.16015625 8.4365625 2.16015625 10.4765625 C1.17015625 10.9715625 1.17015625 10.9715625 0.16015625 11.4765625 C1.15015625 12.4665625 2.14015625 13.4565625 3.16015625 14.4765625 C5.45653404 11.71760615 5.45653404 11.71760615 4.91015625 8.9140625 C4.32207573 6.32655683 4.32207573 6.32655683 2.16015625 4.4765625 Z M-7.83984375 5.4765625 C-9.05282024 7.7572332 -9.05282024 7.7572332 -9.83984375 10.4765625 C-9.07380416 12.7623336 -9.07380416 12.7623336 -7.83984375 14.4765625 C-7.50984375 14.4765625 -7.17984375 14.4765625 -6.83984375 14.4765625 C-6.83984375 11.5065625 -6.83984375 8.5365625 -6.83984375 5.4765625 C-7.16984375 5.4765625 -7.49984375 5.4765625 -7.83984375 5.4765625 Z M-3.83984375 6.4765625 C-3.83984375 7.1365625 -3.83984375 7.7965625 -3.83984375 8.4765625 C-2.84984375 8.4765625 -1.85984375 8.4765625 -0.83984375 8.4765625 C-0.83984375 7.8165625 -0.83984375 7.1565625 -0.83984375 6.4765625 C-1.82984375 6.4765625 -2.81984375 6.4765625 -3.83984375 6.4765625 Z M-3.83984375 11.4765625 C-3.83984375 12.7965625 -3.83984375 14.1165625 -3.83984375 15.4765625 C-4.82984375 15.9715625 -4.82984375 15.9715625 -5.83984375 16.4765625 C-3.52984375 16.4765625 -1.21984375 16.4765625 1.16015625 16.4765625 C0.50015625 16.1465625 -0.15984375 15.8165625 -0.83984375 15.4765625 C-1.96484375 13.4140625 -1.96484375 13.4140625 -2.83984375 11.4765625 C-3.16984375 11.4765625 -3.49984375 11.4765625 -3.83984375 11.4765625 Z " fill="#19213B" transform="translate(752.83984375,72.5234375)"/>
<path d="M0 0 C7.92 0 15.84 0 24 0 C24 2.64 24 5.28 24 8 C16.08 8 8.16 8 0 8 C0 5.36 0 2.72 0 0 Z " fill="#000003" transform="translate(112,136)"/>
<path d="M0 0 C0.66 0 1.32 0 2 0 C2.4125 0.886875 2.825 1.77375 3.25 2.6875 C6.35019088 8.55571845 10.00416547 11.94266189 15.390625 15.66796875 C15.92171875 16.10753906 16.4528125 16.54710937 17 17 C17 17.66 17 18.32 17 19 C17.66 19 18.32 19 19 19 C19 19.99 19 20.98 19 22 C18.01 22 17.02 22 16 22 C16 22.66 16 23.32 16 24 C14.02 24 12.04 24 10 24 C10 23.34 10 22.68 10 22 C9.01 22 8.02 22 7 22 C7 20.02 7 18.04 7 16 C5.35 16 3.7 16 2 16 C2 15.34 2 14.68 2 14 C1.01 14 0.02 14 -1 14 C-1 11.36 -1 8.72 -1 6 C-0.34 6 0.32 6 1 6 C0.67 4.02 0.34 2.04 0 0 Z " fill="#000002" transform="translate(391,146)"/>
<path d="M0 0 C2.7133583 3.25602996 4.21435853 6.56153128 5.75 10.5 C6.19859375 11.6240625 6.6471875 12.748125 7.109375 13.90625 C7.97409572 16.91001672 8.14236473 18.15801946 7 21 C5.02 21 3.04 21 1 21 C1 20.34 1 19.68 1 19 C0.01 19 -0.98 19 -2 19 C-2 14.71 -2 10.42 -2 6 C-1.34 6 -0.68 6 0 6 C0 4.02 0 2.04 0 0 Z " fill="#000101" transform="translate(192,109)"/>
<path d="M0 0 C1 4 1 4 0 6 C-0.2275015 7.87056791 -0.40962811 9.74685958 -0.5625 11.625 C-0.64628906 12.62789062 -0.73007813 13.63078125 -0.81640625 14.6640625 C-0.87699219 15.43492187 -0.93757812 16.20578125 -1 17 C-3.64 17 -6.28 17 -9 17 C-9.33 13.37 -9.66 9.74 -10 6 C-9.01 5.67 -8.02 5.34 -7 5 C-6.67 4.34 -6.34 3.68 -6 3 C-6.99 3.33 -7.98 3.66 -9 4 C-9.33 3.34 -9.66 2.68 -10 2 C-9.01 1.67 -8.02 1.34 -7 1 C-4 3 -4 3 -3.3125 5.625 C-3.209375 6.40875 -3.10625 7.1925 -3 8 C-2.01 5.36 -1.02 2.72 0 0 Z " fill="#000000" transform="translate(201,167)"/>
<path d="M0 0 C2.64 0 5.28 0 8 0 C8 2.64 8 5.28 8 8 C5.36 8 2.72 8 0 8 C0 5.36 0 2.72 0 0 Z " fill="#000101" transform="translate(600,88)"/>
<path d="M0 0 C2.31 0.33 4.62 0.66 7 1 C7 1.99 7 2.98 7 4 C7.99 4 8.98 4 10 4 C9.34 5.32 8.68 6.64 8 8 C7.34 8 6.68 8 6 8 C6 8.66 6 9.32 6 10 C3.36 9.67 0.72 9.34 -2 9 C-2 8.67 -2 8.34 -2 8 C-0.02 7.67 1.96 7.34 4 7 C2.02 7 0.04 7 -2 7 C-2 6.34 -2 5.68 -2 5 C0.64 5 3.28 5 6 5 C5.01 4.67 4.02 4.34 3 4 C3 3.34 3 2.68 3 2 C2.01 1.34 1.02 0.68 0 0 Z " fill="#010000" transform="translate(609,146)"/>
<path d="M0 0 C-0.33 1.32 -0.66 2.64 -1 4 C-1.99 4 -2.98 4 -4 4 C-4 5.98 -4 7.96 -4 10 C-4.33 10 -4.66 10 -5 10 C-5.12375 9.030625 -5.2475 8.06125 -5.375 7.0625 C-5.58125 6.051875 -5.7875 5.04125 -6 4 C-6.66 3.67 -7.32 3.34 -8 3 C-8 2.01 -8 1.02 -8 0 C-4.71023192 -1.09658936 -3.28696233 -0.79953138 0 0 Z " fill="#000001" transform="translate(330,153)"/>
<path d="M0 0 C1.65 0 3.3 0 5 0 C5 2.64 5 5.28 5 8 C4.34 7.34 3.68 6.68 3 6 C2.67 6.99 2.34 7.98 2 9 C0.4375 7.875 0.4375 7.875 -1 6 C-0.6875 2.8125 -0.6875 2.8125 0 0 Z " fill="#020406" transform="translate(331,157)"/>
<path d="M0 0 C1.93742341 -0.02703381 3.87495479 -0.04641125 5.8125 -0.0625 C6.89144531 -0.07410156 7.97039063 -0.08570313 9.08203125 -0.09765625 C12 0 12 0 15 1 C15.33 1.99 15.66 2.98 16 4 C14.68 4 13.36 4 12 4 C12 3.34 12 2.68 12 2 C11.34 2.66 10.68 3.32 10 4 C8.25 3.75 8.25 3.75 6 3 C4.9275 2.649375 3.855 2.29875 2.75 1.9375 C1.8425 1.628125 0.935 1.31875 0 1 C0 0.67 0 0.34 0 0 Z " fill="#000101" transform="translate(607,156)"/>
<path d="M0 0 C0.99 0 1.98 0 3 0 C3 0.99 3 1.98 3 3 C3.99 3 4.98 3 6 3 C5.67 3.99 5.34 4.98 5 6 C4.34 5.67 3.68 5.34 3 5 C2.67 5.66 2.34 6.32 2 7 C2.99 7 3.98 7 5 7 C5 7.66 5 8.32 5 9 C3.68 8.67 2.36 8.34 1 8 C1 7.01 1 6.02 1 5 C0.01 5 -0.98 5 -2 5 C-2.33 3.68 -2.66 2.36 -3 1 C-2.34 1 -1.68 1 -1 1 C-1 1.99 -1 2.98 -1 4 C-0.34 3.34 0.32 2.68 1 2 C0.67 1.34 0.34 0.68 0 0 Z " fill="#000000" transform="translate(647,67)"/>
<path d="M0 0 C1.98 0.495 1.98 0.495 4 1 C4 1.99 4 2.98 4 4 C4.99 4 5.98 4 7 4 C7.33 4.99 7.66 5.98 8 7 C7.01 7.495 7.01 7.495 6 8 C6 7.01 6 6.02 6 5 C5.34 5.66 4.68 6.32 4 7 C4.33 7.66 4.66 8.32 5 9 C4.01 9 3.02 9 2 9 C2 8.01 2 7.02 2 6 C1.01 6 0.02 6 -1 6 C-0.67 5.01 -0.34 4.02 0 3 C0.66 3.33 1.32 3.66 2 4 C2.33 3.34 2.66 2.68 3 2 C2.01 2 1.02 2 0 2 C0 1.34 0 0.68 0 0 Z " fill="#000000" transform="translate(484,164)"/>
<path d="M0 0 C1.98 0 3.96 0 6 0 C5.01 2.64 4.02 5.28 3 8 C1.0549 5.08235 0.54723683 3.37462715 0 0 Z " fill="#000006" transform="translate(219,128)"/>
<path d="M0 0 C1.65 0 3.3 0 5 0 C5 1.65 5 3.3 5 5 C3.35 5 1.7 5 0 5 C0 3.35 0 1.7 0 0 Z " fill="#000002" transform="translate(324,145)"/>
<path d="M0 0 C0 0.66 0 1.32 0 2 C-3.31070838 3.00109515 -6.30084769 3.10356134 -9.75 3.0625 C-10.73484375 3.05347656 -11.7196875 3.04445313 -12.734375 3.03515625 C-13.48203125 3.02355469 -14.2296875 3.01195313 -15 3 C-15 2.67 -15 2.34 -15 2 C-13.2508503 1.66223316 -11.50063855 1.32996329 -9.75 1 C-8.77546875 0.814375 -7.8009375 0.62875 -6.796875 0.4375 C-4 0 -4 0 0 0 Z " fill="#000001" transform="translate(753,115)"/>
<path d="M0 0 C0.33 0.99 0.66 1.98 1 3 C0.38125 3.7425 -0.2375 4.485 -0.875 5.25 C-3.41935822 8.54269888 -3.67915589 10.90923765 -4 15 C-4.33 15 -4.66 15 -5 15 C-5.60709557 8.07911053 -4.44071801 5.32886161 0 0 Z " fill="#000000" transform="translate(207,164)"/>
<path d="M0 0 C0 1.32 0 2.64 0 4 C-1.65 4 -3.3 4 -5 4 C-5 3.67 -5 3.34 -5 3 C-6.65 2.67 -8.3 2.34 -10 2 C-6.5980513 -0.09350689 -3.94727588 -0.17942163 0 0 Z " fill="#000001" transform="translate(753,121)"/>
<path d="M0 0 C2.74782689 5.31246532 3.09669018 9.10189908 3 15 C0.22957891 12.22957891 0.60203894 10.23466195 0.375 6.375 C0.30023438 5.18648437 0.22546875 3.99796875 0.1484375 2.7734375 C0.09945313 1.85820312 0.05046875 0.94296875 0 0 Z " fill="#000002" transform="translate(328,162)"/>
<path d="M0 0 C0.66 0 1.32 0 2 0 C2 2.97 2 5.94 2 9 C0 7 0 7 -0.125 3.375 C-0.08375 2.26125 -0.0425 1.1475 0 0 Z " fill="#000001" transform="translate(319,166)"/>
<path d="M0 0 C0.99 0 1.98 0 3 0 C3 0.99 3 1.98 3 3 C1.35 3.33 -0.3 3.66 -2 4 C-1.34 2.68 -0.68 1.36 0 0 Z " fill="#010101" transform="translate(206,159)"/>
<path d="M0 0 C0.95904856 3.83619425 0.91892116 5.32431536 0 9 C-0.33 9 -0.66 9 -1 9 C-0.67 6.03 -0.34 3.06 0 0 Z " fill="#000002" transform="translate(325,164)"/>
<path d="M0 0 C0.99 0 1.98 0 3 0 C3 0.99 3 1.98 3 3 C2.01 3 1.02 3 0 3 C0 2.01 0 1.02 0 0 Z " fill="#000000" transform="translate(334,174)"/>
<path d="M0 0 C1.485 0.99 1.485 0.99 3 2 C3 2.99 3 3.98 3 5 C2.34 5 1.68 5 1 5 C0.67 3.35 0.34 1.7 0 0 Z " fill="#000000" transform="translate(199,159)"/>
<path d="M0 0 C1.32 0 2.64 0 4 0 C4 0.66 4 1.32 4 2 C2.35 2 0.7 2 -1 2 C-0.67 1.34 -0.34 0.68 0 0 Z " fill="#000001" transform="translate(613,143)"/>
<path d="M0 0 C0.99 0.99 1.98 1.98 3 3 C2.01 3.33 1.02 3.66 0 4 C0 2.68 0 1.36 0 0 Z " fill="#010101" transform="translate(334,166)"/>
<path d="M0 0 C1.32 0 2.64 0 4 0 C4 0.66 4 1.32 4 2 C2.68 2 1.36 2 0 2 C0 1.34 0 0.68 0 0 Z " fill="#000000" transform="translate(748,127)"/>
<path d="M0 0 C1.32 0 2.64 0 4 0 C4 0.66 4 1.32 4 2 C2.68 2 1.36 2 0 2 C0 1.34 0 0.68 0 0 Z " fill="#000000" transform="translate(749,111)"/>
<path d="M0 0 C0.66 0 1.32 0 2 0 C1.34 1.32 0.68 2.64 0 4 C-0.33 3.34 -0.66 2.68 -1 2 C-0.67 1.34 -0.34 0.68 0 0 Z " fill="#020504" transform="translate(206,169)"/>
<path d="M0 0 C0.33 0.99 0.66 1.98 1 3 C0.01 3.495 0.01 3.495 -1 4 C-0.67 2.68 -0.34 1.36 0 0 Z " fill="#000000" transform="translate(480,167)"/>
<path d="M0 0 C0.33 0.99 0.66 1.98 1 3 C0.01 3.495 0.01 3.495 -1 4 C-0.67 2.68 -0.34 1.36 0 0 Z " fill="#000000" transform="translate(656,69)"/>
<path d="M0 0 C0.99 0.33 1.98 0.66 3 1 C2.01 1.33 1.02 1.66 0 2 C0 1.34 0 0.68 0 0 Z " fill="#000000" transform="translate(486,175)"/>
<path d="M0 0 C0.99 0.33 1.98 0.66 3 1 C2.67 1.66 2.34 2.32 2 3 C1.34 2.01 0.68 1.02 0 0 Z " fill="#000000" transform="translate(482,171)"/>
<path d="M0 0 C0.33 0 0.66 0 1 0 C1 1.65 1 3.3 1 5 C0.67 5 0.34 5 0 5 C0 3.35 0 1.7 0 0 Z " fill="#000002" transform="translate(327,167)"/>
<path d="M0 0 C0.33 0 0.66 0 1 0 C1 1.65 1 3.3 1 5 C0.67 5 0.34 5 0 5 C0 3.35 0 1.7 0 0 Z " fill="#000002" transform="translate(332,168)"/>
<path d="M0 0 C0.33 0 0.66 0 1 0 C1 1.65 1 3.3 1 5 C0.67 5 0.34 5 0 5 C0 3.35 0 1.7 0 0 Z " fill="#000002" transform="translate(322,166)"/>
<path d="M0 0 C1.65 0 3.3 0 5 0 C5 0.33 5 0.66 5 1 C3.35 1 1.7 1 0 1 C0 0.67 0 0.34 0 0 Z " fill="#000001" transform="translate(736,122)"/>
<path d="M0 0 C1.65 0 3.3 0 5 0 C5 0.33 5 0.66 5 1 C3.35 1 1.7 1 0 1 C0 0.67 0 0.34 0 0 Z " fill="#000002" transform="translate(740,120)"/>
<path d="M0 0 C0.99 0.99 1.98 1.98 3 3 C2.01 2.67 1.02 2.34 0 2 C0 1.34 0 0.68 0 0 Z " fill="#000000" transform="translate(651,66)"/>
<path d="M0 0 C0.66 0 1.32 0 2 0 C2 0.66 2 1.32 2 2 C1.01 1.67 0.02 1.34 -1 1 C-0.67 0.67 -0.34 0.34 0 0 Z " fill="#000000" transform="translate(648,63)"/>
<path d="M0 0 C0.66 0 1.32 0 2 0 C2 0.66 2 1.32 2 2 C1.34 2 0.68 2 0 2 C0 1.34 0 0.68 0 0 Z " fill="#000002" transform="translate(608,143)"/>
<path d="M0 0 C4 1 4 1 4 1 Z " fill="#000207" transform="translate(735,115)"/>
<path d="M0 0 C0.99 0.495 0.99 0.495 2 1 C1.01 1.495 1.01 1.495 0 2 C0 1.34 0 0.68 0 0 Z " fill="#000000" transform="translate(482,175)"/>
<path d="" fill="#000002" transform="translate(0,0)"/>
<path d="" fill="#000000" transform="translate(0,0)"/>
<path d="M0 0 C0.66 0.66 1.32 1.32 2 2 C1.34 2 0.68 2 0 2 C0 1.34 0 0.68 0 0 Z " fill="#000000" transform="translate(194,163)"/>
<path d="" fill="#000001" transform="translate(0,0)"/>
<path d="M0 0 C3 1 3 1 3 1 Z " fill="#010000" transform="translate(621,149)"/>
<path d="M0 0 C0.66 0 1.32 0 2 0 C1.67 0.66 1.34 1.32 1 2 C0.67 1.34 0.34 0.68 0 0 Z " fill="#000000" transform="translate(643,65)"/>
<path d="M0 0 C0.33 0.66 0.66 1.32 1 2 C0.34 1.67 -0.32 1.34 -1 1 C-0.67 0.67 -0.34 0.34 0 0 Z " fill="#000000" transform="translate(653,63)"/>
<path d="" fill="#000000" transform="translate(0,0)"/>
<path d="" fill="#000000" transform="translate(0,0)"/>
<path d="" fill="#000000" transform="translate(0,0)"/>
<path d="M0 0 C2 1 2 1 2 1 Z " fill="#000000" transform="translate(481,164)"/>
<path d="" fill="#000000" transform="translate(0,0)"/>
<path d="" fill="#000000" transform="translate(0,0)"/>
<path d="M0 0 C2 1 2 1 2 1 Z " fill="#000000" transform="translate(653,75)"/>
<path d="" fill="#000000" transform="translate(0,0)"/>
<path d="" fill="#000000" transform="translate(0,0)"/>
<path d="" fill="#010000" transform="translate(0,0)"/>
</svg>
