<?xml version="1.0" encoding="UTF-8"?>
<svg version="1.1" xmlns="http://www.w3.org/2000/svg" width="1334" height="676">
<path d="M0 0 C84.29845506 0 84.29845506 0 100.0234375 14.8359375 C107.24980726 22.74781269 109.32592925 31.8700497 109 42.375 C107.93832185 52.62984579 103.19582185 60.96953532 95.69921875 67.95703125 C89.0283777 73.00601803 81.36424456 76.98461371 73 78 C77.21936454 84.52351473 81.75191349 90.72850445 86.5 96.875 C92.31717465 104.45446789 98.04573729 112.0884205 103.68261719 119.80273438 C106.8582613 124.13497385 110.08035121 128.42500326 113.359375 132.6796875 C114.09027344 133.62908203 114.82117188 134.57847656 115.57421875 135.55664062 C116.99360588 137.39521839 118.41786839 139.23004566 119.84765625 141.06054688 C120.49089844 141.89392578 121.13414062 142.72730469 121.796875 143.5859375 C122.36760742 144.3186084 122.93833984 145.0512793 123.52636719 145.80615234 C125.08212294 148.12225923 126.05810168 150.38074063 127 153 C101.01396226 155.98648396 101.01396226 155.98648396 93.38330078 151.44140625 C89.02445485 147.21539546 86.25704673 142.0206208 83.47167969 136.67675781 C81.08195331 132.33021501 78.07002923 128.49446791 75.0625 124.5625 C73.90101679 122.99152369 72.74218009 121.41858742 71.5859375 119.84375 C67.80918986 114.73292732 64.00170874 109.6454018 60.1875 104.5625 C59.56037109 103.72614014 58.93324219 102.88978027 58.28710938 102.02807617 C55.55634765 98.3898357 52.81961207 94.75689468 50.0546875 91.14453125 C49.62647705 90.58241943 49.1982666 90.02030762 48.75708008 89.44116211 C47.65555864 87.99700514 46.5487242 86.55690476 45.44140625 85.1171875 C44 83 44 83 44 81 C38.39 81 32.78 81 27 81 C27 104.76 27 128.52 27 153 C18.09 153 9.18 153 0 153 C0 102.51 0 52.02 0 0 Z M27 10 C27 30.46 27 50.92 27 72 C53.0389659 72.76573079 53.0389659 72.76573079 72.71484375 60.375 C78.1270287 54.65846235 80.09349524 48.41504319 80.4375 40.625 C80.17714694 32.54273545 77.59110712 24.52972367 71.97265625 18.56640625 C58.20850042 7.63684885 44.79596005 10 27 10 Z " fill="#000000" transform="translate(484,382)"/>
<path d="M0 0 C1.134375 0.020625 2.26875 0.04125 3.4375 0.0625 C8.45739829 9.94691487 13.27798255 19.89388951 17.8480835 29.99401855 C19.5692685 33.79716096 21.30116996 37.59542923 23.03125 41.39453125 C23.3915329 42.1863681 23.7518158 42.97820496 24.12301636 43.79403687 C28.15400177 52.64837772 32.23161897 61.48107256 36.3125 70.3125 C37.05926337 71.92927202 37.80600812 73.54605264 38.55273438 75.1628418 C40.84699794 80.12969882 43.14222672 85.09610953 45.4375 90.0625 C48.33343244 96.32888671 51.22878236 102.59554182 54.12310791 108.8626709 C55.28190054 111.37125744 56.44146512 113.87948611 57.60107422 116.38769531 C59.27560398 120.01086848 60.94471438 123.6364888 62.60974121 127.26403809 C63.34469964 128.86087373 64.08641582 130.45459519 64.82910156 132.04785156 C67.4375 137.72334318 67.4375 137.72334318 67.4375 141.0625 C59.5175 141.0625 51.5975 141.0625 43.4375 141.0625 C35.84061571 126.31560697 29.17532412 111.22260427 22.4375 96.0625 C3.2975 95.7325 -15.8425 95.4025 -35.5625 95.0625 C-36.5525 98.0325 -37.5425 101.0025 -38.5625 104.0625 C-39.81822253 106.95288894 -41.09928378 109.80000527 -42.44921875 112.64453125 C-42.8229512 113.44340256 -43.19668365 114.24227386 -43.58174133 115.06535339 C-44.38334193 116.77845686 -45.18695973 118.49061765 -45.99243164 120.2019043 C-48.15665903 124.80220049 -50.3036562 129.41050622 -52.44921875 134.01953125 C-52.88458954 134.95451447 -53.31996033 135.88949768 -53.76852417 136.85281372 C-57.80511401 145.54350988 -61.7011592 154.29286522 -65.5625 163.0625 C-71.63658997 176.84596018 -77.91756586 190.52409021 -84.28076172 204.17626953 C-89.82917067 216.0867352 -95.26254816 228.03948582 -100.5625 240.0625 C-106.63818582 253.84527745 -112.9175479 267.52405166 -119.28076172 281.17626953 C-124.82917502 293.08674453 -130.26218103 305.03964184 -135.5625 317.0625 C-143.25474743 334.50718786 -151.2677365 351.79690572 -159.3182373 369.07861328 C-163.10197673 377.20740933 -166.83184732 385.36045151 -170.53051758 393.52832031 C-170.9252124 394.39553711 -171.31990723 395.26275391 -171.7265625 396.15625 C-172.06123535 396.89552734 -172.3959082 397.63480469 -172.74072266 398.39648438 C-173.5625 400.0625 -173.5625 400.0625 -174.5625 401.0625 C-176.58214199 401.13494053 -178.60417124 401.14627188 -180.625 401.125 C-181.72972656 401.11597656 -182.83445313 401.10695313 -183.97265625 401.09765625 C-185.25462891 401.08025391 -185.25462891 401.08025391 -186.5625 401.0625 C-185.90559443 396.21819365 -183.93962494 392.20656662 -181.87109375 387.8359375 C-181.49444077 387.02849091 -181.11778778 386.22104431 -180.72972107 385.38912964 C-179.91647423 383.64719093 -179.10077823 381.90639398 -178.28289795 380.16662598 C-176.54054422 376.46009357 -174.81006499 372.74806005 -173.07897949 369.03625488 C-172.19228061 367.13518228 -171.30498772 365.23438662 -170.41711426 363.3338623 C-166.37669278 354.68146209 -162.39746392 346.00195114 -158.4375 337.3125 C-157.13316409 334.45296452 -155.82835272 331.59364616 -154.5234375 328.734375 C-154.20051224 328.02664948 -153.87758698 327.31892395 -153.5448761 326.5897522 C-149.73337906 318.2400039 -145.89747433 309.90148387 -142.0625 301.5625 C-136.54759979 289.56927773 -131.04668147 277.56980013 -125.5625 265.5625 C-119.72271107 252.77661778 -113.86204533 240.0004734 -107.98974609 227.22949219 C-102.83293141 216.01371391 -97.69107417 204.79121839 -92.5625 193.5625 C-86.72271107 180.77661778 -80.86204533 168.0004734 -74.98974609 155.22949219 C-69.83293141 144.01371391 -64.69107417 132.79121839 -59.5625 121.5625 C-54.07831792 109.55519853 -48.57693205 97.55593834 -43.0625 85.5625 C-37.49049636 73.4418462 -31.92424968 61.31859089 -26.375 49.1875 C-26.04853485 48.47402405 -25.7220697 47.7605481 -25.38571167 47.02545166 C-21.72942631 39.03225058 -18.09136775 31.03120064 -14.484375 23.015625 C-14.15664597 22.28773773 -13.82891693 21.55985046 -13.49125671 20.80990601 C-11.92869632 17.33847894 -10.3688809 13.86586191 -8.8137207 10.39111328 C-8.26259481 9.16436005 -7.71141014 7.93763322 -7.16015625 6.7109375 C-6.68070557 5.64020996 -6.20125488 4.56948242 -5.70727539 3.46630859 C-4.09067892 0.0717663 -4.09067892 0.0717663 0 0 Z M-6.5625 33.0625 C-9.18063447 38.53758396 -11.79480392 44.0145377 -14.40551758 49.49316406 C-15.29183357 51.35173988 -16.17917959 53.2098249 -17.06762695 55.06738281 C-18.35387402 57.75713752 -19.63624799 60.448711 -20.91796875 63.140625 C-21.30776413 63.95364075 -21.69755951 64.76665649 -22.09916687 65.60430908 C-25.1488984 72.02390324 -27.81895901 78.47800162 -30.5625 85.0625 C-14.7225 85.0625 1.1175 85.0625 17.4375 85.0625 C16.21126693 81.38380078 15.10926013 78.14525898 13.49804688 74.69702148 C12.93736511 73.49063271 12.93736511 73.49063271 12.36535645 72.25987244 C11.96635132 71.40970047 11.56734619 70.5595285 11.15625 69.68359375 C10.74209839 68.79390396 10.32794678 67.90421417 9.90124512 66.98756409 C8.58305129 64.15693999 7.26053406 61.32836459 5.9375 58.5 C4.61513093 55.66776176 3.29370377 52.83509122 1.97375488 50.00172424 C1.15394412 48.24248218 0.33263848 46.48393575 -0.49035645 44.72618103 C-2.28753685 40.87444033 -4.04805308 37.03691355 -5.5625 33.0625 C-5.8925 33.0625 -6.2225 33.0625 -6.5625 33.0625 Z " fill="#000000" transform="translate(346.5625,133.9375)"/>
<path d="M0 0 C4.40310526 3.28957864 8.23772043 7.0036484 12 11 C12.73605469 11.77859375 13.47210937 12.5571875 14.23046875 13.359375 C29.30920129 30.74220787 32.27878044 50.70176877 31 73 C29.13647752 91.14193948 17.75262821 108.45993056 4.3125 120.3125 C-13.96905756 134.726805 -36.16254657 140.71968408 -59.29296875 138.52734375 C-76.5848893 136.0674815 -91.98997719 129.90428851 -105 118 C-106.02287109 117.11441406 -106.02287109 117.11441406 -107.06640625 116.2109375 C-121.65482898 102.79301444 -128.75173313 83.78288116 -130.28515625 64.39453125 C-130.83403411 43.27466572 -123.44422703 24.26509032 -109 9 C-80.15208147 -19.08541848 -33.20322608 -22.41773714 0 0 Z M-86.3125 10.6875 C-100.65954809 29.88549672 -102.36394402 55.71327535 -99.50390625 78.8046875 C-97.00831434 94.75167013 -90.22748753 111.96316841 -77 122 C-64.18011338 129.48553471 -52.06793037 131.87652815 -37.3828125 129.38671875 C-24.04330529 125.75594161 -15.10269065 117.55865311 -8.16015625 105.9140625 C-1.84299055 94.24132926 1.49854451 81.28857041 2 68 C2.07734375 66.49179687 2.07734375 66.49179687 2.15625 64.953125 C2.73376248 44.06642367 -1.72203069 21.91087634 -16.3125 6.1875 C-27.13684505 -3.88783903 -39.1438565 -6.8158203 -53.5234375 -6.33984375 C-67.00404153 -5.53695063 -77.5830761 0.51970512 -86.3125 10.6875 Z " fill="#000000" transform="translate(777,396)"/>
<path d="M0 0 C1.55545532 -0.02114868 1.55545532 -0.02114868 3.14233398 -0.04272461 C23.06700047 0.08187356 39.46400747 8.59470494 53.90234375 21.8203125 C58.23300159 26.29464145 61.80590273 31.27998434 65.375 36.375 C63.9765209 39.7837928 62.52493067 41.24893835 59.375 43.125 C58.67375 43.55296875 57.9725 43.9809375 57.25 44.421875 C55.375 45.375 55.375 45.375 53.375 45.375 C52.12198831 43.45792217 50.94902736 41.48834888 49.8125 39.5 C42.68067572 27.53135059 33.7016632 17.7635782 20.0625 13.4375 C5.15668191 10.05941092 -11.08038293 12.8231575 -24.16796875 20.69140625 C-38.35600502 30.41325622 -46.90794282 45.443669 -50.1171875 62.24609375 C-53.10975422 83.4742835 -49.92304191 104.15161231 -36.9375 121.625 C-27.37699317 132.99523948 -13.30073289 140.40651846 1.375 142.375 C12.11655232 143.15393683 22.40822936 142.91599602 32.375 138.375 C33.03732635 138.10268555 33.69965271 137.83037109 34.38204956 137.54980469 C36.77088551 136.36986398 38.50011432 135.27935675 40.375 133.375 C41.55742961 129.57939657 41.44682203 125.89933713 41.375 121.94921875 C41.38587646 120.84649124 41.39675293 119.74376373 41.40795898 118.60762024 C41.43411844 115.09158688 41.40527062 111.57845617 41.375 108.0625 C41.38309116 105.67641723 41.39476768 103.29034374 41.41015625 100.90429688 C41.44675046 95.05938892 41.40895499 89.22162432 41.375 83.375 C32.135 83.375 22.895 83.375 13.375 83.375 C13.375 80.405 13.375 77.435 13.375 74.375 C30.865 74.375 48.355 74.375 66.375 74.375 C66.375 95.825 66.375 117.275 66.375 139.375 C36.81938765 153.1676191 1.13606678 158.9780273 -30.45214844 147.82543945 C-40.77487574 143.94804895 -49.34535633 138.66001115 -57.625 131.375 C-58.78515625 130.35792969 -58.78515625 130.35792969 -59.96875 129.3203125 C-73.5350445 116.63675634 -80.64195392 99.36645274 -81.84375 81.0390625 C-82.43074108 59.27147676 -74.83602875 39.6094005 -60.08422852 23.72558594 C-43.89771087 7.0964576 -22.70820113 0.22542887 0 0 Z " fill="#000000" transform="translate(347.625,381.625)"/>
<path d="M0 0 C77.34313322 0 77.34313322 0 93.8046875 15.6875 C100.90079512 23.1624034 103.94506051 32.20014534 104.375 42.5 C103.86291744 53.41129772 100.44914682 61.9680968 93 70 C86.77523486 75.54457557 79.95446849 78.69921624 72 81 C71.2575 81.22558594 70.515 81.45117188 69.75 81.68359375 C64.19255364 83.08260368 58.63713572 83.20165899 52.9375 83.25 C52.21304687 83.2593457 51.48859375 83.26869141 50.7421875 83.27832031 C42.33193638 83.23143641 34.50019045 82.00002241 26 81 C26 103.44 26 125.88 26 149 C17.42 149 8.84 149 0 149 C0 99.83 0 50.66 0 0 Z M26 12 C26 31.47 26 50.94 26 71 C32.69920263 73.23306754 37.19362018 74.52957161 43.9375 74.4375 C44.72165283 74.42992676 45.50580566 74.42235352 46.3137207 74.41455078 C54.95553163 74.16940572 62.04879649 71.8008522 68.46484375 65.83984375 C74.99218607 58.01699837 76.7796123 48.91840099 76 39 C74.22443071 29.02370813 69.29940302 22.35171354 61.3203125 16.32421875 C49.02089121 9.30485205 42.17956526 12 26 12 Z " fill="#000000" transform="translate(1071,382)"/>
<path d="M0 0 C8.58 0 17.16 0 26 0 C26.0093457 3.14821289 26.01869141 6.29642578 26.02832031 9.54003906 C26.06217657 19.97357887 26.11777367 30.40692269 26.18390274 40.84030533 C26.2233126 47.16242723 26.25553306 53.4844112 26.27099609 59.80664062 C26.28620519 65.91467015 26.32072677 72.02232028 26.36830902 78.13018036 C26.38307891 80.45357708 26.39103848 82.77702798 26.39188385 85.1004715 C26.40448386 102.37531553 27.05270271 115.47144277 39 129 C47.33985199 137.20085446 59.05673578 141.09292472 70.5625 141.25 C83.88627623 141.11077559 94.48890534 137.33912029 104.3125 128.25 C117.22260263 114.50698752 116.46228128 96.13233715 116.51171875 78.515625 C116.52858682 76.2459009 116.54673989 73.97618601 116.56611633 71.70648193 C116.61339122 65.768584 116.64334585 59.83072348 116.66955566 53.8927002 C116.69947529 47.8190167 116.7459662 41.74546178 116.79101562 35.671875 C116.8767924 23.78131758 116.94425112 11.8907335 117 0 C120.96 0 124.92 0 129 0 C129.06976424 13.18770789 129.12294491 26.37537128 129.15543652 39.5632267 C129.17103733 45.68805117 129.1921729 51.81274861 129.22631836 57.9375 C129.25911178 63.85733652 129.27689493 69.77705149 129.28463173 75.69697189 C129.29013955 77.94620042 129.30089414 80.19542292 129.31719017 82.44459915 C129.45210336 101.85167028 128.86235066 121.02232594 114.6875 136 C99.21916322 150.03849052 78.94741307 153.52288907 58.66503906 152.9765625 C42.13337538 152.12752891 26.13199755 146.7795995 13.99609375 135.22265625 C6.16498196 126.50269029 -0.13428487 114.410706 -0.12025452 102.45684814 C-0.12162918 101.551035 -0.12300385 100.64522186 -0.12442017 99.71195984 C-0.12082489 98.72581192 -0.11722961 97.739664 -0.11352539 96.72363281 C-0.11367142 95.67941666 -0.11381744 94.6352005 -0.1139679 93.55934143 C-0.11327113 90.10724817 -0.10548973 86.65520884 -0.09765625 83.203125 C-0.09579123 80.80987579 -0.09436772 78.41662619 -0.09336853 76.02337646 C-0.08954996 69.72364244 -0.07972527 63.42393146 -0.06866455 57.12420654 C-0.05843627 50.69608878 -0.05386787 44.2679673 -0.04882812 37.83984375 C-0.03810244 25.22655074 -0.02051094 12.61328089 0 0 Z " fill="#000000" transform="translate(872,382)"/>
<path d="M0 0 C14 0 14 0 18.9375 4 C20.32554572 5.63855858 21.68159271 7.30490491 23 9 C24.16050677 10.3179497 25.3268788 11.6307659 26.5 12.9375 C27.05945312 13.58847656 27.61890625 14.23945313 28.1953125 14.91015625 C31.72795226 19.00098367 35.37831725 22.98810228 39 27 C41.24796977 29.49687992 43.49508007 31.99453151 45.7421875 34.4921875 C47.26708244 36.18592894 48.79315402 37.87861169 50.3203125 39.5703125 C53.71872932 43.33737115 57.1081661 47.10915586 60.4375 50.9375 C64.09178862 55.13442081 67.84744973 59.2365276 71.59765625 63.34765625 C73.56941844 65.52460996 75.51365337 67.71838674 77.4375 69.9375 C80.39883782 73.34688893 83.44163405 76.67783969 86.5 80 C92.19613702 86.19145329 97.74346192 92.4293274 103 99 C103.33 66.33 103.66 33.66 104 0 C107.63 0 111.26 0 115 0 C115 46.53 115 93.06 115 141 C108 141 108 141 105.4453125 138.98046875 C104.67960937 138.05878906 103.91390625 137.13710938 103.125 136.1875 C102.70138184 135.68976074 102.27776367 135.19202148 101.84130859 134.67919922 C100.53796946 133.1368579 99.26601247 131.57306031 98 130 C97.2678125 129.10152344 96.535625 128.20304688 95.78125 127.27734375 C94.32183465 125.48215711 92.86620871 123.6838843 91.4140625 121.8828125 C88.22356606 118.07280219 84.84002858 114.46475671 81.4440918 110.83862305 C77.52107276 106.62588877 73.88096281 102.23595547 70.27734375 97.74609375 C67.7817361 94.73681042 65.16236519 91.86059714 62.5 89 C59.04838064 85.29138312 55.73477852 81.51494105 52.5625 77.5625 C49.19653735 73.37762693 45.66823983 69.41685602 42 65.5 C37.54826024 60.74654207 33.37434795 55.85149114 29.296875 50.76953125 C25.84652118 46.60915564 22.16891337 42.67580624 18.48046875 38.7265625 C16.21840272 36.24007102 14.09990314 33.62487893 12 31 C11.67 67.3 11.34 103.6 11 141 C7.37 141 3.74 141 0 141 C0 94.47 0 47.94 0 0 Z " fill="#000000" transform="translate(1060,137)"/>
<path d="M0 0 C8.25 0 16.5 0 25 0 C25.01458252 2.94663574 25.02916504 5.89327148 25.04418945 8.92919922 C25.0946303 18.68819379 25.16124217 28.4470304 25.23571491 38.20586967 C25.28035446 44.11997986 25.31962483 50.03402217 25.34643555 55.94824219 C25.37253235 61.66070605 25.41298009 67.37290784 25.46318626 73.08520889 C25.47981185 75.25954034 25.49135285 77.43391707 25.49761391 79.60830307 C25.50730184 82.66476366 25.5354174 85.72056022 25.56762695 88.77685547 C25.56547432 90.111511 25.56547432 90.111511 25.5632782 91.47312927 C25.72722714 102.54521387 29.3283521 112.73069458 36.81640625 121.0078125 C46.50329445 130.04890815 57.90874321 133.51511767 70.94921875 133.25 C81.63455362 132.37437717 90.97559811 128.0340485 99 121 C107.71464811 109.70652746 110.11099952 98.56886117 110.20532227 84.57641602 C110.21522186 83.6585582 110.22512146 82.74070038 110.23532104 81.79502869 C110.26674014 78.78134685 110.2916155 75.76764928 110.31640625 72.75390625 C110.33699272 70.65640366 110.35798962 68.55890507 110.37937927 66.46141052 C110.43442513 60.95581302 110.48391116 55.45017917 110.53222656 49.94451904 C110.58256967 44.32040188 110.63818872 38.69633714 110.69335938 33.07226562 C110.80072691 22.04822193 110.90221895 11.0241326 111 0 C114.63 0 118.26 0 122 0 C122.0697492 12.68344203 122.12293735 25.36683784 122.15543652 38.05043316 C122.17104057 43.94099935 122.19218218 49.83143357 122.22631836 55.72192383 C122.25910009 61.41482133 122.2768925 67.1075925 122.28463173 72.80057716 C122.29014162 74.96410928 122.30090039 77.12763509 122.31719017 79.2911129 C122.45100656 97.81321982 121.70090886 113.87856721 108.5 128.25 C94.38040702 141.60522404 75.40469237 144.50578864 56.7265625 144.203125 C40.90925103 143.67566687 25.93661243 139.17636884 14.3125 128 C3.3689478 115.9382624 -0.17985137 102.48885592 -0.11352539 86.39282227 C-0.11367142 85.45545731 -0.11381744 84.51809235 -0.1139679 83.55232239 C-0.11327477 80.47365961 -0.10551059 77.39505837 -0.09765625 74.31640625 C-0.09578994 72.17406752 -0.09436704 70.03172835 -0.09336853 67.88938904 C-0.08956016 62.26537893 -0.07974426 56.64139487 -0.06866455 51.01739502 C-0.05841426 45.27266797 -0.05386317 39.52793669 -0.04882812 33.78320312 C-0.03812044 22.52212217 -0.02053729 11.26106733 0 0 Z " fill="#000000" transform="translate(459,134)"/>
<path d="M0 0 C0.92135742 0.00491455 1.84271484 0.0098291 2.79199219 0.01489258 C15.87990296 0.23947394 27.21445637 3.61574939 37.05859375 12.5234375 C42.47078739 18.46776529 45.57549711 25.64259476 47.6875 33.3125 C45.89796815 34.15040789 44.10580305 34.98269396 42.3125 35.8125 C40.81589844 36.50859375 40.81589844 36.50859375 39.2890625 37.21875 C36.6875 38.3125 36.6875 38.3125 34.6875 38.3125 C33.97787109 36.8275 33.97787109 36.8275 33.25390625 35.3125 C28.2687075 25.21814344 23.30891303 17.44539806 12.5625 12.8125 C4.5947519 10.29106073 -4.8739271 9.8329757 -12.875 12.5 C-18.75458349 15.60014402 -23.05293648 18.78487204 -25.3125 25.3125 C-26.09984291 30.62949471 -25.75013604 35.04757867 -22.66796875 39.64453125 C-13.63840553 50.75583815 1.03606823 56.98471887 13.5 63.4375 C27.92720149 70.92595293 44.78914692 79.79774825 50.32421875 96.19921875 C52.14892203 106.8138905 50.78670324 116.60085117 45.1796875 125.78125 C38.02976206 135.75789014 27.43081096 140.99058354 15.625 143.5625 C-0.16728638 146.00919226 -17.60555114 145.11347381 -31.2109375 135.921875 C-38.84577968 130.07511853 -43.51493428 123.14270601 -47.3125 114.3125 C-47.3125 112.9925 -47.3125 111.6725 -47.3125 110.3125 C-45.73524653 109.61116401 -44.15038667 108.926917 -42.5625 108.25 C-41.68078125 107.86714844 -40.7990625 107.48429687 -39.890625 107.08984375 C-37.06014043 106.23640977 -35.93007289 105.9345388 -33.3125 107.3125 C-31.85546875 109.7890625 -31.85546875 109.7890625 -30.5 112.9375 C-25.49529157 123.41882486 -18.95497216 127.83935937 -8.3125 132.3125 C-0.11364838 135.02354312 9.75562025 134.19085168 17.49609375 130.58203125 C21.83829845 128.06649377 25.40663257 125.31733598 28.125 121.0625 C29.24219085 115.60067807 29.42967412 110.41532666 27.5625 105.125 C26.94375 104.196875 26.325 103.26875 25.6875 102.3125 C25.34332031 101.78398437 24.99914062 101.25546875 24.64453125 100.7109375 C17.20640767 90.68663557 3.92284822 85.32945081 -6.875 79.8125 C-38.43487676 63.65030019 -38.43487676 63.65030019 -44.3125 47.3125 C-46.68375094 37.49329311 -45.71538546 27.86384958 -41.05859375 18.8984375 C-35.12055723 9.22283576 -26.03679599 3.91282363 -15.171875 1.22265625 C-10.10083672 0.14468886 -5.17146966 -0.03271282 0 0 Z " fill="#000000" transform="translate(689.3125,133.6875)"/>
<path d="M0 0 C41.58 0 83.16 0 126 0 C126 3.3 126 6.6 126 10 C109.17 10 92.34 10 75 10 C75 53.23 75 96.46 75 141 C67.08 141 59.16 141 51 141 C51 97.77 51 54.54 51 10 C34.17 10 17.34 10 0 10 C0 6.7 0 3.4 0 0 Z " fill="#000000" transform="translate(789,137)"/>
<path d="M0 0 C8.25 0 16.5 0 25 0 C25 46.53 25 93.06 25 141 C16.75 141 8.5 141 0 141 C0 94.47 0 47.94 0 0 Z " fill="#000000" transform="translate(972,137)"/>
</svg>
