<?xml version="1.0" encoding="UTF-8"?>
<svg version="1.1" xmlns="http://www.w3.org/2000/svg" width="210" height="37">
<path d="M0 0 C0.88794754 -0.00315216 1.77589508 -0.00630432 2.69075012 -0.009552 C3.65736069 -0.00752777 4.62397125 -0.00550354 5.61987305 -0.00341797 C7.10175362 -0.00485306 7.10175362 -0.00485306 8.61357117 -0.00631714 C10.70934106 -0.00699926 12.80511304 -0.00514278 14.90087891 -0.00097656 C18.10738905 0.00435429 21.31375802 -0.0009117 24.52026367 -0.00732422 C26.55346711 -0.00666311 28.58667045 -0.00538127 30.61987305 -0.00341797 C31.58041092 -0.0054422 32.54094879 -0.00746643 33.53059387 -0.009552 C34.87669991 -0.00482376 34.87669991 -0.00482376 36.25 0 C37.03752151 0.00079559 37.82504303 0.00159119 38.63642883 0.00241089 C40.86121454 0.13184516 42.72103702 0.37076799 44.8190918 1.12939453 C47.24938258 5.9899761 47.0309569 10.83276696 46.8190918 16.12939453 C46.17456055 16.41814453 45.5300293 16.70689453 44.8659668 17.00439453 C42.64379287 17.93637466 42.64379287 17.93637466 42.0690918 20.12939453 C41.77774689 22.12422642 41.77774689 22.12422642 41.8190918 24.12939453 C43.14719394 25.80023272 44.48081876 27.46669166 45.8190918 29.12939453 C46.3140918 30.61439453 46.3140918 30.61439453 46.8190918 32.12939453 C47.8090918 32.12939453 48.7990918 32.12939453 49.8190918 32.12939453 C50.01245117 31.53771484 50.20581055 30.94603516 50.4050293 30.33642578 C51.76433165 26.21141417 53.18692635 22.15540263 54.8190918 18.12939453 C55.49704708 16.13319287 56.1664271 14.13400752 56.8190918 12.12939453 C57.4790918 12.12939453 58.1390918 12.12939453 58.8190918 12.12939453 C59.1490918 9.48939453 59.4790918 6.84939453 59.8190918 4.12939453 C60.4790918 4.12939453 61.1390918 4.12939453 61.8190918 4.12939453 C62.1490918 2.80939453 62.4790918 1.48939453 62.8190918 0.12939453 C66.41053823 -0.07013027 68.87092707 -0.03259293 71.8190918 2.12939453 C74.43161419 6.30943036 75.65506233 10.74022396 76.87768555 15.46923828 C78.03403958 18.98778365 78.03403958 18.98778365 81.8190918 25.12939453 C82.1490918 16.87939453 82.4790918 8.62939453 82.8190918 0.12939453 C83.1490918 0.12939453 83.4790918 0.12939453 83.8190918 0.12939453 C83.8190918 12.33939453 83.8190918 24.54939453 83.8190918 37.12939453 C81.8390918 37.12939453 79.8590918 37.12939453 77.8190918 37.12939453 C75.8190918 35.12939453 75.8190918 35.12939453 73.8190918 32.12939453 C73.8190918 30.14939453 73.8190918 28.16939453 73.8190918 26.12939453 C68.8690918 26.45939453 63.9190918 26.78939453 58.8190918 27.12939453 C58.1590918 30.09939453 57.4990918 33.06939453 56.8190918 36.12939453 C45.93926347 37.80321427 45.93926347 37.80321427 41.8190918 36.12939453 C40.45664384 34.48644258 39.12044305 32.82115116 37.8190918 31.12939453 C37.1590918 31.12939453 36.4990918 31.12939453 35.8190918 31.12939453 C35.7365918 30.05689453 35.6540918 28.98439453 35.5690918 27.87939453 C34.76432278 23.85554943 33.94179306 22.647702 30.8190918 20.12939453 C30.3240918 21.61439453 30.3240918 21.61439453 29.8190918 23.12939453 C29.4890918 22.79939453 29.1590918 22.46939453 28.8190918 22.12939453 C28.4890918 27.07939453 28.1590918 32.02939453 27.8190918 37.12939453 C24.8490918 37.12939453 21.8790918 37.12939453 18.8190918 37.12939453 C18.8190918 36.46939453 18.8190918 35.80939453 18.8190918 35.12939453 C19.8090918 35.12939453 20.7990918 35.12939453 21.8190918 35.12939453 C21.8190918 34.13939453 21.8190918 33.14939453 21.8190918 32.12939453 C19.81925646 32.92057357 19.81925646 32.92057357 17.8190918 34.12939453 C17.4890918 35.11939453 17.1590918 36.10939453 16.8190918 37.12939453 C13.33994239 37.15827267 9.86082349 37.1761514 6.3815918 37.19189453 C4.89175781 37.20446289 4.89175781 37.20446289 3.37182617 37.21728516 C2.42758789 37.22050781 1.48334961 37.22373047 0.51049805 37.22705078 C-0.36405029 37.2322876 -1.23859863 37.23752441 -2.13964844 37.24291992 C-4.1809082 37.12939453 -4.1809082 37.12939453 -5.1809082 36.12939453 C-5.28182296 33.54750007 -5.32062319 30.99292953 -5.3137207 28.41064453 C-5.31467743 27.63756958 -5.31563416 26.86449463 -5.31661987 26.06799316 C-5.31730161 24.4304191 -5.31544777 22.79284234 -5.3112793 21.15527344 C-5.30593092 18.64007533 -5.31122447 16.1250558 -5.31762695 13.60986328 C-5.31696617 12.0226233 -5.31568501 10.43538343 -5.3137207 8.84814453 C-5.31574493 8.0908606 -5.31776917 7.33357666 -5.31985474 6.55334473 C-5.29025965 0.00536073 -5.29025965 0.00536073 0 0 Z M-0.1809082 4.12939453 C-0.1809082 8.08939453 -0.1809082 12.04939453 -0.1809082 16.12939453 C0.1490918 16.12939453 0.4790918 16.12939453 0.8190918 16.12939453 C0.8190918 12.16939453 0.8190918 8.20939453 0.8190918 4.12939453 C0.4890918 4.12939453 0.1590918 4.12939453 -0.1809082 4.12939453 Z M9.0065918 3.62939453 C7.96728516 3.7009375 7.96728516 3.7009375 6.90698242 3.77392578 C5.21091342 3.89089606 3.51498731 4.00993522 1.8190918 4.12939453 C1.8190918 8.08939453 1.8190918 12.04939453 1.8190918 16.12939453 C4.7890918 16.12939453 7.7590918 16.12939453 10.8190918 16.12939453 C10.8190918 15.79939453 10.8190918 15.46939453 10.8190918 15.12939453 C14.4490918 15.12939453 18.0790918 15.12939453 21.8190918 15.12939453 C21.8190918 11.16939453 21.8190918 7.20939453 21.8190918 3.12939453 C17.51995011 3.12939453 13.28947138 3.32610928 9.0065918 3.62939453 Z M26.8190918 4.12939453 C26.8190918 4.45939453 26.8190918 4.78939453 26.8190918 5.12939453 C30.7790918 5.12939453 34.7390918 5.12939453 38.8190918 5.12939453 C38.8190918 4.79939453 38.8190918 4.46939453 38.8190918 4.12939453 C34.8590918 4.12939453 30.8990918 4.12939453 26.8190918 4.12939453 Z M26.8190918 6.12939453 C26.8190918 8.76939453 26.8190918 11.40939453 26.8190918 14.12939453 C31.1090918 14.45939453 35.3990918 14.78939453 39.8190918 15.12939453 C40.4790918 14.13939453 41.1390918 13.14939453 41.8190918 12.12939453 C40.82855011 8.84309808 40.82855011 8.84309808 38.8190918 6.12939453 C36.79944981 6.056954 34.77742056 6.04562265 32.7565918 6.06689453 C31.65186523 6.07591797 30.54713867 6.08494141 29.40893555 6.09423828 C28.55428711 6.10583984 27.69963867 6.11744141 26.8190918 6.12939453 Z M64.8190918 6.12939453 C65.8190918 8.12939453 65.8190918 8.12939453 65.8190918 8.12939453 Z M63.8190918 10.12939453 C64.8190918 12.12939453 64.8190918 12.12939453 64.8190918 12.12939453 Z M66.8190918 10.12939453 C67.8190918 13.12939453 67.8190918 13.12939453 67.8190918 13.12939453 Z M71.8190918 10.12939453 C72.4790918 10.78939453 73.1390918 11.44939453 73.8190918 12.12939453 C73.8190918 11.46939453 73.8190918 10.80939453 73.8190918 10.12939453 C73.1590918 10.12939453 72.4990918 10.12939453 71.8190918 10.12939453 Z M73.8190918 14.12939453 C74.8190918 16.12939453 74.8190918 16.12939453 74.8190918 16.12939453 Z M25.8190918 15.12939453 C25.8190918 15.45939453 25.8190918 15.78939453 25.8190918 16.12939453 C29.7790918 16.12939453 33.7390918 16.12939453 37.8190918 16.12939453 C37.8190918 15.79939453 37.8190918 15.46939453 37.8190918 15.12939453 C33.8590918 15.12939453 29.8990918 15.12939453 25.8190918 15.12939453 Z M68.8190918 15.12939453 C69.8190918 17.12939453 69.8190918 17.12939453 69.8190918 17.12939453 Z M61.8190918 16.12939453 C62.1490918 17.44939453 62.4790918 18.76939453 62.8190918 20.12939453 C64.4690918 20.12939453 66.1190918 20.12939453 67.8190918 20.12939453 C67.4890918 18.80939453 67.1590918 17.48939453 66.8190918 16.12939453 C65.1690918 16.12939453 63.5190918 16.12939453 61.8190918 16.12939453 Z M74.8190918 16.12939453 C75.8190918 18.12939453 75.8190918 18.12939453 75.8190918 18.12939453 Z M69.8190918 17.12939453 C70.8190918 20.12939453 70.8190918 20.12939453 70.8190918 20.12939453 Z M38.8190918 20.12939453 C39.8190918 22.12939453 39.8190918 22.12939453 39.8190918 22.12939453 Z M70.8190918 20.12939453 C70.4890918 20.78939453 70.1590918 21.44939453 69.8190918 22.12939453 C70.4790918 22.12939453 71.1390918 22.12939453 71.8190918 22.12939453 C71.4890918 21.46939453 71.1590918 20.80939453 70.8190918 20.12939453 Z M61.8190918 21.12939453 C61.8190918 21.45939453 61.8190918 21.78939453 61.8190918 22.12939453 C63.7990918 22.12939453 65.7790918 22.12939453 67.8190918 22.12939453 C67.8190918 21.79939453 67.8190918 21.46939453 67.8190918 21.12939453 C65.8390918 21.12939453 63.8590918 21.12939453 61.8190918 21.12939453 Z M-0.1809082 22.12939453 C-0.1809082 25.42939453 -0.1809082 28.72939453 -0.1809082 32.12939453 C0.1490918 32.12939453 0.4790918 32.12939453 0.8190918 32.12939453 C0.8190918 28.82939453 0.8190918 25.52939453 0.8190918 22.12939453 C0.4890918 22.12939453 0.1590918 22.12939453 -0.1809082 22.12939453 Z M16.8190918 18.12939453 C16.4890918 19.44939453 16.1590918 20.76939453 15.8190918 22.12939453 C11.1990918 22.12939453 6.5790918 22.12939453 1.8190918 22.12939453 C1.8190918 25.75939453 1.8190918 29.38939453 1.8190918 33.12939453 C6.1090918 33.12939453 10.3990918 33.12939453 14.8190918 33.12939453 C14.8190918 32.79939453 14.8190918 32.46939453 14.8190918 32.12939453 C18.2840918 31.63439453 18.2840918 31.63439453 21.8190918 31.12939453 C21.8190918 28.81939453 21.8190918 26.50939453 21.8190918 24.12939453 C21.1590918 24.12939453 20.4990918 24.12939453 19.8190918 24.12939453 C19.8190918 22.47939453 19.8190918 20.82939453 19.8190918 19.12939453 C18.8290918 18.79939453 17.8390918 18.46939453 16.8190918 18.12939453 Z M77.8190918 22.12939453 C78.8190918 25.12939453 78.8190918 25.12939453 78.8190918 25.12939453 Z M54.8190918 31.12939453 C55.1490918 32.11939453 55.4790918 33.10939453 55.8190918 34.12939453 C56.1490918 33.13939453 56.4790918 32.14939453 56.8190918 31.12939453 C56.1590918 31.12939453 55.4990918 31.12939453 54.8190918 31.12939453 Z " fill="#000000" transform="translate(69.180908203125,-0.12939453125)"/>
<path d="M0 0 C12.54 0 25.08 0 38 0 C38 3.63 38 7.26 38 11 C38.66 11.33 39.32 11.66 40 12 C40 12.99 40 13.98 40 15 C40.66 14.01 41.32 13.02 42 12 C42.99 11.67 43.98 11.34 45 11 C46.51472274 8.72791589 47.78009593 6.43980815 49 4 C50.3125 1.875 50.3125 1.875 52 0 C53.32 0 54.64 0 56 0 C56 2.64 56 5.28 56 8 C55.34 8 54.68 8 54 8 C54 9.98 54 11.96 54 14 C53.34 14 52.68 14 52 14 C51.7525 14.598125 51.505 15.19625 51.25 15.8125 C49.8286819 18.29980668 48.38925315 19.45854635 46 21 C45.67 21 45.34 21 45 21 C44.67 25.95 44.34 30.9 44 36 C40 37 40 37 37 36 C36.97421875 35.05898438 36.9484375 34.11796875 36.921875 33.1484375 C36.60399048 23.77111476 36.60399048 23.77111476 32 16 C31.67 15.01 31.34 14.02 31 13 C30.67 13 30.34 13 30 13 C29.67 11.02 29.34 9.04 29 7 C28.67 7 28.34 7 28 7 C27.83564453 7.99580078 27.83564453 7.99580078 27.66796875 9.01171875 C26.78863977 13.90879478 26.00548286 17.90161428 23 22 C22.67 21.01 22.34 20.02 22 19 C21.34 18.67 20.68 18.34 20 18 C20 18.66 20 19.32 20 20 C15.05 20.33 10.1 20.66 5 21 C5.33 26.28 5.66 31.56 6 37 C4.02 37 2.04 37 0 37 C0 24.79 0 12.58 0 0 Z M33 1 C33 1.99 33 2.98 33 4 C33.66 3.34 34.32 2.68 35 2 C34.34 1.67 33.68 1.34 33 1 Z M26 2 C27 5 27 5 27 5 Z M5 4 C5 7.96 5 11.92 5 16 C7.97 16 10.94 16 14 16 C14 14.68 14 13.36 14 12 C15.32 12 16.64 12 18 12 C18 10.02 18 8.04 18 6 C16.68 6 15.36 6 14 6 C14 5.34 14 4.68 14 4 C11.03 4 8.06 4 5 4 Z M19 6 C20 8 20 8 20 8 Z M25 6 C25 8.31 25 10.62 25 13 C25.33 13 25.66 13 26 13 C26 10.69 26 8.38 26 6 C25.67 6 25.34 6 25 6 Z M20 8 C21 10 21 10 21 10 Z M50 12 C50 15 50 15 50 15 Z M34 15 C35 17 35 17 35 17 Z " fill="#000000" transform="translate(154,0)"/>
<path d="M0 0 C12.54 0 25.08 0 38 0 C38 4.62 38 9.24 38 14 C43.28 14 48.56 14 54 14 C54 9.38 54 4.76 54 0 C55.98 0 57.96 0 60 0 C61 1 61 1 61.11352539 4.32641602 C61.11336629 5.80225556 61.10767314 7.27810069 61.09765625 8.75390625 C61.0962413 9.52935287 61.09482635 10.3047995 61.09336853 11.10374451 C61.08775345 13.59003494 61.07519846 16.0762366 61.0625 18.5625 C61.05748694 20.24413933 61.0529237 21.92578006 61.04882812 23.60742188 C61.03777913 27.73831566 61.02050445 31.86914276 61 36 C56.25 37 56.25 37 54 37 C54 32.05 54 27.1 54 22 C48.72 22 43.44 22 38 22 C38 26.95 38 31.9 38 37 C36.02 37 34.04 37 32 37 C32 25.78 32 14.56 32 3 C30.35 3.33 28.7 3.66 27 4 C23.37 4 19.74 4 16 4 C16 14.89 16 25.78 16 37 C14.68 37 13.36 37 12 37 C12 27.43 12 17.86 12 8 C8.04 8 4.08 8 0 8 C0 5.36 0 2.72 0 0 Z M28 1 C32 2 32 2 32 2 Z M38 15 C38 15.33 38 15.66 38 16 C43.28 16 48.56 16 54 16 C54 15.67 54 15.34 54 15 C48.72 15 43.44 15 38 15 Z M38 20 C38 20.33 38 20.66 38 21 C43.28 21 48.56 21 54 21 C54 20.67 54 20.34 54 20 C48.72 20 43.44 20 38 20 Z " fill="#000000" transform="translate(0,0)"/>
<path d="M0 0 C0.33 0 0.66 0 1 0 C1 11.88 1 23.76 1 36 C0.67 36 0.34 36 0 36 C0 24.12 0 12.24 0 0 Z " fill="#000000" transform="translate(62,0)"/>
<path d="M0 0 C0.33 0 0.66 0 1 0 C1 6.93 1 13.86 1 21 C0.67 21 0.34 21 0 21 C0 14.07 0 7.14 0 0 Z " fill="#000000" transform="translate(17,16)"/>
<path d="M0 0 C0.33 0 0.66 0 1 0 C1 4.95 1 9.9 1 15 C0.67 15 0.34 15 0 15 C0 10.05 0 5.1 0 0 Z " fill="#000000" transform="translate(199,21)"/>
<path d="M0 0 C1.32 1.32 2.64 2.64 4 4 C2.68 4 1.36 4 0 4 C0 2.68 0 1.36 0 0 Z " fill="#000000" transform="translate(103,33)"/>
<path d="M0 0 C0.99 0.33 1.98 0.66 3 1 C2.01 1 1.02 1 0 1 C0 0.67 0 0.34 0 0 Z " fill="#000000" transform="translate(108,35)"/>
<path d="M0 0 C1 4 1 4 1 4 Z " fill="#000000" transform="translate(39,0)"/>
<path d="" fill="#000000" transform="translate(0,0)"/>
<path d="" fill="#000000" transform="translate(0,0)"/>
<path d="" fill="#000000" transform="translate(0,0)"/>
<path d="" fill="#000000" transform="translate(0,0)"/>
<path d="" fill="#000000" transform="translate(0,0)"/>
<path d="" fill="#000000" transform="translate(0,0)"/>
<path d="" fill="#000000" transform="translate(0,0)"/>
<path d="" fill="#000000" transform="translate(0,0)"/>
<path d="" fill="#000000" transform="translate(0,0)"/>
<path d="" fill="#000000" transform="translate(0,0)"/>
<path d="" fill="#000000" transform="translate(0,0)"/>
<path d="" fill="#000000" transform="translate(0,0)"/>
<path d="" fill="#000000" transform="translate(0,0)"/>
<path d="" fill="#000000" transform="translate(0,0)"/>
<path d="" fill="#000000" transform="translate(0,0)"/>
<path d="" fill="#000000" transform="translate(0,0)"/>
<path d="" fill="#000000" transform="translate(0,0)"/>
<path d="" fill="#000000" transform="translate(0,0)"/>
<path d="" fill="#000000" transform="translate(0,0)"/>
<path d="" fill="#000000" transform="translate(0,0)"/>
<path d="" fill="#000000" transform="translate(0,0)"/>
</svg>
