<?xml version="1.0" encoding="UTF-8"?>
<svg version="1.1" xmlns="http://www.w3.org/2000/svg" width="679" height="195">
<path d="M0 0 C3.66282325 4.16804025 4.12182611 9.67929936 5 15 C5.3403125 14.43152344 5.680625 13.86304687 6.03125 13.27734375 C10.33708004 6.41779004 14.89792764 0.65522218 22.5625 -2.4375 C29.25554302 -3.53272522 33.9685115 -3.36371474 40 0 C43.66282325 4.16804025 44.12182611 9.67929936 45 15 C45.3403125 14.43152344 45.680625 13.86304687 46.03125 13.27734375 C50.05263433 6.87093627 54.26623995 0.69463008 61.640625 -1.9453125 C69.00326636 -3.57002945 75.33019198 -3.15401775 81.875 0.6875 C87.27440918 6.56332764 87.23849815 11.81444282 87.16259766 19.47738647 C86.91278219 24.88953909 86.02975845 30.10788605 85.03125 35.42578125 C84.8314856 36.53938522 84.63172119 37.6529892 84.42590332 38.80033875 C83.79449261 42.30640359 83.14755359 45.80938477 82.5 49.3125 C82.0653694 51.71009873 81.63176649 54.107884 81.19921875 56.50585938 C80.14466498 62.3394455 79.07739757 68.17059204 78 74 C82.34441931 72.11320438 83.15335233 70.15847568 84.9375 65.75 C85.19345947 65.12955811 85.44941895 64.50911621 85.71313477 63.86987305 C87.45970736 59.57199304 88.96017132 55.2104686 90.4375 50.8125 C95.20425192 37.2280185 102.7195156 27.55483817 115.671875 21.2878418 C127.18831237 16.02523251 140.23145569 15.14758663 152.3671875 18.96875 C162.19035287 22.81639934 167.49976351 27.90296876 172.1328125 37.296875 C174.69843267 45.29421355 174.07560457 56.137161 170.44921875 63.6953125 C163.55910465 74.65263682 153.82392636 81.51150595 141.54296875 85.30859375 C128.79758505 87.79584063 115.52746143 87.07448204 104.25 80.375 C99.55271225 77.05780033 96.85336363 72.91152756 94 68 C93.34 67.01 92.68 66.02 92 65 C91.57589844 65.86882812 91.15179688 66.73765625 90.71484375 67.6328125 C86.3912878 76.12788727 82.47204696 82.90231022 73 86 C67.32981946 86.61726016 61.15454071 87.07431233 55.9375 84.4375 C51.47262432 80.73260316 49.29941668 77.04032651 48.46875 71.37988281 C48.56574697 59.19160693 50.58246891 47.67337691 53 35.75 C53.5752057 32.84936119 54.14584015 29.94790573 54.71191406 27.04547119 C55.06185953 25.25791512 55.41766625 23.4714931 55.78027344 21.6864624 C56.56605298 17.73394784 57.23108662 14.05433223 57 10 C51.08098752 13.04829143 49.6422608 16.71349451 47.62060547 22.89208984 C41.70825252 42.97362224 39.33590328 64.36554672 36 85 C25.77 85 15.54 85 5 85 C6.1249675 74.87529253 6.1249675 74.87529253 6.81616211 70.85424805 C7.04661476 69.50190315 7.04661476 69.50190315 7.28172302 68.12223816 C7.44527786 67.17826675 7.6088327 66.23429535 7.77734375 65.26171875 C7.94875381 64.25969925 8.12016388 63.25767975 8.29676819 62.22529602 C8.84122508 59.04560405 9.38925618 55.86654099 9.9375 52.6875 C10.30167886 50.56579752 10.66561326 48.44405306 11.02929688 46.32226562 C11.20593872 45.2920932 11.38258057 44.26192078 11.5645752 43.20053101 C11.91169768 41.17581792 12.2587849 39.15109879 12.60583496 37.12637329 C12.76942505 36.17217499 12.93301514 35.21797668 13.1015625 34.23486328 C13.25633057 33.33197571 13.41109863 32.42908813 13.57055664 31.49884033 C13.94316924 29.33068619 14.31868209 27.16306413 14.6953125 24.99560547 C14.87707031 23.93615723 15.05882812 22.87670898 15.24609375 21.78515625 C15.39361084 20.93445557 15.54112793 20.08375488 15.69311523 19.20727539 C16.12528455 16.09888811 16.14234744 13.1316436 16 10 C15.01 10 14.02 10 13 10 C12.33229724 11.66625185 11.66585776 13.33301 11 15 C10.679245 15.79300003 10.35848999 16.58600006 10.02801514 17.4030304 C7.1734474 24.80256263 5.59257722 32.18711255 4.203125 39.98046875 C3.84537994 41.92147209 3.84537994 41.92147209 3.48040771 43.90168762 C2.85390862 47.3014543 2.23876142 50.70317439 1.62615967 54.10546875 C0.99605463 57.59307919 0.35505722 61.07868661 -0.28515625 64.56445312 C-1.53507317 71.37427556 -2.76706922 78.18699455 -4 85 C-14.56 85 -25.12 85 -36 85 C-35.319375 81.143125 -34.63875 77.28625 -33.9375 73.3125 C-30.32608283 52.59031741 -27.19010425 31.79029796 -24 11 C-24.66 10.67 -25.32 10.34 -26 10 C-27.27339482 12.51956743 -28.54376642 15.04058649 -29.8125 17.5625 C-30.16892578 18.26697266 -30.52535156 18.97144531 -30.89257812 19.69726562 C-33.09092409 24.07378925 -35.11663926 28.47874598 -37 33 C-38.32 32.67 -39.64 32.34 -41 32 C-40.52308101 25.90225001 -39.17926662 21.35207256 -36.375 15.9375 C-35.83866943 14.88816284 -35.83866943 14.88816284 -35.29150391 13.81762695 C-31.38524543 6.44652931 -26.95702799 1.11361965 -19 -2 C-12.16239271 -3.9285559 -6.23583343 -3.47767633 0 0 Z M135 22 C130.92338548 29.05024892 129.42189905 36.11284608 127.875 44.0625 C127.61638184 45.35349609 127.35776367 46.64449219 127.09130859 47.97460938 C123.62889048 63.36437524 123.62889048 63.36437524 123 79 C125.40858714 80.8624438 125.40858714 80.8624438 128 82 C136.07322674 75.23594516 136.79408448 64.83235518 138.625 54.9375 C138.8415625 53.80505859 139.058125 52.67261719 139.28125 51.50585938 C140.75391999 43.7016175 142.14735265 36.03122052 142.125 28.0625 C142.12757813 27.12535156 142.13015625 26.18820313 142.1328125 25.22265625 C142.24835071 23.02712718 142.24835071 23.02712718 141 22 C139.00041636 21.95919217 136.99954746 21.95745644 135 22 Z " fill="#231F21" transform="translate(43,60)"/>
<path d="M0 0 C-0.653622 8.19374488 -2.0213048 16.19661824 -3.51327705 24.26914597 C-3.94975646 26.63112408 -4.38122739 28.9939715 -4.81150818 31.35708618 C-5.72408445 36.36387147 -6.64297787 41.36948645 -7.5625 46.375 C-8.63215723 52.20026537 -9.69919383 58.02599193 -10.76057243 63.85277176 C-11.18532524 66.17765315 -11.61435475 68.50171861 -12.04359436 70.82577515 C-12.30343406 72.24888498 -12.56308291 73.67202969 -12.82250977 75.09521484 C-13.16440086 76.9552565 -13.16440086 76.9552565 -13.51319885 78.85287476 C-14.10190886 82.12807286 -14.10190886 82.12807286 -14 86 C-11.01944393 84.9895343 -10.11824626 84.22150356 -8.61328125 81.40234375 C-8.18402344 80.25894531 -7.75476563 79.11554688 -7.3125 77.9375 C-7.06902832 77.30207275 -6.82555664 76.66664551 -6.57470703 76.01196289 C-4.89837692 71.58503478 -3.33072648 67.11937432 -1.75390625 62.65625 C-1.36098389 61.54902588 -0.96806152 60.44180176 -0.56323242 59.30102539 C0.21789751 57.08988361 0.99014598 54.87558053 1.75268555 52.65795898 C4.81568681 43.93170589 8.16447228 37.311663 16 32 C22.91712742 29.28255709 29.27597084 29.14772597 36.13671875 31.9453125 C40.18104704 34.23455493 42.53560906 37.60682719 44 42 C45.04116164 53.89655191 42.45536143 64.77065663 39.42089844 76.17675781 C38.52190938 79.60623459 38 82.42587595 38 86 C41.24784508 84.94092008 41.99599233 84.0071513 43.703125 80.9609375 C44.21359375 79.77757813 44.7240625 78.59421875 45.25 77.375 C45.77078125 76.18648438 46.2915625 74.99796875 46.828125 73.7734375 C47.40820312 72.40058594 47.40820312 72.40058594 48 71 C49.32 71.33 50.64 71.66 52 72 C49.50668186 82.27946951 45.69515315 90.77043578 36.83203125 96.94140625 C31.64597644 99.9380392 25.79519268 99.52547084 20 99 C15.69330021 97.73242524 13.38178561 95.56263142 10.84765625 91.828125 C5.41052483 81.82977236 9.24128667 68.22856844 12.22045898 57.95239258 C13.70565317 52.76822421 14.24734837 48.39837815 14 43 C9.63743273 46.54160275 8.33649062 50.67214979 6.5625 55.8125 C6.26029541 56.65619141 5.95809082 57.49988281 5.64672852 58.36914062 C4.25149122 62.29312983 2.91152812 66.23073751 1.6484375 70.19921875 C-1.97741961 81.57973155 -5.37167612 91.45743204 -15.71484375 98.1015625 C-18.98965104 99.38909357 -21.93078088 99.30207368 -25.4375 99.3125 C-26.73558594 99.32925781 -28.03367187 99.34601563 -29.37109375 99.36328125 C-33.16222562 98.98375998 -35.00494774 98.29291547 -38 96 C-39.6875 93.5625 -39.6875 93.5625 -41 91 C-41.5878125 89.8553125 -41.5878125 89.8553125 -42.1875 88.6875 C-42.455625 88.130625 -42.72375 87.57375 -43 87 C-43.515625 87.886875 -44.03125 88.77375 -44.5625 89.6875 C-47.59958543 94.26482162 -51.81849657 97.27283219 -57 99 C-73.57705611 100.19952601 -73.57705611 100.19952601 -80 95 C-86.42889329 89.04295209 -89.55188735 82.01505058 -90.203125 73.2734375 C-90.42426589 59.59955917 -86.58778864 48.1331079 -77.2890625 38.05078125 C-70.15664953 31.66082082 -62.14410316 29.69016214 -52.828125 29.77734375 C-48.13862138 30.146545 -43.9193834 31.34671294 -40.28125 34.48046875 C-39 36 -39 36 -39 38 C-38.34 38 -37.68 38 -37 38 C-36.96132813 37.04867187 -36.96132813 37.04867187 -36.921875 36.078125 C-36.30077481 25.85820373 -34.12365225 15.99598174 -32 6 C-36.29 6 -40.58 6 -45 6 C-44.67 4.68 -44.34 3.36 -44 2 C-43.13310547 1.97494385 -42.26621094 1.9498877 -41.37304688 1.92407227 C-38.12262176 1.82830546 -34.87232329 1.72911456 -31.62207031 1.62768555 C-30.22172048 1.58466974 -28.82132936 1.54297507 -27.42089844 1.50268555 C-18.29422303 1.2390405 -9.08644006 -0.227161 0 0 Z M-47.5 43.1875 C-55.8950645 52.63194757 -57.58814954 71.64885975 -57 84 C-55.66169042 86.4595774 -55.66169042 86.4595774 -54 88 C-51.65851769 88.12213894 -51.65851769 88.12213894 -49 87 C-40.61400126 77.38678193 -38.4849773 59.39487962 -39 47 C-40.18251579 43.87655418 -40.18251579 43.87655418 -42.8125 42 C-45.1319632 41.84357304 -45.1319632 41.84357304 -47.5 43.1875 Z " fill="#231F20" transform="translate(308,47)"/>
<path d="M0 0 C0.12017535 4.96169952 -0.29474603 9.50419355 -1.17749023 14.38476562 C-1.30268036 15.08655441 -1.42787048 15.7883432 -1.55685425 16.51139832 C-1.96843646 18.81074162 -2.38849831 21.10844828 -2.80859375 23.40625 C-3.09822672 25.01605235 -3.38728501 26.62595819 -3.67579651 28.23596191 C-4.43460233 32.46249122 -5.20044544 36.68771378 -5.96801758 40.91265869 C-7.04755189 46.86202675 -8.11750144 52.81312725 -9.18849182 58.76403809 C-9.75804989 61.92863903 -10.33025897 65.09274221 -10.90464783 68.25646973 C-11.1674814 69.70938927 -11.43030442 71.16231072 -11.69311523 72.61523438 C-11.92183823 73.87541382 -12.15056122 75.13559326 -12.38621521 76.43395996 C-12.99154426 79.95087284 -13.51333676 83.46513667 -14 87 C-11.13035315 85.98826553 -10.12768137 85.21993467 -8.578125 82.55078125 C-7.92070313 80.94783203 -7.92070313 80.94783203 -7.25 79.3125 C-7.0032251 78.71598633 -6.7564502 78.11947266 -6.50219727 77.50488281 C-3.70035261 70.56436003 -1.3257243 63.45394223 1.02050781 56.34887695 C4.39614771 46.30418438 7.39550816 37.42862582 17 32 C22.76321912 29.41243223 28.13811145 29.20687522 34.125 31.1875 C38.01584308 32.83884619 40.50632404 34.47951629 43 38 C47.47309249 50.28495259 43.29564533 63.59194479 39.88671875 75.65625 C38.87666132 79.46510094 38.31996148 83.08047182 38 87 C39.95894361 86.88693303 39.95894361 86.88693303 42 86 C43.06516819 83.71385438 43.06516819 83.71385438 44 81 C45.33333333 77.66666667 46.66666667 74.33333333 48 71 C49.32 71.33 50.64 71.66 52 72 C51.65724865 79.71190534 48.19994927 86.55437324 42.96484375 92.19140625 C36.63709007 97.85681562 32.44926756 99.41613538 23.9140625 99.25 C18.89791414 98.81966019 16.16338104 97.22801332 12.75 93.625 C8.09900045 86.64850068 7.88958233 79.6564003 9.48339844 71.53759766 C10.30486375 67.89159642 11.18826685 64.266392 12.13305664 60.65039062 C13.58006337 55.08200334 14.49450677 49.73473359 15 44 C14.01 44 13.02 44 12 44 C7.94642063 53.36491078 4.57773555 62.86252058 1.39453125 72.55273438 C-1.91220968 82.36273245 -5.40432201 92.0502626 -14.6875 97.609375 C-18.53834558 99.22600357 -21.39813423 99.40021311 -25.5625 99.375 C-27.48255859 99.38660156 -27.48255859 99.38660156 -29.44140625 99.3984375 C-33.21905977 98.975473 -35.06647793 98.38151523 -38 96 C-39.36328125 93.73828125 -39.36328125 93.73828125 -40.3125 91.3125 C-40.63863281 90.50425781 -40.96476563 89.69601563 -41.30078125 88.86328125 C-41.64689453 87.94095703 -41.64689453 87.94095703 -42 87 C-42.49628906 87.61488281 -42.99257813 88.22976562 -43.50390625 88.86328125 C-48.55023819 94.86717144 -52.13706564 98.54682332 -60.26953125 99.3046875 C-68.73623789 99.61125622 -74.61364762 99.01342364 -80.9296875 93.234375 C-87.37472937 86.44167527 -89.56380009 79.51000151 -89.4375 70.25 C-89.42992676 69.4657666 -89.42235352 68.6815332 -89.41455078 67.87353516 C-89.05696533 55.14401523 -84.35268287 45.93058265 -75.25 37.25 C-68.1364972 31.36249863 -60.94887661 29.33405979 -51.76953125 29.67578125 C-45.75518331 30.37985865 -42.18441523 32.63522205 -38 37 C-35.56318223 27.06262257 -33.70288721 17.08447392 -32 7 C-35.96 6.67 -39.92 6.34 -44 6 C-43.67 4.68 -43.34 3.36 -43 2 C-42.13310547 1.97494385 -41.26621094 1.9498877 -40.37304688 1.92407227 C-37.12262176 1.82830546 -33.87232329 1.72911456 -30.62207031 1.62768555 C-29.22172048 1.58466974 -27.82132936 1.54297507 -26.42089844 1.50268555 C-17.64997641 1.24931726 -8.72085427 -0.2725267 0 0 Z M-47.48828125 44.08203125 C-50.27268608 47.31679082 -51.13460552 49.58167132 -52.1875 53.6875 C-52.50589844 54.92886719 -52.82429687 56.17023438 -53.15234375 57.44921875 C-53.43207031 58.62097656 -53.71179688 59.79273438 -54 61 C-54.22816406 61.87269531 -54.45632813 62.74539062 -54.69140625 63.64453125 C-56.27466962 70.32080965 -58.50257421 80.91003244 -54.79296875 86.97265625 C-52.97862105 88.21961408 -52.97862105 88.21961408 -50.47265625 87.92578125 C-47.45544538 86.79611462 -46.87037085 86.03826395 -45.4375 83.1875 C-40.79317211 72.97291809 -36.33726944 56.10123698 -39 45 C-42.3494893 41.82210339 -43.78062953 40.97971042 -47.48828125 44.08203125 Z " fill="#231F20" transform="translate(625,47)"/>
<path d="M0 0 C-1.60549703 11.34304564 -3.21539144 22.68348221 -5 34 C-4.46890625 33.72285156 -3.9378125 33.44570312 -3.390625 33.16015625 C-2.33101563 32.61681641 -2.33101563 32.61681641 -1.25 32.0625 C-0.55390625 31.70285156 0.1421875 31.34320313 0.859375 30.97265625 C7.08900551 28.14203947 13.3799568 28.77491155 20 30 C26.55589755 32.62412611 31.84667774 36.58824474 35 43 C38.51680979 51.64237299 38.34744191 63.03585919 35.5625 71.9375 C31.11439151 82.24332883 22.29389605 89.60255206 12.31640625 94.25 C5.17592502 96.92419843 -1.61643434 97.40481436 -9.1875 97.5 C-10.10168701 97.51853027 -11.01587402 97.53706055 -11.95776367 97.55615234 C-19.77420566 97.48433205 -26.12952801 95.32228319 -32.8125 91.3125 C-40.31264061 83.38377993 -41.48797898 74.91302527 -41.31640625 64.37548828 C-40.85678519 53.2955251 -38.46102561 42.32696846 -36.5 31.4375 C-36.06508972 28.96181946 -35.63148605 26.48590901 -35.19921875 24.00976562 C-34.14784434 18.00375597 -33.07888287 12.00112654 -32 6 C-35.96 6 -39.92 6 -44 6 C-43.67 4.68 -43.34 3.36 -43 2 C-42.16339844 1.97494385 -41.32679688 1.9498877 -40.46484375 1.92407227 C-37.32623274 1.82827164 -34.18775119 1.72908345 -31.04931641 1.62768555 C-29.03686399 1.56367259 -27.0242912 1.5034803 -25.01171875 1.44335938 C-16.68164355 1.17127149 -8.30512787 -0.2076282 0 0 Z M-5.5871582 41.1159668 C-7.15853905 44.32362567 -7.9007314 47.20599246 -8.60546875 50.70703125 C-8.73476273 51.34560059 -8.8640567 51.98416992 -8.99726868 52.64208984 C-9.40702012 54.69659799 -9.79918104 56.75384023 -10.1875 58.8125 C-10.32140137 59.50886566 -10.45530273 60.20523132 -10.59326172 60.92269897 C-13.52082967 75.86896162 -13.52082967 75.86896162 -13 91 C-11.17899853 93.19920496 -11.17899853 93.19920496 -8.625 93.4375 C-5.82533398 93.23908754 -5.82533398 93.23908754 -3.96484375 90.88671875 C3.33213526 80.16610744 7.37929185 55.71288295 5 43 C3.75910742 40.71997283 3.75910742 40.71997283 2 39 C-1.67560721 38.31082365 -3.26403779 38.01883026 -5.5871582 41.1159668 Z " fill="#231F21" transform="translate(406,49)"/>
<path d="M0 0 C5.11289784 4.16141788 7.79948608 8.81251371 9.5625 15.125 C10.3508441 23.97095417 10.52814632 32.42979033 5.5625 40.125 C4.90894531 41.16720703 4.90894531 41.16720703 4.2421875 42.23046875 C-2.49023474 52.03478857 -12.90316775 57.63680897 -24.4375 60.125 C-35.01766579 61.0102418 -45.90094029 61.28495999 -55.4375 56.125 C-56.0975 55.78597656 -56.7575 55.44695312 -57.4375 55.09765625 C-63.5548035 51.39299616 -67.21934384 44.77946849 -69.4375 38.125 C-70.47351299 26.18125029 -68.94562738 16.39688835 -61.25 6.75 C-45.99730998 -9.23375577 -18.14364837 -12.55844514 0 0 Z M-28.52734375 -0.984375 C-31.06739785 3.15035519 -31.98207719 7.16434551 -33 11.875 C-33.20979492 12.80441406 -33.41958984 13.73382813 -33.63574219 14.69140625 C-39.69427101 35.43442388 -39.69427101 35.43442388 -38.2578125 55.0390625 C-36.43437481 56.36014586 -36.43437481 56.36014586 -33.95800781 55.96337891 C-31.32832341 55.37224563 -31.32832341 55.37224563 -30.16650391 53.25292969 C-27.82888602 46.70968095 -26.14698497 40.19218067 -24.8125 33.375 C-24.60085205 32.323125 -24.3892041 31.27125 -24.17114258 30.1875 C-20.9002471 14.77866562 -20.9002471 14.77866562 -20.4375 -0.875 C-21.0975 -1.535 -21.7575 -2.195 -22.4375 -2.875 C-26.41281083 -3.32225135 -26.41281083 -3.32225135 -28.52734375 -0.984375 Z " fill="#231F21" transform="translate(519.4375,85.875)"/>
<path d="M0 0 C3.15502201 3.31277311 4.26828982 6.01895261 4.5625 10.5 C4.33460433 15.50526405 2.61901748 17.62773371 -1 21 C-4.67094116 23.47852407 -8.52504098 23.38435696 -12.8125 23.375 C-13.52937988 23.37411377 -14.24625977 23.37322754 -14.98486328 23.37231445 C-20.54160949 23.24720828 -23.75630746 22.53641045 -28 19 C-30.9835054 14.52474191 -30.71912822 10.24364325 -30 5 C-28.27773482 1.09414861 -25.72364567 -0.68783912 -21.8125 -2.375 C-14.29985108 -3.60658179 -6.74055489 -4.10024537 0 0 Z " fill="#231F21" transform="translate(351,50)"/>
<path d="M0 0 C2.98762535 2.8577286 4.67930911 4.99516856 5.9375 8.9375 C6.01544722 12.75691401 5.44346499 15.45694958 4 19 C-0.83380739 23.70986361 -4.72543384 24.17181524 -11.3125 24.25 C-12.60800781 24.27578125 -13.90351562 24.3015625 -15.23828125 24.328125 C-19.93588011 23.9183656 -23.19083039 22.49724382 -26.8125 19.5 C-29.57352978 16.01238343 -29.28744224 12.23977305 -29 8 C-27.68773064 4.40852595 -26.67043254 2.51164588 -23.625 0.1875 C-16.33772579 -3.10912405 -7.3468411 -3.10827893 0 0 Z " fill="#231F21" transform="translate(667,49)"/>
</svg>
