<?xml version="1.0" standalone="no"?>
<!DOCTYPE svg PUBLIC "-//W3C//DTD SVG 20010904//EN"
 "http://www.w3.org/TR/2001/REC-SVG-20010904/DTD/svg10.dtd">
<svg version="1.0" xmlns="http://www.w3.org/2000/svg"
 width="460.000000pt" height="69.000000pt" viewBox="0 0 460.000000 69.000000"
 preserveAspectRatio="xMidYMid meet">

<g transform="translate(0.000000,69.000000) scale(0.100000,-0.100000)"
fill="#000000" stroke="none">
<path d="M243 676 c-59 -19 -104 -49 -153 -102 -66 -72 -85 -123 -85 -229 0
-78 4 -97 28 -146 34 -69 100 -132 175 -167 47 -22 71 -26 138 -26 71 0 90 4
147 32 57 28 137 98 137 120 0 4 -16 16 -35 26 l-34 19 -26 -31 c-41 -49 -118
-82 -189 -82 -238 1 -350 287 -174 445 55 50 102 68 173 68 70 0 123 -23 185
-79 l39 -36 31 18 c16 10 30 23 30 29 0 20 -85 93 -138 120 -66 33 -183 43
-249 21z"/>
<path d="M1242 422 c-52 -141 -107 -292 -122 -334 l-29 -78 50 0 c27 0 49 4
49 10 0 5 9 34 21 65 l20 55 164 0 164 0 20 -55 c12 -31 21 -60 21 -65 0 -6
22 -10 50 -10 l50 0 -23 63 c-13 34 -68 185 -123 335 l-98 272 -61 0 -60 0
-93 -258z m224 -21 c32 -91 61 -169 62 -173 2 -4 -57 -8 -132 -8 l-135 0 38
108 c76 210 94 253 101 245 4 -4 34 -82 66 -172z"/>
<path d="M2180 344 l0 -335 214 3 c239 3 236 3 299 81 57 69 41 196 -29 242
-25 16 -26 17 -6 31 69 48 67 203 -4 265 -51 45 -75 49 -279 49 l-195 0 0
-336z m386 241 c24 -10 39 -25 50 -51 20 -47 11 -87 -28 -119 -29 -24 -34 -25
-174 -25 l-144 0 0 105 0 105 130 0 c92 0 141 -4 166 -15z m45 -314 c34 -34
40 -92 13 -130 -29 -41 -72 -51 -219 -51 l-135 0 0 105 0 105 156 0 156 0 29
-29z"/>
<path d="M3270 345 l0 -335 210 0 210 0 0 40 0 40 -165 0 -165 0 0 295 0 295
-45 0 -45 0 0 -335z"/>
<path d="M4180 345 l0 -335 210 0 210 0 0 40 0 40 -167 2 -168 3 -3 108 -3
107 131 0 130 0 0 45 0 45 -130 0 -131 0 3 98 3 97 168 3 167 2 0 40 0 40
-210 0 -210 0 0 -335z"/>
</g>
</svg>
