<?xml version="1.0" encoding="UTF-8"?>
<svg version="1.1" xmlns="http://www.w3.org/2000/svg" width="162" height="36">
<path d="M0 0 C0.95003906 -0.00773438 1.90007813 -0.01546875 2.87890625 -0.0234375 C5.85042199 0.43930236 6.62937972 1.0337865 8.4375 3.375 C9.4275 4.86 9.4275 4.86 10.4375 6.375 C11.05625 5.570625 11.675 4.76625 12.3125 3.9375 C14.53904316 1.2525509 15.26408276 0.52037913 18.64453125 0.1015625 C25.57641083 -0.1686457 25.57641083 -0.1686457 28.20703125 1.4921875 C29.5625 2.875 29.5625 2.875 31.4375 5.375 C32.22125 4.55 33.005 3.725 33.8125 2.875 C37.39451804 -0.10292474 40.52966265 -0.33915554 45.08984375 -0.1328125 C48.8192532 0.67388172 50.18557293 2.37243057 52.4375 5.375 C53.3346875 4.1375 53.3346875 4.1375 54.25 2.875 C56.97718211 0.10066201 59.24532819 -0.01699729 63.0625 -0.0625 C66.89529281 0.02675682 68.16433609 0.19289073 71.4375 2.375 C72.41793964 5.31631891 72.55371202 7.20001665 72.53515625 10.26171875 C72.53032227 11.6684082 72.53032227 11.6684082 72.52539062 13.10351562 C72.51282227 14.56821289 72.51282227 14.56821289 72.5 16.0625 C72.49548828 17.05056641 72.49097656 18.03863281 72.48632812 19.05664062 C72.47454303 21.49615474 72.45809011 23.93554689 72.4375 26.375 C69.77083333 26.375 67.10416667 26.375 64.4375 26.375 C63.41849609 26.42720703 63.41849609 26.42720703 62.37890625 26.48046875 C61.59386719 26.50753906 60.80882813 26.53460938 60 26.5625 C58.82630859 26.61470703 58.82630859 26.61470703 57.62890625 26.66796875 C55.4375 26.375 55.4375 26.375 53.67578125 25.08203125 C51.62074365 22.24906144 52.0765779 19.74360631 52.4375 16.375 C54.10307036 13.53373291 55.71716525 13.27838837 58.875 12.1875 C62.4375 11.375 62.4375 11.375 66.4375 11.375 C65.9425 7.415 65.9425 7.415 65.4375 3.375 C64.1175 3.705 62.7975 4.035 61.4375 4.375 C61.1075 5.695 60.7775 7.015 60.4375 8.375 C57.99815775 8.51001894 55.56625896 8.60903897 53.125 8.6875 C52.08956055 8.7503418 52.08956055 8.7503418 51.03320312 8.81445312 C49.01171875 8.86328125 49.01171875 8.86328125 45.4375 8.375 C43.64453125 5.85546875 43.64453125 5.85546875 42.4375 3.375 C41.4475 3.375 40.4575 3.375 39.4375 3.375 C38.46266667 9.18447969 38.09061474 13.78717795 40.4375 19.375 C42.01445632 21.4535608 42.01445632 21.4535608 44.4375 22.375 C48.10464849 22.62563732 48.10464849 22.62563732 51.4375 22.375 C51.1075 23.695 50.7775 25.015 50.4375 26.375 C38.85766647 27.13794657 38.85766647 27.13794657 35.49609375 25.33203125 C32.94610842 22.73637454 31.47571643 20.39308573 31.33984375 16.7734375 C31.35144531 15.77570312 31.36304688 14.77796875 31.375 13.75 C31.38402344 12.74710938 31.39304688 11.74421875 31.40234375 10.7109375 C31.41394531 9.94007812 31.42554688 9.16921875 31.4375 8.375 C28.7975 8.375 26.1575 8.375 23.4375 8.375 C22.9425 6.395 22.9425 6.395 22.4375 4.375 C21.1175 4.375 19.7975 4.375 18.4375 4.375 C16.83959174 9.16872479 16.88353237 12.97689122 18.75 17.6875 C20.31698487 20.59053887 20.31698487 20.59053887 23.4375 22.375 C25.76949388 22.45405064 28.10582622 22.46298769 30.4375 22.375 C30.1075 23.695 29.7775 25.015 29.4375 26.375 C17.85766647 27.13794657 17.85766647 27.13794657 14.49609375 25.33203125 C12.74019817 23.5446868 11.55396544 21.60793088 10.4375 19.375 C10.1075 21.685 9.7775 23.995 9.4375 26.375 C6.4375 26.375 3.4375 26.375 0.4375 26.375 C-0.5215625 26.42720703 -0.5215625 26.42720703 -1.5 26.48046875 C-6.95553483 26.69745025 -6.95553483 26.69745025 -9.5625 25.3125 C-11.14683618 22.24284865 -10.92498449 19.75818857 -10.5625 16.375 C-8.89692964 13.53373291 -7.28283475 13.27838837 -4.125 12.1875 C-0.5625 11.375 -0.5625 11.375 3.4375 11.375 C3.1075 8.735 2.7775 6.095 2.4375 3.375 C0.48750871 3.56971111 0.48750871 3.56971111 -1.5625 4.375 C-2.84686734 6.3587767 -2.84686734 6.3587767 -3.5625 8.375 C-5.8725 8.375 -8.1825 8.375 -10.5625 8.375 C-10.24421793 5.43089083 -10.02803118 3.82554856 -7.86328125 1.73046875 C-5.05112496 0.07373151 -3.24623909 -0.02649991 0 0 Z M-3.5625 16.375 C-3.5625 18.355 -3.5625 20.335 -3.5625 22.375 C-2.5725 22.705 -1.5825 23.035 -0.5625 23.375 C1.96009061 21.40079865 2.4304808 20.40754358 3.125 17.1875 C3.2796875 15.7953125 3.2796875 15.7953125 3.4375 14.375 C0.33198334 14.375 -0.91511084 14.9143715 -3.5625 16.375 Z M61.25 15.5625 C59.15897734 17.26771846 59.15897734 17.26771846 59.1875 20.0625 C59.27 20.825625 59.3525 21.58875 59.4375 22.375 C60.4275 22.705 61.4175 23.035 62.4375 23.375 C63.4275 22.715 64.4175 22.055 65.4375 21.375 C66.17356499 17.80730448 66.17356499 17.80730448 66.4375 14.375 C63.46208697 14.13645407 63.46208697 14.13645407 61.25 15.5625 Z " fill="#000000" transform="translate(34.5625,9.625)"/>
<path d="M0 0 C1.98 0 3.96 0 6 0 C6.33 0.66 6.66 1.32 7 2 C7.66 1.34 8.32 0.68 9 0 C12.625 -0.125 12.625 -0.125 16 0 C16.33 0.66 16.66 1.32 17 2 C17.99 1.34 18.98 0.68 20 0 C22.55859375 -0.3359375 22.55859375 -0.3359375 25.4375 -0.375 C26.38496094 -0.40335938 27.33242187 -0.43171875 28.30859375 -0.4609375 C31 0 31 0 33.33203125 1.3203125 C36.05397977 5.69327897 35.41596465 10.21999438 35.25 15.25 C35.23195312 16.28125 35.21390625 17.3125 35.1953125 18.375 C35.14822712 20.91761064 35.0824805 23.45833162 35 26 C32.33333333 26 29.66666667 26 27 26 C25.98099609 26.05220703 25.98099609 26.05220703 24.94140625 26.10546875 C24.15636719 26.13253906 23.37132812 26.15960938 22.5625 26.1875 C21.78003906 26.22230469 20.99757812 26.25710937 20.19140625 26.29296875 C18 26 18 26 16.2421875 24.671875 C14.29564922 22.05200587 14.5480847 20.16340713 15 17 C16.7529353 14.13156043 18.26947389 13.20152444 21.4921875 12.3125 C23.98913345 11.80320791 26.47835417 11.36573489 29 11 C28.67 8.36 28.34 5.72 28 3 C26.68 3.33 25.36 3.66 24 4 C23.67 5.32 23.34 6.64 23 8 C20.69 8 18.38 8 16 8 C16 7.34 16 6.68 16 6 C12.56769552 6.26393501 12.56769552 6.26393501 9 7 C6.51955685 10.72066472 6.55618827 13.86540474 6.375 18.1875 C6.33632812 18.93708984 6.29765625 19.68667969 6.2578125 20.45898438 C6.16371784 22.30559199 6.08077681 24.1527619 6 26 C4.02 26 2.04 26 0 26 C0 17.42 0 8.84 0 0 Z M22 17 C22.34444881 19.47266765 22.34444881 19.47266765 23 22 C23.66 22.33 24.32 22.66 25 23 C28.28814599 20.27393696 28.28814599 20.27393696 29.25 16.25 C29.1675 15.5075 29.085 14.765 29 14 C25.48283697 14 24.62878252 14.82445585 22 17 Z " fill="#000000" transform="translate(108,10)"/>
<path d="M0 0 C13.88888889 0 13.88888889 0 19 2 C21.67666871 4.67666871 21.78714133 6.23949675 22 10 C21.21745559 12.50313884 20.18002476 14.63995048 19 17 C19.66 17.474375 20.32 17.94875 21 18.4375 C23.55872662 21.71586848 23.57502611 23.81052325 23.39453125 27.875 C23 30 23 30 21.1875 32.5 C14.41617342 37.14319537 9.53881627 35 0 35 C0 23.45 0 11.9 0 0 Z M7 3 C5.71387324 4.05978933 5.71387324 4.05978933 5.90234375 6.50390625 C5.91394531 7.51324219 5.92554688 8.52257812 5.9375 9.5625 C5.94652344 10.57441406 5.95554687 11.58632812 5.96484375 12.62890625 C5.97644531 13.41136719 5.98804688 14.19382812 6 15 C8.91652174 15.16681109 8.91652174 15.16681109 12 15 C14.32528287 12.67471713 14.29511025 12.15334102 14.3125 9 C14.32925781 8.29875 14.34601562 7.5975 14.36328125 6.875 C14.24339844 6.25625 14.12351562 5.6375 14 5 C11.04622502 2.63019987 11.04622502 2.63019987 7 3 Z M6 18 C6 22.62 6 27.24 6 32 C12.34533697 32.56097138 12.34533697 32.56097138 14.9375 30.9375 C16.5957539 27.91362524 16.30144019 25.37613017 16 22 C14.39519216 18.87393036 14.39519216 18.87393036 12.0546875 18.48828125 C10.97574219 18.40126953 10.97574219 18.40126953 9.875 18.3125 C8.59625 18.209375 7.3175 18.10625 6 18 Z " fill="#000000" transform="translate(0,1)"/>
<path d="M0 0 C0 2.97 0 5.94 0 9 C2.31 9 4.62 9 7 9 C7 9.99 7 10.98 7 12 C4.69 12 2.38 12 0 12 C0.33 18.6 0.66 25.2 1 32 C2.98 32 4.96 32 7 32 C7 32.99 7 33.98 7 35 C5.39667209 35.08121924 3.79215974 35.13929134 2.1875 35.1875 C0.84751953 35.23970703 0.84751953 35.23970703 -0.51953125 35.29296875 C-3 35 -3 35 -4.62573242 33.8581543 C-7.65633907 29.76045538 -6.51017141 23.51744967 -6.5 18.625 C-6.52835938 17.39265625 -6.55671875 16.1603125 -6.5859375 14.890625 C-6.60783964 4.79374059 -6.60783964 4.79374059 -3.53125 1.6484375 C-1 -0 -1 -0 0 0 Z " fill="#000000" transform="translate(150,1)"/>
<path d="M0 0 C1.98 0 3.96 0 6 0 C7.125 3.75 7.125 3.75 6 6 C4.33388095 6.042721 2.66617115 6.04063832 1 6 C0 5 0 5 -0.0625 2.4375 C-0.041875 1.633125 -0.02125 0.82875 0 0 Z " fill="#000000" transform="translate(155,0)"/>
</svg>
