<?xml version="1.0" encoding="UTF-8"?>
<svg version="1.1" xmlns="http://www.w3.org/2000/svg" width="1200" height="119">
<path d="M0 0 C22 0 22 0 26.71875 3.48828125 C28.19946289 5.78930664 28.19946289 5.78930664 29.5 8.3125 C30.59033059 10.0690244 31.68284231 11.82419646 32.77734375 13.578125 C33.30440918 14.48111328 33.83147461 15.38410156 34.37451172 16.31445312 C36.97831768 20.61632539 40.02595677 24.56057935 43.0625 28.5625 C44.23344724 30.14493577 45.4014315 31.72956844 46.56640625 33.31640625 C47.13762207 34.09387207 47.70883789 34.87133789 48.29736328 35.67236328 C51.04981926 39.43518452 53.77462381 43.2175082 56.5 47 C63.272624 56.37747939 70.13820861 65.68756882 77 75 C77.33 50.25 77.66 25.5 78 0 C84.93 0 91.86 0 99 0 C99 37.95 99 75.9 99 115 C79 115 79 115 74.44140625 111.4765625 C72.92578125 109.16015625 72.92578125 109.16015625 71.5625 106.625 C70.45003418 104.86667132 69.33673314 103.10887084 68.22265625 101.3515625 C67.68914551 100.45469727 67.15563477 99.55783203 66.60595703 98.63378906 C64.13608353 94.58316649 61.31954118 90.81120086 58.5 87 C57.42541924 85.51161669 56.35251091 84.02202454 55.28125 82.53125 C51.31310771 77.03689914 47.28283546 71.58880506 43.25463867 66.13842773 C38.51622125 59.71942859 33.83376794 53.26130622 29.17382812 46.78515625 C28.66916016 46.08390625 28.16449219 45.38265625 27.64453125 44.66015625 C27.20471924 44.04793213 26.76490723 43.43570801 26.31176758 42.80493164 C24.89470435 40.85511805 23.44621673 38.92828898 22 37 C21.67 62.74 21.34 88.48 21 115 C14.07 115 7.14 115 0 115 C0 77.05 0 39.1 0 0 Z " fill="#FFFFFF" transform="translate(1101,3)"/>
<path d="M0 0 C9.3225 -0.0825 18.645 -0.165 28.25 -0.25 C32.62813965 -0.30462402 32.62813965 -0.30462402 37.09472656 -0.36035156 C39.44335192 -0.37204885 41.79198548 -0.3822382 44.140625 -0.390625 C45.33155762 -0.41108887 46.52249023 -0.43155273 47.74951172 -0.45263672 C59.26889734 -0.45737136 69.41162721 2.02783333 78 10 C78.55429687 10.51304688 79.10859375 11.02609375 79.6796875 11.5546875 C87.0443335 19.21245374 88.6063429 28.54283889 88.47045898 38.7902832 C88.04506822 48.91231469 84.3565781 56.06158529 77 63 C72.66454944 66.69138141 68.2309767 68.82665373 63 71 C63.59518433 71.94915283 63.59518433 71.94915283 64.20239258 72.91748047 C68.81200339 80.2718415 73.41034673 87.633168 78 95 C78.59071289 95.94746094 79.18142578 96.89492187 79.79003906 97.87109375 C81.34446534 100.36918058 82.89233769 102.87117556 84.4375 105.375 C84.90325439 106.12249512 85.36900879 106.86999023 85.84887695 107.64013672 C89 112.76925314 89 112.76925314 89 115 C81.07346366 116.74236865 72.72492825 118.0482481 65 115 C61.09363588 111.32815174 58.55242163 107.12227866 56.0625 102.4375 C55.57302887 101.51803085 55.57302887 101.51803085 55.07366943 100.57998657 C52.45224635 95.55618182 50.10278479 90.42128484 47.75439453 85.26513672 C47.3932959 84.48541504 47.03219727 83.70569336 46.66015625 82.90234375 C46.37148682 82.25386475 46.08281738 81.60538574 45.78540039 80.93725586 C44.04425219 77.84289886 42.54856172 75.52471605 40 73 C36.90243956 72.15419766 33.90848724 72.12684165 30.7109375 72.1328125 C29.87328857 72.11162354 29.03563965 72.09043457 28.17260742 72.06860352 C26.11551349 72.02021856 24.05765212 72.0066539 22 72 C22.00785522 73.90060181 22.00785522 73.90060181 22.01586914 75.83959961 C22.03391514 80.5228607 22.04543053 85.20611871 22.05493164 89.8894043 C22.05997278 91.91968298 22.06680557 93.94995802 22.07543945 95.98022461 C22.08751467 98.89177347 22.09323034 101.8032745 22.09765625 104.71484375 C22.10281754 105.6283812 22.10797882 106.54191864 22.11329651 107.48313904 C22.11349168 109.65575427 22.06211805 111.82827296 22 114 C21.67 114.33 21.34 114.66 21 115 C14.07 115 7.14 115 0 115 C0 77.05 0 39.1 0 0 Z M22 19 C22 30.55 22 42.1 22 54 C28.1565625 54.061875 28.1565625 54.061875 34.4375 54.125 C36.35067017 54.15231201 36.35067017 54.15231201 38.30249023 54.18017578 C47.4248418 54.22427604 55.72021634 54.06648639 63 48 C66.12807287 44.11687505 67.13244273 39.93569913 67 35 C66.17759896 30.21729878 64.82969943 26.31727469 61.125 23.0625 C55.83303726 19.56980459 52.08448031 18.75239111 45.73046875 18.8046875 C44.48418701 18.80968262 43.23790527 18.81467773 41.95385742 18.81982422 C40.38095947 18.83803223 38.80806152 18.85624023 37.1875 18.875 C32.175625 18.91625 27.16375 18.9575 22 19 Z " fill="#FFFFFF" transform="translate(323,3)"/>
<path d="M0 0 C9.3225 -0.0825 18.645 -0.165 28.25 -0.25 C32.62813965 -0.30462402 32.62813965 -0.30462402 37.09472656 -0.36035156 C39.44335192 -0.37204885 41.79198548 -0.3822382 44.140625 -0.390625 C45.33155762 -0.41108887 46.52249023 -0.43155273 47.74951172 -0.45263672 C59.26889734 -0.45737136 69.41162721 2.02783333 78 10 C78.55429687 10.51304688 79.10859375 11.02609375 79.6796875 11.5546875 C87.0443335 19.21245374 88.6063429 28.54283889 88.47045898 38.7902832 C88.04506822 48.91231469 84.3565781 56.06158529 77 63 C72.66454944 66.69138141 68.2309767 68.82665373 63 71 C63.59518433 71.94915283 63.59518433 71.94915283 64.20239258 72.91748047 C68.81200339 80.2718415 73.41034673 87.633168 78 95 C78.59071289 95.94746094 79.18142578 96.89492187 79.79003906 97.87109375 C81.34446534 100.36918058 82.89233769 102.87117556 84.4375 105.375 C84.90325439 106.12249512 85.36900879 106.86999023 85.84887695 107.64013672 C89 112.76925314 89 112.76925314 89 115 C81.07346366 116.74236865 72.72492825 118.0482481 65 115 C61.09363588 111.32815174 58.55242163 107.12227866 56.0625 102.4375 C55.57302887 101.51803085 55.57302887 101.51803085 55.07366943 100.57998657 C52.45224635 95.55618182 50.10278479 90.42128484 47.75439453 85.26513672 C47.3932959 84.48541504 47.03219727 83.70569336 46.66015625 82.90234375 C46.37148682 82.25386475 46.08281738 81.60538574 45.78540039 80.93725586 C44.17989079 78.08395487 42.0251558 75.5724952 40 73 C34.06 72.67 28.12 72.34 22 72 C22 86.19 22 100.38 22 115 C14.74 115 7.48 115 0 115 C0 77.05 0 39.1 0 0 Z M22 19 C22 30.55 22 42.1 22 54 C28.1565625 54.061875 28.1565625 54.061875 34.4375 54.125 C36.35067017 54.15231201 36.35067017 54.15231201 38.30249023 54.18017578 C47.4248418 54.22427604 55.72021634 54.06648639 63 48 C66.42883752 43.86174782 67.13166669 39.25788993 67 34 C66.16962066 29.49337812 64.57501031 26.17384632 61.125 23.125 C55.85542616 19.54168979 52.10819612 18.75219592 45.73046875 18.8046875 C44.48418701 18.80968262 43.23790527 18.81467773 41.95385742 18.81982422 C40.38095947 18.83803223 38.80806152 18.85624023 37.1875 18.875 C32.175625 18.91625 27.16375 18.9575 22 19 Z " fill="#FFFFFF" transform="translate(211,3)"/>
<path d="M0 0 C7.26 0 14.52 0 22 0 C22.01401855 3.36699097 22.01401855 3.36699097 22.02832031 6.80200195 C22.06222744 14.25402354 22.11785188 21.7057722 22.18390274 29.15757465 C22.22325687 33.67155126 22.25550408 38.18533632 22.27099609 42.69946289 C22.28624273 47.06340219 22.32082827 51.42681443 22.36830902 55.79051781 C22.38304082 57.4476581 22.39103626 59.10487368 22.39188385 60.76207924 C22.3870065 77.24419003 22.3870065 77.24419003 30.625 91 C37.74730786 96.5000044 46.1815152 97.97525299 55 97 C62.54239228 95.72765115 68.0860348 92.91703163 73 87 C77.97862549 78.03438503 77.60429603 68.23115718 77.609375 58.30078125 C77.62438322 56.61254817 77.64111583 54.92432962 77.65948486 53.23612976 C77.70287463 48.82873804 77.7230939 44.42154427 77.73822021 40.01397705 C77.75789451 35.50203889 77.79985235 30.99031135 77.83984375 26.47851562 C77.9148381 17.6523735 77.96325112 8.82638429 78 0 C85.26 0 92.52 0 100 0 C100.06824172 9.24167828 100.12308156 18.48318453 100.15543652 27.72505951 C100.17097864 32.01813751 100.19200261 36.31103166 100.22631836 40.60400391 C100.25932674 44.76024639 100.27693867 48.91631399 100.28463173 53.07267761 C100.29010192 54.64481859 100.30077928 56.21695188 100.31719017 57.78901672 C100.48638162 74.69548068 99.26758005 91.18368502 87.375 104.3125 C76.70985938 114.28164296 64.2817424 116.36027228 50.3125 116.375 C49.10916016 116.39949219 47.90582031 116.42398438 46.66601562 116.44921875 C33.55730863 116.49171051 22.52418298 112.97895233 12.84375 104 C-0.15553452 90.41865796 -0.31768649 73.52932026 -0.1953125 55.76171875 C-0.19157212 54.14362261 -0.18873001 52.52552417 -0.18673706 50.90742493 C-0.17918115 46.69399518 -0.15960404 42.48070818 -0.1373291 38.26733398 C-0.11669513 33.94972666 -0.10769821 29.63209578 -0.09765625 25.31445312 C-0.07634866 16.87622998 -0.04123443 8.43814931 0 0 Z " fill="#FFFFFF" transform="translate(665,3)"/>
<path d="M0 0 C1.08864349 0.00539291 1.08864349 0.00539291 2.19927979 0.01089478 C2.96020432 0.01074875 3.72112885 0.01060272 4.50511169 0.01045227 C7.03202113 0.01115155 9.55885776 0.01894462 12.08575439 0.02676392 C13.83310404 0.02862804 15.58045421 0.03005197 17.32780457 0.03105164 C21.93591749 0.03487724 26.54399909 0.04470788 31.15209961 0.05575562 C35.85068335 0.06596883 40.54927214 0.07054906 45.24786377 0.07559204 C54.47379123 0.08633011 63.69968719 0.10392725 72.92559814 0.12442017 C72.92559814 6.39442017 72.92559814 12.66442017 72.92559814 19.12442017 C54.11559814 19.12442017 35.30559814 19.12442017 15.92559814 19.12442017 C15.92559814 28.36442017 15.92559814 37.60442017 15.92559814 47.12442017 C19.16243408 47.1128186 22.39927002 47.10121704 25.73419189 47.08926392 C28.85504051 47.08147429 31.97588805 47.07539699 35.09674072 47.06948853 C37.27252687 47.06444709 39.44830961 47.05761409 41.62408447 47.04898071 C44.74412881 47.03690679 47.86412853 47.03119012 50.98419189 47.02676392 C52.45293007 47.01902199 52.45293007 47.01902199 53.95133972 47.01112366 C55.30262718 47.01101036 55.30262718 47.01101036 56.68121338 47.01089478 C57.47841293 47.00867416 58.27561249 47.00645355 59.0969696 47.00416565 C60.92559814 47.12442017 60.92559814 47.12442017 61.92559814 48.12442017 C62.02546789 50.96777064 62.06437696 53.7813918 62.05059814 56.62442017 C62.05446533 57.42234985 62.05833252 58.22027954 62.06231689 59.04238892 C62.05220582 64.99781249 62.05220582 64.99781249 60.92559814 66.12442017 C59.51334769 66.21729277 58.0965088 66.24188788 56.68121338 66.23794556 C55.78035507 66.23787003 54.87949677 66.23779449 53.95133972 66.23771667 C52.97218094 66.23255539 51.99302216 66.2273941 50.98419189 66.22207642 C49.98678482 66.22066147 48.98937775 66.21924652 47.96174622 66.2177887 C44.76216691 66.21217131 41.56265646 66.19961588 38.36309814 66.18692017 C36.19968769 66.18190741 34.03627615 66.17734411 31.87286377 66.17324829 C26.55706041 66.16304521 21.24140675 66.14347324 15.92559814 66.12442017 C15.92559814 76.02442017 15.92559814 85.92442017 15.92559814 96.12442017 C34.73559814 96.12442017 53.54559814 96.12442017 72.92559814 96.12442017 C72.92559814 102.39442017 72.92559814 108.66442017 72.92559814 115.12442017 C62.77293267 115.14697162 52.62028372 115.1653355 42.46759892 115.17623234 C37.75380082 115.18146106 33.04002067 115.1885585 28.32623291 115.19985962 C23.78104411 115.21068889 19.23587262 115.21669708 14.69067192 115.21929741 C12.95264857 115.22115159 11.21462621 115.22477206 9.47661018 115.23015022 C7.0508122 115.2373612 4.62508668 115.23841109 2.19927979 115.23794556 C1.47351746 115.24154083 0.74775513 115.24513611 0 115.24884033 C-4.96034969 115.23847233 -4.96034969 115.23847233 -6.07440186 114.12442017 C-6.1722141 112.65925713 -6.20071934 111.18940194 -6.2013855 109.72097778 C-6.20420532 108.77024887 -6.20702515 107.81951996 -6.20993042 106.83998108 C-6.20790619 105.78851395 -6.20588196 104.73704681 -6.20379639 103.65371704 C-6.20554871 102.55302383 -6.20730103 101.45233063 -6.20910645 100.31828308 C-6.21352753 96.65989633 -6.21058606 93.00155746 -6.20721436 89.34317017 C-6.20788732 86.81350699 -6.20885728 84.28384387 -6.21011353 81.75418091 C-6.21159085 76.44448168 -6.20952944 71.13479979 -6.20477295 65.82510376 C-6.19933036 59.67836058 -6.20109303 53.53165057 -6.20659935 47.3849082 C-6.21167625 41.48224453 -6.21114891 35.5795912 -6.20821762 29.67692566 C-6.2075481 27.16019181 -6.20837766 24.64345712 -6.21069717 22.12672424 C-6.21322218 18.61616742 -6.20938524 15.10567527 -6.20379639 11.59512329 C-6.20582062 10.54365616 -6.20784485 9.49218903 -6.20993042 8.40885925 C-6.2071106 7.45813034 -6.20429077 6.50740143 -6.2013855 5.52786255 C-6.20100847 4.6967823 -6.20063145 3.86570206 -6.200243 3.00943756 C-5.93794212 -0.91965671 -3.32117475 0.00694184 0 0 Z " fill="#FFFFFF" transform="translate(112.07440185546875,2.875579833984375)"/>
<path d="M0 0 C26.07 0 52.14 0 79 0 C79 6.27 79 12.54 79 19 C59.86 19 40.72 19 21 19 C21 28.24 21 37.48 21 47 C36.18 47 51.36 47 67 47 C67 53.27 67 59.54 67 66 C51.82 66 36.64 66 21 66 C21 75.9 21 85.8 21 96 C40.14 96 59.28 96 79 96 C79 102.27 79 108.54 79 115 C52.93 115 26.86 115 0 115 C0 77.05 0 39.1 0 0 Z " fill="#FFFFFF" transform="translate(996,3)"/>
<path d="M0 0 C0.77730469 0.57363281 1.55460938 1.14726562 2.35546875 1.73828125 C2.99871094 2.19847656 3.64195312 2.65867187 4.3046875 3.1328125 C9.69127786 7.33314251 13.83892893 12.92000627 17.35546875 18.73828125 C17.35546875 19.72828125 17.35546875 20.71828125 17.35546875 21.73828125 C14.7959513 22.4390657 12.23387173 23.12413321 9.66796875 23.80078125 C8.94673828 23.99994141 8.22550781 24.19910156 7.48242188 24.40429688 C3.49235745 25.4428068 0.37002932 26.19402845 -3.64453125 24.73828125 C-4.97786458 23.07161458 -6.31119792 21.40494792 -7.64453125 19.73828125 C-17.3374337 11.92521443 -28.10912025 9.02182277 -40.50390625 9.953125 C-50.1397853 11.38217486 -60.00944667 15.59348341 -66.01171875 23.55078125 C-72.84711833 33.90499599 -75.09544015 45.4303318 -73.18359375 57.6953125 C-70.81234193 68.56122523 -65.93519925 77.37527366 -56.64453125 83.73828125 C-46.6266857 89.31697962 -34.56757655 90.59715597 -23.45703125 87.61328125 C-13.3429319 84.09390359 -6.51498167 78.54395688 -0.64453125 69.73828125 C6.27210502 70.83718608 12.78283674 72.3039731 19.35546875 74.73828125 C16.8940598 85.4043867 6.66284963 95.22029046 -2.33203125 100.92578125 C-13.05994405 106.81570009 -22.44254405 109.5502513 -34.70703125 109.30078125 C-36.47143555 109.3172168 -36.47143555 109.3172168 -38.27148438 109.33398438 C-53.54641119 109.20732661 -67.01173388 103.47558889 -78.01953125 92.86328125 C-91.25564329 78.75888026 -95.19228849 63.01669188 -94.91796875 44.12109375 C-94.40534057 29.61016326 -87.98048377 16.42010306 -78.05078125 5.8984375 C-56.15065572 -13.76190246 -24.45154216 -16.86686882 0 0 Z " fill="#FFFFFF" transform="translate(629.64453125,10.26171875)"/>
<path d="M0 0 C66.20645161 0 66.20645161 0 77.9765625 10.81640625 C85.77316072 19.02771715 87.59834469 27.35629929 87.47290039 38.38183594 C87.23423729 44.55215033 86.19996562 49.63681774 83 55 C82.57589844 55.71414062 82.15179688 56.42828125 81.71484375 57.1640625 C76.23140035 65.32049362 68.34598037 69.58434236 59 72 C55.92303101 72.35658901 52.90280247 72.35428961 49.80859375 72.29296875 C48.70167175 72.28843689 48.70167175 72.28843689 47.5723877 72.28381348 C44.86061268 72.26831921 42.14903971 72.22643811 39.4375 72.1875 C33.353125 72.125625 27.26875 72.06375 21 72 C21 86.19 21 100.38 21 115 C14.07 115 7.14 115 0 115 C0 77.05 0 39.1 0 0 Z M21 19 C21 30.55 21 42.1 21 54 C27.4040625 54.061875 27.4040625 54.061875 33.9375 54.125 C35.92898071 54.15231201 35.92898071 54.15231201 37.96069336 54.18017578 C49.77745667 54.40405632 49.77745667 54.40405632 60.375 49.8125 C64.21629084 45.69683125 65.77651094 42.08589788 66.375 36.5 C65.62847608 29.53244344 63.0463127 25.5398679 57.81640625 21.1640625 C53.76032862 18.56468372 49.53440224 18.88305573 44.828125 18.90234375 C43.5793457 18.90484131 42.33056641 18.90733887 41.04394531 18.90991211 C38.67094238 18.92356812 38.67094238 18.92356812 36.25 18.9375 C31.2175 18.958125 26.185 18.97875 21 19 Z " fill="#FFFFFF" transform="translate(0,3)"/>
<path d="M0 0 C29.7 0 59.4 0 90 0 C90 6.27 90 12.54 90 19 C78.78 19 67.56 19 56 19 C56 50.68 56 82.36 56 115 C49.07 115 42.14 115 35 115 C33.12211328 113.12211328 33.87991413 110.40834091 33.87557983 107.91021729 C33.88097275 106.59715607 33.88097275 106.59715607 33.88647461 105.25756836 C33.88632858 104.3405867 33.88618256 103.42360504 33.8860321 102.47883606 C33.8867316 99.43248164 33.89452572 96.38618755 33.90234375 93.33984375 C33.9042078 91.23377007 33.90563176 89.12769597 33.90663147 87.0216217 C33.91045769 81.46657117 33.92028886 75.91154659 33.93133545 70.35650635 C33.94154733 64.6927526 33.94612861 59.02899467 33.95117188 53.36523438 C33.96191104 42.24347631 33.97950868 31.12174437 34 20 C22.78 19.67 11.56 19.34 0 19 C0 12.73 0 6.46 0 0 Z " fill="#FFFFFF" transform="translate(783,3)"/>
<path d="M0 0 C29.7 0 59.4 0 90 0 C90 6.27 90 12.54 90 19 C78.45 19 66.9 19 55 19 C55 50.68 55 82.36 55 115 C48.07 115 41.14 115 34 115 C34 83.32 34 51.64 34 19 C22.78 19 11.56 19 0 19 C0 12.73 0 6.46 0 0 Z " fill="#FFFFFF" transform="translate(888,3)"/>
<path d="M0 0 C6.93 0 13.86 0 21 0 C21 37.95 21 75.9 21 115 C14.07 115 7.14 115 0 115 C0 77.05 0 39.1 0 0 Z " fill="#FFFFFF" transform="translate(435,3)"/>
</svg>
