<?xml version="1.0" encoding="UTF-8"?>
<svg version="1.1" xmlns="http://www.w3.org/2000/svg" width="1037" height="240">
<path d="M0 0 C1.95292969 0.00483398 1.95292969 0.00483398 3.9453125 0.00976562 C5.32552149 0.01812159 6.70572982 0.02658654 8.0859375 0.03515625 C9.47395676 0.04017124 10.86197772 0.04473415 12.25 0.04882812 C15.65368882 0.06064649 19.05729189 0.07712191 22.4609375 0.09765625 C22.68885189 12.18556006 21.98824853 24.05950152 20.9609375 36.09765625 C20.81581001 37.85541962 20.67127561 39.61323207 20.52734375 41.37109375 C20.17868071 45.61387568 19.82209976 49.85592079 19.4609375 54.09765625 C20.60618896 54.36610352 21.75144043 54.63455078 22.93139648 54.91113281 C24.46078007 55.27015957 25.99015803 55.62921033 27.51953125 55.98828125 C28.64699768 56.2524585 28.64699768 56.2524585 29.79724121 56.52197266 C36.03406842 57.98707848 42.25192767 59.51848612 48.4609375 61.09765625 C48.20866833 66.88723376 47.93163721 70.97990651 43.4609375 75.09765625 C41.69970125 76.12163082 39.90663111 77.06356442 38.1015625 78.0078125 C36.16436531 79.12763928 36.16436531 79.12763928 34.7109375 81.97265625 C31.82743619 85.97751918 28.67708556 87.26336601 24.3359375 89.45703125 C21.42005263 91.12098729 19.21699514 92.93182096 16.7734375 95.22265625 C11.84620624 99.82549684 6.91986193 102.27769272 0.5859375 104.41015625 C-3.80336646 105.97593135 -7.18164215 108.60863251 -10.90625 111.359375 C-13.54702865 113.1029158 -16.02711657 114.16335844 -18.9765625 115.28515625 C-24.07506039 117.39043487 -26.60502282 120.23693666 -29.9765625 124.41015625 C-32.66020383 127.704204 -34.60141476 129.88068892 -38.8984375 130.875 C-41.87133267 130.8505748 -44.62041279 130.64776824 -47.5390625 130.09765625 C-47.15234375 129.65035156 -46.765625 129.20304688 -46.3671875 128.7421875 C-43.35516175 125.24555365 -40.39585219 121.72358162 -37.5390625 118.09765625 C-42.40987158 118.51219319 -44.194181 120.4419573 -47.2890625 124.09765625 C-48.06765625 125.00515625 -48.84625 125.91265625 -49.6484375 126.84765625 C-50.27234375 127.59015625 -50.89625 128.33265625 -51.5390625 129.09765625 C-52.5390625 130.09765625 -52.5390625 130.09765625 -55.04296875 130.1953125 C-56.55697266 130.17791016 -56.55697266 130.17791016 -58.1015625 130.16015625 C-59.11347656 130.15113281 -60.12539062 130.14210937 -61.16796875 130.1328125 C-62.34166016 130.11541016 -62.34166016 130.11541016 -63.5390625 130.09765625 C-61.92368806 126.19847657 -59.25981377 123.38471853 -56.4140625 120.34765625 C-55.94613281 119.84105469 -55.47820312 119.33445312 -54.99609375 118.8125 C-53.84779709 117.57046484 -52.69397578 116.33354131 -51.5390625 115.09765625 C-52.14492187 114.75734375 -52.75078125 114.41703125 -53.375 114.06640625 C-71.07524297 103.82749647 -81.69598086 91.58896917 -87.5390625 72.09765625 C-88.50342251 68.25541559 -88.51464293 65.03017109 -88.1796875 61.08984375 C-86.66688024 47.72381091 -86.66688024 47.72381091 -91.4296875 35.875 C-94.51144704 33.06989647 -97.83893862 30.99346148 -101.5390625 29.09765625 C-101.2090625 28.43765625 -100.8790625 27.77765625 -100.5390625 27.09765625 C-98.5012207 26.76635742 -98.5012207 26.76635742 -95.83984375 26.640625 C-94.39641602 26.5487793 -94.39641602 26.5487793 -92.92382812 26.45507812 C-90.89574116 26.34290803 -88.86704934 26.24113071 -86.83789062 26.15039062 C-80.27335037 25.70926051 -77.16865319 24.7996975 -72.5390625 20.09765625 C-65.44971782 16.28031681 -58.22495097 15.1324448 -50.4140625 17.16015625 C-40.06550008 20.74484637 -32.94100979 28.67093412 -28.203125 38.30078125 C-27.5390625 40.09765625 -27.5390625 40.09765625 -27.5390625 43.09765625 C-26.94222656 43.195625 -26.34539062 43.29359375 -25.73046875 43.39453125 C-16.90816583 44.91516593 -8.23708003 46.99707992 0.4609375 49.09765625 C0.33041992 48.54118408 0.19990234 47.98471191 0.06542969 47.41137695 C-2.40805241 36.81893893 -4.79099604 26.21651803 -6.8515625 15.53515625 C-7.02268555 14.66221924 -7.19380859 13.78928223 -7.37011719 12.88989258 C-8.12281235 8.91007558 -8.76389082 5.1695469 -8.5390625 1.09765625 C-5.66887809 -0.33743596 -3.20362527 -0.01392881 0 0 Z M1.4609375 9.09765625 C3.77218676 23.51837638 6.29955984 37.83782511 9.4609375 52.09765625 C9.7909375 52.09765625 10.1209375 52.09765625 10.4609375 52.09765625 C12.17832641 37.792172 13.3701619 23.46340301 14.4609375 9.09765625 C10.1709375 9.09765625 5.8809375 9.09765625 1.4609375 9.09765625 Z M-74.5390625 33.09765625 C-77.8515625 34.41015625 -77.8515625 34.41015625 -80.5390625 35.09765625 C-80.2090625 35.75765625 -79.8790625 36.41765625 -79.5390625 37.09765625 C-78.8790625 37.09765625 -78.2190625 37.09765625 -77.5390625 37.09765625 C-77.85617188 38.07863281 -78.17328125 39.05960938 -78.5 40.0703125 C-79.68474616 44.21692407 -79.975571 48.24304762 -80.1640625 52.53515625 C-80.20273438 53.26669922 -80.24140625 53.99824219 -80.28125 54.75195312 C-80.37440234 56.53349157 -80.45776536 58.31553747 -80.5390625 60.09765625 C-79.79398438 59.31003906 -79.04890625 58.52242187 -78.28125 57.7109375 C-73.97529293 53.60739722 -69.83061758 52.33887257 -63.9765625 51.72265625 C-58.35870258 52.3355137 -53.85017636 54.47632061 -49.5390625 58.09765625 C-50.02132614 53.03388805 -51.71019457 50.25255603 -54.5390625 46.09765625 C-55.2890625 43.22265625 -55.2890625 43.22265625 -55.5390625 41.09765625 C-52.3515625 40.59765625 -52.3515625 40.59765625 -48.5390625 41.09765625 C-41.9701916 47.47486248 -40.36728058 57.78818324 -40.0390625 66.47265625 C-40.32863132 77.97432995 -44.44585762 85.68934123 -52.2578125 93.94140625 C-54.58587173 96.14190059 -57.00746421 98.13655898 -59.5390625 100.09765625 C-49.0776238 106.84626702 -40.24384959 110.71279377 -27.5390625 109.09765625 C-23.05079901 107.74128701 -18.79928133 106.04996602 -14.5390625 104.09765625 C-15.40446986 101.79921707 -15.40446986 101.79921707 -18.234375 101.08984375 C-19.36617187 100.72117187 -20.49796875 100.3525 -21.6640625 99.97265625 C-28.95511708 97.26752294 -33.24376522 93.7347771 -36.6953125 86.76171875 C-39.5001836 77.90559797 -37.73677155 67.63040321 -34.5390625 59.09765625 C-33.5390625 58.09765625 -33.5390625 58.09765625 -30.9765625 58.03515625 C-30.1721875 58.05578125 -29.3678125 58.07640625 -28.5390625 58.09765625 C-27.58563309 60.67191566 -27.39981258 61.75981361 -28.46484375 64.34375 C-30.74638337 70.19278792 -31.72155358 78.10220949 -29.4765625 84.09765625 C-25.83155577 89.74153763 -21.60172768 92.73177782 -15.22265625 94.58203125 C-5.8989516 96.37348542 1.59128538 96.05330047 9.5703125 90.703125 C11.68968703 89.05264645 11.68968703 89.05264645 13.4609375 86.09765625 C12.62433594 85.8960791 11.78773438 85.69450195 10.92578125 85.48681641 C7.78720701 84.73041306 4.64870656 83.97370451 1.51025391 83.21679688 C0.15839485 82.89083038 -1.19349256 82.56498145 -2.54541016 82.23925781 C-9.54999457 80.5515309 -16.55331518 78.86191386 -23.5390625 77.09765625 C-23.92125017 75.44150968 -24.25301352 73.77308601 -24.5390625 72.09765625 C-24.2090625 71.76765625 -23.8790625 71.43765625 -23.5390625 71.09765625 C-17.57810188 71.28309232 -11.73948195 72.60246618 -5.9609375 73.98046875 C-4.37246058 74.34663517 -2.78391695 74.71251227 -1.1953125 75.078125 C1.26982845 75.65151678 3.73412431 76.2281342 6.19726562 76.81005859 C8.60089729 77.37575892 11.00716279 77.92886529 13.4140625 78.48046875 C14.14747864 78.65748322 14.88089478 78.83449768 15.63653564 79.01687622 C19.52469559 79.89996193 22.64438518 80.44313119 26.4609375 79.09765625 C26.9559375 78.10765625 26.9559375 78.10765625 27.4609375 77.09765625 C16.9180429 73.95487965 6.30165968 71.32630892 -4.4140625 68.84765625 C-5.98835536 68.4807866 -7.56257456 68.11360077 -9.13671875 67.74609375 C-12.93666439 66.85964915 -16.73756853 65.97743606 -20.5390625 65.09765625 C-21.6640625 61.34765625 -21.6640625 61.34765625 -20.5390625 59.09765625 C-9.74260845 59.42137379 0.35954795 62.04549522 10.7734375 64.66015625 C13.3300669 65.30070294 15.88722944 65.93829251 18.44706726 66.56590271 C20.02725689 66.95333751 21.60570913 67.34795781 23.18196106 67.75111389 C27.68410754 68.85529303 31.78792634 69.4695619 36.4609375 69.09765625 C37.4509375 68.10765625 37.4509375 68.10765625 38.4609375 67.09765625 C23.01285186 63.20823864 7.55876567 59.36260961 -7.94775391 55.71240234 C-10.76559522 55.04391502 -13.58020198 54.36280407 -16.39453125 53.6796875 C-17.3594751 53.44652832 -18.32441895 53.21336914 -19.31860352 52.97314453 C-21.17258273 52.52488083 -23.02596919 52.07415616 -24.87866211 51.62060547 C-25.70760986 51.42096191 -26.53655762 51.22131836 -27.390625 51.015625 C-28.12104004 50.83797607 -28.85145508 50.66032715 -29.60400391 50.47729492 C-31.70105113 50.00139642 -31.70105113 50.00139642 -34.5390625 50.09765625 C-34.61382812 49.46859375 -34.68859375 48.83953125 -34.765625 48.19140625 C-36.03317917 39.93987713 -39.39204126 34.77115173 -45.5390625 29.22265625 C-55.92290877 21.86743181 -66.25527707 24.59587647 -74.5390625 33.09765625 Z M-49.5390625 58.09765625 C-48.5390625 60.09765625 -48.5390625 60.09765625 -48.5390625 60.09765625 Z " fill="#1D1B1C" transform="translate(146.5390625,53.90234375)"/>
<path d="M0 0 C11.29386607 8.20569956 19.02188659 20.33609028 22 34 C22.94993021 44.77548424 22.60076721 55.07202866 18 65 C17.649375 65.78375 17.29875 66.5675 16.9375 67.375 C9.76014392 81.72971216 -2.33846787 89.67432046 -17 95 C-28.16682812 98.1929681 -41.60793519 96.81583491 -52 92 C-52.78375 91.649375 -53.5675 91.29875 -54.375 90.9375 C-67.04729727 84.60135136 -76.16327083 73.56156532 -81.2734375 60.51953125 C-85.28989141 46.59150558 -83.85184465 31.15955038 -77.3125 18.3125 C-72.15085896 9.48939931 -65.82673063 3.11103763 -57 -2 C-56.38769531 -2.37898438 -55.77539062 -2.75796875 -55.14453125 -3.1484375 C-37.95281037 -12.89896576 -16.23191367 -10.16800274 0 0 Z M-61.14453125 18.4296875 C-68.08497614 27.8102467 -71.12253937 38.40113042 -69.59765625 50.08203125 C-67.1236441 61.48590975 -61.54366596 70.23677215 -52 77 C-41.81238516 83.06729062 -31.83315398 83.98321704 -20.2734375 81.91015625 C-9.65573771 78.95797958 -1.51247574 72.16051539 4.3046875 62.9296875 C9.08711299 54.02809262 10.55113092 44.39931686 8.16015625 34.53515625 C4.67475132 23.72688037 -0.79957594 15.11033111 -10.671875 9.18359375 C-27.94366813 0.40279959 -48.32188661 3.90202818 -61.14453125 18.4296875 Z " fill="#E71D25" transform="translate(347,88)"/>
<path d="M0 0 C16.5200529 2.70729964 31.15267105 11.28162523 42 24 C43.71013456 26.39344159 45.32132964 28.81260802 46.87109375 31.3125 C47.24363281 31.869375 47.61617187 32.42625 48 33 C48.33 33 48.66 33 49 33 C49 22.44 49 11.88 49 1 C52.89164348 -0.29721449 55.89429226 -0.13033993 60 0 C60.66 0.33 61.32 0.66 62 1 C62.02312121 13.7603387 62.04091395 26.52067245 62.05181217 39.28102779 C62.05704149 45.20550715 62.06414001 51.12997222 62.07543945 57.05444336 C62.08626661 62.76672571 62.09227647 68.47899428 62.09487724 74.19128609 C62.0967318 76.37588277 62.100353 78.56047865 62.10573006 80.7450695 C62.11293821 83.79352349 62.11399104 86.84191979 62.11352539 89.89038086 C62.11712067 90.80315796 62.12071594 91.71593506 62.12442017 92.65637207 C62.11405216 98.88594784 62.11405216 98.88594784 61 100 C59.14712498 100.07226502 57.29166122 100.0838122 55.4375 100.0625 C54.42558594 100.05347656 53.41367187 100.04445313 52.37109375 100.03515625 C51.58863281 100.02355469 50.80617188 100.01195312 50 100 C48.56135766 97.12271532 48.97891726 94.72564231 49.078125 91.515625 C49.10545198 90.17320263 49.13144637 88.83075261 49.15625 87.48828125 C49.198917 85.38838594 49.2485973 83.28996755 49.32226562 81.19091797 C49.98825329 61.33021435 41.70239327 45.08277542 29 30 C23.38307814 24.14055129 18.31303644 21.06279802 11 17 C11 44.39 11 71.78 11 100 C7.04 100 3.08 100 -1 100 C-1.0231211 87.10927745 -1.04091389 74.2185598 -1.05181217 61.32782078 C-1.05704151 55.34280734 -1.06414008 49.35780804 -1.07543945 43.37280273 C-1.08626653 37.60216571 -1.09227645 31.83154232 -1.09487724 26.06089592 C-1.09673182 23.85397057 -1.10035304 21.647046 -1.10573006 19.44012642 C-1.1129381 16.36053959 -1.11399104 13.28100986 -1.11352539 10.20141602 C-1.11712067 9.27928818 -1.12071594 8.35716034 -1.12442017 7.40708923 C-1.11405216 1.11405216 -1.11405216 1.11405216 0 0 Z M49 34 C50 36 50 36 50 36 Z " fill="#1F1D1E" transform="translate(935,81)"/>
<path d="M0 0 C2.16861499 2.16861499 1.30891016 7.1848642 1.38891602 10.20141602 C1.41832275 11.16716553 1.44772949 12.13291504 1.47802734 13.12792969 C1.57457753 16.33647052 1.66425267 19.54516589 1.75390625 22.75390625 C1.81931651 24.97209396 1.88515312 27.19026914 1.95140076 29.40843201 C2.12498855 35.25927059 2.29275802 41.11026233 2.45935059 46.96130371 C2.63022027 52.92677892 2.80654479 58.89209256 2.98242188 64.85742188 C3.32697895 76.57146223 3.66539474 88.28567146 4 100 C-1.94 100.495 -1.94 100.495 -8 101 C-8.67950639 95.8543831 -9.06958395 90.82812084 -9.140625 85.63671875 C-9.15996094 84.50169922 -9.17929687 83.36667969 -9.19921875 82.19726562 C-9.23290087 79.86931291 -9.25128883 77.54108552 -9.25390625 75.21289062 C-9.43429153 66.82497529 -11.26085233 60.48595754 -15 53 C-15.32419922 52.32686768 -15.64839844 51.65373535 -15.98242188 50.96020508 C-23.26716044 36.39686676 -33.28931472 24.35534264 -48 17 C-48 44.39 -48 71.78 -48 100 C-51.96 100 -55.92 100 -60 100 C-60 67.33 -60 34.66 -60 1 C-45.7539097 1 -33.56411485 7.616355 -23.47070312 17.49707031 C-18.70325209 22.33967033 -14.51417645 27.14303925 -11 33 C-11 22.44 -11 11.88 -11 1 C-7.11083128 0.02770782 -3.98345803 -0.15031917 0 0 Z " fill="#E41F27" transform="translate(505,81)"/>
<path d="M0 0 C1.50046875 0.00386719 1.50046875 0.00386719 3.03125 0.0078125 C4.0315625 0.00523438 5.031875 0.00265625 6.0625 0 C8.53125 0.1328125 8.53125 0.1328125 9.53125 1.1328125 C9.61990208 4.0171507 9.64646296 6.87743408 9.62890625 9.76171875 C9.6274913 10.62594955 9.62607635 11.49018036 9.62461853 12.38059998 C9.61900239 15.15220542 9.60644719 17.9237313 9.59375 20.6953125 C9.58873708 22.5696603 9.58417381 24.44400935 9.58007812 26.31835938 C9.56987681 30.92323271 9.55030467 35.5279331 9.53125 40.1328125 C19.76125 40.1328125 29.99125 40.1328125 40.53125 40.1328125 C40.53125 26.9328125 40.53125 13.7328125 40.53125 0.1328125 C44.49125 0.1328125 48.45125 0.1328125 52.53125 0.1328125 C52.53125 33.1328125 52.53125 66.1328125 52.53125 100.1328125 C48.57125 100.1328125 44.61125 100.1328125 40.53125 100.1328125 C40.53125 84.2928125 40.53125 68.4528125 40.53125 52.1328125 C30.30125 52.1328125 20.07125 52.1328125 9.53125 52.1328125 C9.53125 67.9728125 9.53125 83.8128125 9.53125 100.1328125 C5.24125 100.1328125 0.95125 100.1328125 -3.46875 100.1328125 C-3.4918711 87.24208995 -3.50966389 74.3513723 -3.52056217 61.46063328 C-3.52579151 55.47561984 -3.53289008 49.49062054 -3.54418945 43.50561523 C-3.55501653 37.73497821 -3.56102645 31.96435482 -3.56362724 26.19370842 C-3.56548182 23.98678307 -3.56910304 21.7798585 -3.57448006 19.57293892 C-3.5816881 16.49335209 -3.58274104 13.41382236 -3.58227539 10.33422852 C-3.58587067 9.41210068 -3.58946594 8.48997284 -3.59317017 7.53990173 C-3.58106531 0.19265225 -3.58106531 0.19265225 0 0 Z " fill="#201E1F" transform="translate(813.46875,80.8671875)"/>
<path d="M0 0 C3.96 0 7.92 0 12 0 C12.33 14.52 12.66 29.04 13 44 C25.41419529 33.84293113 34.59072587 26.16942379 36.33984375 9.82421875 C36.59206386 6.88395421 36.81347753 3.94509163 37 1 C41.47912395 0.01333983 45.42473981 -0.15250867 50 0 C51 1 51 1 51.25 4.125 C51.0192141 16.97977468 47.6176111 29.5548872 38.4375 38.875 C37.298374 39.92399735 36.15304863 40.96632581 35 42 C34.13375 42.886875 33.2675 43.77375 32.375 44.6875 C25.89189189 51 25.89189189 51 23 51 C27.56649281 64.34322721 31.81813618 73.98204829 44 82 C44.92425781 82.40992188 45.84851563 82.81984375 46.80078125 83.2421875 C49.77543765 84.5969815 51.78356819 85.57960208 54 88 C54.86968543 93.13168422 54.58966609 97.85024947 54 103 C40.82514581 101.43688171 28.61376152 90.65066481 20.15625 80.8671875 C17.15976519 77.00407228 15.23563191 73.47126382 13 69 C12.67 79.23 12.34 89.46 12 100 C8.04 100 4.08 100 0 100 C0 67 0 34 0 0 Z " fill="#1F1D1E" transform="translate(593,81)"/>
<path d="M0 0 C11.44733899 0.14901861 20.15137383 2.40643278 28.828125 10.23046875 C36.46529408 18.22121047 39.69559049 27.15762599 39.5625 38.1875 C38.5705812 47.80556981 33.33301931 56.01717639 26.52734375 62.59375 C24.61509653 64.14483721 22.804889 65.18866303 20.5625 66.1875 C22.4222843 73.99859406 25.40980623 78.90797246 32.25488281 83.26464844 C36.28904926 85.70025283 40.40620646 87.96811995 44.5625 90.1875 C44.5625 94.4775 44.5625 98.7675 44.5625 103.1875 C31.46931313 101.00530219 20.67346809 95.00080172 12.8125 84.3125 C9.7123878 79.9230888 8.57721599 76.56007598 6.5625 71.1875 C6.2325 80.7575 5.9025 90.3275 5.5625 100.1875 C1.6025 100.1875 -2.3575 100.1875 -6.4375 100.1875 C-6.4606211 87.29677745 -6.47841389 74.4060598 -6.48931217 61.51532078 C-6.49454151 55.53030734 -6.50164008 49.54530804 -6.51293945 43.56030273 C-6.52376653 37.78966571 -6.52977645 32.01904232 -6.53237724 26.24839592 C-6.53423182 24.04147057 -6.53785304 21.834546 -6.54323006 19.62762642 C-6.5504381 16.54803959 -6.55149104 13.46850986 -6.55102539 10.38891602 C-6.55462067 9.46678818 -6.55821594 8.54466034 -6.56192017 7.59458923 C-6.54947654 0.04171641 -6.54947654 0.04171641 0 0 Z M5.5625 12.1875 C5.5625 27.3675 5.5625 42.5475 5.5625 58.1875 C14.91783713 56.31643257 19.07856215 55.3957218 24.1015625 47.88671875 C27.65327544 41.50752484 28.76179222 36.17692183 27.05078125 29.05859375 C25.05994558 22.99402498 21.64709593 18.29030777 16.1875 14.875 C12.15380739 12.78437974 12.15380739 12.78437974 5.5625 12.1875 Z " fill="#E71E25" transform="translate(224.4375,80.8125)"/>
<path d="M0 0 C0.63321903 2.98473628 0.88542651 5.202912 0.875 8.1875 C0.895625 8.93708984 0.91625 9.68667969 0.9375 10.45898438 C0.98454518 12.30550787 0.99574887 14.15288219 1 16 C-2.550906 15.45417853 -4.89034042 14.63569532 -7.8125 12.5625 C-16.80962435 6.79767588 -27.51993515 6.88205553 -37.875 8.4296875 C-47.004427 10.74057371 -54.76674699 17.26180577 -60 25 C-65.72362147 35.80517002 -66.99265256 47.55487737 -63.4375 59.375 C-59.06624347 70.68259067 -51.39255124 77.02743536 -40.58203125 82.14453125 C-29.90979352 85.68041637 -18.53701748 84.38376372 -8.625 79.5 C-7.07925339 78.67425914 -5.53725455 77.8414446 -4 77 C-2.68 76.34 -1.36 75.68 0 75 C0 80.28 0 85.56 0 91 C-13.57268662 98.26425481 -27.87089389 100.65427274 -42.9375 96.375 C-56.85590099 91.3782076 -68.27199524 82.10443768 -74.85546875 68.671875 C-80.70921103 55.00648347 -81.30297954 41.28021781 -77 27 C-71.50493346 13.3413362 -60.67068988 3.06635176 -47.5625 -3.3125 C-33.71499878 -8.99290103 -12.59782648 -9.18990382 0 0 Z " fill="#1F1D1E" transform="translate(803,86)"/>
<path d="M0 0 C10.91614075 0.15513895 21.73344607 1.89694127 29.85546875 9.890625 C34.64699037 16.12943908 36.00072621 23.47845561 35.125 31.1875 C34.08343691 35.16113454 32.60909764 38.46970005 30.3125 41.875 C28.83479977 44.14472343 28.83479977 44.14472343 29.6875 46.6875 C31.06062811 49.24143711 31.06062811 49.24143711 33 51.4375 C37.67634677 57.48924288 39.93674459 63.58239243 39.64453125 71.27734375 C38.27063318 78.97323894 34.14960304 86.21720249 28.125 91.1875 C26.825625 92.4559375 26.825625 92.4559375 25.5 93.75 C18.9620677 99.09155809 9.12670611 101.70002348 0.77783203 100.98706055 C-0.40770264 100.84457886 -0.40770264 100.84457886 -1.6171875 100.69921875 C-2.41753418 100.60471436 -3.21788086 100.51020996 -4.04248047 100.4128418 C-4.64721191 100.338479 -5.25194336 100.26411621 -5.875 100.1875 C-5.8981211 87.29677745 -5.91591389 74.4060598 -5.92681217 61.51532078 C-5.93204151 55.53030734 -5.93914008 49.54530804 -5.95043945 43.56030273 C-5.96126653 37.78966571 -5.96727645 32.01904232 -5.96987724 26.24839592 C-5.97173182 24.04147057 -5.97535304 21.834546 -5.98073006 19.62762642 C-5.9879381 16.54803959 -5.98899104 13.46850986 -5.98852539 10.38891602 C-5.99212067 9.46678818 -5.99571594 8.54466034 -5.99942017 7.59458923 C-5.98697766 0.04240069 -5.98697766 0.04240069 0 0 Z M6.125 13.1875 C6.125 37.6075 6.125 62.0275 6.125 87.1875 C13.2216924 86.00471793 17.50503222 83.8764143 22.5 78.75 C25.76957916 73.59412518 26.53780497 69.44879496 25.65625 63.48828125 C23.94292703 56.06808104 20.15216173 51.65708061 14.125 47.1875 C14.52332031 46.7028125 14.92164063 46.218125 15.33203125 45.71875 C20.97491487 38.5793352 24.0168201 32.40297437 23.125 23.1875 C21.87747089 19.70755038 20.80780932 17.76989619 18 15.375 C14.24533723 13.66858703 14.24533723 13.66858703 6.125 13.1875 Z " fill="#E81D24" transform="translate(379.875,80.8125)"/>
<path d="M0 0 C1.01775513 -0.00315216 2.03551025 -0.00630432 3.08410645 -0.009552 C4.19137085 -0.00752777 5.29863525 -0.00550354 6.43945312 -0.00341797 C7.56766479 -0.00437469 8.69587646 -0.00533142 9.85827637 -0.00631714 C12.24910538 -0.00699915 14.63993624 -0.00514344 17.03076172 -0.00097656 C20.70479464 0.00437137 24.37870529 -0.0009209 28.05273438 -0.00732422 C30.3691409 -0.00666344 32.68554734 -0.00538229 35.00195312 -0.00341797 C36.66284973 -0.00645432 36.66284973 -0.00645432 38.3572998 -0.009552 C39.37505493 -0.00639984 40.39281006 -0.00324768 41.44140625 0 C42.79256531 0.00119339 42.79256531 0.00119339 44.17102051 0.00241089 C46.22070312 0.12939453 46.22070312 0.12939453 47.22070312 1.12939453 C47.22070312 4.75939453 47.22070312 8.38939453 47.22070312 12.12939453 C34.02070312 12.12939453 20.82070313 12.12939453 7.22070312 12.12939453 C7.22070312 21.36939453 7.22070312 30.60939453 7.22070312 40.12939453 C20.09070313 40.12939453 32.96070313 40.12939453 46.22070312 40.12939453 C46.22070312 43.75939453 46.22070312 47.38939453 46.22070312 51.12939453 C45.22070312 52.12939453 45.22070312 52.12939453 41.61889648 52.24291992 C40.01610456 52.24276078 38.41330752 52.23706517 36.81054688 52.22705078 C35.96851212 52.22563583 35.12647736 52.22422089 34.25892639 52.22276306 C31.55864978 52.21714716 28.85845485 52.20459202 26.15820312 52.19189453 C24.33203244 52.18688158 22.50586047 52.18231832 20.6796875 52.17822266 C16.19330227 52.16802169 11.70709458 52.14844952 7.22070312 52.12939453 C7.22070312 64.33939453 7.22070312 76.54939453 7.22070312 89.12939453 C20.42070313 89.12939453 33.62070312 89.12939453 47.22070312 89.12939453 C47.22070312 92.75939453 47.22070312 96.38939453 47.22070312 100.12939453 C29.73070312 100.12939453 12.24070312 100.12939453 -5.77929688 100.12939453 C-5.81940568 75.46247679 -5.81940568 75.46247679 -5.828125 64.98681641 C-5.83411397 57.8252692 -5.84121572 50.66373473 -5.85473633 43.50219727 C-5.8655634 37.73156024 -5.87157333 31.96093685 -5.87417412 26.19029045 C-5.87602869 23.9833651 -5.87964992 21.77644053 -5.88502693 19.56952095 C-5.89223498 16.48993412 -5.89328792 13.41040439 -5.89282227 10.33081055 C-5.89641754 9.40868271 -5.90001282 8.48655487 -5.90371704 7.53648376 C-5.89130899 0.00520341 -5.89130899 0.00520341 0 0 Z " fill="#201E1F" transform="translate(879.779296875,80.87060546875)"/>
<path d="M0 0 C1.59412284 3.18824568 1.10174735 6.62896662 1.0625 10.125 C1.05798828 10.87910156 1.05347656 11.63320312 1.04882812 12.41015625 C1.03703499 14.27347127 1.01909942 16.13674555 1 18 C-2 18 -2 18 -4.125 16.0625 C-7.98306795 13.2947556 -11.29488407 12.78424513 -16 13 C-20.28624567 14.50812348 -22.64487351 16.14246523 -25 20 C-25.47266109 22.6433276 -25.47266109 22.6433276 -25.375 25.4375 C-25.38273438 26.36433594 -25.39046875 27.29117188 -25.3984375 28.24609375 C-24.89945372 31.69495222 -24.26107413 33.31744409 -22 36 C-19.25794698 37.54061078 -16.36926318 38.62372671 -13.4375 39.75 C-3.72692388 43.78044028 5.10338137 48.88485893 9.32421875 59.046875 C9.54722656 59.69140625 9.77023437 60.3359375 10 61 C10.34998047 61.93585938 10.34998047 61.93585938 10.70703125 62.890625 C13.25362276 70.97399935 11.9162369 78.66692228 8.4375 86.25 C3.82627619 94.68569853 -1.91270203 99.40395487 -11.07421875 102.34375 C-19.55715771 104.24646528 -28.01386479 103.46808262 -36 100 C-38 98 -38 98 -38.22705078 96.02880859 C-38.21657715 95.24328613 -38.20610352 94.45776367 -38.1953125 93.6484375 C-38.18886719 92.79765625 -38.18242188 91.946875 -38.17578125 91.0703125 C-38.15902344 90.18085938 -38.14226563 89.29140625 -38.125 88.375 C-38.11597656 87.4778125 -38.10695313 86.580625 -38.09765625 85.65625 C-38.0740497 83.43723414 -38.0411231 81.21874923 -38 79 C-37.34 79 -36.68 79 -36 79 C-35.401875 79.928125 -34.80375 80.85625 -34.1875 81.8125 C-31.88840886 85.16260423 -30.60229779 86.27008298 -27 88 C-21.21973866 88.80301503 -15.80957965 88.79367529 -10.4375 86.4375 C-5.66973082 81.66973082 -3.12072459 76.88130174 -3 70 C-4.23018609 64.30630685 -6.51906267 60.80330239 -11 57 C-13.60531647 55.92184244 -16.07482455 55.02074106 -18.75 54.1875 C-27.43880334 51.19047529 -34.08025641 47.12261285 -38.5 38.75 C-41.91144202 31.10584287 -42.01245918 23.33296543 -39.5 15.375 C-36.47327801 7.89285857 -31.57521145 2.87996091 -24.25 -0.5 C-16.42104968 -3.22626005 -7.69794397 -3.07917759 0 0 Z " fill="#E71C25" transform="translate(551,81)"/>
<path d="M0 0 C0.66 0.33 1.32 0.66 2 1 C1.67 7.27 1.34 13.54 1 20 C2.65 18.35 4.3 16.7 6 15 C12.1869032 12.59398209 17.45621401 12.1096749 23.75 14.3125 C26.43300524 15.70559887 28.12827402 16.68786791 30 19 C28.84112126 14.14050808 28.84112126 14.14050808 26.375 9.875 C24.61291822 7.4721612 24.75748327 5.91020075 25 3 C28.465 2.505 28.465 2.505 32 2 C39.97674802 12.68729346 42.43716465 22.6190204 41 36 C38.46070962 46.29209966 31.85276268 55.14182935 23 61 C22.34 61 21.68 61 21 61 C20.67 62.32 20.34 63.64 20 65 C20.969375 65.433125 21.93875 65.86625 22.9375 66.3125 C26 68 26 68 27 71 C24.8515625 72.21875 24.8515625 72.21875 22 73 C9.55027349 67.14969872 0.01004884 54.0193821 -4.625 41.4375 C-6.65518191 35.69734451 -8.13710803 30.25174457 -8.09765625 24.13671875 C-8.09443359 23.25048828 -8.09121094 22.36425781 -8.08789062 21.45117188 C-8.07951172 20.53916016 -8.07113281 19.62714844 -8.0625 18.6875 C-8.05798828 17.75615234 -8.05347656 16.82480469 -8.04882812 15.86523438 C-8.03709234 13.57675627 -8.02067363 11.28841192 -8 9 C-6.35 8.67 -4.7 8.34 -3 8 C-3 8.66 -3 9.32 -3 10 C-2.34 9.34 -1.68 8.68 -1 8 C-1.33 7.34 -1.66 6.68 -2 6 C-1.39421747 3.98072489 -0.73080266 1.97746603 0 0 Z M31 20 C32 22 32 22 32 22 Z " fill="#1F1C1D" transform="translate(66,92)"/>
<path d="M0 0 C20.13 0 40.26 0 61 0 C61 3.96 61 7.92 61 12 C52.75 12 44.5 12 36 12 C36 41.04 36 70.08 36 100 C32.04 100 28.08 100 24 100 C24 70.96 24 41.92 24 12 C16.08 12 8.16 12 0 12 C0 8.04 0 4.08 0 0 Z " fill="#1F1D1E" transform="translate(671,81)"/>
<path d="M0 0 C3.96 0 7.92 0 12 0 C12 33 12 66 12 100 C8.04 100 4.08 100 0 100 C0 67 0 34 0 0 Z " fill="#201D1E" transform="translate(653,81)"/>
<path d="M0 0 C3.96 0 7.92 0 12 0 C12 33 12 66 12 100 C8.04 100 4.08 100 0 100 C0 67 0 34 0 0 Z " fill="#E51C24" transform="translate(424,81)"/>
<path d="M0 0 C4.3953741 3.54071803 6.68376332 7.65081322 7.4375 13.25 C6.28593578 23.12055047 1.4574031 30.50103075 -6 37 C-8.28125 37.77734375 -8.28125 37.77734375 -10 38 C-10 38.66 -10 39.32 -10 40 C-14 40 -14 40 -15.74609375 38.26953125 C-21.98564969 29.20560357 -28.51201483 17.42208791 -27 6 C-24.84968911 1.53025264 -22.08466286 -0.54641371 -17.5625 -2.4375 C-10.7478113 -3.51350348 -6.18839808 -3.26934238 0 0 Z " fill="#E71D25" transform="translate(93,108)"/>
<path d="M0 0 C0.33 0 0.66 0 1 0 C1 24.42 1 48.84 1 74 C11.62270115 70.28353835 11.62270115 70.28353835 18.375 62.1875 C18.58125 61.465625 18.7875 60.74375 19 60 C19.33 60 19.66 60 20 60 C20.25 66.625 20.25 66.625 18 70 C18.99 69.505 18.99 69.505 20 69 C20 71.31 20 73.62 20 76 C20.103125 75.401875 20.20625 74.80375 20.3125 74.1875 C21.10503854 71.66578648 21.91591409 70.60314301 24 69 C27 69 27 69 30 70 C23.98546472 79.39771138 16.72486413 84.00265806 6 87 C1.90969275 87.87405564 -1.97916915 88.50781157 -6 87 C-6 86.34 -6 85.68 -6 85 C-5.030625 84.87625 -4.06125 84.7525 -3.0625 84.625 C-1.5465625 84.315625 -1.5465625 84.315625 0 84 C0.495 83.01 0.495 83.01 1 82 C0.34 81.67 -0.32 81.34 -1 81 C-1 79.68 -1 78.36 -1 77 C0.98 77.33 2.96 77.66 5 78 C5 77.34 5 76.68 5 76 C3.02 76 1.04 76 -1 76 C-0.505 38.38 -0.505 38.38 0 0 Z " fill="#DE2228" transform="translate(385,94)"/>
<path d="M0 0 C1.98 0.495 1.98 0.495 4 1 C4 33.34 4 65.68 4 99 C3.01 98.34 2.02 97.68 1 97 C0.67879661 94.02315096 0.55222962 91.24953979 0.55175781 88.26757812 C0.53995987 87.3634166 0.52816193 86.45925507 0.51600647 85.5276947 C0.4806193 82.52883481 0.46661604 79.53028217 0.453125 76.53125 C0.43374843 74.45380567 0.4132055 72.37637192 0.39154053 70.2989502 C0.34912692 65.94101862 0.31649689 61.58316345 0.29150391 57.22509766 C0.25925254 51.62913026 0.20963581 46.03349583 0.15358353 40.43772125 C0.11135041 36.14678266 0.07486328 31.85581225 0.0404892 27.56480408 C0.02391529 25.50104459 0.00634251 23.43729288 -0.01222992 21.37355042 C-0.03660801 18.49317931 -0.05408045 15.6128539 -0.06933594 12.73242188 C-0.07756882 11.87313583 -0.0858017 11.01384979 -0.09428406 10.12852478 C-0.11467253 4.22934507 -0.11467253 4.22934507 1 2 C0.34 1.67 -0.32 1.34 -1 1 C-0.67 0.67 -0.34 0.34 0 0 Z " fill="#131112" transform="translate(993,81)"/>
<path d="M0 0 C3.96 0 7.92 0 12 0 C12 33 12 66 12 100 C9.03 100 6.06 100 3 100 C2.34 99.34 1.68 98.68 1 98 C3.97 98 6.94 98 10 98 C10 66.32 10 34.64 10 2 C7.36 2 4.72 2 2 2 C1.67 3.65 1.34 5.3 1 7 C0.67 7 0.34 7 0 7 C0 4.69 0 2.38 0 0 Z " fill="#151314" transform="translate(653,81)"/>
<path d="M0 0 C2.21059967 4.42119935 2.27016558 7.64879956 2.22705078 12.44042969 C2.22734283 13.28957443 2.22763489 14.13871918 2.22793579 15.01359558 C2.22654398 17.81645983 2.21098976 20.61905727 2.1953125 23.421875 C2.19158184 25.36671809 2.18873512 27.31156305 2.18673706 29.25640869 C2.17910477 34.37250975 2.1594597 39.48849707 2.1373291 44.60455322 C2.116862 49.82619691 2.10773349 55.047859 2.09765625 60.26953125 C2.07621348 70.51307078 2.04208235 80.75652593 2 91 C-1.96 91 -5.92 91 -10 91 C-10 84.07 -10 77.14 -10 70 C-9.01 69.505 -9.01 69.505 -8 69 C-8 75.6 -8 82.2 -8 89 C-5.525 88.505 -5.525 88.505 -3 88 C-2.01 88.33 -1.02 88.66 0 89 C0 59.63 0 30.26 0 0 Z " fill="#191717" transform="translate(864,90)"/>
<path d="M0 0 C3.4375 1.75 3.4375 1.75 5.4375 4.75 C6.10416667 11.75 6.10416667 11.75 3.8125 15.1875 C0.8715868 17.12231132 -1.03900456 17.67809193 -4.5625 17.75 C-8.68758633 16.02321967 -10.83571967 13.87508633 -12.5625 9.75 C-12.5625 6.6875 -12.5625 6.6875 -11.5625 3.75 C-7.70474904 -0.0062312 -5.29850483 -1.8591245 0 0 Z M-4.5625 5.75 C-4.8925 7.07 -5.2225 8.39 -5.5625 9.75 C-4.2425 10.08 -2.9225 10.41 -1.5625 10.75 C-1.2325 9.43 -0.9025 8.11 -0.5625 6.75 C-1.8825 6.42 -3.2025 6.09 -4.5625 5.75 Z " fill="#1D1A1B" transform="translate(84.5625,83.25)"/>
<path d="M0 0 C2.27159689 1.29033905 4.54229625 2.58221402 6.8125 3.875 C7.45509766 4.23980469 8.09769531 4.60460937 8.75976562 4.98046875 C11.56768798 6.58083901 14.30964298 8.20642866 17 10 C17.29296875 13.0390625 17.29296875 13.0390625 17.1875 16.625 C17.16042969 17.81351563 17.13335937 19.00203125 17.10546875 20.2265625 C17.07066406 21.14179688 17.03585937 22.05703125 17 23 C9.93463111 21.74646681 4.28543527 19.43796251 -2 16 C-2 15.34 -2 14.68 -2 14 C-1.34 14 -0.68 14 0 14 C0.66 12.35 1.32 10.7 2 9 C3.32 9 4.64 9 6 9 C5.28436734 6.9837767 5.28436734 6.9837767 4 5 C1.94999129 4.19471111 1.94999129 4.19471111 0 4 C0 2.68 0 1.36 0 0 Z " fill="#E41F27" transform="translate(252,161)"/>
<path d="M0 0 C0.66 0 1.32 0 2 0 C2.598125 0.928125 3.19625 1.85625 3.8125 2.8125 C6.13384975 6.19503821 7.32790256 7.30982912 11 9 C13.69591571 9.20952713 16.13450509 9.28744431 18.8125 9.1875 C19.50537109 9.17396484 20.19824219 9.16042969 20.91210938 9.14648438 C22.60841265 9.11138845 24.30431136 9.05758943 26 9 C25.67 9.66 25.34 10.32 25 11 C22.51476492 11.28767041 20.11856552 11.46748496 17.625 11.5625 C12.23664857 11.77116308 12.23664857 11.77116308 7 13 C7 13.99 7 14.98 7 16 C11.455 16.99 11.455 16.99 16 18 C15.67 19.32 15.34 20.64 15 22 C16.98 22.33 18.96 22.66 21 23 C21 23.33 21 23.66 21 24 C14.16950529 24.33050781 8.36683111 23.62376027 2 21 C0 19 0 19 -0.22705078 17.02880859 C-0.21657715 16.24328613 -0.20610352 15.45776367 -0.1953125 14.6484375 C-0.18886719 13.79765625 -0.18242188 12.946875 -0.17578125 12.0703125 C-0.15902344 11.18085938 -0.14226563 10.29140625 -0.125 9.375 C-0.11597656 8.4778125 -0.10695313 7.580625 -0.09765625 6.65625 C-0.0740497 4.43723414 -0.0411231 2.21874923 0 0 Z " fill="#DA2129" transform="translate(513,160)"/>
<path d="M0 0 C5.56823893 5.19616766 7.46567725 12.79945026 9 20 C8.34 20.66 7.68 21.32 7 22 C7 21.34 7 20.68 7 20 C6.34 19.67 5.68 19.34 5 19 C4.59270772 16.67843403 4.25561323 14.3431213 4 12 C3.34 12 2.68 12 2 12 C1.957279 13.66611905 1.95936168 15.33382885 2 17 C2.33 17.33 2.66 17.66 3 18 C3.25084859 21.28421935 3.18522291 24.58232808 3.1875 27.875 C3.19974609 28.79925781 3.21199219 29.72351563 3.22460938 30.67578125 C3.22750977 32.00802734 3.22750977 32.00802734 3.23046875 33.3671875 C3.23457764 34.18300293 3.23868652 34.99881836 3.24291992 35.83935547 C3 38 3 38 1 41 C0.34 41 -0.32 41 -1 41 C-1 41.99 -1 42.98 -1 44 C-1.99 44 -2.98 44 -4 44 C-3.731875 43.34 -3.46375 42.68 -3.1875 42 C-2.795625 41.01 -2.40375 40.02 -2 39 C-1.73574219 38.38382813 -1.47148438 37.76765625 -1.19921875 37.1328125 C0.6605578 32.60236158 1.47868207 28.97829357 1 24 C0.34219247 22.66227377 -0.32546721 21.32937118 -1 20 C-1.76742696 17.49280408 -2.44529821 14.97076786 -3.12109375 12.4375 C-4.05336032 9.85201405 -5.34835861 8.17177155 -7 6 C-7.1875 3.25 -7.1875 3.25 -7 1 C-4.42848044 -0.28575978 -2.85057029 -0.33357737 0 0 Z " fill="#191516" transform="translate(98,94)"/>
<path d="M0 0 C1.50046875 0.00386719 1.50046875 0.00386719 3.03125 0.0078125 C4.0315625 0.00523438 5.031875 0.00265625 6.0625 0 C8.53125 0.1328125 8.53125 0.1328125 9.53125 1.1328125 C9.61990208 4.0171507 9.64646296 6.87743408 9.62890625 9.76171875 C9.6274913 10.62594955 9.62607635 11.49018036 9.62461853 12.38059998 C9.61900239 15.15220542 9.60644719 17.9237313 9.59375 20.6953125 C9.58873708 22.5696603 9.58417381 24.44400935 9.58007812 26.31835938 C9.56902772 30.92320794 9.5517523 35.52799671 9.53125 40.1328125 C10.67339966 40.12495728 10.67339966 40.12495728 11.83862305 40.11694336 C15.29865692 40.09611725 18.75867759 40.08313437 22.21875 40.0703125 C23.41693359 40.06193359 24.61511719 40.05355469 25.84960938 40.04492188 C27.00654297 40.04169922 28.16347656 40.03847656 29.35546875 40.03515625 C30.41854248 40.02991943 31.48161621 40.02468262 32.5769043 40.01928711 C35.3447009 40.12564406 37.83917897 40.50386462 40.53125 41.1328125 C40.03625 42.1228125 40.03625 42.1228125 39.53125 43.1328125 C28.97125 42.8028125 18.41125 42.4728125 7.53125 42.1328125 C7.53125 28.9328125 7.53125 15.7328125 7.53125 2.1328125 C4.56125 2.1328125 1.59125 2.1328125 -1.46875 2.1328125 C-1.46875 6.0928125 -1.46875 10.0528125 -1.46875 14.1328125 C-2.12875 13.8028125 -2.78875 13.4728125 -3.46875 13.1328125 C-3.49561553 11.15371852 -3.51508375 9.17452279 -3.53125 7.1953125 C-3.54285156 6.09316406 -3.55445313 4.99101563 -3.56640625 3.85546875 C-3.43474599 0.18478064 -3.43474599 0.18478064 0 0 Z " fill="#181617" transform="translate(813.46875,80.8671875)"/>
<path d="M0 0 C3.43558 2.29038667 3.87884558 3.12934783 5 7 C5.1953125 10.55078125 5.1953125 10.55078125 5.125 14.3125 C5.10695313 15.56675781 5.08890625 16.82101563 5.0703125 18.11328125 C5.04710937 19.06589844 5.02390625 20.01851562 5 21 C4.01 21.33 3.02 21.66 2 22 C1.67 21.34 1.34 20.68 1 20 C-0.32 21.32 -1.64 22.64 -3 24 C-3.99 22.68 -4.98 21.36 -6 20 C-5.34 19.67 -4.68 19.34 -4 19 C-4.02320313 18.22914062 -4.04640625 17.45828125 -4.0703125 16.6640625 C-4.08835937 15.66117188 -4.10640625 14.65828125 -4.125 13.625 C-4.14820313 12.62726563 -4.17140625 11.62953125 -4.1953125 10.6015625 C-4 8 -4 8 -2 6 C-2 5.01 -2 4.02 -2 3 C-2 2.34 -2 1.68 -2 1 C-1.34 0.67 -0.68 0.34 0 0 Z " fill="#EA1A23" transform="translate(408,93)"/>
<path d="M0 0 C4.4437077 3.70308975 5.63958619 7.48438457 6.22265625 13.171875 C6.56578277 21.82463074 2.89144397 28.48548751 -1 36 C-1.33 36 -1.66 36 -2 36 C-2.33 33.36 -2.66 30.72 -3 28 C-6.17881179 27.68988221 -6.17881179 27.68988221 -8.6875 30.125 C-11.28980297 32.81988284 -11.28980297 32.81988284 -11.3125 36.3125 C-11.209375 37.199375 -11.10625 38.08625 -11 39 C-12.32 38.34 -13.64 37.68 -15 37 C-15 33.44272299 -14.48896633 33.1476085 -12.125 30.6875 C-9.37490828 27.63904928 -7.98692526 25.04639357 -7 21 C-6.01 21.99 -5.02 22.98 -4 24 C-2.35 22.68 -0.7 21.36 1 20 C1.33 20.66 1.66 21.32 2 22 C2.66 22 3.32 22 4 22 C3.91224337 19.79095369 3.80405633 17.58271407 3.6875 15.375 C3.62949219 14.14523438 3.57148438 12.91546875 3.51171875 11.6484375 C2.97853045 7.846927 1.8273626 5.3411831 0 2 C0 1.34 0 0.68 0 0 Z " fill="#D8232C" transform="translate(409,92)"/>
<path d="M0 0 C0.33 0 0.66 0 1 0 C0.88541307 1.43836751 0.75790884 2.87570966 0.625 4.3125 C0.55539062 5.11300781 0.48578125 5.91351563 0.4140625 6.73828125 C0 9 0 9 -2 12 C-0.35 11.67 1.3 11.34 3 11 C3 14.27275026 2.70074844 16.846632 2 20 C2.99 20.33 3.98 20.66 5 21 C3.87926138 21.83905565 2.75325453 22.67107831 1.625 23.5 C0.99851562 23.9640625 0.37203125 24.428125 -0.2734375 24.90625 C-2 26 -2 26 -4 26 C-3.690625 25.071875 -3.690625 25.071875 -3.375 24.125 C-3.25125 23.42375 -3.1275 22.7225 -3 22 C-3.66 21.34 -4.32 20.68 -5 20 C-4.01 19.67 -3.02 19.34 -2 19 C-2 17.68 -2 16.36 -2 15 C-2.66 15 -3.32 15 -4 15 C-4 15.66 -4 16.32 -4 17 C-4.99 17.33 -5.98 17.66 -7 18 C-7 16.68 -7 15.36 -7 14 C-7.66 13.67 -8.32 13.34 -9 13 C-8.2575 12.525625 -7.515 12.05125 -6.75 11.5625 C-3.13798977 8.19676319 -1.74022551 4.54986335 0 0 Z " fill="#DE2029" transform="translate(548,155)"/>
<path d="M0 0 C1.65 0.33 3.3 0.66 5 1 C6.3595722 5.0787166 5.67149897 8.07809265 4 12 C1.5625 14.0625 1.5625 14.0625 -1 15 C-1.99 14.67 -2.98 14.34 -4 14 C-4.33 13.01 -4.66 12.02 -5 11 C-5.99 11 -6.98 11 -8 11 C-8 10.01 -8 9.02 -8 8 C-7.34 8 -6.68 8 -6 8 C-6 7.34 -6 6.68 -6 6 C-5.195625 5.525625 -4.39125 5.05125 -3.5625 4.5625 C-0.7081924 3.20016328 -0.7081924 3.20016328 0 0 Z " fill="#E91C26" transform="translate(254,124)"/>
<path d="M0 0 C5.76485739 4.73541857 8.02215705 11.33841851 8.875 18.5625 C9.1849763 23.45323712 8.49141558 27.3502926 7 32 C5.49039907 27.25890959 5.97754928 22.42433559 6.0625 17.5078125 C6.00353675 14.19850026 5.76664539 11.21895827 5 8 C3.04836882 6.56362302 3.04836882 6.56362302 1 6 C0.67 7.32 0.34 8.64 0 10 C-0.66 10 -1.32 10 -2 10 C-2 11.32 -2 12.64 -2 14 C-2.66 14 -3.32 14 -4 14 C-4 12.68 -4 11.36 -4 10 C-4.99 10 -5.98 10 -7 10 C-6.01 11.485 -6.01 11.485 -5 13 C-4.875 16.1875 -4.875 16.1875 -5 19 C-6.73662334 15.77484237 -7.8905928 12.48670834 -9 9 C-8.401875 8.7525 -7.80375 8.505 -7.1875 8.25 C-4.71222841 6.83555909 -3.66569196 5.27139812 -2 3 C-1.34 3 -0.68 3 0 3 C0 2.01 0 1.02 0 0 Z " fill="#E02028" transform="translate(554,132)"/>
<path d="M0 0 C0.33 0 0.66 0 1 0 C1.02314716 7.39732867 1.04092723 14.79464955 1.05181217 22.19200706 C1.05703579 25.62671562 1.06412401 29.06139943 1.07543945 32.49609375 C1.08836035 36.44270535 1.09323252 40.38930684 1.09765625 44.3359375 C1.10281754 45.57242035 1.10797882 46.8089032 1.11329651 48.08285522 C1.11337204 49.22388702 1.11344757 50.36491882 1.11352539 51.54052734 C1.115746 52.548685 1.11796661 53.55684265 1.12025452 54.59555054 C1 57 1 57 0 59 C1.485 58.505 1.485 58.505 3 58 C5.26171875 58.12109375 5.26171875 58.12109375 7.6875 58.4375 C8.49574219 58.53933594 9.30398438 58.64117187 10.13671875 58.74609375 C10.75160156 58.82988281 11.36648438 58.91367188 12 59 C12 59.66 12 60.32 12 61 C7.71 61 3.42 61 -1 61 C-1.22434738 40.65917112 -0.55900612 20.33087425 0 0 Z " fill="#181717" transform="translate(811,120)"/>
<path d="M0 0 C0.99 0 1.98 0 3 0 C3 0.66 3 1.32 3 2 C3.99 2 4.98 2 6 2 C6 5.3 6 8.6 6 12 C1.32538149 12.32613618 -1.16674383 11.70582788 -5 9 C-4.42906864 5.6885981 -3.45395174 4.24945577 -1 2 C-0.67 1.34 -0.34 0.68 0 0 Z " fill="#EB1A22" transform="translate(261,169)"/>
<path d="M0 0 C3.96 0 7.92 0 12 0 C11.67 2.64 11.34 5.28 11 8 C10.67 8 10.34 8 10 8 C10 6.02 10 4.04 10 2 C7.36 2 4.72 2 2 2 C2 12.56 2 23.12 2 34 C1.34 34 0.68 34 0 34 C0 22.78 0 11.56 0 0 Z " fill="#1C1A1B" transform="translate(854,81)"/>
<path d="M0 0 C8.30467699 0.26789281 14.75732923 2.78586737 20.7421875 8.73046875 C21.89429471 10.10063015 22.95948732 11.54328224 24 13 C21.07909997 11.69063102 19.24380538 10.24380538 17 8 C16.01 7.67 15.02 7.34 14 7 C14 6.34 14 5.68 14 5 C11.36 5.33 8.72 5.66 6 6 C6 6.66 6 7.32 6 8 C3.23735711 8.59732819 0.83967231 9 -2 9 C-2 8.34 -2 7.68 -2 7 C-1.34 7 -0.68 7 0 7 C0 6.34 0 5.68 0 5 C0.66 5 1.32 5 2 5 C2 3.68 2 2.36 2 1 C1.34 0.67 0.68 0.34 0 0 Z " fill="#DB222E" transform="translate(232,82)"/>
<path d="M0 0 C4.28365746 1.42788582 6.46295815 2.19443722 9 6 C9.66666667 13 9.66666667 13 7.375 16.4375 C4.4340868 18.37231132 2.52349544 18.92809193 -1 19 C-3.87872577 17.6260627 -5.74989437 16.25010563 -8 14 C-7.625 10.375 -7.625 10.375 -7 7 C-6.67 7 -6.34 7 -6 7 C-5.731875 8.11375 -5.46375 9.2275 -5.1875 10.375 C-4.34190981 14.21840951 -4.34190981 14.21840951 -1 16 C1.55936559 15.67147918 1.55936559 15.67147918 4 15 C4.66 15 5.32 15 6 15 C6.93786082 9.94990405 6.93786082 9.94990405 6 5 C4.18703385 4.37907282 4.18703385 4.37907282 2 4 C0.3255761 3.3530635 -1.34302621 2.69040574 -3 2 C-2.01 1.34 -1.02 0.68 0 0 Z " fill="#181414" transform="translate(81,82)"/>
<path d="M0 0 C4 4.75 4 4.75 4 7 C2.34928604 8.02611949 0.68029994 9.02308143 -1 10 C-2.92005135 11.25117962 -2.92005135 11.25117962 -4 13 C-3.76956136 15.65466049 -3.76956136 15.65466049 -3 18 C-7.18659858 14.17225273 -10.37820862 10.05392126 -13 5 C-13 4.34 -13 3.68 -13 3 C-12.01 3.33 -11.02 3.66 -10 4 C-10 4.99 -10 5.98 -10 7 C-9.34 7 -8.68 7 -8 7 C-7.67 7.66 -7.34 8.32 -7 9 C-6.34 9 -5.68 9 -5 9 C-4.690625 8.38125 -4.38125 7.7625 -4.0625 7.125 C-3.375 5.75 -2.6875 4.375 -2 3 C-1.34 3 -0.68 3 0 3 C0 2.01 0 1.02 0 0 Z " fill="#DF212A" transform="translate(281,149)"/>
<path d="M0 0 C1 3 1 3 1 5 C2.0725 4.649375 3.145 4.29875 4.25 3.9375 C7.78720743 3.05319814 8.74811124 2.97119449 12 4 C0.01312554 9.35940096 -13.69186163 10.14056656 -26.1875 6 C-27.80376421 5.36322285 -29.41411496 4.70905838 -31 4 C-27.74644474 2.90581995 -26.18321549 3.08978218 -23.0625 4.4375 C-17.12374394 6.62232664 -11.24404536 6.26057067 -5 6 C-4.87753906 5.36578125 -4.75507813 4.7315625 -4.62890625 4.078125 C-4 2 -4 2 -1.9375 0.75 C-1.298125 0.5025 -0.65875 0.255 0 0 Z " fill="#D1252C" transform="translate(326,176)"/>
<path d="M0 0 C0.33 0.66 0.66 1.32 1 2 C0.67 2.66 0.34 3.32 0 4 C0.66 4.33 1.32 4.66 2 5 C0.625 7.5 0.625 7.5 -1 10 C-1.66 10 -2.32 10 -3 10 C-3.33 10.99 -3.66 11.98 -4 13 C-4.99 13 -5.98 13 -7 13 C-7.33 12.01 -7.66 11.02 -8 10 C-8.33 10.33 -8.66 10.66 -9 11 C-12.66531671 11.40725741 -14.39771874 11.43240706 -17.4375 9.25 C-19 7 -19 7 -18.75 4.75 C-18.37875 3.88375 -18.37875 3.88375 -18 3 C-14 7.75 -14 7.75 -14 10 C-12.68 10 -11.36 10 -10 10 C-10 9.34 -10 8.68 -10 8 C-8.01399663 6.6459068 -6.01182457 5.31542376 -4 4 C-2.63113049 2.70317626 -1.2830709 1.38176866 0 0 Z " fill="#39191A" transform="translate(93,138)"/>
<path d="M0 0 C0.66 0 1.32 0 2 0 C1.979375 0.969375 1.95875 1.93875 1.9375 2.9375 C1.64381501 5.87465895 1.64381501 5.87465895 3 7 C3.25084859 10.28421935 3.18522291 13.58232808 3.1875 16.875 C3.19974609 17.79925781 3.21199219 18.72351563 3.22460938 19.67578125 C3.22654297 20.56394531 3.22847656 21.45210937 3.23046875 22.3671875 C3.23457764 23.18300293 3.23868652 23.99881836 3.24291992 24.83935547 C3 27 3 27 1 30 C0.34 30 -0.32 30 -1 30 C-1 30.99 -1 31.98 -1 33 C-1.99 33 -2.98 33 -4 33 C-3.731875 32.34 -3.46375 31.68 -3.1875 31 C-2.795625 30.01 -2.40375 29.02 -2 28 C-1.60361328 27.07574219 -1.60361328 27.07574219 -1.19921875 26.1328125 C0.6605578 21.60236158 1.47868207 17.97829357 1 13 C0.09166275 10.93330603 0.09166275 10.93330603 -1 9 C-1.75 5.9375 -1.75 5.9375 -2 3 C-1.34 2.01 -0.68 1.02 0 0 Z " fill="#2F1414" transform="translate(98,105)"/>
<path d="M0 0 C0.99 1.485 0.99 1.485 2 3 C1.401875 2.690625 0.80375 2.38125 0.1875 2.0625 C-3.46916038 0.28640782 -6.35244428 -0.15994825 -10.375 -0.1875 C-11.31085938 -0.20167969 -12.24671875 -0.21585937 -13.2109375 -0.23046875 C-16.22014979 0.01819165 -18.33560792 0.58307064 -21 2 C-21.33 2.99 -21.66 3.98 -22 5 C-22.66 5 -23.32 5 -24 5 C-24 5.66 -24 6.32 -24 7 C-24.66 7 -25.32 7 -26 7 C-26 8.32 -26 9.64 -26 11 C-25.34 11 -24.68 11 -24 11 C-24 13.97 -24 16.94 -24 20 C-26.94567038 15.58149443 -27.41116557 11.26438771 -27 6 C-24.90821173 1.52325617 -22.05584439 -0.55846508 -17.5625 -2.4375 C-10.67074974 -3.52567109 -6.12008639 -3.24004574 0 0 Z " fill="#C42A31" transform="translate(93,108)"/>
<path d="M0 0 C3.96 0 7.92 0 12 0 C12.02707879 3.85421425 12.04687762 7.70823638 12.0625 11.5625 C12.07087891 12.64853516 12.07925781 13.73457031 12.08789062 14.85351562 C12.10459218 20.34832611 11.98582259 25.58961935 11 31 C10.67 31 10.34 31 10 31 C9.67 21.76 9.34 12.52 9 3 C4.545 2.01 4.545 2.01 0 1 C0 0.67 0 0.34 0 0 Z " fill="#151314" transform="translate(593,81)"/>
<path d="M0 0 C0.33 0 0.66 0 1 0 C1 9.57 1 19.14 1 29 C-1 28 -1 28 -1.8515625 25.85546875 C-2.23441406 24.53482422 -2.23441406 24.53482422 -2.625 23.1875 C-3.01558594 21.87845703 -3.01558594 21.87845703 -3.4140625 20.54296875 C-4 18 -4 18 -4 14 C-3.51917969 13.53980469 -3.03835938 13.07960937 -2.54296875 12.60546875 C-0.33924846 10.31248384 -0.49621027 8.43557456 -0.3125 5.3125 C-0.24675781 4.31863281 -0.18101562 3.32476562 -0.11328125 2.30078125 C-0.07589844 1.54152344 -0.03851562 0.78226562 0 0 Z " fill="#2D2B2C" transform="translate(985,120)"/>
<path d="M0 0 C11.05457753 0.24715519 21.38373309 3.14116848 32 6 C31.01 6.99 30.02 7.98 29 9 C27.9275 8.54625 26.855 8.0925 25.75 7.625 C21.07929921 5.83889718 16.3820782 5.17661854 11.44140625 4.52734375 C10.63574219 4.35332031 9.83007812 4.17929688 9 4 C8.67 3.34 8.34 2.68 8 2 C5.36 2 2.72 2 0 2 C0 1.34 0 0.68 0 0 Z " fill="#171515" transform="translate(126,112)"/>
<path d="M0 0 C2.475 1.485 2.475 1.485 5 3 C3 5 3 5 0.38623047 5.22705078 C-0.69255371 5.21657715 -1.77133789 5.20610352 -2.8828125 5.1953125 C-4.04941406 5.18886719 -5.21601562 5.18242187 -6.41796875 5.17578125 C-7.64128906 5.15902344 -8.86460937 5.14226562 -10.125 5.125 C-11.35605469 5.11597656 -12.58710937 5.10695312 -13.85546875 5.09765625 C-16.90383815 5.07402548 -19.95182382 5.04108054 -23 5 C-23.33 4.34 -23.66 3.68 -24 3 C-15.97875848 2.28586721 -8.05358138 1.85474503 0 2 C0 1.34 0 0.68 0 0 Z " fill="#1A1819" transform="translate(906,176)"/>
<path d="M0 0 C3.63 0 7.26 0 11 0 C9.60804085 2.7839183 7.84424221 2.97898997 5 4 C5.66 4 6.32 4 7 4 C7.2475 4.639375 7.495 5.27875 7.75 5.9375 C8.78813195 8.19635114 8.78813195 8.19635114 11 8.5 C13 9 13 9 14.25 11.0625 C14.4975 11.701875 14.745 12.34125 15 13 C10.88034833 12.43109572 8.41059896 10.20866423 5.25 7.625 C4.26515625 6.83351563 3.2803125 6.04203125 2.265625 5.2265625 C1.51796875 4.49179688 0.7703125 3.75703125 0 3 C0 2.01 0 1.02 0 0 Z " fill="#161415" transform="translate(46,81)"/>
<path d="M0 0 C0.33 0 0.66 0 1 0 C2.06059488 7.68931285 2.09928082 15.24506486 2 23 C-1.96 23 -5.92 23 -10 23 C-10 22.34 -10 21.68 -10 21 C-5.97128525 19.96404478 -4.34944269 20.13011146 0 21 C0 14.07 0 7.14 0 0 Z " fill="#191718" transform="translate(603,158)"/>
<path d="M0 0 C-2 2 -2 2 -4.6015625 2.1953125 C-5.59929687 2.17210938 -6.59703125 2.14890625 -7.625 2.125 C-9.12933594 2.09792969 -9.12933594 2.09792969 -10.6640625 2.0703125 C-11.43492188 2.04710938 -12.20578125 2.02390625 -13 2 C-13.33 2.66 -13.66 3.32 -14 4 C-16.06640625 4.6328125 -16.06640625 4.6328125 -18.5625 5.125 C-19.38878906 5.29257813 -20.21507813 5.46015625 -21.06640625 5.6328125 C-21.70449219 5.75398438 -22.34257813 5.87515625 -23 6 C-23.33 5.34 -23.66 4.68 -24 4 C-15.49472453 -0.06363161 -9.35388791 -1.35111714 0 0 Z " fill="#181517" transform="translate(96,71)"/>
<path d="M0 0 C2.475 0.99 2.475 0.99 5 2 C5 6.29 5 10.58 5 15 C-0.73058676 13.85388265 -5.71024662 12.47605477 -11 10 C-8.60004452 9.14287304 -7.48394488 8.77415906 -5.125 9.875 C-4.42375 10.24625 -3.7225 10.6175 -3 11 C-1.00889599 11.38290462 0.99100513 11.72604615 3 12 C3 8.7 3 5.4 3 2 C2.01 2 1.02 2 0 2 C0 1.34 0 0.68 0 0 Z " fill="#C43037" transform="translate(264,169)"/>
<path d="M0 0 C1.87890625 0.4921875 1.87890625 0.4921875 4.69140625 1.6171875 C6.2986626 4.83170019 5.7488881 8.05331286 5.69140625 11.6171875 C5.36140625 10.6271875 5.03140625 9.6371875 4.69140625 8.6171875 C3.70140625 8.2871875 2.71140625 7.9571875 1.69140625 7.6171875 C2.02140625 6.2971875 2.35140625 4.9771875 2.69140625 3.6171875 C2.03140625 3.6171875 1.37140625 3.6171875 0.69140625 3.6171875 C0.69140625 2.9571875 0.69140625 2.2971875 0.69140625 1.6171875 C-5.24859375 1.6171875 -11.18859375 1.6171875 -17.30859375 1.6171875 C-12.27262626 -1.74012416 -5.85702039 -0.97121489 0 0 Z " fill="#D31E27" transform="translate(546.30859375,79.3828125)"/>
<path d="M0 0 C-0.99298734 2.05493214 -2.01852733 4.02998815 -3.21875 5.97265625 C-6.79773173 11.81032462 -8.1530281 17.23686618 -9 24 C-9.33 24 -9.66 24 -10 24 C-10.12036664 18.22240116 -9.8320582 12.72040011 -9 7 C-8.34 7 -7.68 7 -7 7 C-6.67 6.01 -6.34 5.02 -6 4 C-2.45714286 0 -2.45714286 0 0 0 Z " fill="#CF252B" transform="translate(287,105)"/>
<path d="M0 0 C0 0.99 0 1.98 0 3 C0.66 3 1.32 3 2 3 C0.95125002 5.62187494 0.35068687 6.79371361 -2.125 8.25 C-2.74375 8.4975 -3.3625 8.745 -4 9 C-4.66 8.34 -5.32 7.68 -6 7 C-8.66242821 6.53709779 -8.66242821 6.53709779 -11.625 6.375 C-12.62789063 6.30023438 -13.63078125 6.22546875 -14.6640625 6.1484375 C-15.43492187 6.09945312 -16.20578125 6.05046875 -17 6 C-17 5.67 -17 5.34 -17 5 C-16.27554687 4.89042969 -15.55109375 4.78085938 -14.8046875 4.66796875 C-9.33712777 3.77128895 -4.77713197 2.84045685 0 0 Z " fill="#D8222A" transform="translate(336,165)"/>
<path d="M0 0 C1.1446875 0.12375 1.1446875 0.12375 2.3125 0.25 C3.91589848 3.36771927 4.50224141 4.64011689 3.4375 8.0625 C3.06625 8.784375 2.695 9.50625 2.3125 10.25 C1.6525 10.25 0.9925 10.25 0.3125 10.25 C1.1875 4.5 1.1875 4.5 2.3125 2.25 C0.3476761 2.7681036 0.3476761 2.7681036 -1.6875 4.25 C-2.75652939 6.55252483 -3.75925817 8.8872026 -4.6875 11.25 C-5.3475 11.91 -6.0075 12.57 -6.6875 13.25 C-6.19416993 5.28867336 -6.19416993 5.28867336 -4.4375 1.6875 C-2.6875 0.25 -2.6875 0.25 0 0 Z " fill="#181515" transform="translate(115.6875,110.75)"/>
<path d="M0 0 C7.53171922 0.17296224 12.70281864 1.87793201 19 6 C17.68 6.33 16.36 6.66 15 7 C14.67 6.34 14.34 5.68 14 5 C12.906875 5.20625 11.81375 5.4125 10.6875 5.625 C7 6 7 6 4 4 C4.33 3.01 4.66 2.02 5 1 C3.35 1 1.7 1 0 1 C0 0.67 0 0.34 0 0 Z " fill="#D8232A" transform="translate(387,82)"/>
<path d="M0 0 C0.99 0 1.98 0 3 0 C3 4.95 3 9.9 3 15 C1.35 14.67 -0.3 14.34 -2 14 C-1.67 13.34 -1.34 12.68 -1 12 C-0.34 12 0.32 12 1 12 C0.74438677 9.6568787 0.40729228 7.32156597 0 5 C-0.66 4.67 -1.32 4.34 -2 4 C-1.34 2.68 -0.68 1.36 0 0 Z " fill="#1A1919" transform="translate(644,169)"/>
<path d="M0 0 C5.1479896 5.1479896 6.95810931 11.90518539 7.03125 19.0546875 C6.49645522 26.25531716 6.49645522 26.25531716 4 30 C4.01160156 28.77023438 4.02320313 27.54046875 4.03515625 26.2734375 C4.04454022 24.64062653 4.05363977 23.0078139 4.0625 21.375 C4.07087891 20.56675781 4.07925781 19.75851563 4.08789062 18.92578125 C4.1058955 14.49658082 3.89622662 10.36116576 3 6 C2.01 5.67 1.02 5.34 0 5 C0 3.35 0 1.7 0 0 Z " fill="#C42C30" transform="translate(556,134)"/>
<path d="M0 0 C0.33 0 0.66 0 1 0 C1.17015625 0.96679688 1.3403125 1.93359375 1.515625 2.9296875 C2.942752 10.70782989 4.77618202 17.73914869 8 25 C8.33 25.99 8.66 26.98 9 28 C8.01 28 7.02 28 6 28 C6 26.68 6 25.36 6 24 C5.34 24 4.68 24 4 24 C1.38822878 15.9081731 -0.71240023 8.58838053 0 0 Z " fill="#4E1316" transform="translate(65,113)"/>
<path d="M0 0 C0.66 0.33 1.32 0.66 2 1 C1.67 1.99 1.34 2.98 1 4 C3.97 4.495 3.97 4.495 7 5 C7 5.33 7 5.66 7 6 C0.22405887 6.32786812 -5.70906089 5.7210808 -12 3 C-12.33 2.34 -12.66 1.68 -13 1 C-9.7 1.99 -6.4 2.98 -3 4 C-2.67 3.01 -2.34 2.02 -2 1 C-1.34 0.67 -0.68 0.34 0 0 Z " fill="#CF2727" transform="translate(527,178)"/>
<path d="M0 0 C0.99 0.495 0.99 0.495 2 1 C2 2.32 2 3.64 2 5 C2.66 5 3.32 5 4 5 C4 4.34 4 3.68 4 3 C4.99 3.33 5.98 3.66 7 4 C6.67 7.3 6.34 10.6 6 14 C3.31856262 11.31856262 2.50843705 10.34103049 1.3125 7 C1.06113281 6.319375 0.80976563 5.63875 0.55078125 4.9375 C0 3 0 3 0 0 Z " fill="#D6242C" transform="translate(231,149)"/>
<path d="M0 0 C2.125 0.375 2.125 0.375 4 1 C2.02 1.99 2.02 1.99 0 3 C0.42594588 4.44096586 0.86626633 5.87768712 1.3125 7.3125 C1.67794922 8.51326172 1.67794922 8.51326172 2.05078125 9.73828125 C3.04182023 12.09964573 4.08074943 13.33879993 6 15 C5.67 15.66 5.34 16.32 5 17 C4.34 16.34 3.68 15.68 3 15 C-0.08347826 14.83318891 -0.08347826 14.83318891 -3 15 C-3 14.01 -3 13.02 -3 12 C-2.01 12 -1.02 12 0 12 C-0.495 10.9171875 -0.495 10.9171875 -1 9.8125 C-2.02083172 6.94141078 -2.32596895 5.01521279 -2 2 C-1.34 1.34 -0.68 0.68 0 0 Z " fill="#CD2B31" transform="translate(245,144)"/>
<path d="M0 0 C3.22705502 4.84058253 3.49711787 10.7863087 2.61328125 16.5 C2.1467855 18.35274906 1.58354229 20.18072109 1 22 C0.67 22 0.34 22 0 22 C-0.93315681 17.12684776 -0.91367455 13.06680685 -0.2578125 8.15625 C0.0683318 5.4284977 0.07034816 2.74357826 0 0 Z M-3 15 C-2.34 15.66 -1.68 16.32 -1 17 C-1.99 17.495 -1.99 17.495 -3 18 C-3 17.01 -3 16.02 -3 15 Z " fill="#D0222C" transform="translate(261,105)"/>
<path d="M0 0 C0.66 0 1.32 0 2 0 C2 0.66 2 1.32 2 2 C2.99 2 3.98 2 5 2 C4.67 2.99 4.34 3.98 4 5 C4.09406754 7.29453495 4.09406754 7.29453495 4.4375 9.6875 C4.59025391 10.89986328 4.59025391 10.89986328 4.74609375 12.13671875 C4.82988281 12.75160156 4.91367188 13.36648437 5 14 C4.01 14 3.02 14 2 14 C1.66179834 12.4176994 1.32964061 10.83410625 1 9.25 C0.814375 8.36828125 0.62875 7.4865625 0.4375 6.578125 C0 4 0 4 0 0 Z " fill="#171616" transform="translate(142,77)"/>
<path d="M0 0 C0.99 0.33 1.98 0.66 3 1 C3 1.99 3 2.98 3 4 C3.66 4 4.32 4 5 4 C5.33 4.66 5.66 5.32 6 6 C8.02463255 6.65213292 8.02463255 6.65213292 10 7 C9.835 7.763125 9.67 8.52625 9.5 9.3125 C8.90854604 12.03596236 8.90854604 12.03596236 9 15 C0 3.26213592 0 3.26213592 0 0 Z " fill="#D7242F" transform="translate(268,152)"/>
<path d="M0 0 C0.66 0.33 1.32 0.66 2 1 C0.64908476 5.42117715 -1.1650145 7.443343 -5 10 C-7.1875 10.875 -7.1875 10.875 -9 11 C-9.66 10.34 -10.32 9.68 -11 9 C-10.05125 8.566875 -9.1025 8.13375 -8.125 7.6875 C-4.79958063 6.20697799 -4.79958063 6.20697799 -3 3 C-2.34 3 -1.68 3 -1 3 C-0.67 2.01 -0.34 1.02 0 0 Z " fill="#191718" transform="translate(192,121)"/>
<path d="M0 0 C0.99 0.66 1.98 1.32 3 2 C1.58994275 3.15395711 0.17166542 4.29787466 -1.25 5.4375 C-2.43335938 6.39462891 -2.43335938 6.39462891 -3.640625 7.37109375 C-5.86247492 8.90505305 -7.36743482 9.57130246 -10 10 C-9.34 9.01 -8.68 8.02 -8 7 C-7.01 7 -6.02 7 -5 7 C-5.99 6.67 -6.98 6.34 -8 6 C-7.67 4.68 -7.34 3.36 -7 2 C-4.69 2.33 -2.38 2.66 0 3 C0 2.01 0 1.02 0 0 Z " fill="#DB222C" transform="translate(350,168)"/>
<path d="M0 0 C5 3 5 3 5.8125 5.6875 C5.874375 6.450625 5.93625 7.21375 6 8 C4.68 7.67 3.36 7.34 2 7 C1.67 8.65 1.34 10.3 1 12 C0.67 12 0.34 12 0 12 C0 8.04 0 4.08 0 0 Z " fill="#F31723" transform="translate(515,164)"/>
<path d="M0 0 C0.99 0.66 1.98 1.32 3 2 C3 2.66 3 3.32 3 4 C1.09392715 5.06092734 -0.82532746 6.09820101 -2.75 7.125 C-3.81734375 7.70507812 -4.8846875 8.28515625 -5.984375 8.8828125 C-9 10 -9 10 -11.390625 9.1796875 C-11.92171875 8.79039062 -12.4528125 8.40109375 -13 8 C-12.22914063 7.84144531 -11.45828125 7.68289062 -10.6640625 7.51953125 C-9.66117188 7.28621094 -8.65828125 7.05289063 -7.625 6.8125 C-6.62726563 6.59207031 -5.62953125 6.37164062 -4.6015625 6.14453125 C-1.76877637 5.2232966 -1.76877637 5.2232966 -0.6484375 2.38671875 C-0.43445313 1.59910156 -0.22046875 0.81148437 0 0 Z " fill="#151415" transform="translate(159,147)"/>
<path d="M0 0 C0.33 0 0.66 0 1 0 C1.06058594 0.84304687 1.12117188 1.68609375 1.18359375 2.5546875 C1.26738281 3.65039062 1.35117187 4.74609375 1.4375 5.875 C1.51871094 6.96554688 1.59992188 8.05609375 1.68359375 9.1796875 C1.83001703 11.94728971 1.83001703 11.94728971 3 14 C3.66 14.33 4.32 14.66 5 15 C4.34 15.66 3.68 16.32 3 17 C2.75787127 18.98128508 2.75787127 18.98128508 2.875 21.125 C2.936875 23.043125 2.936875 23.043125 3 25 C-0.61240229 19.58139657 -0.118648 13.40722372 -0.0625 7.0625 C-0.05798828 6.37865234 -0.05347656 5.69480469 -0.04882812 4.99023438 C-0.0371956 3.32678396 -0.01926694 1.6633795 0 0 Z " fill="#CF242D" transform="translate(264,124)"/>
<path d="M0 0 C1.51400391 0.01740234 1.51400391 0.01740234 3.05859375 0.03515625 C4.07050781 0.04417969 5.08242188 0.05320312 6.125 0.0625 C7.29869141 0.07990234 7.29869141 0.07990234 8.49609375 0.09765625 C8.49609375 0.42765625 8.49609375 0.75765625 8.49609375 1.09765625 C5.19609375 1.42765625 1.89609375 1.75765625 -1.50390625 2.09765625 C-1.50390625 6.05765625 -1.50390625 10.01765625 -1.50390625 14.09765625 C-2.16390625 13.76765625 -2.82390625 13.43765625 -3.50390625 13.09765625 C-3.53077178 11.11856227 -3.55024 9.13936654 -3.56640625 7.16015625 C-3.57800781 6.05800781 -3.58960938 4.95585938 -3.6015625 3.8203125 C-3.46938887 0.13531158 -3.46938887 0.13531158 0 0 Z " fill="#0D0D0D" transform="translate(813.50390625,80.90234375)"/>
<path d="M0 0 C3.44146346 1.14715449 4.5328473 2.38772067 7 5 C7.9075 5.9075 8.815 6.815 9.75 7.75 C10.4925 8.4925 11.235 9.235 12 10 C11.01 10.495 11.01 10.495 10 11 C6.37 8.36 2.74 5.72 -1 3 C-0.67 2.01 -0.34 1.02 0 0 Z " fill="#161616" transform="translate(78,154)"/>
<path d="M0 0 C5.26053037 -0.31563182 8.44573816 0.33409063 13 3 C13 3.66 13 4.32 13 5 C8.71 4.34 4.42 3.68 0 3 C0 2.01 0 1.02 0 0 Z " fill="#171717" transform="translate(777,90)"/>
<path d="M0 0 C1.64826111 2.96687001 2.44271087 5.65626525 3 9 C1.68 9 0.36 9 -1 9 C-1 8.34 -1 7.68 -1 7 C-6.28 7 -11.56 7 -17 7 C-17 6.67 -17 6.34 -17 6 C-11.39 6 -5.78 6 0 6 C0 4.02 0 2.04 0 0 Z " fill="#1A1819" transform="translate(729,84)"/>
<path d="M0 0 C1.46067199 0.45082469 2.91848032 0.91093537 4.375 1.375 C5.18710937 1.63023438 5.99921875 1.88546875 6.8359375 2.1484375 C9 3 9 3 11 5 C9.824375 4.9690625 9.824375 4.9690625 8.625 4.9375 C6.01885039 4.81315937 6.01885039 4.81315937 4 6 C3.67 5.34 3.34 4.68 3 4 C1.02 4 -0.96 4 -3 4 C-2.67 3.34 -2.34 2.68 -2 2 C-1.34 2 -0.68 2 0 2 C0 1.34 0 0.68 0 0 Z " fill="#DB232C" transform="translate(456,84)"/>
<path d="M0 0 C1.32 0 2.64 0 4 0 C4 0.99 4 1.98 4 3 C6.31 3.66 8.62 4.32 11 5 C7.73454239 6.88391785 4.71888239 7.49287967 1 8 C0.67 5.36 0.34 2.72 0 0 Z " fill="#DB242A" transform="translate(298,88)"/>
<path d="M0 0 C0.99 2.31 1.98 4.62 3 7 C1.68 7.33 0.36 7.66 -1 8 C-1.45375 7.21625 -1.9075 6.4325 -2.375 5.625 C-3.88428742 2.96301969 -3.88428742 2.96301969 -6 1 C-3 0 -3 0 0 0 Z " fill="#1E1E1E" transform="translate(97,95)"/>
<path d="M0 0 C2.0625 0.4375 2.0625 0.4375 4 1 C3.67 1.99 3.34 2.98 3 4 C2.85426942 5.47965926 2.75336732 6.96403843 2.68359375 8.44921875 C2.64169922 9.29677734 2.59980469 10.14433594 2.55664062 11.01757812 C2.49766602 12.33918945 2.49766602 12.33918945 2.4375 13.6875 C2.39431641 14.58017578 2.35113281 15.47285156 2.30664062 16.39257812 C2.20064647 18.59490108 2.09857949 20.79733473 2 23 C1.67 23 1.34 23 1 23 C0.80354907 19.87549468 0.61936511 16.75038555 0.4375 13.625 C0.38142578 12.73554687 0.32535156 11.84609375 0.26757812 10.9296875 C0.21923828 10.07890625 0.17089844 9.228125 0.12109375 8.3515625 C0.0739624 7.56604004 0.02683105 6.78051758 -0.02172852 5.97119141 C0 4 0 4 1 2 C0.34 1.67 -0.32 1.34 -1 1 C-0.67 0.67 -0.34 0.34 0 0 Z " fill="#171616" transform="translate(993,81)"/>
<path d="M0 0 C3.96 0 7.92 0 12 0 C11.67 2.64 11.34 5.28 11 8 C10.67 8 10.34 8 10 8 C10 6.02 10 4.04 10 2 C7.03 2 4.06 2 1 2 C0.67 1.34 0.34 0.68 0 0 Z " fill="#0E0D0D" transform="translate(854,81)"/>
<path d="M0 0 C0.66 1.98 1.32 3.96 2 6 C-1.4375 5.1875 -1.4375 5.1875 -5 4 C-5.33 3.01 -5.66 2.02 -6 1 C-4 0 -4 0 0 0 Z " fill="#181616" transform="translate(130,115)"/>
<path d="M0 0 C0.33 0.66 0.66 1.32 1 2 C1.99 1.67 2.98 1.34 4 1 C6.26171875 1.12109375 6.26171875 1.12109375 8.6875 1.4375 C9.49574219 1.53933594 10.30398438 1.64117187 11.13671875 1.74609375 C11.75160156 1.82988281 12.36648438 1.91367188 13 2 C13 2.66 13 3.32 13 4 C8.71 4 4.42 4 0 4 C0 2.68 0 1.36 0 0 Z " fill="#131313" transform="translate(810,177)"/>
<path d="M0 0 C0.75023437 0.49113281 0.75023437 0.49113281 1.515625 0.9921875 C4.91792104 2.3723642 8.14350651 2.21362838 11.75 2.125 C12.79607422 2.11146484 12.79607422 2.11146484 13.86328125 2.09765625 C15.57566958 2.07419888 17.28788004 2.03833104 19 2 C18.67 2.66 18.34 3.32 18 4 C15.49419602 4.28696929 13.07644381 4.46732761 10.5625 4.5625 C5.63076626 4.59767285 5.63076626 4.59767285 1 6 C0.67 4.02 0.34 2.04 0 0 Z " fill="#CF252F" transform="translate(520,167)"/>
<path d="M0 0 C3 1 3 1 5 4 C5.70812814 6.32108669 6.38024152 8.65377147 7 11 C3.30209954 9.76736651 3.0645154 8.79947549 1.3125 5.4375 C0.87550781 4.61121094 0.43851562 3.78492187 -0.01171875 2.93359375 C-0.33785156 2.29550781 -0.66398437 1.65742187 -1 1 C-0.67 0.67 -0.34 0.34 0 0 Z " fill="#D32328" transform="translate(482,117)"/>
<path d="M0 0 C4 0 4 0 7 1 C5.7260411 3.03833424 4.38938077 5.03852126 3 7 C2.34 7 1.68 7 1 7 C1 5.68 1 4.36 1 3 C0.34 2.67 -0.32 2.34 -1 2 C-0.67 1.34 -0.34 0.68 0 0 Z " fill="#D9232A" transform="translate(408,163)"/>
<path d="M0 0 C0.33 1.32 0.66 2.64 1 4 C1.99 4.66 2.98 5.32 4 6 C0.375 9 0.375 9 -3 9 C-3 9.66 -3 10.32 -3 11 C-3.66 10.67 -4.32 10.34 -5 10 C-3.35 6.7 -1.7 3.4 0 0 Z " fill="#CE242A" transform="translate(251,121)"/>
<path d="M0 0 C1.64846769 0.44876616 3.29373455 0.90930488 4.9375 1.375 C5.85402344 1.63023438 6.77054688 1.88546875 7.71484375 2.1484375 C10 3 10 3 11 5 C9.02 5 7.04 5 5 5 C5 4.34 5 3.68 5 3 C3.68 3.33 2.36 3.66 1 4 C0.67 2.68 0.34 1.36 0 0 Z " fill="#D22629" transform="translate(533,120)"/>
<path d="M0 0 C0.82638376 2.89234315 1 4.88742431 1 8 C0.34 8 -0.32 8 -1 8 C-1 9.65 -1 11.3 -1 13 C-1.99 13.495 -1.99 13.495 -3 14 C-2.58846263 9.02906176 -2.20399168 4.55491614 0 0 Z " fill="#CD262D" transform="translate(268,110)"/>
<path d="M0 0 C2.97 0 5.94 0 9 0 C9 0.66 9 1.32 9 2 C10.65 2.33 12.3 2.66 14 3 C14.33 3.99 14.66 4.98 15 6 C14.38125 5.731875 13.7625 5.46375 13.125 5.1875 C8.82005607 3.5516213 4.41968448 2.28728674 0 1 C0 0.67 0 0.34 0 0 Z " fill="#CC2932" transform="translate(324,93)"/>
<path d="M0 0 C2.475 0.495 2.475 0.495 5 1 C5 1.66 5 2.32 5 3 C5.804375 3.268125 6.60875 3.53625 7.4375 3.8125 C8.283125 4.204375 9.12875 4.59625 10 5 C10.33 5.99 10.66 6.98 11 8 C6.40378078 6.5129879 3.53027653 4.20187872 0 1 C0 0.67 0 0.34 0 0 Z " fill="#D02628" transform="translate(280,169)"/>
<path d="M0 0 C3.26460973 1.80412643 4.88929795 2.83394693 7 6 C5.02 6.99 5.02 6.99 3 8 C2.67 7.01 2.34 6.02 2 5 C1.01 4.67 0.02 4.34 -1 4 C-0.67 2.68 -0.34 1.36 0 0 Z " fill="#D8252B" transform="translate(547,126)"/>
<path d="M0 0 C0 0.99 0 1.98 0 3 C-2.97 3.66 -5.94 4.32 -9 5 C-8.67 3.68 -8.34 2.36 -8 1 C-5.36 0.67 -2.72 0.34 0 0 Z " fill="#171516" transform="translate(72,85)"/>
<path d="M0 0 C0.66 0.33 1.32 0.66 2 1 C0.5836933 3.8326134 -1.14497293 4.01707833 -4.0625 5.125 C-4.98160156 5.47820312 -5.90070312 5.83140625 -6.84765625 6.1953125 C-7.55792969 6.46085937 -8.26820313 6.72640625 -9 7 C-9 6.01 -9 5.02 -9 4 C-7.54618103 3.30300448 -6.08677047 2.61766134 -4.625 1.9375 C-3.40683594 1.36322266 -3.40683594 1.36322266 -2.1640625 0.77734375 C-1.44992187 0.52082031 -0.73578125 0.26429687 0 0 Z " fill="#191718" transform="translate(760,81)"/>
<path d="M0 0 C2.97 0.33 5.94 0.66 9 1 C8.67 1.99 8.34 2.98 8 4 C6.02 4.33 4.04 4.66 2 5 C2 3.68 2 2.36 2 1 C1.34 0.67 0.68 0.34 0 0 Z " fill="#D62327" transform="translate(232,82)"/>
<path d="M0 0 C2.875 -0.125 2.875 -0.125 6 0 C6.66 0.66 7.32 1.32 8 2 C6.41727399 3.58272601 4.61965997 3.34735747 2.4375 3.5625 C1.19806641 3.68818359 1.19806641 3.68818359 -0.06640625 3.81640625 C-1.02353516 3.90728516 -1.02353516 3.90728516 -2 4 C-1.34 2.68 -0.68 1.36 0 0 Z " fill="#1A1819" transform="translate(823,130)"/>
<path d="M0 0 C0.33 0.66 0.66 1.32 1 2 C-2.96 2 -6.92 2 -11 2 C-11 1.34 -11 0.68 -11 0 C-7.17907588 -1.37553268 -3.91765889 -0.81309902 0 0 Z " fill="#120F11" transform="translate(604,179)"/>
<path d="M0 0 C3.3 0.33 6.6 0.66 10 1 C10 1.66 10 2.32 10 3 C9.071875 3.185625 9.071875 3.185625 8.125 3.375 C5.80879168 3.87197356 5.80879168 3.87197356 4 6 C2.68 4.02 1.36 2.04 0 0 Z " fill="#D8242A" transform="translate(304,169)"/>
<path d="M0 0 C0.33 0 0.66 0 1 0 C1.3125 3.3125 1.3125 3.3125 1 7 C-1.375 9 -1.375 9 -4 10 C-4.66 9.67 -5.32 9.34 -6 9 C-4.73046875 7.53515625 -3.4609375 6.0703125 -2.19140625 4.60546875 C-0.79128769 2.89287029 -0.79128769 2.89287029 0 0 Z " fill="#CE272C" transform="translate(404,154)"/>
<path d="M0 0 C0 1.65 0 3.3 0 5 C-2.64 4.34 -5.28 3.68 -8 3 C-7 1 -7 1 -5.125 0.375 C-3 0 -3 0 0 0 Z " fill="#D9242B" transform="translate(534,130)"/>
<path d="M0 0 C2.64 0.66 5.28 1.32 8 2 C8 3.98 8 5.96 8 8 C7.79375 7.38125 7.5875 6.7625 7.375 6.125 C5.45224112 3.15346355 3.33405473 2.86975341 0 2 C0 1.34 0 0.68 0 0 Z " fill="#151314" transform="translate(187,113)"/>
<path d="M0 0 C5.94 3.465 5.94 3.465 12 7 C10.68 7.33 9.36 7.66 8 8 C6 6.625 6 6.625 4 5 C1.85266073 4.29485154 1.85266073 4.29485154 0 4 C0 2.68 0 1.36 0 0 Z " fill="#CA2B33" transform="translate(252,161)"/>
<path d="M0 0 C5.875 4.625 5.875 4.625 7 8 C4 8 4 8 2.61328125 6.6875 C1.40885417 5.125 0.20442708 3.5625 -1 2 C-0.67 1.34 -0.34 0.68 0 0 Z " fill="#171616" transform="translate(732,158)"/>
<path d="M0 0 C2.475 0.99 2.475 0.99 5 2 C3.3545622 3.68762851 1.68711423 5.3540349 0 7 C-0.33 7 -0.66 7 -1 7 C-1.04254356 5.00045254 -1.04080783 2.99958364 -1 1 C-0.67 0.67 -0.34 0.34 0 0 Z " fill="#131212" transform="translate(985,81)"/>
<path d="M0 0 C1.32 0.66 2.64 1.32 4 2 C3.01 2.33 2.02 2.66 1 3 C1.309375 3.8971875 1.309375 3.8971875 1.625 4.8125 C2 7 2 7 0 10 C-1.49106457 7.01787087 -1.11941467 4.28390342 -1 1 C-0.67 0.67 -0.34 0.34 0 0 Z " fill="#1A1819" transform="translate(935,81)"/>
<path d="M0 0 C2.97 0.33 5.94 0.66 9 1 C7 3 7 3 4.8359375 3.1953125 C3.61777344 3.16050781 3.61777344 3.16050781 2.375 3.125 C1.55773437 3.10695313 0.74046875 3.08890625 -0.1015625 3.0703125 C-0.72804688 3.04710938 -1.35453125 3.02390625 -2 3 C-1.34 2.01 -0.68 1.02 0 0 Z " fill="#121011" transform="translate(87,70)"/>
<path d="M0 0 C0.99 0.66 1.98 1.32 3 2 C1.97407374 5.07777878 1.24530756 5.84450474 -1 8 C-1.66 8.99 -2.32 9.98 -3 11 C-2.53199289 6.94393835 -2.12046792 3.53411321 0 0 Z " fill="#CE272F" transform="translate(514,91)"/>
<path d="M0 0 C-0.66 1.65 -1.32 3.3 -2 5 C-2.66 3.68 -3.32 2.36 -4 1 C-5.65 1 -7.3 1 -9 1 C-9 0.34 -9 -0.32 -9 -1 C-5.23375329 -2.25541557 -3.62811066 -1.37061958 0 0 Z " fill="#161415" transform="translate(163,61)"/>
<path d="M0 0 C-0.33 0.66 -0.66 1.32 -1 2 C-3.32156597 2.40729228 -5.6568787 2.74438677 -8 3 C-8.33 2.34 -8.66 1.68 -9 1 C-3.375 -1.125 -3.375 -1.125 0 0 Z " fill="#1A1819" transform="translate(794,180)"/>
<path d="M0 0 C0 3 0 6 0 9 C-1.32 8.34 -2.64 7.68 -4 7 C-4 4 -4 4 -2 1.8125 C-1.34 1.214375 -0.68 0.61625 0 0 Z " fill="#C72A39" transform="translate(398,122)"/>
<path d="M0 0 C0.99 0.33 1.98 0.66 3 1 C1.1875 4 1.1875 4 -1 7 C-1.99 7 -2.98 7 -4 7 C-2.68 4.69 -1.36 2.38 0 0 Z " fill="#171617" transform="translate(626,104)"/>
<path d="M0 0 C1.98 0.99 1.98 0.99 4 2 C4 2.66 4 3.32 4 4 C4.66 4 5.32 4 6 4 C6.33 4.99 6.66 5.98 7 7 C6.01 7 5.02 7 4 7 C0 2.65714286 0 2.65714286 0 0 Z " fill="#181717" transform="translate(110,141)"/>
<path d="M0 0 C0.66 0 1.32 0 2 0 C2 0.99 2 1.98 2 3 C2.99 2.67 3.98 2.34 5 2 C5.33 3.65 5.66 5.3 6 7 C4.68 7 3.36 7 2 7 C1.34 4.69 0.68 2.38 0 0 Z " fill="#D8262C" transform="translate(249,104)"/>
<path d="M0 0 C0.33 0 0.66 0 1 0 C0.67 2.97 0.34 5.94 0 9 C-0.99 9.33 -1.98 9.66 -3 10 C-2.21302675 6.58978257 -1.12880057 3.31114834 0 0 Z " fill="#D3202A" transform="translate(402,113)"/>
<path d="M0 0 C2.97 0.495 2.97 0.495 6 1 C6 2.65 6 4.3 6 6 C1.125 3.375 1.125 3.375 0 0 Z " fill="#D8232D" transform="translate(240,167)"/>
<path d="M0 0 C0.99 0.33 1.98 0.66 3 1 C1.68 2.65 0.36 4.3 -1 6 C-1.99 5.67 -2.98 5.34 -4 5 C-2.68 3.35 -1.36 1.7 0 0 Z " fill="#191518" transform="translate(142,156)"/>
<path d="M0 0 C0.99 0.33 1.98 0.66 3 1 C3 1.99 3 2.98 3 4 C3.66 4 4.32 4 5 4 C5 5.65 5 7.3 5 9 C0.57142857 3.85714286 0.57142857 3.85714286 0 0 Z " fill="#CD2F31" transform="translate(268,152)"/>
<path d="M0 0 C1.77706209 2.66559313 2.87548273 5.0280615 4 8 C3.01 8 2.02 8 1 8 C0.26919734 6.02253397 -0.39421747 4.01927511 -1 2 C-0.67 1.34 -0.34 0.68 0 0 Z " fill="#1A1819" transform="translate(618,141)"/>
<path d="M0 0 C0.33 0 0.66 0 1 0 C1.36923077 4.55384615 1.36923077 4.55384615 -0.5 6.8125 C-0.995 7.204375 -1.49 7.59625 -2 8 C-2.33 6.02 -2.66 4.04 -3 2 C-2.34 2 -1.68 2 -1 2 C-0.67 1.34 -0.34 0.68 0 0 Z " fill="#D42229" transform="translate(95,130)"/>
<path d="M0 0 C1.46726798 3.81489674 0.43336419 6.29011622 -1 10 C-1.99 10 -2.98 10 -4 10 C-2.66666667 6.66666667 -1.33333333 3.33333333 0 0 Z " fill="#511518" transform="translate(98,128)"/>
<path d="M0 0 C0.66 0.99 1.32 1.98 2 3 C1.01 3 0.02 3 -1 3 C-1.103125 3.639375 -1.20625 4.27875 -1.3125 4.9375 C-1.539375 5.618125 -1.76625 6.29875 -2 7 C-2.99 7.33 -3.98 7.66 -5 8 C-3.8141763 4.62496331 -2.72426311 2.35277269 0 0 Z " fill="#CC292B" transform="translate(276,98)"/>
<path d="M0 0 C4.2742558 1.5830577 6.26531794 4.50568404 9 8 C5.56247993 6.4722133 2.81046312 4.49818944 0 2 C0 1.34 0 0.68 0 0 Z " fill="#C52B35" transform="translate(476,95)"/>
<path d="M0 0 C2.35171131 0.59861742 4.6859378 1.26924352 7 2 C7.33 2.66 7.66 3.32 8 4 C6.25 4.6875 6.25 4.6875 4 5 C1.75 3.6875 1.75 3.6875 0 2 C0 1.34 0 0.68 0 0 Z " fill="#211F1E" transform="translate(76,94)"/>
<path d="M0 0 C2.5 0.1875 2.5 0.1875 5 1 C5.66 1.99 6.32 2.98 7 4 C2.545 3.01 2.545 3.01 -2 2 C-1.34 1.34 -0.68 0.68 0 0 Z " fill="#181718" transform="translate(942,83)"/>
<path d="M0 0 C0.99 0.66 1.98 1.32 3 2 C0.69 3.65 -1.62 5.3 -4 7 C-4 5.68 -4 4.36 -4 3 C-2.68 3 -1.36 3 0 3 C0 2.01 0 1.02 0 0 Z " fill="#D12528" transform="translate(350,168)"/>
<path d="M0 0 C1.65 0.99 3.3 1.98 5 3 C4.67 3.66 4.34 4.32 4 5 C3.01 4.67 2.02 4.34 1 4 C0.67 4.99 0.34 5.98 0 7 C0 4.69 0 2.38 0 0 Z " fill="#E81D22" transform="translate(515,164)"/>
<path d="M0 0 C0.99 0.33 1.98 0.66 3 1 C4.1875 4.0625 4.1875 4.0625 5 7 C3.0625 6.3125 3.0625 6.3125 1 5 C0.25 2.375 0.25 2.375 0 0 Z " fill="#191718" transform="translate(609,153)"/>
<path d="M0 0 C2.64 0.66 5.28 1.32 8 2 C5.64561267 3.42944945 4.51967567 4.08661261 1.75 3.625 C1.1725 3.41875 0.595 3.2125 0 3 C0 2.01 0 1.02 0 0 Z " fill="#161415" transform="translate(168,127)"/>
<path d="M0 0 C0.66 0.33 1.32 0.66 2 1 C0.75023244 4.65316671 0.32901247 5.78065836 -3 8 C-1.125 1.125 -1.125 1.125 0 0 Z " fill="#100E0F" transform="translate(192,121)"/>
<path d="M0 0 C5.75 0.75 5.75 0.75 8 3 C6 4 6 4 2.875 3.0625 C1.92625 2.711875 0.9775 2.36125 0 2 C0 1.34 0 0.68 0 0 Z " fill="#171516" transform="translate(174,117)"/>
<path d="M0 0 C2.475 0.495 2.475 0.495 5 1 C5.33 2.65 5.66 4.3 6 6 C4.02 5.01 2.04 4.02 0 3 C0 2.01 0 1.02 0 0 Z " fill="#1A1718" transform="translate(948,96)"/>
<path d="M0 0 C6.875 3.75 6.875 3.75 8 6 C5.03 5.505 5.03 5.505 2 5 C2 4.01 2 3.02 2 2 C1.34 2 0.68 2 0 2 C0 1.34 0 0.68 0 0 Z " fill="#CF2731" transform="translate(468,89)"/>
</svg>
