<svg xmlns="http://www.w3.org/2000/svg" xmlns:xlink="http://www.w3.org/1999/xlink" width="100" zoomAndPan="magnify" viewBox="0 0 75 74.999997" height="100" preserveAspectRatio="xMidYMid meet" version="1.0"><defs><g/></defs><rect x="-7.5" width="90" fill="#ffffff" y="-7.5" height="89.999996" fill-opacity="1"/><rect x="-7.5" width="90" fill="#2b303a" y="-7.5" height="89.999996" fill-opacity="1"/><g fill="#f4e9e2" fill-opacity="1"><g transform="translate(14.777914, 59.249994)"><g><path d="M 26.625 0.25 C 22.289062 0.25 18.375 -0.722656 14.875 -2.671875 C 11.375 -4.628906 8.625 -7.328125 6.625 -10.765625 C 4.625 -14.203125 3.625 -18.046875 3.625 -22.296875 C 3.625 -26.546875 4.625 -30.390625 6.625 -33.828125 C 8.625 -37.265625 11.375 -39.957031 14.875 -41.90625 C 18.375 -43.863281 22.289062 -44.84375 26.625 -44.84375 C 29.6875 -44.84375 32.550781 -44.34375 35.21875 -43.34375 C 37.894531 -42.351562 40.191406 -40.878906 42.109375 -38.921875 L 40.765625 -37.515625 C 37.078125 -41.085938 32.382812 -42.875 26.6875 -42.875 C 22.78125 -42.875 19.234375 -41.96875 16.046875 -40.15625 C 12.867188 -38.351562 10.363281 -35.878906 8.53125 -32.734375 C 6.707031 -29.597656 5.796875 -26.117188 5.796875 -22.296875 C 5.796875 -18.472656 6.707031 -14.988281 8.53125 -11.84375 C 10.363281 -8.707031 12.867188 -6.234375 16.046875 -4.421875 C 19.234375 -2.617188 22.78125 -1.71875 26.6875 -1.71875 C 32.34375 -1.71875 37.035156 -3.523438 40.765625 -7.140625 L 42.109375 -5.734375 C 40.191406 -3.773438 37.90625 -2.285156 35.25 -1.265625 C 32.601562 -0.253906 29.726562 0.25 26.625 0.25 Z M 26.625 0.25 "/></g></g></g><path stroke-linecap="round" transform="matrix(0.75, 0, 0, 0.75, 6.708716, 68.25805)" fill="none" stroke-linejoin="miter" d="M 0.497754 0.499683 L 81.12276 0.499683 " stroke="#f4e9e2" stroke-width="1" stroke-opacity="1" stroke-miterlimit="4"/><path stroke-linecap="round" transform="matrix(0.75, 0, 0, 0.75, 9.94978, 5.991943)" fill="none" stroke-linejoin="miter" d="M 0.499252 0.500326 L 76.311758 0.500326 " stroke="#f4e9e2" stroke-width="1" stroke-opacity="1" stroke-miterlimit="4"/><path stroke-linecap="round" transform="matrix(0.00292803, 0.749994, -0.749994, 0.00292803, 68.177713, 5.902116)" fill="none" stroke-linejoin="miter" d="M 0.498359 0.499316 L 82.816707 0.497774 " stroke="#f4e9e2" stroke-width="1" stroke-opacity="1" stroke-miterlimit="4"/><path stroke-linecap="round" transform="matrix(0, 0.75, -0.75, 0, 7.324372, 56.333032)" fill="none" stroke-linejoin="miter" d="M 0.498666 0.500204 L 16.524709 0.500204 " stroke="#f4e9e2" stroke-width="1" stroke-opacity="1" stroke-miterlimit="4"/></svg>